G04 ================== begin FILE IDENTIFICATION RECORD ==================*
G04 Layout Name:  F:/3-MyLaptopDIR/POF-PSU-C2/PCB/PSU-C2-6Layers.brd*
G04 Film Name:    BOTTOM*
G04 File Format:  Gerber RS274X*
G04 File Origin:  Cadence Allegro 22.1-P001*
G04 Origin Date:  Wed Jun  4 14:44:14 2025*
G04 *
G04 Layer:  ETCH/BOTTOM*
G04 Layer:  PIN/BOTTOM*
G04 Layer:  VIA CLASS/BOTTOM*
G04 *
G04 Offset:    (0.0000 0.0000)*
G04 Mirror:    No*
G04 Mode:      Positive*
G04 Rotation:  0*
G04 FullContactRelief:  No*
G04 UndefLineWidth:     0.2540*
G04 ================== end FILE IDENTIFICATION RECORD ====================*
%FSLAX25Y25*MOMM*%
%IR0*IPPOS*OFA0.00000B0.00000*MIA0B0*SFA1.00000B1.00000*%
%ADD33R,1.X.35*%
%ADD15R,1.2X.6*%
%ADD16R,.6X1.2*%
%ADD28R,.9X1.*%
%ADD11R,2.2X.74*%
%ADD27C,.3*%
%ADD18R,.51X1.27*%
%ADD12C,.4*%
%ADD17C,.8*%
%ADD29R,1.X1.2*%
%ADD31R,1.8X1.*%
%ADD30R,1.05X2.2*%
%ADD26R,2.2X1.05*%
%ADD23R,1.X1.8*%
%ADD34R,1.8X1.5*%
%ADD35R,.6X.5*%
%ADD25R,1.5X1.8*%
%ADD36C,1.2*%
%ADD14R,.8X.6*%
%ADD10C,2.3*%
%ADD21R,.8X.25*%
%ADD13R,.6X.8*%
%ADD32R,.25X.8*%
%ADD20C,2.5*%
%ADD19R,.9X.8*%
%ADD24C,1.8*%
%ADD22R,.8X.9*%
%ADD37C,.2*%
%ADD38C,.13*%
%ADD39C,.22*%
%ADD40C,.5*%
%ADD41C,.15*%
%ADD42C,.6*%
%ADD43C,.25*%
%ADD44C,.26*%
%ADD45C,.35*%
%ADD46C,.28*%
%ADD47C,.127*%
%ADD48C,1.*%
G75*
%LPD*%
G75*
G36*
G01X240000Y-1525000D02*
X810000D01*
Y-2234000D01*
X240000D01*
Y-1525000D01*
G37*
G36*
G01Y-763000D02*
X810000D01*
Y-1472000D01*
X240000D01*
Y-763000D01*
G37*
G36*
G01X1560000Y-877500D02*
X1470700D01*
G02X1453630Y-870430I3J24149D01*
G01X1409770Y-826570D01*
G03X1392700Y-819500I-17069J-17070D01*
G01X1204000D01*
G02X1195460Y-815960I-3J12063D01*
G01X1191700Y-812200D01*
X1165000Y-785500D01*
Y-770000D01*
X1075000D01*
Y-850000D01*
X1165000D01*
X1169800D01*
X1178830Y-859030D01*
G03X1195900Y-866100I17077J17089D01*
G01X1397700D01*
G02X1414770Y-873170I-4J-24152D01*
G01X1437030Y-895430D01*
G03X1454100Y-902500I17070J17072D01*
G01X1479900D01*
X1560000D01*
Y-877500D01*
G37*
G36*
G01X1640000Y-525000D02*
X1720000D01*
Y-668700D01*
X1715600Y-673100D01*
Y-927800D01*
X1710000Y-933400D01*
Y-1150000D01*
X1650000D01*
Y-1044000D01*
G03X1642930Y-1026930I-24144J-1D01*
G01X1622670Y-1006670D01*
G02X1615600Y-989600I17066J17068D01*
G01Y-852500D01*
X1480000D01*
Y-827500D01*
X1615600D01*
Y-699900D01*
G02X1622670Y-682830I24140J1D01*
G01X1632930Y-672570D01*
G03X1640000Y-655500I-17060J17065D01*
G01Y-525000D01*
G37*
G36*
G01X1770000Y-927500D02*
X1850000D01*
Y-974200D01*
G02X1842930Y-991270I-24146J2D01*
G01X1817070Y-1017130D01*
G03X1810000Y-1034200I17069J-17069D01*
G01Y-1150000D01*
X1750000D01*
Y-1068200D01*
X1762930Y-1055270D01*
G03X1770000Y-1038200I-17082J17074D01*
G01Y-927500D01*
G37*
G36*
G01Y-877500D02*
X1897520D01*
G02X1931640Y-891640I-12J-48266D01*
G01X1941360Y-901360D01*
G02X1955500Y-935500I-34157J-34145D01*
G01Y-1029400D01*
G03X1962570Y-1046470I24140J-1D01*
G01X1979030Y-1062930D01*
G03X1996090Y-1070000I17064J17057D01*
G01X2245500D01*
Y-1210000D01*
G03X2255500Y-1220000I10000J0D01*
G01X2370000D01*
Y-1300000D01*
X2310000D01*
X2297070Y-1287070D01*
G03X2280000Y-1280000I-17074J-17082D01*
G01X2160000D01*
Y-1139500D01*
G03X2150000Y-1129500I-10000J0D01*
G01X1875500D01*
Y-1071900D01*
G02X1882570Y-1054830I24144J-1D01*
G01X1902830Y-1034570D01*
G03X1909900Y-1017500I-17066J17068D01*
G01Y-934580D01*
G03X1902830Y-917530I-24119J-11D01*
G01X1894870Y-909570D01*
G03X1877800Y-902500I-17069J-17069D01*
G01X1770000D01*
Y-877500D01*
G37*
G36*
G01X1770100Y-777500D02*
X2081400D01*
G02X2132610Y-798710I-4J-72436D01*
G01X2231400Y-897500D01*
X2300000D01*
Y-1002500D01*
X2080000D01*
Y-897500D01*
X2035340Y-852840D01*
G03X2001200Y-838700I-34148J-34163D01*
G01X1987300D01*
G02X1953160Y-824560I-1J48281D01*
G01X1945240Y-816640D01*
G03X1911100Y-802500I-34140J-34144D01*
G01X1770000D01*
Y-777600D01*
X1770100Y-777500D01*
G37*
G36*
G01X2047700Y-457500D02*
X2300000D01*
Y-562500D01*
X2080000D01*
X1936640Y-705860D01*
G02X1902500Y-720000I-34141J34148D01*
G01X1870000D01*
G03X1850000Y-740000I0J-20000D01*
G01Y-752500D01*
X1770000D01*
Y-727500D01*
X1780000Y-717500D01*
Y-525000D01*
X1940200D01*
G03X1974340Y-510860I-1J48286D01*
G01X2013560Y-471640D01*
G02X2047700Y-457500I34137J-34137D01*
G37*
G36*
G01X1925000Y-2535000D02*
X2109300D01*
G02X2129300Y-2555000I0J-20000D01*
G01Y-2725000D01*
G02X2109300Y-2745000I-20000J0D01*
G01X1925000D01*
G02X1905000Y-2725000I0J20000D01*
G01Y-2555000D01*
G02X1925000Y-2535000I20000J0D01*
G37*
G36*
G01X2490000Y-2237500D02*
X2315600D01*
G03X2281460Y-2251640I3J-48291D01*
G01X2175600Y-2357500D01*
X2010000D01*
Y-2462500D01*
X2230000D01*
Y-2400100D01*
X2324860Y-2305240D01*
G02X2359000Y-2291100I34137J-34137D01*
G01X2490000D01*
Y-2237500D01*
G37*
G36*
G01Y-2127500D02*
X2410000D01*
X2319140Y-2036640D01*
G03X2285000Y-2022500I-34138J-34139D01*
G01X2010000D01*
Y-1917500D01*
X2277500D01*
G03X2311640Y-1903360I5J48273D01*
G01X2360000Y-1855000D01*
Y-1765000D01*
X2440000D01*
Y-1860000D01*
G03X2454140Y-1894140I48269J-6D01*
G01X2470000Y-1910000D01*
Y-2053300D01*
Y-2102500D01*
X2490000D01*
Y-2127500D01*
G37*
G36*
G01X2655000Y-2730000D02*
X2255000D01*
Y-2550000D01*
X2405000D01*
X2450860Y-2504140D01*
G03X2465000Y-2470000I-34147J34141D01*
G01Y-2360000D01*
X2555000D01*
Y-2498300D01*
G03X2569140Y-2532440I48264J-9D01*
G01X2586700Y-2550000D01*
X2655000D01*
Y-2730000D01*
G37*
G36*
G01X2500000Y-1765000D02*
X2580000D01*
Y-1864200D01*
G02X2576460Y-1872740I-12058J-5D01*
G01X2572940Y-1876260D01*
G03X2569400Y-1884800I8528J-8539D01*
G01Y-1909400D01*
X2570000Y-1910000D01*
Y-2013200D01*
X2630360Y-2073560D01*
G02X2644500Y-2107700I-34143J-34140D01*
G01Y-2242400D01*
X2544500D01*
Y-2237500D01*
G03X2524500Y-2217500I-20000J0D01*
G01X2410000D01*
Y-2147500D01*
X2524500D01*
G03X2544500Y-2127500I0J20000D01*
G01Y-2081900D01*
G03X2530360Y-2047760I-48267J7D01*
G01X2524140Y-2041540D01*
G02X2510000Y-2007400I34149J34142D01*
G01Y-1870000D01*
G03X2506460Y-1861460I-12076J-2D01*
G01X2500000Y-1855000D01*
Y-1765000D01*
G37*
G36*
G01X2480000Y-1610000D02*
X2580000D01*
G02X2597070Y-1617070I1J-24139D01*
G01X2622930Y-1642930D01*
G03X2640000Y-1650000I17072J17076D01*
G01X2680000D01*
G02X2690000Y-1660000I0J-10000D01*
G01Y-1700000D01*
G02X2680000Y-1710000I-10000J0D01*
G01X2470000D01*
Y-1620000D01*
G02X2480000Y-1610000I10000J0D01*
G37*
G36*
G01X2410000Y-1370000D02*
X2660000D01*
G02X2670000Y-1380000I0J-10000D01*
G01Y-1440000D01*
G02X2660000Y-1450000I-10000J0D01*
G01X2410000D01*
Y-1370000D01*
G37*
G36*
G01X3005000Y-2555000D02*
Y-2725000D01*
G02X2985000Y-2745000I-20000J0D01*
G01X2799700D01*
G02X2779700Y-2725000I0J20000D01*
G01Y-2555000D01*
G02X2799700Y-2535000I20000J0D01*
G01X2985000D01*
G02X3005000Y-2555000I0J-20000D01*
G37*
G36*
G01X2770000Y-2237500D02*
X2690000D01*
Y-2275000D01*
G02X2675860Y-2309140I-48301J7D01*
G01X2625000Y-2360000D01*
Y-2460000D01*
X2715000D01*
Y-2360000D01*
X2755860Y-2319140D01*
G03X2770000Y-2285000I-34148J34142D01*
G01Y-2237500D01*
G37*
G36*
G01Y-2127500D02*
X2690000D01*
Y-2074800D01*
G03X2686460Y-2066260I-12072J0D01*
G01X2643540Y-2023340D01*
G02X2640000Y-2014800I8531J8540D01*
G01Y-1770000D01*
X2700000D01*
Y-2009000D01*
G03X2703540Y-2017540I12072J0D01*
G01X2766460Y-2080460D01*
G02X2770000Y-2089000I-8527J-8538D01*
G01Y-2127500D01*
G37*
G36*
G01X3380000Y-1070000D02*
X3460000D01*
Y-1260000D01*
X3380000D01*
Y-1210500D01*
X3358040Y-1188540D01*
G03X3323900Y-1174400I-34133J-34128D01*
G01X3172500D01*
Y-1310000D01*
X3147500D01*
Y-1174400D01*
X3067800D01*
Y-1160000D01*
X2855000D01*
X2854140Y-1160860D01*
G03X2840000Y-1195000I34113J-34127D01*
G01Y-1328000D01*
G03X2854140Y-1362140I48291J3D01*
G01X2932860Y-1440860D01*
G03X2967000Y-1455000I34139J34141D01*
G01X3110000D01*
Y-1545000D01*
X2938700D01*
G02X2904560Y-1530860I-1J48281D01*
G01X2781140Y-1407440D01*
G02X2767000Y-1373300I34145J34140D01*
G01Y-1149800D01*
G02X2781140Y-1115660I48279J2D01*
G01X2802660Y-1094140D01*
G02X2836800Y-1080000I34143J-34151D01*
G01X3067800D01*
Y-1074400D01*
X3380000D01*
Y-1070000D01*
G37*
G36*
G01X2847500Y-550000D02*
X2952500D01*
Y-875500D01*
G03X2966640Y-909640I48295J4D01*
G01X2982860Y-925860D01*
G03X3017000Y-940000I34144J34153D01*
G01X3072500D01*
Y-1020000D01*
X2847500D01*
Y-550000D01*
G37*
G36*
G01X3072500Y-1230000D02*
X2880000D01*
Y-1310000D01*
X3072500D01*
Y-1230000D01*
G37*
G36*
G01X3122500Y-1020000D02*
Y-931400D01*
G02X3136640Y-897260I48320J-15D01*
G01X3249760Y-784140D01*
G02X3283900Y-770000I34155J-34181D01*
G01X3392500D01*
Y-550000D01*
X3287500D01*
Y-638800D01*
G02X3273360Y-672940I-48276J-3D01*
G01X3111640Y-834660D01*
G03X3097500Y-868800I34138J-34138D01*
G01Y-1020000D01*
X3122500D01*
G37*
G36*
G01X3440000Y-1540000D02*
Y-1410000D01*
X3310000D01*
Y-1540000D01*
X3440000D01*
G37*
G36*
G01X3197500Y-1230000D02*
X3222500D01*
Y-1336300D01*
X3250000Y-1363800D01*
Y-1372700D01*
Y-1545000D01*
X3170000D01*
Y-1424300D01*
Y-1398900D01*
X3184700Y-1384200D01*
Y-1349100D01*
X3197500Y-1336300D01*
Y-1230000D01*
G37*
G36*
G01X3460000Y-1030000D02*
X3347300D01*
X3337300Y-1020000D01*
X3247500D01*
Y-940000D01*
X3289500D01*
X3324900Y-975400D01*
X3374600D01*
X3380000Y-970000D01*
X3460000D01*
Y-1030000D01*
G37*
G36*
G01X3197500Y-1020000D02*
Y-927000D01*
G02X3211640Y-892860I48305J-9D01*
G01X3226260Y-878240D01*
G02X3260400Y-864100I34136J-34135D01*
G01X3398800D01*
G03X3432940Y-849960I-6J48299D01*
G01X3465000Y-817900D01*
Y-780000D01*
X3553700D01*
G02X3570770Y-787070I-4J-24152D01*
G01X3576630Y-792930D01*
G03X3593700Y-800000I17067J17066D01*
G01X3710000D01*
G02X3744140Y-814140I3J-48278D01*
G01X3770000Y-840000D01*
X3850000D01*
Y-900000D01*
X3769800D01*
G02X3735660Y-885860I-3J48278D01*
G01X3723940Y-874140D01*
G03X3689800Y-860000I-34127J-34114D01*
G01X3625100D01*
X3604140Y-880960D01*
G03X3590000Y-915100I34128J-34133D01*
G01Y-1010000D01*
X3530000D01*
Y-930000D01*
X3518040Y-918040D01*
G03X3483900Y-903900I-34128J-34114D01*
G01X3251900D01*
G03X3234830Y-910970I-9J-24121D01*
G01X3228770Y-917030D01*
G03X3221700Y-934100I17099J-17081D01*
G01Y-938900D01*
X3222500Y-939700D01*
Y-1020000D01*
X3197500D01*
G37*
G36*
G01X3530000Y-2080000D02*
X3776700D01*
G02X3810840Y-2094140I1J-48281D01*
G01X3872560Y-2155860D01*
G03X3906700Y-2170000I34144J34153D01*
G01X4095000D01*
Y-2235000D01*
X4054140Y-2275860D01*
G03X4040000Y-2310000I34131J-34134D01*
G01Y-2400000D01*
X3980000D01*
Y-2320000D01*
X3964140Y-2304140D01*
G03X3930000Y-2290000I-34134J-34129D01*
G01X3810000D01*
Y-2197800D01*
G03X3795860Y-2163660I-48314J-12D01*
G01X3786340Y-2154140D01*
G03X3752200Y-2140000I-34137J-34136D01*
G01X3629500D01*
G03X3609500Y-2160000I0J-20000D01*
G01Y-2268600D01*
X3530000D01*
Y-2080000D01*
G37*
G36*
G01X3485000Y-505600D02*
X3535000D01*
G02X3555000Y-525600I0J-20000D01*
G01Y-625000D01*
G03X3562070Y-642070I24138J-2D01*
G01X3612930Y-692930D01*
G03X3630000Y-700000I17072J17078D01*
G01X3700000D01*
Y-760000D01*
X3620000D01*
X3605570Y-745570D01*
G03X3588500Y-738500I-17070J-17073D01*
G01X3583500D01*
G02X3566430Y-731430I-14J24108D01*
G01X3555000Y-720000D01*
X3465000D01*
Y-525600D01*
G02X3485000Y-505600I20000J0D01*
G37*
G36*
G01X4095000Y-2135000D02*
X3927400D01*
G02X3893260Y-2120860I1J48287D01*
G01X3848640Y-2076240D01*
G02Y-2047960I14145J14140D01*
G01X3849160Y-2047440D01*
G02X3883300Y-2033300I34154J-34178D01*
G01X3894300D01*
G02X3928440Y-2047440I-9J-48306D01*
G01X3948930Y-2067930D01*
G03X3966000Y-2075000I17066J17063D01*
G01X4095000D01*
Y-2135000D01*
G37*
G36*
G01X3700000Y-700000D02*
X3767300D01*
G02X3787300Y-720000I0J-20000D01*
G01Y-740000D01*
G02X3767300Y-760000I-20000J0D01*
G01X3700000D01*
Y-700000D01*
G37*
G36*
G01X4350000Y-2570000D02*
X4500000D01*
Y-2770000D01*
X4226200D01*
G02X4196200Y-2740000I0J30000D01*
G01Y-2660000D01*
G02X4226200Y-2630000I30000J0D01*
G01X4320000D01*
G03X4350000Y-2600000I0J30000D01*
G01Y-2570000D01*
G37*
G36*
G01X4020000Y-1798500D02*
X4380000D01*
Y-1860000D01*
X4210000D01*
G03X4175860Y-1874140I0J-48284D01*
G01X4109140Y-1940860D01*
G03X4095000Y-1975000I34139J-34138D01*
G01Y-2040000D01*
X3975000D01*
Y-1935000D01*
G02X3989140Y-1900860I48298J-6D01*
G01X4005860Y-1884140D01*
G03X4020000Y-1850000I-34147J34141D01*
G01Y-1798500D01*
G37*
G36*
G01X4240000Y-2230000D02*
X4480000D01*
G03X4514140Y-2215860I1J48281D01*
G01X4680000Y-2050000D01*
X4750000D01*
Y-1960000D01*
X4530000D01*
Y-2070000D01*
G02X4515860Y-2104140I-48292J3D01*
G01X4464140Y-2155860D01*
G02X4430000Y-2170000I-34137J34138D01*
G01X4240000D01*
Y-2230000D01*
G37*
G36*
G01X4400000Y-1640000D02*
X4570000D01*
G03X4604140Y-1625860I3J48278D01*
G01X4615860Y-1614140D01*
G02X4650000Y-1600000I34127J-34114D01*
G01X4730000D01*
Y-1540000D01*
X4500000D01*
G03X4465860Y-1554140I8J-48304D01*
G01X4460000Y-1560000D01*
X4400000D01*
Y-1640000D01*
G37*
G36*
G01X4530000Y-2400000D02*
X4820000D01*
G02X4840000Y-2420000I0J-20000D01*
G01Y-2760000D01*
X4680000D01*
Y-2560000D01*
G03X4665860Y-2525860I-48319J-14D01*
G01X4664140Y-2524140D01*
G03X4630000Y-2510000I-34134J-34129D01*
G01X4530000D01*
Y-2400000D01*
G37*
G36*
G01X5300000Y-640000D02*
X5800000D01*
G02X5850000Y-690000I0J-50000D01*
G01Y-760000D01*
G02X5800000Y-810000I-50000J0D01*
G01X5110000D01*
G02X5075860Y-795860I-6J48269D01*
G01X5060000Y-780000D01*
X4920000D01*
Y-720000D01*
X5140000D01*
X5145860Y-725860D01*
G03X5180000Y-740000I34148J34164D01*
G01X5240000D01*
G03X5274140Y-725860I3J48278D01*
G01X5300000Y-700000D01*
Y-640000D01*
G37*
G36*
G01X5290000Y-1910000D02*
X5500000D01*
Y-2010000D01*
X5650000D01*
Y-2100000D01*
X5290000D01*
Y-1910000D01*
G37*
G36*
G01X5200000Y-210000D02*
X5846600D01*
Y-294300D01*
X5730000D01*
Y-465000D01*
X5300000D01*
Y-260000D01*
X5200000D01*
Y-210000D01*
G37*
G36*
G01X5390000Y-2550000D02*
X5720000D01*
Y-2730000D01*
G02X5700000Y-2750000I-20000J0D01*
G01X5410000D01*
G02X5390000Y-2730000I0J20000D01*
G01Y-2550000D01*
G37*
G36*
G01X5590000Y-1510000D02*
X5730000D01*
G02X5750000Y-1530000I0J-20000D01*
G01Y-1540000D01*
G02X5735860Y-1574140I-48288J1D01*
G01X5684140Y-1625860D01*
G03X5670000Y-1660000I34148J-34142D01*
G01Y-1730000D01*
X5570000D01*
Y-1530000D01*
G02X5590000Y-1510000I20000J0D01*
G37*
G36*
G01X5390000Y-1270000D02*
X5720000D01*
Y-1330000D01*
X5670000D01*
Y-1450000D01*
G02X5650000Y-1470000I-20000J0D01*
G01X5410000D01*
G02X5390000Y-1450000I0J20000D01*
G01Y-1270000D01*
G37*
G36*
G01X5640000Y-2510000D02*
Y-2340000D01*
G02X5660000Y-2320000I20000J0D01*
G01X5760000D01*
G02X5780000Y-2340000I0J-20000D01*
G01Y-2490000D01*
G02X5760000Y-2510000I-20000J0D01*
G01X5640000D01*
G37*
G36*
G01Y-1230000D02*
Y-1110000D01*
G02X5660000Y-1090000I20000J0D01*
G01X5780000D01*
G02X5800000Y-1110000I0J-20000D01*
G01Y-1210000D01*
G02X5780000Y-1230000I-20000J0D01*
G01X5640000D01*
G37*
G36*
G01X8190000Y-2033000D02*
X8410000D01*
Y-2410000D01*
G02X8390000Y-2430000I-20000J0D01*
G01X8210000D01*
G02X8190000Y-2410000I0J20000D01*
G01Y-2033000D01*
G37*
G36*
G01X8540000D02*
X8760000D01*
Y-2421700D01*
G02X8740000Y-2441700I-20000J0D01*
G01X8560000D01*
G02X8540000Y-2421700I0J20000D01*
G01Y-2033000D01*
G37*
G54D10*
X300000Y-2700000D03*
Y-300000D03*
X8700000Y-2700000D03*
Y-300000D03*
G54D20*
X1390000Y-2525000D03*
Y-1750000D03*
Y-1250000D03*
Y-475000D03*
X3810000Y-2525000D03*
Y-1750000D03*
Y-1250000D03*
Y-475000D03*
G54D11*
X350000Y-2197000D03*
Y-2070000D03*
Y-1943000D03*
Y-1816000D03*
Y-1689000D03*
Y-1562000D03*
Y-1435000D03*
Y-1308000D03*
Y-1181000D03*
Y-1054000D03*
Y-927000D03*
Y-800000D03*
X700000Y-2197000D03*
Y-2070000D03*
Y-1943000D03*
Y-1816000D03*
Y-1689000D03*
Y-1562000D03*
Y-1435000D03*
Y-1308000D03*
Y-1181000D03*
Y-1054000D03*
Y-927000D03*
Y-800000D03*
X8300000Y-2197000D03*
Y-2070000D03*
Y-1943000D03*
Y-1816000D03*
Y-1689000D03*
Y-1562000D03*
Y-1435000D03*
Y-1308000D03*
Y-1181000D03*
Y-1054000D03*
Y-927000D03*
Y-800000D03*
X8650000Y-2197000D03*
Y-2070000D03*
Y-1943000D03*
Y-1816000D03*
Y-1689000D03*
Y-1562000D03*
Y-1435000D03*
Y-1308000D03*
Y-1181000D03*
Y-1054000D03*
Y-927000D03*
Y-800000D03*
G54D21*
X1520000Y-840000D03*
Y-890000D03*
Y-940000D03*
Y-740000D03*
Y-790000D03*
X1810000Y-840000D03*
Y-890000D03*
Y-940000D03*
Y-740000D03*
Y-790000D03*
X2450000Y-2250000D03*
Y-2205000D03*
Y-2160000D03*
Y-2115000D03*
X2730000Y-2250000D03*
Y-2205000D03*
Y-2160000D03*
Y-2115000D03*
G54D30*
X2900000Y-660000D03*
X3340000D03*
G54D12*
G01X620000Y-2690000D02*
Y-2752700D01*
G01Y-2690000D02*
X547300D01*
G01X530000Y-2460000D02*
X467300D01*
G01X530000D02*
Y-2387300D01*
G01X820000Y-2480000D02*
Y-2417300D01*
G01Y-2480000D02*
X912700D01*
G01X990000Y-1990000D02*
X917300D01*
G01X970000Y-1840000D02*
X890000D01*
G01X959500Y-1249500D02*
X1024500D01*
X1065000Y-1290000D01*
Y-1380000D01*
G01X959500Y-931000D02*
Y-1109500D01*
G01Y-1110500D02*
Y-1169500D01*
G01D02*
Y-1170500D01*
G01D02*
Y-1249500D01*
G01X732700Y-510000D02*
X850000D01*
X880900Y-540900D01*
Y-586600D01*
G01X1072400D02*
Y-624600D01*
X959500Y-737500D01*
Y-831000D01*
G01X978500Y-315830D02*
X1035110D01*
X1040940Y-310000D01*
X1080000D01*
G01X1060000Y-2670000D02*
Y-2590000D01*
G01X1120000Y-2380000D02*
Y-2450000D01*
X1090000Y-2480000D01*
X1060000D01*
G01X990000Y-2320000D02*
X1062700D01*
G01X990000Y-2090000D02*
Y-2220000D01*
G01X1240000Y-2050000D02*
X1332700D01*
G01X1240000D02*
Y-1987300D01*
G01X1160000Y-1380000D02*
X1222700D01*
G01X1120000Y-950000D02*
X1196900D01*
G01D02*
X1260000D01*
G01X2200000Y-1350000D02*
X1830000D01*
X1730000Y-1250000D01*
X1390000D01*
G01X1260000Y-730000D02*
Y-657300D01*
G01X1690000Y-1800000D02*
X1617300D01*
G01X1690000Y-1570000D02*
Y-1700000D01*
G01X1749060Y-1470000D02*
X1690000D01*
G01X1830000Y-1480000D02*
X1759060D01*
X1749060Y-1470000D01*
G01X1930000Y-1790000D02*
X1990000D01*
G01D02*
X2000940D01*
X2010940Y-1800000D01*
X2070000D01*
G01Y-1700000D02*
Y-1629060D01*
X2060000Y-1619060D01*
Y-1560000D01*
G01X1830000Y-1790000D02*
Y-1862700D01*
G01X1988200Y-1199500D02*
X1969560D01*
X1969060Y-1200000D01*
X1915500D01*
G01X1988200Y-1199500D02*
X2055500D01*
G01X2200000Y-1350000D02*
Y-1400000D01*
X2210000Y-1410000D01*
X2340000D01*
G01X2345500Y-1110000D02*
X2418200D01*
G01X2440000Y-1260000D02*
Y-1187300D01*
G01X2770000Y-1810000D02*
Y-1722400D01*
G01X3164200Y-1880000D02*
X3200000Y-1915800D01*
Y-2100000D01*
X3160000Y-2140000D01*
X3080000D01*
G01X3070500Y-1980000D02*
X3000000D01*
G01D02*
X2929000D01*
G01X3070500Y-1880000D02*
X3164200D01*
G01X3570000Y-2010000D02*
X3497300D01*
G01X3610000Y-1940000D02*
X3570000Y-1980000D01*
G01D02*
Y-2010000D01*
G01Y-1980000D02*
X3530000Y-1940000D01*
G01X4035000Y-2105000D02*
X4127700D01*
G01X4340000Y-1728500D02*
X4260560D01*
X4259060Y-1730000D01*
X4200000D01*
G01X4280000Y-1199500D02*
X4207300D01*
G01X4270000Y-1050000D02*
X4212700D01*
G01D02*
X4140000D01*
G01X4330000Y-2360000D02*
X4392700D01*
G01X4330000D02*
Y-2432700D01*
G01X4340000Y-1728500D02*
Y-1669060D01*
X4330000Y-1659060D01*
Y-1600000D01*
G01X4340000Y-1728500D02*
X4412700D01*
G01X4280000Y-1199500D02*
Y-1136800D01*
G01X4510000Y-1050000D02*
X4370000D01*
G01X4690000Y-1840000D02*
X4752700D01*
G01X4690000D02*
Y-1767300D01*
G01Y-1670000D02*
X4830000D01*
G01X4610000Y-1440000D02*
X4672700D01*
G01X4750000D02*
X4790000D01*
X4830000Y-1480000D01*
Y-1570000D01*
G01X4730000Y-1050000D02*
Y-1122700D01*
G01X4640000Y-1300000D02*
X4730000D01*
G01X4750000Y-770000D02*
X4780000D01*
X4820000Y-730000D01*
Y-650000D01*
G01X5030000Y-2670000D02*
X4950000D01*
G01X4947300Y-2260000D02*
X5040000D01*
G01X5030000Y-2050000D02*
X4950000D01*
G01X5030000Y-1400000D02*
X4940000D01*
G01X5040000Y-1620000D02*
X4950000D01*
G01X4830000Y-1122700D02*
Y-1050000D01*
G01D02*
Y-910000D01*
G01X5040000Y-970000D02*
X4947300D01*
G01D02*
Y-1040000D01*
G01X4960000Y-650000D02*
X4820000D01*
G01X5100000D02*
X4960000D01*
G01X4820000Y-550000D02*
X4980000D01*
G01D02*
X5019060D01*
X5030000Y-539060D01*
Y-470000D01*
G01X4892700Y-412700D02*
Y-357300D01*
X4920000Y-330000D01*
X5030000D01*
G01X5130000Y-2670000D02*
Y-2760000D01*
G01Y-2050000D02*
Y-2142300D01*
X5180000Y-2192300D01*
Y-2260000D01*
G01X5480000Y-2290000D02*
X5370940D01*
X5340940Y-2260000D01*
X5285000D01*
G01D02*
X5180000D01*
G01X5285000D02*
X5290000Y-2265000D01*
Y-2400000D01*
G01X5210000Y-2410000D02*
X5220000Y-2400000D01*
X5290000D01*
G01X5110000Y-1880000D02*
X5190000D01*
X5200000Y-1870000D01*
G01Y-1130000D02*
X5220000Y-1110000D01*
X5290000D01*
G01D02*
Y-1020940D01*
X5239060Y-970000D01*
X5180000D01*
G01X5290000Y-1110000D02*
X5365000D01*
X5465000Y-1010000D01*
X5480000D01*
G01X5130000Y-470000D02*
X5190000D01*
X5217300Y-497300D01*
Y-674700D01*
G01X5130000Y-330000D02*
Y-470000D01*
G01X5650000Y-1870000D02*
X5610000Y-1830000D01*
Y-1800000D01*
G01Y-1940000D02*
Y-1910000D01*
X5650000Y-1870000D01*
G01X5760000Y-2210000D02*
Y-2059060D01*
X5770000Y-2049060D01*
Y-2010000D01*
G01X5970000Y-1620000D02*
X5894350D01*
X5874350Y-1640000D01*
G01X6150000Y-2720000D02*
X5990000D01*
X5980000Y-2710000D01*
Y-2620000D01*
G01Y-2520000D02*
Y-2432300D01*
X5952700Y-2405000D01*
G01X6280000Y-1840000D02*
Y-1970000D01*
X6180000Y-2070000D01*
X6120000D01*
G01Y-1970000D02*
X6071300D01*
X6031300Y-2010000D01*
G01X5960000Y-2000000D02*
X5970000Y-2010000D01*
X6031300D01*
G01X5970000Y-1620000D02*
Y-1690940D01*
X5980000Y-1700940D01*
Y-1750000D01*
G01X6168020Y-1742280D02*
X6127600D01*
X6119880Y-1750000D01*
G01D02*
Y-1819880D01*
X6140000Y-1840000D01*
G01X6119880Y-1750000D02*
X5980000D01*
G01X6070000Y-1620000D02*
X6202050D01*
X6277100Y-1695050D01*
Y-1742750D01*
G01X6290000Y-1020000D02*
X6150000D01*
G01X6122400Y-586600D02*
X6180600D01*
G01X6100000Y-297300D02*
X6047030D01*
X6028500Y-315830D01*
G01X6419000Y-2680000D02*
Y-2760000D01*
G01X6420000Y-2540000D02*
Y-2459560D01*
X6420500Y-2459060D01*
Y-2400000D01*
G01D02*
Y-2337800D01*
X6410000Y-2327300D01*
G01X6340000Y-1700000D02*
Y-1640000D01*
X6370000Y-1610000D01*
G01X6280000Y-1840000D02*
X6277100Y-1837100D01*
Y-1742750D01*
G01X6340000Y-1700000D02*
Y-1726350D01*
X6318390Y-1747960D01*
X6282310D01*
X6277100Y-1742750D01*
G01X6460000Y-1850000D02*
X6357700D01*
X6347700Y-1840000D01*
X6280000D01*
G01X6290000Y-1110000D02*
X6380000D01*
G01X6290000D02*
Y-1020000D01*
G01D02*
Y-955400D01*
X6335900Y-909500D01*
X6450000D01*
G01X6430000Y-297300D02*
X6377030D01*
X6358500Y-315830D01*
G01X6520000Y-2540000D02*
Y-2619940D01*
X6519000Y-2620940D01*
Y-2680000D01*
G01X6662000Y-2510800D02*
X6629200D01*
X6600000Y-2540000D01*
X6520000D01*
G01X6662000Y-2510800D02*
Y-2462000D01*
X6630000Y-2430000D01*
G01X6520500Y-2400000D02*
Y-2327300D01*
G01X6680000Y-1980000D02*
Y-1920000D01*
X6720000Y-1880000D01*
Y-1840000D01*
G01X6570000Y-2030000D02*
Y-2020000D01*
X6610000Y-1980000D01*
X6680000D01*
G01Y-2080000D02*
Y-2120000D01*
X6666870Y-2133130D01*
X6552930D01*
X6515200Y-2095400D01*
G01X6470000Y-1610000D02*
Y-1690940D01*
X6460000Y-1700940D01*
Y-1750000D01*
G01X6610000Y-1700000D02*
Y-1720000D01*
X6580000Y-1750000D01*
G01D02*
Y-1840840D01*
X6579800Y-1841040D01*
Y-1880100D01*
G01X6580000Y-1750000D02*
X6460000D01*
G01X6870000Y-1390000D02*
X6690000D01*
G01D02*
X6660000D01*
X6450000Y-1180000D01*
Y-1110000D01*
G01X6690000Y-1390000D02*
X6610000Y-1470000D01*
Y-1600000D01*
G01X6640000Y-1160000D02*
X6600000D01*
X6560000Y-1120000D01*
G01X6590000Y-910000D02*
X6730000D01*
G01X6590000Y-1010000D02*
X6730000D01*
G01X6450000Y-1009500D02*
X6530440D01*
X6530940Y-1010000D01*
X6590000D01*
G01X6590900Y-586600D02*
Y-669160D01*
X6621740Y-700000D01*
X6682700D01*
X6750000Y-767300D01*
Y-820000D01*
G01X6452400Y-586600D02*
X6510600D01*
G01X6760000Y-282230D02*
X6701200D01*
X6688500Y-294930D01*
Y-315830D01*
G01X6900000Y-2420000D02*
Y-2560000D01*
G01X6760000Y-2680000D02*
X6888240D01*
X6890940Y-2682700D01*
X6930000D01*
G01X6940000Y-2240000D02*
X6870000D01*
G01X6900000Y-2420000D02*
Y-2347300D01*
G01X6820000Y-1840000D02*
Y-1907900D01*
X6874900Y-1962800D01*
G01X6950000Y-1750000D02*
X6940000D01*
X6910000Y-1720000D01*
X6840000D01*
G01D02*
X6760000D01*
G01X6950000Y-1850000D02*
X6879060D01*
X6869060Y-1840000D01*
X6820000D01*
G01X7180000Y-1850000D02*
Y-1772700D01*
X6870000Y-1462700D01*
Y-1390000D01*
G01X6880000Y-1240000D02*
X7020000D01*
G01X6740000Y-1160000D02*
X6800940D01*
X6820940Y-1140000D01*
X6880000D01*
G01D02*
X6950000D01*
G01D02*
Y-1060000D01*
X6974900Y-1035100D01*
X6976100D01*
G01X6950000Y-1140000D02*
X7020000D01*
G01X6730000Y-910000D02*
Y-840000D01*
X6750000Y-820000D01*
G01X6920000Y-900000D02*
X7010940D01*
X7020940Y-890000D01*
X7070000D01*
G01X6730000Y-1010000D02*
X6801000D01*
X6826100Y-1035100D01*
G01X6920000Y-800000D02*
Y-750000D01*
X6960000Y-710000D01*
G01D02*
Y-660000D01*
X7010000Y-610000D01*
X7080000D01*
X7120000Y-570000D01*
Y-490000D01*
G01X6782400Y-586600D02*
X6840000D01*
G01X7160000Y-2510000D02*
X7225000D01*
X7240000Y-2525000D01*
X7262700D01*
G01X7180000Y-1850000D02*
X7257940D01*
X7258840Y-1850900D01*
X7297900D01*
G01X7320000Y-1470000D02*
X7170000D01*
G01D02*
Y-1550000D01*
G01X6970000Y-1390000D02*
X7050000D01*
X7070000Y-1370000D01*
X7170000D01*
G01X7210000Y-1220000D02*
X7130000D01*
X7110000Y-1240000D01*
X7020000D01*
G01X7170000Y-995000D02*
Y-1080000D01*
X7210000Y-1120000D01*
Y-1220000D01*
G01X7170000Y-1370000D02*
X7320000D01*
G01X7170000Y-995000D02*
Y-890000D01*
G01X7070000Y-750000D02*
Y-890000D01*
G01D02*
Y-933400D01*
X7026100Y-977300D01*
G01X7170000Y-750000D02*
Y-670000D01*
G01X7260000Y-420000D02*
Y-469060D01*
X7239060Y-490000D01*
X7120000D01*
G01Y-350000D02*
Y-260000D01*
G01X7580000Y-2620000D02*
X7440000D01*
G01X7367300D02*
X7440000D01*
G01Y-2720000D02*
X7367300D01*
G01X7480000Y-2330000D02*
X7550000D01*
X7580000Y-2360000D01*
Y-2390000D01*
G01X7480000Y-2330000D02*
X7460000D01*
X7430000Y-2360000D01*
Y-2420000D01*
G01X7290000Y-1720000D02*
Y-1803940D01*
X7297900Y-1811840D01*
Y-1850900D01*
G01X7310000Y-1070000D02*
Y-1220000D01*
G01D02*
X7385420D01*
X7410000Y-1195420D01*
G01X7415000Y-1324800D02*
Y-1357300D01*
X7402300Y-1370000D01*
X7320000D01*
G01X7310000Y-920000D02*
Y-620000D01*
G01X7730000Y-2720000D02*
X7810000D01*
G01X7660000D02*
X7730000D01*
G01X7580000D02*
X7660000D01*
G01X7580000Y-2490000D02*
X7730000D01*
G01Y-2620000D02*
X7580000D01*
G01X7730000Y-2390000D02*
X7580000D01*
G01X7710800Y-1429400D02*
X7769400D01*
X7781000Y-1417800D01*
X7838700D01*
G01X7610800Y-1429400D02*
Y-1488000D01*
X7604600Y-1494200D01*
Y-1562700D01*
X7602900Y-1564400D01*
G01X7610000Y-690000D02*
X7702700D01*
X7732700Y-660000D01*
G01X7730000Y-420000D02*
X7637970D01*
G01X8051200Y-1416400D02*
X8051210Y-1379430D01*
X8079500Y-1351140D01*
Y-1242500D01*
G01D02*
Y-1203440D01*
X8080000Y-1202940D01*
Y-1160000D01*
X8050000Y-1130000D01*
Y-1040000D01*
G01Y-900000D02*
Y-1040000D01*
G01X8220000Y-2560000D02*
Y-2510000D01*
G01X8360000Y-2660000D02*
X8220000D01*
G01D02*
X8147300D01*
G01X8360000Y-2560000D02*
X8432700D01*
X350000Y-2130000D03*
Y-2000300D03*
Y-1880000D03*
Y-860000D03*
Y-990000D03*
X290000Y-682700D03*
X620000Y-2752700D03*
X547300Y-2690000D03*
X467300Y-2460000D03*
X530000Y-2387300D03*
X520000Y-2000000D03*
Y-2130000D03*
X690000D03*
Y-2000300D03*
X520000Y-1880000D03*
X690000D03*
X520000Y-920000D03*
X700000Y-870000D03*
X520000Y-1050000D03*
X700000Y-996700D03*
X520000Y-800000D03*
X670000Y-382700D03*
X912700Y-2480000D03*
X727300Y-2670000D03*
X820000Y-2417300D03*
X917300Y-1990000D03*
X890000Y-1840000D03*
X970000Y-1730000D03*
X959500Y-1249500D03*
X732700Y-510000D03*
X1060000Y-2590000D03*
X1062700Y-2320000D03*
X1120000Y-2380000D03*
X1240000Y-1987300D03*
X1147300Y-2145000D03*
X1160000Y-1712700D03*
X1222700Y-1380000D03*
X1060000Y-1500000D03*
X1196900Y-950000D03*
X1239500Y-841600D03*
X1080000Y-310000D03*
X1332700Y-2240000D03*
Y-2050000D03*
X1433300Y-990100D03*
X1368400Y-843200D03*
X1305500Y-842200D03*
X1260000Y-657300D03*
X1447300Y-790000D03*
X1590000Y-2240000D03*
Y-2050000D03*
X1617300Y-1800000D03*
X1749060Y-1470000D03*
X1665600Y-837800D03*
X1667800Y-973900D03*
X1678300Y-649000D03*
X1667000Y-715100D03*
X1832700Y-2050000D03*
X1841340Y-1702670D03*
X1990000Y-1790000D03*
X1830000Y-1862700D03*
X2000000Y-1460000D03*
X1988200Y-1199500D03*
X1826200Y-647700D03*
X2096600Y-2570600D03*
Y-2639300D03*
X2099700Y-2711100D03*
X2240000Y-1560000D03*
X2420000Y-2485000D03*
X2454200Y-2579200D03*
X2455800Y-2635800D03*
X2455200Y-2694700D03*
X2511100Y-2500800D03*
X2360000Y-2435000D03*
X2591300Y-2089700D03*
X2542300Y-2018800D03*
X2360000Y-1950000D03*
X2541300Y-1880900D03*
X2600500Y-1677750D03*
X2561140Y-1642700D03*
X2502700Y-1410000D03*
X2570000D03*
X2418200Y-1110000D03*
X2440000Y-1187300D03*
X2610000Y-757300D03*
X2537300Y-820000D03*
X2812400Y-2568700D03*
X2813400Y-2640200D03*
X2812400Y-2710300D03*
X2840000Y-2205000D03*
X2703290Y-2049690D03*
X2770000Y-1722400D03*
X2660000Y-1680000D03*
X2870000Y-1880000D03*
X2854800Y-1418500D03*
X2637300Y-1410000D03*
X2803400Y-1169900D03*
X2807200Y-1362800D03*
X2682700Y-820000D03*
X3000000Y-1980000D03*
X2977900Y-1497400D03*
X2908500Y-1468600D03*
X3029200Y-1117500D03*
X3110000Y-1360000D03*
X2989400Y-978200D03*
X3164200Y-1880000D03*
X3348860Y-1450000D03*
X3347300Y-1507300D03*
X3410000Y-1440000D03*
X3213900Y-1422300D03*
X3297900Y-1124800D03*
X3419000Y-1166800D03*
X3210700Y-1360500D03*
X3530000Y-1940000D03*
X3497300Y-2010000D03*
X3610000Y-1940000D03*
X3510000Y-607300D03*
X3586200Y-703700D03*
X3510700Y-541700D03*
X3896300Y-2071400D03*
X3798700Y-1980100D03*
X3754300Y-730000D03*
X4240000Y-2670000D03*
Y-2737300D03*
X4127700Y-2105000D03*
X4207300Y-1199500D03*
X4212700Y-1050000D03*
X4220000Y-470000D03*
X4140000Y-330000D03*
X4310000Y-2670000D03*
Y-2737300D03*
X4330000Y-2432700D03*
X4392700Y-2360000D03*
X4399700Y-1947600D03*
X4412700Y-1728500D03*
X4492700Y-1590000D03*
X4280000Y-1136800D03*
Y-1362200D03*
X4330000Y-890000D03*
Y-749000D03*
X4740000Y-2537300D03*
X4690000Y-1767300D03*
X4752700Y-1840000D03*
X4672700Y-1440000D03*
X4750000D03*
X4560000Y-1607300D03*
X4539400Y-1250600D03*
X4540000Y-1330000D03*
X4730000Y-1122700D03*
X4640000Y-1137300D03*
X4730000Y-1300000D03*
X4560000Y-625100D03*
X4750000Y-770000D03*
X4720000Y-307300D03*
X4661760Y-309730D03*
X4680780Y-260580D03*
X4740000Y-260000D03*
X4807300Y-2500000D03*
X4950000Y-2670000D03*
X4807300Y-2432700D03*
X4947300Y-2260000D03*
Y-2340000D03*
X4950000Y-2050000D03*
Y-1690000D03*
X4940000Y-1400000D03*
X4950000Y-1620000D03*
X4830000Y-1122700D03*
X4980000Y-850000D03*
X4947300Y-970000D03*
Y-1040000D03*
X4980000Y-550000D03*
X4892700Y-412700D03*
X4970000Y-230000D03*
X5130000Y-2760000D03*
X5210000Y-2500000D03*
Y-2630000D03*
Y-2410000D03*
X5180000Y-2260000D03*
X5220000Y-2050000D03*
X5330000Y-2070000D03*
X5200000Y-1790000D03*
Y-1870000D03*
X5180000Y-1620000D03*
X5220000Y-1400000D03*
X5200000Y-1130000D03*
Y-1210000D03*
X5180000Y-970000D03*
X5217300Y-674700D03*
X5230000Y-230000D03*
X5380000Y-2020000D03*
X5450000Y-2050000D03*
Y-1950000D03*
X5350000D03*
X5607300Y-1317300D03*
X5520000Y-670000D03*
X5390000Y-720000D03*
X5627300Y-2662700D03*
Y-2717300D03*
X5690000Y-2650000D03*
Y-2710000D03*
X5747300Y-2352700D03*
Y-2420000D03*
X5672700Y-2417300D03*
Y-2352700D03*
X5770000Y-2010000D03*
X5850000Y-1870000D03*
X5650000D03*
X5877530Y-1447520D03*
X5650000Y-1542700D03*
Y-1620000D03*
X5720000Y-1540000D03*
X5874350Y-1640000D03*
X5630000Y-1380000D03*
Y-1437300D03*
X5690000Y-1122700D03*
X5767300D03*
Y-1197300D03*
X5770000Y-880000D03*
X5870000Y-1070000D03*
X5640000Y-720000D03*
X5762700Y-750000D03*
X5817300Y-777300D03*
X5837300Y-412700D03*
X5800000Y-460000D03*
X5837300Y-508120D03*
X5666500Y-242700D03*
X5739900D03*
X5811200D03*
X6150000Y-2720000D03*
X6080000Y-2312300D03*
X6007300Y-2210000D03*
X5936700Y-2200000D03*
X5952700Y-2405000D03*
X6031300Y-2010000D03*
X5936700Y-2105000D03*
X6088650Y-1198650D03*
X6050000Y-840000D03*
X5970000Y-980000D03*
X6100000Y-297300D03*
X6419000Y-2760000D03*
X6330000Y-2620000D03*
X6370000Y-2252700D03*
X6410000Y-2327300D03*
X6277100Y-1742750D03*
X6340000Y-1700000D03*
X6168020Y-1742280D03*
X6380000Y-1110000D03*
X6202530Y-1222520D03*
X6152700Y-730000D03*
X6180600Y-586600D03*
X6320000Y-802700D03*
X6590000Y-2760000D03*
X6520500Y-2327300D03*
X6630000Y-2430000D03*
X6693100Y-2250000D03*
X6570000Y-2030000D03*
X6432700D03*
X6515200Y-2095400D03*
X6579800Y-1880100D03*
X6436400Y-1425400D03*
X6450000Y-1110000D03*
X6560000Y-1120000D03*
X6487300Y-1375400D03*
X6436000Y-1325400D03*
X6482700Y-730000D03*
X6510600Y-586600D03*
X6650000Y-792700D03*
X6430000Y-297300D03*
X6530000Y-400000D03*
X6930000Y-2682700D03*
X6870000Y-2240000D03*
X6900000Y-2347300D03*
X6790000Y-2050000D03*
X6924900Y-2040600D03*
X6874900Y-1962800D03*
X6760000Y-1720000D03*
X6840000D03*
X6760000Y-1650000D03*
Y-1590000D03*
X6840000Y-1650000D03*
X6760000Y-1520000D03*
X6840000Y-1590000D03*
X6826100Y-1035100D03*
X6750000Y-820000D03*
X6960000Y-710000D03*
X6830000Y-720000D03*
X6840000Y-586600D03*
X6760000Y-282230D03*
X7110000Y-2240000D03*
X7170000Y-2330000D03*
X7074900Y-2030000D03*
X7110000Y-2150000D03*
X7124900Y-1962800D03*
X7200000Y-2040000D03*
X6974900Y-1962800D03*
X7224900D03*
X7170000Y-1550000D03*
Y-1620000D03*
X7080000Y-1490000D03*
X7026100Y-977300D03*
X6976100Y-1035100D03*
X7170000Y-670000D03*
X6993400Y-259400D03*
X7120000Y-260000D03*
X7262700Y-2525000D03*
X7387300D03*
X7367300Y-2620000D03*
X7262700D03*
X7367300Y-2720000D03*
X7460000Y-2240000D03*
X7480000Y-2330000D03*
X7360000Y-2240000D03*
X7428100Y-2090000D03*
X7338200Y-1934100D03*
X7297900Y-1850900D03*
X7497000Y-1748000D03*
X7415000Y-1674800D03*
X7454900Y-1867900D03*
X7415000Y-1574800D03*
X7410000Y-1195420D03*
X7415000Y-1324800D03*
X7420000Y-1100000D03*
X7430000Y-700000D03*
X7310000Y-620000D03*
X7367200Y-317600D03*
X7360370Y-411500D03*
X7660000Y-2720000D03*
X7720000Y-2300000D03*
X7707300Y-2120000D03*
X7514300Y-1824600D03*
X7748700Y-1574200D03*
X7710600Y-1339050D03*
X7732700Y-660000D03*
X7637970Y-420000D03*
X7620000Y-330000D03*
X7810000Y-2720000D03*
X7852700Y-2250000D03*
X7890000Y-2070000D03*
X8051200Y-1625100D03*
X7926700Y-1575100D03*
X7837600Y-1339050D03*
X7964300D03*
X8220000Y-2510000D03*
X8147300Y-2660000D03*
X8100000Y-2286350D03*
X8230000Y-2290000D03*
X8300000D03*
X8230000Y-2370000D03*
X8300000D03*
X8110000Y-2072000D03*
X8090000Y-1994660D03*
Y-1860000D03*
X8129300Y-1922600D03*
X8300500Y-1433700D03*
X8297600Y-1563400D03*
X8079500Y-1242500D03*
X8290000Y-1180000D03*
X8300000Y-1308200D03*
X8290000Y-1050000D03*
X8300000Y-927000D03*
X8432700Y-2560000D03*
X8377300Y-2290000D03*
Y-2370000D03*
X8442700Y-1943000D03*
X8726800Y-2331000D03*
X8727300Y-2409000D03*
X8648300D03*
Y-2332000D03*
X8682300Y-2268600D03*
X8713300Y-2134200D03*
X8650000Y-1940000D03*
Y-1816000D03*
Y-1689000D03*
X8650300Y-1435200D03*
X8730000Y-1560000D03*
X8650000Y-1180000D03*
X8640000Y-1310000D03*
X8650000Y-1060000D03*
Y-930000D03*
Y-800000D03*
G54D40*
G01X1590000Y-2240000D02*
X1480000D01*
G01X2000000Y-2640000D02*
X1820000D01*
X1790000Y-2610000D01*
Y-2400000D01*
G01D02*
Y-2332700D01*
X1770000Y-2312700D01*
Y-2250000D01*
G01X1650000Y-2400000D02*
Y-2329060D01*
X1670000Y-2309060D01*
Y-2250000D01*
G01X1590000Y-2240000D02*
X1660000D01*
X1670000Y-2250000D01*
G01X2670000Y-2410000D02*
X2810000D01*
X2840000Y-2380000D01*
X2930000D01*
G01X3070000D02*
X2930000D01*
G01X3070000Y-2280000D02*
X2930000D01*
G01X3810000Y-2525000D02*
X3710000Y-2425000D01*
Y-2357500D01*
G01D02*
X3656100D01*
X3637200Y-2338600D01*
X3569500D01*
G01X3710000Y-2357500D02*
Y-2250000D01*
G01X4060000Y-1728500D02*
X3975560D01*
X3954060Y-1750000D01*
X3810000D01*
G01X4230000Y-2360000D02*
X4170000D01*
G01D02*
X4110000D01*
G01X4239000Y-890000D02*
X4330000D01*
G01X4140000Y-750000D02*
Y-829940D01*
X4139000Y-830940D01*
Y-890000D01*
G01X4240000Y-750000D02*
X4289060D01*
X4290060Y-749000D01*
X4330000D01*
G01Y-890000D02*
X4331000Y-891000D01*
X4411000D01*
G01X4510000Y-749000D02*
Y-830940D01*
X4511000Y-831940D01*
Y-891000D01*
G01X4330000Y-749000D02*
X4410000D01*
G01X5110000Y-1780000D02*
X5190000D01*
X5200000Y-1790000D01*
G01D02*
Y-1704060D01*
X5180000Y-1684060D01*
Y-1620000D01*
G01D02*
X5240000D01*
X5280000Y-1660000D01*
X5390000D01*
G01X5180000Y-1620000D02*
Y-1555940D01*
X5179900Y-1555840D01*
Y-1528300D01*
X5130000Y-1478400D01*
Y-1400000D01*
G01X7460000Y-330000D02*
X7447600Y-317600D01*
X7367200D01*
G01X7260000Y-320000D02*
X7325740D01*
X7328140Y-317600D01*
X7367200D01*
G01X7730000Y-320000D02*
X8007440D01*
X8009040Y-318400D01*
X8088100D01*
G01X7560000Y-330000D02*
X7620000D01*
G01D02*
X7660940D01*
X7670940Y-320000D01*
X7730000D01*
G54D22*
X1790000Y-2400000D03*
X1650000D03*
X1680000Y-570000D03*
X1820000D03*
X2345500Y-1110000D03*
X2205500D03*
X2540000Y-1810000D03*
X2400000D03*
X3070000Y-1500000D03*
X3210000D03*
X3710000Y-2250000D03*
X3850000D03*
X5040000Y-2260000D03*
Y-1620000D03*
Y-970000D03*
X5180000Y-2260000D03*
Y-1620000D03*
Y-970000D03*
X6140000Y-1840000D03*
X6280000D03*
G54D13*
X630000Y-2460000D03*
X530000D03*
X970000Y-1840000D03*
X1070000D03*
X1260000Y-950000D03*
Y-730000D03*
X1360000Y-950000D03*
Y-730000D03*
X1770000Y-2250000D03*
X1670000D03*
Y-2050000D03*
X1770000D03*
X1680000Y-1110000D03*
X1780000D03*
X1830000Y-1790000D03*
X1930000D03*
X1830000Y-1480000D03*
X1930000D03*
X2060000Y-1560000D03*
X2340000Y-1410000D03*
X2160000Y-1560000D03*
X2340000Y-1260000D03*
X2440000Y-1950000D03*
X2540000D03*
X2500000Y-1670000D03*
X2400000D03*
X2440000Y-1410000D03*
Y-1260000D03*
X2770000Y-1950000D03*
X2670000D03*
Y-1810000D03*
X2770000D03*
X2810000Y-1270000D03*
X2980000Y-2140000D03*
X3080000D03*
X2910000Y-1270000D03*
X3410000Y-1500000D03*
X3510000D03*
X3660000Y-970000D03*
X3560000D03*
X4120000Y-2500000D03*
X4220000D03*
X4010000Y-2360000D03*
X4110000D03*
X4230000D03*
X4239000Y-890000D03*
X4139000D03*
X4140000Y-750000D03*
X4240000D03*
X4330000Y-2360000D03*
X4510000Y-1440000D03*
X4370000D03*
X4270000D03*
X4430000Y-1600000D03*
X4330000D03*
X4510000Y-1050000D03*
X4411000Y-891000D03*
X4511000D03*
X4270000Y-1050000D03*
X4370000D03*
X4510000Y-749000D03*
X4410000D03*
X4590000Y-1840000D03*
X4690000D03*
X4610000Y-1440000D03*
X4730000Y-910000D03*
Y-1050000D03*
X4610000D03*
X5030000Y-2670000D03*
Y-2050000D03*
Y-1400000D03*
X4830000Y-910000D03*
Y-1050000D03*
X5030000Y-330000D03*
Y-470000D03*
X5130000Y-2670000D03*
Y-2050000D03*
Y-1400000D03*
Y-330000D03*
Y-470000D03*
X5860000Y-2210000D03*
X5760000D03*
X5860000Y-2000000D03*
X5770000Y-980000D03*
X5870000D03*
X6160000Y-2390000D03*
X6070000Y-2210000D03*
X5960000Y-2000000D03*
X6070000Y-1620000D03*
X5970000D03*
X6419000Y-2680000D03*
X6420000Y-2540000D03*
X6420500Y-2400000D03*
X6260000Y-2390000D03*
X6170000Y-2210000D03*
X6370000Y-1610000D03*
X6660000Y-2680000D03*
X6662000Y-2510800D03*
X6519000Y-2680000D03*
X6520000Y-2540000D03*
X6520500Y-2400000D03*
X6646400Y-2339500D03*
X6470000Y-1610000D03*
X6640000Y-1160000D03*
X6760000Y-2680000D03*
X6762000Y-2510800D03*
X6900000Y-2560000D03*
X6940000Y-2240000D03*
X6900000Y-2420000D03*
X6746400Y-2339500D03*
X6720000Y-1840000D03*
X6820000D03*
X6970000Y-1390000D03*
X6870000D03*
X6740000Y-1160000D03*
X7000000Y-2560000D03*
X7040000Y-2240000D03*
X7000000Y-2420000D03*
X7180000Y-2240000D03*
X7080000Y-1850000D03*
X7180000D03*
X7210000Y-1220000D03*
X7170000Y-890000D03*
X7070000D03*
X7170000Y-750000D03*
X7070000D03*
X7120000Y-490000D03*
X7020000D03*
Y-350000D03*
X7120000D03*
X7430000Y-2420000D03*
X7330000D03*
X7280000Y-2240000D03*
X7310000Y-1220000D03*
X7460000Y-330000D03*
X7640000Y-2140000D03*
X7540000D03*
X7748700Y-1653000D03*
X7610800Y-1429400D03*
X7710800D03*
X7560000Y-330000D03*
X7848700Y-1653000D03*
X8050000Y-900000D03*
X7950000D03*
X8050000Y-1040000D03*
X7950000D03*
G54D31*
X3157800Y-1124400D03*
G54D41*
G01X8300000Y-1054000D02*
X8294000D01*
X8290000Y-1050000D01*
G01X8650000Y-1181000D02*
Y-1180000D01*
G54D32*
X3060000Y-1270000D03*
X3110000D03*
X3060000Y-980000D03*
X3110000D03*
X3160000Y-1270000D03*
X3210000D03*
X3260000D03*
X3160000Y-980000D03*
X3210000D03*
X3260000D03*
G54D14*
X620000Y-2690000D03*
Y-2590000D03*
X990000Y-2220000D03*
Y-2320000D03*
Y-1990000D03*
Y-2090000D03*
X959500Y-931000D03*
Y-831000D03*
X1690000Y-1700000D03*
Y-1800000D03*
Y-1570000D03*
Y-1470000D03*
X2070000Y-1800000D03*
Y-1700000D03*
X2055500Y-1199500D03*
Y-1099500D03*
X1915500Y-1200000D03*
Y-1100000D03*
X2200000Y-1250000D03*
Y-1350000D03*
X3070000Y-2280000D03*
Y-2380000D03*
X2930000D03*
Y-2280000D03*
X2929000Y-1980000D03*
X3070500D03*
X2929000Y-1880000D03*
X3070500D03*
X3420000Y-1100000D03*
Y-1230000D03*
Y-1330000D03*
Y-1000000D03*
X3569500Y-2238600D03*
Y-2338600D03*
X3570000Y-2110000D03*
Y-2010000D03*
X3710000Y-2110000D03*
Y-2010000D03*
X3660000Y-830000D03*
Y-730000D03*
X3810000Y-970000D03*
Y-870000D03*
X3980000Y-970000D03*
Y-870000D03*
X4200000Y-1730000D03*
Y-1830000D03*
X4060000Y-1828500D03*
Y-1728500D03*
X4340000Y-1828500D03*
Y-1728500D03*
X4280000Y-1299500D03*
Y-1199500D03*
X4690000Y-1670000D03*
Y-1570000D03*
X4640000Y-1300000D03*
Y-1200000D03*
X4830000Y-1670000D03*
Y-1570000D03*
X4820000Y-650000D03*
Y-550000D03*
X4960000Y-650000D03*
Y-750000D03*
X5290000Y-2500000D03*
Y-2400000D03*
X5110000Y-1880000D03*
Y-1780000D03*
X5290000Y-1210000D03*
Y-1110000D03*
X5100000Y-750000D03*
Y-650000D03*
X5610000Y-1940000D03*
Y-2040000D03*
Y-1700000D03*
Y-1800000D03*
X5680000Y-2480000D03*
Y-2580000D03*
Y-1200000D03*
Y-1300000D03*
X5980000Y-2520000D03*
Y-2620000D03*
X6120000Y-2070000D03*
Y-1970000D03*
X5980000Y-1850000D03*
Y-1750000D03*
X6150000Y-1120000D03*
Y-1020000D03*
X6250000Y-2620000D03*
Y-2520000D03*
X6290000Y-1110000D03*
Y-1210000D03*
X6680000Y-1980000D03*
Y-2080000D03*
X6610000Y-1700000D03*
X6460000Y-1850000D03*
Y-1750000D03*
X6610000Y-1600000D03*
X6450000Y-909500D03*
Y-1009500D03*
X6590000Y-910000D03*
Y-1010000D03*
X6950000Y-1750000D03*
Y-1850000D03*
X6880000Y-1240000D03*
Y-1140000D03*
X6730000Y-910000D03*
Y-1010000D03*
X6920000Y-900000D03*
Y-800000D03*
X7160000Y-2510000D03*
Y-2410000D03*
X7170000Y-1470000D03*
Y-1370000D03*
X7020000Y-1240000D03*
Y-1140000D03*
X7260000Y-420000D03*
Y-320000D03*
X7440000Y-2720000D03*
Y-2620000D03*
X7290000Y-1720000D03*
X7320000Y-1470000D03*
Y-1370000D03*
X7290000Y-1620000D03*
X7580000Y-2620000D03*
Y-2720000D03*
Y-2490000D03*
X7730000Y-2620000D03*
Y-2720000D03*
Y-2490000D03*
X7580000Y-2390000D03*
X7780000Y-2220000D03*
X7730000Y-2390000D03*
X7780000Y-2120000D03*
X7602900Y-1664400D03*
Y-1564400D03*
X7730000Y-420000D03*
Y-320000D03*
X7838700Y-1517800D03*
Y-1417800D03*
X8051200Y-1416400D03*
Y-1516400D03*
X8220000Y-2560000D03*
Y-2660000D03*
X8360000Y-2560000D03*
Y-2660000D03*
G54D23*
X1665600Y-837800D03*
G54D42*
G01X1590000Y-2050000D02*
X1480000D01*
G01X1670000D02*
X1590000D01*
G01X2400000Y-1670000D02*
Y-1810000D01*
G01X3810000Y-1250000D02*
Y-1417700D01*
X3762700Y-1465000D01*
X3617700D01*
X3582700Y-1500000D01*
X3510000D01*
G01X3980000Y-970000D02*
Y-1080000D01*
X3810000Y-1250000D01*
G01X3980000Y-870000D02*
X3810000D01*
G54D24*
X1810000Y-310000D03*
X2190000D03*
X2900000D03*
X3320000D03*
G54D15*
X820000Y-2480000D03*
Y-2575000D03*
Y-2670000D03*
X1060000Y-2480000D03*
Y-2670000D03*
X1240000Y-2240000D03*
Y-2050000D03*
Y-2145000D03*
X1480000Y-2240000D03*
Y-2050000D03*
X4035000Y-2200000D03*
Y-2010000D03*
Y-2105000D03*
X4300000Y-2200000D03*
Y-2010000D03*
Y-2105000D03*
G54D33*
X4135900Y-574900D03*
Y-509900D03*
Y-444900D03*
Y-379900D03*
X4521500Y-574900D03*
Y-509900D03*
Y-444900D03*
Y-379900D03*
G54D43*
G01X970000Y-1380000D02*
Y-1460000D01*
X1010000Y-1500000D01*
X1060000D01*
G01X1160000Y-1620000D02*
Y-1712700D01*
G01X1060000Y-1500000D02*
X1450940D01*
X1470940Y-1520000D01*
X1530000D01*
G01X1520000Y-940000D02*
X1483400D01*
X1433300Y-990100D01*
G01X1360000Y-730000D02*
X1390900D01*
X1413200Y-707700D01*
X1460200D01*
X1492500Y-740000D01*
X1520000D01*
G01Y-790000D02*
X1447300D01*
G01X1820000Y-1610000D02*
X1780000D01*
X1740000Y-1570000D01*
X1690000D01*
G01X1930000Y-1790000D02*
Y-1720000D01*
X1920000Y-1710000D01*
Y-1660000D01*
G01Y-1610000D02*
X1960940D01*
X2010940Y-1560000D01*
X2060000D01*
G01X1830000Y-1480000D02*
Y-1530000D01*
X1870000Y-1570000D01*
Y-1610000D01*
G01X2730000Y-2205000D02*
X2840000D01*
G01X2870000Y-1880000D02*
X2852700D01*
X2840000Y-1892700D01*
Y-1940000D01*
X2830000Y-1950000D01*
X2770000D01*
G01X2929000Y-1880000D02*
X2870000D01*
G01X3110000Y-1270000D02*
Y-1360000D01*
G01X3260000Y-1270000D02*
Y-1297300D01*
X3292700Y-1330000D01*
X3420000D01*
G01X4370000Y-1440000D02*
Y-1380000D01*
X4410000Y-1340000D01*
Y-1300600D01*
G01X4460000D02*
X4510600D01*
X4540000Y-1330000D01*
G01X4460000Y-1250600D02*
X4539400D01*
G01X4640000Y-1200000D02*
X4580940D01*
X4560940Y-1180000D01*
X4530000D01*
X4509400Y-1200600D01*
X4460000D01*
G01X4410000D02*
Y-1149060D01*
X4370000Y-1109060D01*
Y-1050000D01*
G01X4280000Y-1299500D02*
X4280500Y-1300000D01*
X4330000D01*
X4379400Y-1250600D01*
X4410000D01*
G01X6260000Y-2390000D02*
Y-2210860D01*
G01D02*
X6259140Y-2210000D01*
X6170000D01*
G01X6260000Y-2210860D02*
X6320860Y-2150000D01*
X6395010D01*
X6480010Y-2235000D01*
X6551900D01*
X6646400Y-2329500D01*
Y-2339500D01*
G01X6762000Y-2510800D02*
X6762300Y-2511100D01*
Y-2579400D01*
X6748100Y-2593600D01*
X6687340D01*
X6660000Y-2620940D01*
Y-2680000D01*
G01X7710600Y-1339050D02*
X7850000Y-1199650D01*
Y-950000D01*
X7900000Y-900000D01*
X7950000D01*
G01X7837600Y-1339050D02*
X7838700Y-1340150D01*
Y-1417800D01*
G01X7950000Y-1040000D02*
Y-1230260D01*
X7964300Y-1244560D01*
Y-1339050D01*
G54D25*
X2000000Y-2640000D03*
X2330000D03*
X2580000D03*
X2910000D03*
X4430000Y-2660000D03*
X4760000D03*
G54D34*
X5390000Y-1990000D03*
Y-1660000D03*
Y-720000D03*
Y-390000D03*
X5480000Y-2620000D03*
Y-2290000D03*
Y-1340000D03*
Y-1010000D03*
X5640000Y-720000D03*
Y-390000D03*
X7610000Y-1140000D03*
Y-690000D03*
G54D16*
X970000Y-1620000D03*
Y-1380000D03*
X1160000Y-1620000D03*
Y-1380000D03*
X1065000D03*
G54D44*
G01X6924900Y-2040600D02*
Y-2095100D01*
X6890000Y-2130000D01*
X6825000D01*
X6781000Y-2174000D01*
Y-2283600D01*
X6746400Y-2318200D01*
Y-2339500D01*
G54D35*
X7310000Y-920000D03*
Y-1070000D03*
G54D26*
X2120000Y-2410000D03*
Y-1970000D03*
X2190000Y-950000D03*
Y-510000D03*
X4640000Y-2450000D03*
Y-2010000D03*
G54D17*
X960000Y-1170000D03*
X1530000Y-1520000D03*
X4140000Y-1050000D03*
X7310000Y-2120000D03*
G54D45*
G01X4521500Y-574900D02*
X4547300D01*
X4560000Y-587600D01*
Y-625100D01*
G54D36*
X7970000Y-2660000D03*
Y-2406000D03*
X8088100Y-638400D03*
Y-318400D03*
X7928100Y-478400D03*
X8248100D03*
G54D18*
X880900Y-586600D03*
X978500Y-315830D03*
X1072400Y-586600D03*
X5930900D03*
X6122400D03*
X6028500Y-315830D03*
X6260900Y-586600D03*
X6358500Y-315830D03*
X6590900Y-586600D03*
X6452400D03*
X6688500Y-315830D03*
X6782400Y-586600D03*
G54D27*
G01X970000Y-1620000D02*
Y-1730000D01*
G01X1070000Y-1840000D02*
Y-1750000D01*
X1050000Y-1730000D01*
X970000D01*
G01X959500Y-1109500D02*
Y-1110500D01*
G01Y-1169500D02*
X960000Y-1170000D01*
G01X1240000Y-2240000D02*
X1332700D01*
G01X1240000Y-2145000D02*
X1147300D01*
G01X1433300Y-990100D02*
X1391500D01*
X1360000Y-958600D01*
Y-950000D01*
G01X1770000Y-2050000D02*
X1832700D01*
G01X1841340Y-1702670D02*
X1840000Y-1701330D01*
Y-1700000D01*
X1820000Y-1680000D01*
Y-1660000D01*
G01X1870000D02*
Y-1674010D01*
X1841340Y-1702670D01*
G01X2000000Y-1460000D02*
X1980000Y-1480000D01*
X1930000D01*
G01X2240000Y-1560000D02*
X2160000D01*
G01X2930000Y-2280000D02*
Y-2230000D01*
X2980000Y-2180000D01*
Y-2140000D01*
G01X3420000Y-1330000D02*
X3510400D01*
X3544800Y-1295600D01*
Y-1111300D01*
X3574800Y-1081300D01*
X3630000D01*
X3660000Y-1051300D01*
Y-970000D01*
G01X3810000D02*
X3660000D01*
G01X3710000Y-2010000D02*
X3768800D01*
X3798700Y-1980100D01*
G01X4220000Y-2500000D02*
X4450000D01*
X4500000Y-2450000D01*
X4640000D01*
G01X4120000Y-2500000D02*
X4062300D01*
X4010000Y-2447700D01*
Y-2360000D01*
G01X4140000Y-750000D02*
Y-660000D01*
X4160000Y-640000D01*
X4207300D01*
X4220000Y-627300D01*
Y-589940D01*
X4204960Y-574900D01*
X4135900D01*
G01Y-509900D02*
X4136000Y-510000D01*
X4190000D01*
X4220000Y-480000D01*
Y-470000D01*
G01D02*
Y-457600D01*
X4207300Y-444900D01*
X4135900D01*
G01X4140000Y-330000D02*
X4207300D01*
X4220000Y-342700D01*
Y-370000D01*
X4210100Y-379900D01*
X4135900D01*
G01X4399700Y-1947600D02*
Y-1989360D01*
X4379060Y-2010000D01*
X4300000D01*
G01X4399700Y-1947600D02*
X4507300Y-1840000D01*
X4590000D01*
G01X4510000Y-1440000D02*
X4370000D01*
G01X4280000Y-1362200D02*
Y-1370940D01*
X4270000Y-1380940D01*
Y-1440000D01*
G01X4280000Y-1299500D02*
Y-1362200D01*
G01X4521500Y-509900D02*
X4452440D01*
X4452340Y-510000D01*
X4422700D01*
X4390000Y-542700D01*
Y-620030D01*
X4409970Y-640000D01*
X4480000D01*
X4510000Y-670000D01*
Y-749000D01*
G01X4521500Y-444900D02*
X4452440D01*
X4440000Y-432460D01*
Y-392340D01*
X4452440Y-379900D01*
X4521500D01*
G01X4640000Y-1200000D02*
Y-1137300D01*
G01X4947300Y-2260000D02*
Y-2340000D01*
G01X4830000Y-910000D02*
X4880000D01*
X4940000Y-850000D01*
X4980000D01*
G01X5210000Y-2500000D02*
X5290000D01*
G01X5200000Y-1210000D02*
X5290000D01*
G01X5936700Y-2200000D02*
X5926700Y-2210000D01*
X5860000D01*
G01X5980000Y-1850000D02*
X5909060D01*
X5889060Y-1870000D01*
X5850000D01*
G01X5770000Y-980000D02*
Y-880000D01*
G01X5870000Y-980000D02*
Y-1070000D01*
G01X6080000Y-2312300D02*
Y-2370000D01*
X6100000Y-2390000D01*
X6160000D01*
G01X6007300Y-2210000D02*
X6070000D01*
G01X6088650Y-1198650D02*
X6150000Y-1137300D01*
Y-1120000D01*
G01X6260000Y-460000D02*
X5974940D01*
X5930900Y-504040D01*
Y-586600D01*
G01X6250000Y-2620000D02*
X6330000D01*
G01X6250000Y-2520000D02*
Y-2459060D01*
X6260000Y-2449060D01*
Y-2390000D01*
G01X6290000Y-1210000D02*
X6215050D01*
X6202530Y-1222520D01*
G01X6260000Y-460000D02*
X6260900Y-460900D01*
Y-586600D01*
G01X6590900D02*
Y-504040D01*
X6556860Y-470000D01*
X6440010D01*
X6430010Y-460000D01*
X6260000D01*
G01X6660000Y-2680000D02*
Y-2739060D01*
X6639060Y-2760000D01*
X6590000D01*
G01X7262700Y-2620000D02*
X7110000D01*
X7050000Y-2560000D01*
X7000000D01*
G01Y-2420000D02*
X7070000D01*
X7080000Y-2410000D01*
X7160000D01*
G01X7040000Y-2240000D02*
X7110000D01*
G01X7180000D02*
X7110000D01*
G01X7170000Y-2330000D02*
X7299060D01*
G01X7020000Y-490000D02*
Y-350000D01*
G01D02*
Y-286000D01*
X6993400Y-259400D01*
G01X7280000Y-2240000D02*
Y-2310940D01*
X7299060Y-2330000D01*
G01D02*
X7330000Y-2360940D01*
Y-2420000D01*
G01X7430000Y-700000D02*
Y-820000D01*
X7475000Y-865000D01*
X7770000D01*
X7860000Y-775000D01*
X8100000D01*
X8125000Y-800000D01*
X8300000D01*
G01X7360370Y-411500D02*
X7478870Y-530000D01*
X7740000D01*
X7848400Y-638400D01*
X8088100D01*
G01X7970000Y-2660000D02*
X7920000Y-2610000D01*
X7880000D01*
X7840000Y-2570000D01*
Y-2520000D01*
X7810000Y-2490000D01*
X7730000D01*
G01X7710000Y-2120000D02*
X7690000Y-2140000D01*
X7640000D01*
G01X7780000Y-2120000D02*
X7710000D01*
G01X7707300D02*
X7710000D01*
G01X7852700Y-2250000D02*
X7820000D01*
X7790000Y-2220000D01*
X7780000D01*
G01X8300000Y-1943000D02*
X8442700D01*
X1920000Y-1660000D03*
X1870000D03*
X1820000D03*
X1920000Y-1610000D03*
X1870000D03*
X1820000D03*
X4460000Y-1200600D03*
X4410000D03*
X4460000Y-1250600D03*
X4410000D03*
X4460000Y-1300600D03*
X4410000D03*
G54D46*
G01X7420000Y-1100000D02*
Y-1030000D01*
X7385000Y-995000D01*
X7170000D01*
G54D37*
G01X727300Y-2670000D02*
X697100Y-2639800D01*
Y-2608040D01*
X679060Y-2590000D01*
X620000D01*
G01X630000Y-2460000D02*
Y-2390000D01*
X680000Y-2340000D01*
X860000D01*
X880000Y-2320000D01*
Y-2260000D01*
X920000Y-2220000D01*
X990000D01*
G01X820000Y-2575000D02*
X737300D01*
X710000Y-2547700D01*
Y-2480000D01*
X690000Y-2460000D01*
X630000D01*
G01X820000Y-2670000D02*
X727300D01*
G01X4521500Y-444900D02*
X4594900D01*
X4630000Y-480000D01*
Y-680000D01*
X4610000Y-700000D01*
Y-1050000D01*
G01X4730000Y-910000D02*
Y-850000D01*
X4670000Y-790000D01*
Y-740000D01*
X4710000Y-700000D01*
Y-440000D01*
X4737300Y-412700D01*
X4892700D01*
G01X6436400Y-1425400D02*
X6049600D01*
X5955000Y-1520000D01*
X5875000D01*
X5750000Y-1645000D01*
Y-1883140D01*
X5860000Y-1993140D01*
Y-2000000D01*
G01X7124900Y-1962800D02*
Y-2001860D01*
X7137450Y-2014410D01*
Y-2077450D01*
X7180000Y-2120000D01*
X7310000D01*
G01X7200000Y-2040000D02*
X7245000D01*
X7265000Y-2020000D01*
X7395000D01*
X7415000Y-2000000D01*
X7797900D01*
X8022900Y-1775000D01*
X8105000D01*
X8146000Y-1816000D01*
X8300000D01*
G01X7080000Y-1850000D02*
Y-1900000D01*
X7017200Y-1962800D01*
X6974900D01*
G01X7310000Y-2120000D02*
X7350000D01*
X7390000Y-2160000D01*
X7470940D01*
X7490940Y-2140000D01*
X7540000D01*
G01X8300000Y-1689000D02*
X8001000D01*
X7756100Y-1933900D01*
X7481700D01*
X7454900Y-1907100D01*
Y-1867900D01*
G01X7290000Y-1620000D02*
X7360200D01*
X7415000Y-1674800D01*
G01X8051200Y-1625100D02*
Y-1516400D01*
G54D19*
X1120000Y-950000D03*
Y-810000D03*
X2900000Y-1120000D03*
Y-980000D03*
X3510000Y-820000D03*
Y-680000D03*
G54D28*
X2510000Y-2410000D03*
X2670000D03*
G54D47*
G01X959500Y-1170500D02*
X960000Y-1170000D01*
G54D38*
G01X7338200Y-1934100D02*
X7383100Y-1889200D01*
Y-1816910D01*
X7435000Y-1765010D01*
Y-1732400D01*
X7470700Y-1696700D01*
Y-1514300D01*
X7510000Y-1475000D01*
Y-1334060D01*
X7610000Y-1234060D01*
Y-1140000D01*
G01X7497000Y-1748000D02*
X7501100D01*
X7522100Y-1727000D01*
Y-1581500D01*
X7539200Y-1564400D01*
X7602900D01*
G54D29*
X2594500Y-2182400D03*
G54D48*
G01X2190000Y-510000D02*
Y-310000D01*
G01X2900000Y-660000D02*
Y-310000D01*
G54D39*
G01X2730000Y-2160000D02*
X2790000D01*
X2820000Y-2130000D01*
X2920940D01*
X2930940Y-2140000D01*
X2980000D01*
G01X4170000Y-2360000D02*
Y-2175000D01*
X4240000Y-2105000D01*
X4300000D01*
G01X7602900Y-1664400D02*
Y-1745290D01*
X7602890Y-1745300D01*
G01D02*
Y-1802470D01*
X7580760Y-1824600D01*
X7514300D01*
G01X7848700Y-1653000D02*
Y-1716700D01*
X7820100Y-1745300D01*
X7602890D01*
G01X7748700Y-1653000D02*
Y-1574200D01*
G01X7838700Y-1517800D02*
X7765000D01*
X7748700Y-1534100D01*
Y-1574200D01*
M02*
