G04 ================== begin FILE IDENTIFICATION RECORD ==================*
G04 Layout Name:  F:/3-MyLaptopDIR/POF-PSU-C2/PCB/PSU-C2-6Layers.brd*
G04 Film Name:    PASTEMASK_TOP*
G04 File Format:  Gerber RS274X*
G04 File Origin:  Cadence Allegro 22.1-P001*
G04 Origin Date:  Wed Jun  4 14:44:14 2025*
G04 *
G04 Layer:  VIA CLASS/PASTEMASK_TOP*
G04 Layer:  PIN/PASTEMASK_TOP*
G04 *
G04 Offset:    (0.0000 0.0000)*
G04 Mirror:    No*
G04 Mode:      Positive*
G04 Rotation:  0*
G04 FullContactRelief:  No*
G04 UndefLineWidth:     0.2540*
G04 ================== end FILE IDENTIFICATION RECORD ====================*
%FSLAX25Y25*MOMM*%
%IR0*IPPOS*OFA0.00000B0.00000*MIA0B0*SFA1.00000B1.00000*%
%ADD22R,1.X.5*%
%ADD26R,1.X.24*%
%ADD25R,.24X1.*%
%ADD31R,1.5X.3*%
%ADD18R,1.2X.6*%
%ADD21R,.6X1.2*%
%ADD14R,.3X1.5*%
%ADD29R,.6X1.8*%
%ADD28R,1.27X.51*%
%ADD23C,.35*%
%ADD17C,.27*%
%ADD20R,2.2X1.05*%
%ADD13R,1.8X1.5*%
%ADD16R,1.5X1.8*%
%ADD30C,1.2*%
%ADD24R,.3X.8*%
%ADD15R,.8X.6*%
%ADD10R,.6X.8*%
%ADD11C,2.5*%
%ADD19R,.9X.8*%
%ADD12C,1.8*%
%ADD27R,5.X5.*%
%LPD*%
G75*
G54D10*
X290000Y-610000D03*
X390000D03*
X570000Y-510000D03*
X670000D03*
Y-310000D03*
X930000Y-2680000D03*
X910000Y-310000D03*
X770000D03*
X1030000Y-2680000D03*
X1010000Y-310000D03*
X4250000Y-330000D03*
X4350000D03*
X5030000Y-2670000D03*
X5040000Y-2260000D03*
X5030000Y-2050000D03*
Y-1650000D03*
X5025000Y-1505000D03*
Y-1350000D03*
X5030000Y-970000D03*
X5130000Y-2670000D03*
X5140000Y-2260000D03*
X5130000Y-2050000D03*
Y-1650000D03*
X5125000Y-1505000D03*
Y-1350000D03*
X5130000Y-970000D03*
X5770000Y-980000D03*
X5870000D03*
X5990000Y-730000D03*
X6090000D03*
Y-590000D03*
X5990000D03*
X6270000Y-2180000D03*
X6370000D03*
X6270000Y-2030000D03*
X6370000D03*
X6320000Y-730000D03*
X6420000D03*
Y-590000D03*
X6320000D03*
X6650000Y-720000D03*
Y-590000D03*
X6940000Y-2240000D03*
X6750000Y-720000D03*
Y-590000D03*
X7040000Y-2240000D03*
X7180000D03*
X7280000D03*
X7428100Y-2003500D03*
X7540000Y-2240000D03*
X7640000D03*
X7528100Y-2003500D03*
X7661300Y-2003000D03*
X7761300D03*
X7650000Y-660000D03*
X7550000D03*
X7990000Y-2003500D03*
X7890000D03*
X7990000Y-2140000D03*
X7890000D03*
G54D11*
X1390000Y-2525000D03*
Y-1750000D03*
Y-1250000D03*
Y-475000D03*
X3810000Y-2525000D03*
Y-1750000D03*
Y-1250000D03*
Y-475000D03*
G54D20*
X5450000Y-2680000D03*
Y-2240000D03*
Y-2050000D03*
Y-1610000D03*
Y-1400000D03*
Y-960000D03*
Y-770000D03*
Y-330000D03*
G54D12*
X1810000Y-310000D03*
X2190000D03*
X2900000D03*
X3320000D03*
G54D30*
X7970000Y-2660000D03*
Y-2406000D03*
X8088100Y-638400D03*
Y-318400D03*
X7928100Y-478400D03*
X8248100D03*
G54D21*
X5890000Y-2645000D03*
Y-2405000D03*
X6080000Y-2645000D03*
X5985000D03*
X6080000Y-2405000D03*
G54D13*
X2241700Y-2592300D03*
X2946700D03*
G54D31*
X8283300Y-2173400D03*
Y-2123400D03*
Y-2073400D03*
Y-2023400D03*
Y-1973400D03*
Y-1923400D03*
Y-1873400D03*
Y-1823400D03*
G54D22*
X5854000Y-2200000D03*
Y-2010000D03*
Y-2105000D03*
X6114000Y-2200000D03*
Y-2010000D03*
Y-2105000D03*
G54D23*
X5829700Y-1695350D03*
Y-1595350D03*
Y-1495350D03*
Y-1395350D03*
X6129700Y-1695350D03*
X6029700D03*
X5929700D03*
X6129700Y-1595350D03*
X6029700D03*
X5929700D03*
X6129700Y-1495350D03*
X6029700D03*
X5929700D03*
X6129700Y-1395350D03*
X6029700D03*
X5929700D03*
X6129700Y-1295350D03*
X6029700D03*
X5929700D03*
X6229700Y-1695350D03*
Y-1595350D03*
Y-1495350D03*
Y-1395350D03*
Y-1295350D03*
G54D14*
X2420000Y-2335000D03*
X2470000D03*
X2520000D03*
X2570000D03*
X2620000D03*
X2670000D03*
X2720000D03*
X2770000D03*
G54D15*
X2610000Y-1160000D03*
Y-920000D03*
Y-1060000D03*
Y-820000D03*
X4845000Y-2225000D03*
Y-2125000D03*
X4970000Y-407500D03*
Y-307500D03*
X4820000Y-408000D03*
Y-308000D03*
X5790000Y-570000D03*
Y-670000D03*
X5960000Y-360000D03*
Y-460000D03*
X6100000D03*
Y-360000D03*
X6250000Y-2520000D03*
Y-2620000D03*
X6290000Y-360000D03*
Y-460000D03*
X6430000D03*
Y-360000D03*
X6620000Y-2250000D03*
Y-2150000D03*
Y-360000D03*
Y-460000D03*
X6730000Y-2490000D03*
Y-2620000D03*
Y-2720000D03*
Y-2390000D03*
X6760000Y-2250000D03*
Y-2150000D03*
Y-460000D03*
Y-360000D03*
G54D24*
X6410000Y-2615000D03*
Y-2430000D03*
X6540000Y-2615000D03*
X6475000D03*
X6540000Y-2430000D03*
G54D16*
X4430000Y-2660000D03*
X4760000D03*
X8540600Y-2351700D03*
Y-1646700D03*
G54D25*
X6674900Y-1880100D03*
X6676100Y-1117800D03*
X6924900Y-1880100D03*
X6874900D03*
X6824900D03*
X6774900D03*
X6724900D03*
X6926100Y-1117800D03*
X6876100D03*
X6826100D03*
X6776100D03*
X6726100D03*
X7224900Y-1880100D03*
X7174900D03*
X7124900D03*
X7074900D03*
X7024900D03*
X6974900D03*
X7226100Y-1117800D03*
X7176100D03*
X7126100D03*
X7076100D03*
X7026100D03*
X6976100D03*
G54D17*
X5050000Y-2470000D03*
Y-2430000D03*
X5040000Y-1850000D03*
Y-1810000D03*
Y-1200000D03*
Y-1160000D03*
X5130000Y-2470000D03*
X5090000D03*
X5130000Y-2430000D03*
X5090000D03*
X5120000Y-1850000D03*
X5080000D03*
X5120000Y-1810000D03*
X5080000D03*
X5120000Y-1200000D03*
X5080000D03*
X5120000Y-1160000D03*
X5080000D03*
G54D26*
X6570000Y-1675400D03*
Y-1725400D03*
Y-1775400D03*
Y-1425400D03*
Y-1475400D03*
Y-1525400D03*
Y-1575400D03*
Y-1625400D03*
Y-1225400D03*
Y-1275400D03*
Y-1325400D03*
Y-1375400D03*
X7332300Y-1724800D03*
Y-1674800D03*
Y-1774800D03*
Y-1624800D03*
Y-1574800D03*
Y-1524800D03*
Y-1474800D03*
Y-1424800D03*
Y-1374800D03*
Y-1324800D03*
Y-1274800D03*
Y-1224800D03*
G54D27*
X6949700Y-1500000D03*
G54D18*
X4845000Y-770000D03*
Y-675000D03*
Y-580000D03*
X5110000Y-770000D03*
Y-675000D03*
Y-580000D03*
X6930000Y-2620000D03*
Y-2430000D03*
X7170000Y-2525000D03*
Y-2620000D03*
Y-2430000D03*
X7480000Y-2620000D03*
Y-2525000D03*
Y-2430000D03*
X7720000Y-2620000D03*
Y-2430000D03*
G54D19*
X5120000Y-290000D03*
Y-430000D03*
G54D28*
X6993400Y-509100D03*
Y-317600D03*
X7264170Y-411500D03*
X7463400Y-509100D03*
Y-317600D03*
X7734170Y-411500D03*
G54D29*
X7583600Y-1776350D03*
X7710600D03*
X7583600Y-1216350D03*
X7710600D03*
X7837600Y-1776350D03*
X7964600D03*
X7837600Y-1216350D03*
X7964600D03*
M02*
