G04 ================== begin FILE IDENTIFICATION RECORD ==================*
G04 Layout Name:  F:/3-MyLaptopDIR/POF-PSU-C2/PCB/PSU-C2-6Layers.brd*
G04 Film Name:    SIG*
G04 File Format:  Gerber RS274X*
G04 File Origin:  Cadence Allegro 22.1-P001*
G04 Origin Date:  Wed Jun  4 14:44:14 2025*
G04 *
G04 Layer:  VIA CLASS/SIG1*
G04 Layer:  PIN/SIG1*
G04 Layer:  ETCH/SIG1*
G04 *
G04 Offset:    (0.0000 0.0000)*
G04 Mirror:    No*
G04 Mode:      Positive*
G04 Rotation:  0*
G04 FullContactRelief:  No*
G04 UndefLineWidth:     0.0254*
G04 ================== end FILE IDENTIFICATION RECORD ====================*
%FSLAX25Y25*MOMM*%
%IR0*IPPOS*OFA0.00000B0.00000*MIA0B0*SFA1.00000B1.00000*%
%ADD11C,.4*%
%ADD14C,1.2*%
%ADD10C,2.3*%
%ADD12C,2.5*%
%ADD13C,1.8*%
%ADD15C,.2*%
%ADD16C,.22*%
%ADD17C,.16*%
G75*
%LPD*%
G75*
G54D10*
X300000Y-2700000D03*
Y-300000D03*
X8700000Y-2700000D03*
Y-300000D03*
G54D11*
G01X5210000Y-2630000D02*
X5130000Y-2550000D01*
X5000000D01*
X4947300Y-2497300D01*
Y-2340000D01*
G01D02*
Y-2260000D01*
G01X5800000Y-460000D02*
X5735000Y-525000D01*
X5166400D01*
X5089500Y-601900D01*
Y-744000D01*
X5185600Y-840100D01*
X5260700D01*
X5755000Y-1334400D01*
Y-1447710D01*
X5842290Y-1535000D01*
X5940000D01*
X6020000Y-1615000D01*
Y-1760000D01*
X6115000Y-1855000D01*
X6257700D01*
X6432700Y-2030000D01*
G01X6370000Y-2252700D02*
X6317300D01*
X6265000Y-2305000D01*
Y-2375000D01*
X6225000Y-2415000D01*
X6075000D01*
X5949500Y-2289500D01*
X5839500D01*
X5650000Y-2100000D01*
Y-1870000D01*
G01X5800000Y-460000D02*
Y-450000D01*
X5837300Y-412700D01*
G01X5800000Y-460000D02*
Y-470820D01*
X5837300Y-508120D01*
G01X6450000Y-1110000D02*
X6380000D01*
G01X7367300Y-2720000D02*
X6967300D01*
X6930000Y-2682700D01*
X350000Y-2130000D03*
Y-2000300D03*
Y-1880000D03*
Y-860000D03*
Y-990000D03*
X290000Y-682700D03*
X620000Y-2752700D03*
X547300Y-2690000D03*
X467300Y-2460000D03*
X530000Y-2387300D03*
X520000Y-2000000D03*
Y-2130000D03*
X690000D03*
Y-2000300D03*
X520000Y-1880000D03*
X690000D03*
X520000Y-920000D03*
X700000Y-870000D03*
X520000Y-1050000D03*
X700000Y-996700D03*
X520000Y-800000D03*
X670000Y-382700D03*
X912700Y-2480000D03*
X727300Y-2670000D03*
X820000Y-2417300D03*
X917300Y-1990000D03*
X890000Y-1840000D03*
X970000Y-1730000D03*
X959500Y-1249500D03*
X732700Y-510000D03*
X1060000Y-2590000D03*
X1062700Y-2320000D03*
X1120000Y-2380000D03*
X1240000Y-1987300D03*
X1147300Y-2145000D03*
X1160000Y-1712700D03*
X1222700Y-1380000D03*
X1060000Y-1500000D03*
X1196900Y-950000D03*
X1239500Y-841600D03*
X1080000Y-310000D03*
X1332700Y-2240000D03*
Y-2050000D03*
X1433300Y-990100D03*
X1368400Y-843200D03*
X1305500Y-842200D03*
X1260000Y-657300D03*
X1447300Y-790000D03*
X1590000Y-2240000D03*
Y-2050000D03*
X1617300Y-1800000D03*
X1749060Y-1470000D03*
X1665600Y-837800D03*
X1667800Y-973900D03*
X1678300Y-649000D03*
X1667000Y-715100D03*
X1832700Y-2050000D03*
X1841340Y-1702670D03*
X1990000Y-1790000D03*
X1830000Y-1862700D03*
X2000000Y-1460000D03*
X1988200Y-1199500D03*
X1826200Y-647700D03*
X2096600Y-2570600D03*
Y-2639300D03*
X2099700Y-2711100D03*
X2240000Y-1560000D03*
X2420000Y-2485000D03*
X2454200Y-2579200D03*
X2455800Y-2635800D03*
X2455200Y-2694700D03*
X2511100Y-2500800D03*
X2360000Y-2435000D03*
X2591300Y-2089700D03*
X2542300Y-2018800D03*
X2360000Y-1950000D03*
X2541300Y-1880900D03*
X2600500Y-1677750D03*
X2561140Y-1642700D03*
X2502700Y-1410000D03*
X2570000D03*
X2418200Y-1110000D03*
X2440000Y-1187300D03*
X2610000Y-757300D03*
X2537300Y-820000D03*
X2812400Y-2568700D03*
X2813400Y-2640200D03*
X2812400Y-2710300D03*
X2840000Y-2205000D03*
X2703290Y-2049690D03*
X2770000Y-1722400D03*
X2660000Y-1680000D03*
X2870000Y-1880000D03*
X2854800Y-1418500D03*
X2637300Y-1410000D03*
X2803400Y-1169900D03*
X2807200Y-1362800D03*
X2682700Y-820000D03*
X3000000Y-1980000D03*
X2977900Y-1497400D03*
X2908500Y-1468600D03*
X3029200Y-1117500D03*
X3110000Y-1360000D03*
X2989400Y-978200D03*
X3164200Y-1880000D03*
X3348860Y-1450000D03*
X3347300Y-1507300D03*
X3410000Y-1440000D03*
X3213900Y-1422300D03*
X3297900Y-1124800D03*
X3419000Y-1166800D03*
X3210700Y-1360500D03*
X3530000Y-1940000D03*
X3497300Y-2010000D03*
X3610000Y-1940000D03*
X3510000Y-607300D03*
X3586200Y-703700D03*
X3510700Y-541700D03*
X3896300Y-2071400D03*
X3798700Y-1980100D03*
X3754300Y-730000D03*
X4240000Y-2670000D03*
Y-2737300D03*
X4127700Y-2105000D03*
X4207300Y-1199500D03*
X4212700Y-1050000D03*
X4220000Y-470000D03*
X4140000Y-330000D03*
X4310000Y-2670000D03*
Y-2737300D03*
X4330000Y-2432700D03*
X4392700Y-2360000D03*
X4399700Y-1947600D03*
X4412700Y-1728500D03*
X4492700Y-1590000D03*
X4280000Y-1136800D03*
Y-1362200D03*
X4330000Y-890000D03*
Y-749000D03*
X4740000Y-2537300D03*
X4690000Y-1767300D03*
X4752700Y-1840000D03*
X4672700Y-1440000D03*
X4750000D03*
X4560000Y-1607300D03*
X4539400Y-1250600D03*
X4540000Y-1330000D03*
X4730000Y-1122700D03*
X4640000Y-1137300D03*
X4730000Y-1300000D03*
X4560000Y-625100D03*
X4750000Y-770000D03*
X4720000Y-307300D03*
X4661760Y-309730D03*
X4680780Y-260580D03*
X4740000Y-260000D03*
X4807300Y-2500000D03*
X4950000Y-2670000D03*
X4807300Y-2432700D03*
X4947300Y-2260000D03*
Y-2340000D03*
X4950000Y-2050000D03*
Y-1690000D03*
X4940000Y-1400000D03*
X4950000Y-1620000D03*
X4830000Y-1122700D03*
X4980000Y-850000D03*
X4947300Y-970000D03*
Y-1040000D03*
X4980000Y-550000D03*
X4892700Y-412700D03*
X4970000Y-230000D03*
X5130000Y-2760000D03*
X5210000Y-2500000D03*
Y-2630000D03*
Y-2410000D03*
X5180000Y-2260000D03*
X5220000Y-2050000D03*
X5330000Y-2070000D03*
X5200000Y-1790000D03*
Y-1870000D03*
X5180000Y-1620000D03*
X5220000Y-1400000D03*
X5200000Y-1130000D03*
Y-1210000D03*
X5180000Y-970000D03*
X5217300Y-674700D03*
X5230000Y-230000D03*
X5380000Y-2020000D03*
X5450000Y-2050000D03*
Y-1950000D03*
X5350000D03*
X5607300Y-1317300D03*
X5520000Y-670000D03*
X5390000Y-720000D03*
X5627300Y-2662700D03*
Y-2717300D03*
X5690000Y-2650000D03*
Y-2710000D03*
X5747300Y-2352700D03*
Y-2420000D03*
X5672700Y-2417300D03*
Y-2352700D03*
X5770000Y-2010000D03*
X5850000Y-1870000D03*
X5650000D03*
X5877530Y-1447520D03*
X5650000Y-1542700D03*
Y-1620000D03*
X5720000Y-1540000D03*
X5874350Y-1640000D03*
X5630000Y-1380000D03*
Y-1437300D03*
X5690000Y-1122700D03*
X5767300D03*
Y-1197300D03*
X5770000Y-880000D03*
X5870000Y-1070000D03*
X5640000Y-720000D03*
X5762700Y-750000D03*
X5817300Y-777300D03*
X5837300Y-412700D03*
X5800000Y-460000D03*
X5837300Y-508120D03*
X5666500Y-242700D03*
X5739900D03*
X5811200D03*
X6150000Y-2720000D03*
X6080000Y-2312300D03*
X6007300Y-2210000D03*
X5936700Y-2200000D03*
X5952700Y-2405000D03*
X6031300Y-2010000D03*
X5936700Y-2105000D03*
X6088650Y-1198650D03*
X6050000Y-840000D03*
X5970000Y-980000D03*
X6100000Y-297300D03*
X6419000Y-2760000D03*
X6330000Y-2620000D03*
X6370000Y-2252700D03*
X6410000Y-2327300D03*
X6277100Y-1742750D03*
X6340000Y-1700000D03*
X6168020Y-1742280D03*
X6380000Y-1110000D03*
X6202530Y-1222520D03*
X6152700Y-730000D03*
X6180600Y-586600D03*
X6320000Y-802700D03*
X6590000Y-2760000D03*
X6520500Y-2327300D03*
X6630000Y-2430000D03*
X6693100Y-2250000D03*
X6570000Y-2030000D03*
X6432700D03*
X6515200Y-2095400D03*
X6579800Y-1880100D03*
X6436400Y-1425400D03*
X6450000Y-1110000D03*
X6560000Y-1120000D03*
X6487300Y-1375400D03*
X6436000Y-1325400D03*
X6482700Y-730000D03*
X6510600Y-586600D03*
X6650000Y-792700D03*
X6430000Y-297300D03*
X6530000Y-400000D03*
X6930000Y-2682700D03*
X6870000Y-2240000D03*
X6900000Y-2347300D03*
X6790000Y-2050000D03*
X6924900Y-2040600D03*
X6874900Y-1962800D03*
X6760000Y-1720000D03*
X6840000D03*
X6760000Y-1650000D03*
Y-1590000D03*
X6840000Y-1650000D03*
X6760000Y-1520000D03*
X6840000Y-1590000D03*
X6826100Y-1035100D03*
X6750000Y-820000D03*
X6960000Y-710000D03*
X6830000Y-720000D03*
X6840000Y-586600D03*
X6760000Y-282230D03*
X7110000Y-2240000D03*
X7170000Y-2330000D03*
X7074900Y-2030000D03*
X7110000Y-2150000D03*
X7124900Y-1962800D03*
X7200000Y-2040000D03*
X6974900Y-1962800D03*
X7224900D03*
X7170000Y-1550000D03*
Y-1620000D03*
X7080000Y-1490000D03*
X7026100Y-977300D03*
X6976100Y-1035100D03*
X7170000Y-670000D03*
X6993400Y-259400D03*
X7120000Y-260000D03*
X7262700Y-2525000D03*
X7387300D03*
X7367300Y-2620000D03*
X7262700D03*
X7367300Y-2720000D03*
X7460000Y-2240000D03*
X7480000Y-2330000D03*
X7360000Y-2240000D03*
X7428100Y-2090000D03*
X7338200Y-1934100D03*
X7297900Y-1850900D03*
X7497000Y-1748000D03*
X7415000Y-1674800D03*
X7454900Y-1867900D03*
X7415000Y-1574800D03*
X7410000Y-1195420D03*
X7415000Y-1324800D03*
X7420000Y-1100000D03*
X7430000Y-700000D03*
X7310000Y-620000D03*
X7367200Y-317600D03*
X7360370Y-411500D03*
X7660000Y-2720000D03*
X7720000Y-2300000D03*
X7707300Y-2120000D03*
X7514300Y-1824600D03*
X7748700Y-1574200D03*
X7710600Y-1339050D03*
X7732700Y-660000D03*
X7637970Y-420000D03*
X7620000Y-330000D03*
X7810000Y-2720000D03*
X7852700Y-2250000D03*
X7890000Y-2070000D03*
X8051200Y-1625100D03*
X7926700Y-1575100D03*
X7837600Y-1339050D03*
X7964300D03*
X8220000Y-2510000D03*
X8147300Y-2660000D03*
X8100000Y-2286350D03*
X8230000Y-2290000D03*
X8300000D03*
X8230000Y-2370000D03*
X8300000D03*
X8110000Y-2072000D03*
X8090000Y-1994660D03*
Y-1860000D03*
X8129300Y-1922600D03*
X8300500Y-1433700D03*
X8297600Y-1563400D03*
X8079500Y-1242500D03*
X8290000Y-1180000D03*
X8300000Y-1308200D03*
X8290000Y-1050000D03*
X8300000Y-927000D03*
X8432700Y-2560000D03*
X8377300Y-2290000D03*
Y-2370000D03*
X8442700Y-1943000D03*
X8726800Y-2331000D03*
X8727300Y-2409000D03*
X8648300D03*
Y-2332000D03*
X8682300Y-2268600D03*
X8713300Y-2134200D03*
X8650000Y-1940000D03*
Y-1816000D03*
Y-1689000D03*
X8650300Y-1435200D03*
X8730000Y-1560000D03*
X8650000Y-1180000D03*
X8640000Y-1310000D03*
X8650000Y-1060000D03*
Y-930000D03*
Y-800000D03*
G54D12*
X1390000Y-2525000D03*
Y-1750000D03*
Y-1250000D03*
Y-475000D03*
X3810000Y-2525000D03*
Y-1750000D03*
Y-1250000D03*
Y-475000D03*
G54D13*
X1810000Y-310000D03*
X2190000D03*
X2900000D03*
X3320000D03*
G54D14*
X7970000Y-2660000D03*
Y-2406000D03*
X8088100Y-638400D03*
Y-318400D03*
X7928100Y-478400D03*
X8248100D03*
G54D15*
G01X8147300Y-2660000D02*
Y-2617300D01*
X8070000Y-2540000D01*
X7545000D01*
X7465000Y-2460000D01*
X7060000D01*
X6915000Y-2605000D01*
X6470000D01*
X6385000Y-2690000D01*
X6260000D01*
X6209350Y-2639350D01*
X5804350D01*
X5735000Y-2570000D01*
X5507600D01*
X5271900Y-2334300D01*
X5143400D01*
X4952300Y-2143200D01*
X4733700D01*
X4591900Y-2285000D01*
X3305000D01*
X3230000Y-2360000D01*
X2750000D01*
X2650000Y-2460000D01*
Y-2670000D01*
X2560000Y-2760000D01*
X2315000D01*
X2260000Y-2705000D01*
Y-2545000D01*
X2165000Y-2450000D01*
X1980000D01*
X1915000Y-2515000D01*
Y-2635000D01*
X1825000Y-2725000D01*
X1050000D01*
X995000Y-2670000D01*
X727300D01*
G01X1147300Y-2145000D02*
Y-1764460D01*
X1160000Y-1751760D01*
Y-1712700D01*
G01X4212700Y-1050000D02*
X4150000D01*
X4130000Y-1070000D01*
Y-1410000D01*
X4020000Y-1520000D01*
X3720000D01*
X3555000Y-1685000D01*
X2880010D01*
X2755010Y-1560000D01*
X2430000D01*
X2135000Y-1855000D01*
Y-2015000D01*
X2000000Y-2150000D01*
X1510000D01*
X1420000Y-2240000D01*
X1332700D01*
G01X2240000Y-1560000D02*
X2300000D01*
X2370000Y-1490000D01*
X2795000D01*
X2925000Y-1620000D01*
X3510000D01*
X3680000Y-1450000D01*
X3980000D01*
X4060000Y-1370000D01*
Y-630000D01*
X4220000Y-470000D01*
G01X7707300Y-2120000D02*
X7595000Y-2232300D01*
Y-2340000D01*
X7533000Y-2402000D01*
X6975000D01*
X6857000Y-2520000D01*
X5815000D01*
X5790000Y-2495000D01*
X5585000D01*
X5410600Y-2320600D01*
Y-2260600D01*
X5317300Y-2167300D01*
X5196100D01*
X5003300Y-1974500D01*
X4763400D01*
X4527900Y-2210000D01*
X3230000D01*
X3160000Y-2280000D01*
X2735010D01*
X2703290Y-2248280D01*
Y-2049690D01*
G01X4830000Y-1122700D02*
X4892300Y-1185000D01*
X4990000D01*
X5104600Y-1299600D01*
X5334600D01*
X5415000Y-1380000D01*
Y-1640000D01*
X5530000Y-1755000D01*
X5695000D01*
X5750000Y-1810000D01*
Y-1885000D01*
X5830000Y-1965000D01*
X5890000D01*
X5940000Y-1915000D01*
X6050000D01*
X6235000Y-2100000D01*
X6420000D01*
X6500000Y-2180000D01*
X6623100D01*
X6693100Y-2250000D01*
G01X5870000Y-1070000D02*
Y-1310000D01*
X6190000Y-1630000D01*
X6540000D01*
X6670000Y-1760000D01*
Y-2005000D01*
X6715000Y-2050000D01*
X6790000D01*
G01X7367200Y-317600D02*
X7237400D01*
X7065000Y-490000D01*
Y-835000D01*
X7115000Y-885000D01*
Y-1055000D01*
X6817490Y-1352510D01*
X6682490D01*
X6550000Y-1485000D01*
X6245000D01*
X6030000Y-1270000D01*
Y-1135000D01*
X6070000Y-1095000D01*
Y-960000D01*
X5990000Y-880000D01*
X5770000D01*
G01X6007300Y-2210000D02*
X6052300Y-2165000D01*
X6380000D01*
X6470000Y-2255000D01*
X6585000D01*
X6665000Y-2335000D01*
X6760000D01*
X6780000Y-2315000D01*
Y-2172600D01*
X6857450Y-2095150D01*
Y-2031410D01*
X6790000Y-1963960D01*
Y-1925800D01*
X6960500Y-1755300D01*
Y-1469500D01*
X7310000Y-1120000D01*
Y-900000D01*
X7430000Y-780000D01*
Y-700000D01*
G01X5970000Y-980000D02*
Y-1085000D01*
X5939800Y-1115200D01*
Y-1264800D01*
X6230000Y-1555000D01*
X6605000D01*
X6725000Y-1435000D01*
X6870000D01*
X7215000Y-1090000D01*
Y-810000D01*
X7405000Y-620000D01*
X7500000D01*
X7570000Y-690000D01*
Y-807000D01*
X7690000Y-927000D01*
X8300000D01*
G01X6050000Y-840000D02*
X6110000D01*
X6280000Y-1010000D01*
Y-1360000D01*
X6345400Y-1425400D01*
X6436400D01*
G01X6320000Y-802700D02*
X6422300Y-905000D01*
X6525000D01*
X6645000Y-1025000D01*
Y-1170000D01*
X6615000Y-1200000D01*
X6380000D01*
X6360000Y-1220000D01*
Y-1350000D01*
X6385400Y-1375400D01*
X6487300D01*
G01X6650000Y-792700D02*
Y-890000D01*
X6725000Y-965000D01*
Y-1225000D01*
X6690000Y-1260000D01*
X6458700D01*
X6436000Y-1282700D01*
Y-1325400D01*
G01X7074900Y-2030000D02*
X7049900Y-2005000D01*
Y-1920100D01*
X7280000Y-1690000D01*
Y-1525000D01*
X7335000Y-1470000D01*
X7530000D01*
X7570000Y-1510000D01*
Y-1580000D01*
X7645000Y-1655000D01*
X7934040D01*
X8039040Y-1550000D01*
X8135000D01*
X8210000Y-1625000D01*
X8675000D01*
X8740000Y-1690000D01*
Y-1835000D01*
X8695000Y-1880000D01*
X8605000D01*
X8465000Y-2020000D01*
Y-2410000D01*
X8365000Y-2510000D01*
X8220000D01*
G01X8650000Y-1816000D02*
X8599000Y-1765000D01*
X8040000D01*
X7935000Y-1870000D01*
X7800000D01*
X7520000Y-2150000D01*
X7110000D01*
G01X7224900Y-1962800D02*
X7244840D01*
X7292040Y-2010000D01*
X7480000D01*
X7715000Y-1775000D01*
X7925000D01*
X8011000Y-1689000D01*
X8650000D01*
G01X8442700Y-1943000D02*
X8382000D01*
X8335000Y-1990000D01*
Y-2125000D01*
X8275000Y-2185000D01*
X7917700D01*
X7852700Y-2250000D01*
G01X7964300Y-1339050D02*
X7926700Y-1376650D01*
Y-1575100D01*
G01X8650000Y-1940000D02*
X8550000Y-2040000D01*
Y-2442700D01*
X8432700Y-2560000D01*
G54D16*
G01X959500Y-1249500D02*
Y-1539500D01*
X1070000Y-1650000D01*
Y-1795000D01*
X1035000Y-1830000D01*
Y-2150000D01*
X1165000Y-2280000D01*
Y-2335000D01*
X1120000Y-2380000D01*
G01X1060000Y-1500000D02*
X1565000D01*
X1655900Y-1590900D01*
X1921000D01*
X1990000Y-1659900D01*
Y-1790000D01*
G54D17*
G01X6650000Y-792700D02*
Y-525000D01*
X6605000Y-480000D01*
X6395000D01*
X6302490Y-387490D01*
X6072490D01*
X5990000Y-305000D01*
X4840000D01*
X4620000Y-525000D01*
X4505000D01*
X4445000Y-585000D01*
Y-985000D01*
X4375000Y-1055000D01*
Y-1425000D01*
X4130000Y-1670000D01*
Y-1745000D01*
X3795000Y-2080000D01*
X3420000D01*
X3360000Y-2020000D01*
Y-1885000D01*
X3297500Y-1822500D01*
X2667500D01*
X2600000Y-1755000D01*
X2425000D01*
X2245000Y-1935000D01*
Y-2320000D01*
X2360000Y-2435000D01*
G01X2420000Y-2485000D02*
Y-2025000D01*
X2490000Y-1955000D01*
X2775000D01*
X2815000Y-1995000D01*
Y-2080000D01*
X2880000Y-2145000D01*
X3970000D01*
X4035000Y-2080000D01*
Y-2000000D01*
X4235000Y-1800000D01*
Y-1690000D01*
X4450000Y-1475000D01*
Y-1110000D01*
X4565000Y-995000D01*
Y-760000D01*
X4745000Y-580000D01*
X4830000D01*
X4975000Y-435000D01*
X5615000D01*
X5700000Y-350000D01*
X5905000D01*
X6025000Y-470000D01*
X6245000D01*
X6320000Y-545000D01*
Y-802700D01*
M02*
