G04 ================== begin FILE IDENTIFICATION RECORD ==================*
G04 Layout Name:  F:/3-MyLaptopDIR/POF-PSU-C2/PCB/PSU-C2-6Layers.brd*
G04 Film Name:    TOP*
G04 File Format:  Gerber RS274X*
G04 File Origin:  Cadence Allegro 22.1-P001*
G04 Origin Date:  Wed Jun  4 14:44:14 2025*
G04 *
G04 Layer:  ETCH/TOP*
G04 Layer:  PIN/TOP*
G04 Layer:  VIA CLASS/TOP*
G04 *
G04 Offset:    (0.0000 0.0000)*
G04 Mirror:    No*
G04 Mode:      Positive*
G04 Rotation:  0*
G04 FullContactRelief:  No*
G04 UndefLineWidth:     0.2540*
G04 ================== end FILE IDENTIFICATION RECORD ====================*
%FSLAX25Y25*MOMM*%
%IR0*IPPOS*OFA0.00000B0.00000*MIA0B0*SFA1.00000B1.00000*%
%ADD24R,1.X.5*%
%ADD29R,1.X.24*%
%ADD28R,.24X1.*%
%ADD34R,1.5X.3*%
%ADD20R,1.2X.6*%
%ADD23R,.6X1.2*%
%ADD16R,.3X1.5*%
%ADD32R,.6X1.8*%
%ADD31R,1.27X.51*%
%ADD11C,.4*%
%ADD26C,.8*%
%ADD25C,.35*%
%ADD19C,.27*%
%ADD22R,2.2X1.05*%
%ADD15R,1.8X1.5*%
%ADD18R,1.5X1.8*%
%ADD33C,1.2*%
%ADD27R,.3X.8*%
%ADD17R,.8X.6*%
%ADD10C,2.3*%
%ADD12R,.6X.8*%
%ADD13C,2.5*%
%ADD21R,.9X.8*%
%ADD14C,1.8*%
%ADD30R,5.X5.*%
%ADD35C,.2*%
%ADD36C,.3*%
%ADD37C,.22*%
%ADD38C,.13*%
%ADD39C,.23*%
%ADD40C,.5*%
%ADD41C,.24*%
%ADD42C,.15*%
%ADD43C,.25*%
%ADD44C,.16*%
%ADD45C,.36*%
%ADD46C,.127*%
%ADD47C,.28*%
%ADD48C,1.*%
G75*
%LPD*%
G75*
G36*
G01X4350000Y-2570000D02*
X4500000D01*
Y-2770000D01*
X4230000D01*
G02X4200000Y-2740000I0J30000D01*
G01Y-2660000D01*
G02X4230000Y-2630000I30000J0D01*
G01X4320000D01*
G03X4350000Y-2600000I0J30000D01*
G01Y-2570000D01*
G37*
G36*
G01X4680000Y-2760000D02*
Y-2430000D01*
G02X4710000Y-2400000I30000J0D01*
G01X4810000D01*
G02X4840000Y-2430000I0J-30000D01*
G01Y-2760000D01*
X4680000D01*
G37*
G36*
G01X4770000Y-380000D02*
X5020000D01*
X5030000Y-390000D01*
X5170000D01*
Y-480000D01*
X4930000D01*
X4910000Y-500000D01*
Y-610000D01*
X4790000D01*
G02X4770000Y-590000I0J20000D01*
G01Y-380000D01*
G37*
G36*
G01X4650000Y-230000D02*
X4840000D01*
G02X4860000Y-250000I0J-20000D01*
G01Y-340000D01*
X4650000D01*
G02X4630000Y-320000I0J20000D01*
G01Y-250000D01*
G02X4650000Y-230000I20000J0D01*
G37*
G36*
G01X5570000Y-2090000D02*
Y-1900000D01*
G03X5540000Y-1870000I-30000J0D01*
G01X5330000D01*
G03X5300000Y-1900000I0J-30000D01*
G01Y-2080000D01*
G03X5330000Y-2110000I30000J0D01*
G01X5550000D01*
G03X5570000Y-2090000I0J20000D01*
G37*
G36*
G01X5050000Y-610000D02*
X5190000D01*
G03X5224140Y-595860I0J48283D01*
G01X5415860Y-404140D01*
G02X5450000Y-390000I34139J-34142D01*
G01X5560000D01*
Y-280000D01*
X5340000D01*
Y-400000D01*
G02X5325860Y-434140I-48277J-3D01*
G01X5224140Y-535860D01*
G02X5190000Y-550000I-34140J34143D01*
G01X5050000D01*
Y-610000D01*
G37*
G36*
G01X5340000Y-2630000D02*
X5700000D01*
G02X5720000Y-2650000I0J-20000D01*
G01Y-2730000D01*
G02X5700000Y-2750000I-20000J0D01*
G01X5360000D01*
G02X5340000Y-2730000I0J20000D01*
G01Y-2630000D01*
G37*
G36*
G01X5590000Y-1290000D02*
X5640000D01*
G02X5670000Y-1320000I0J-30000D01*
G01Y-1440000D01*
G02X5640000Y-1470000I-30000J0D01*
G01X5340000D01*
Y-1350000D01*
X5530000D01*
G03X5560000Y-1320000I0J30000D01*
G02X5590000Y-1290000I30000J0D01*
G37*
G36*
G01X5340000Y-820000D02*
Y-660000D01*
G02X5360000Y-640000I20000J0D01*
G01X5830000D01*
G02X5850000Y-660000I0J-20000D01*
G01Y-800000D01*
G02X5830000Y-820000I-20000J0D01*
G01X5340000D01*
G37*
G36*
G01X5790000Y-380000D02*
X5850000D01*
G02X5870000Y-400000I0J-20000D01*
G01Y-580000D01*
G02X5850000Y-600000I-20000J0D01*
G01X5750000D01*
Y-540000D01*
G03X5770000Y-520000I0J20000D01*
G01Y-400000D01*
G02X5790000Y-380000I20000J0D01*
G37*
G36*
G01X8465600Y-2261700D02*
Y-2441700D01*
X8760000D01*
Y-2261700D01*
X8465600D01*
G37*
G54D10*
X300000Y-2700000D03*
Y-300000D03*
X8700000Y-2700000D03*
Y-300000D03*
G54D11*
G01X570000Y-510000D02*
Y-590000D01*
X550000Y-610000D01*
X390000D01*
G01X290000D02*
Y-682700D01*
G01X670000Y-510000D02*
X732700D01*
G01X670000Y-310000D02*
Y-382700D01*
G01X912700Y-2480000D02*
Y-2582700D01*
X930000Y-2600000D01*
Y-2680000D01*
G01X770000Y-310000D02*
X910000D01*
G01X1060000Y-2590000D02*
X1030000Y-2620000D01*
Y-2680000D01*
G01X1010000Y-310000D02*
X1080000D01*
G01X2241700Y-2592300D02*
X2220000Y-2570600D01*
X2096600D01*
G01X2099700Y-2711100D02*
X2208900D01*
X2244610Y-2675390D01*
Y-2639300D01*
G01D02*
Y-2595210D01*
X2241700Y-2592300D01*
G01X2244610Y-2639300D02*
X2096600D01*
G01X2570000Y-1410000D02*
Y-1320000D01*
X2610000Y-1280000D01*
Y-1160000D01*
G01Y-920000D02*
Y-1060000D01*
G01Y-820000D02*
X2537300D01*
G01X2610000D02*
Y-757300D01*
G01Y-820000D02*
X2682700D01*
G01X2812400Y-2568700D02*
X2923100D01*
X2946700Y-2592300D01*
G01X2945000Y-2640200D02*
Y-2675000D01*
X2909700Y-2710300D01*
X2812400D01*
G01X2945000Y-2640200D02*
X2813400D01*
G01X2946700Y-2592300D02*
X2945000Y-2594000D01*
Y-2640200D01*
G01X2989400Y-978200D02*
X2930000Y-1037600D01*
Y-1247100D01*
X3042900Y-1360000D01*
X3110000D01*
G01X4250000Y-330000D02*
X4140000D01*
G01X4740000Y-2420000D02*
Y-2335000D01*
X4587090Y-2182090D01*
Y-1902890D01*
X4412700Y-1728500D01*
G01X4740000Y-2464600D02*
Y-2537300D01*
G01Y-2420000D02*
Y-2464600D01*
G01X4845000Y-770000D02*
X4750000D01*
G01X5040000Y-2260000D02*
X4947300D01*
G01D02*
Y-2340000D01*
G01X4950000Y-1620000D02*
Y-1690000D01*
G01Y-1620000D02*
X5000000D01*
X5030000Y-1650000D01*
G01X4980000Y-850000D02*
X5079060D01*
X5110000Y-819060D01*
Y-770000D01*
G01X5030000Y-970000D02*
X4947300D01*
G01Y-1040000D02*
Y-970000D01*
G01X4980000Y-550000D02*
Y-650000D01*
X4955000Y-675000D01*
X4845000D01*
G01X4970000Y-307500D02*
Y-230000D01*
G01X5130000Y-2670000D02*
X5170000Y-2630000D01*
X5210000D01*
G01X5140000Y-2260000D02*
X5180000D01*
G01X5130000Y-2050000D02*
X5220000D01*
G01X5180000Y-1620000D02*
X5150000Y-1650000D01*
X5130000D01*
G01X5220000Y-1400000D02*
Y-1395000D01*
X5175000Y-1350000D01*
X5125000D01*
G01X5130000Y-970000D02*
X5180000D01*
G01X5110000Y-675000D02*
X5217000D01*
X5217300Y-674700D01*
G01X5230000Y-230000D02*
X5170000Y-290000D01*
X5120000D01*
G01X6114000Y-2105000D02*
Y-2200000D01*
G01X6270000Y-2105000D02*
X6114000D01*
G01X5990000Y-730000D02*
Y-799000D01*
X6031000Y-840000D01*
X6050000D01*
G01X6152700Y-730000D02*
X6090000D01*
G01Y-590000D02*
X6177200D01*
X6180600Y-586600D01*
G01X5990000Y-590000D02*
Y-730000D01*
G01X6100000Y-360000D02*
Y-297300D01*
G01X5960000Y-460000D02*
X6100000D01*
G01X6370000Y-2252700D02*
Y-2180000D01*
G01Y-2030000D02*
X6432700D01*
G01X6270000D02*
Y-2105000D01*
G01D02*
Y-2180000D01*
G01X6420000Y-730000D02*
X6482700D01*
G01X6420000Y-590000D02*
X6507200D01*
X6510600Y-586600D01*
G01X6320000Y-730000D02*
Y-590000D01*
G01Y-802700D02*
Y-730000D01*
G01X6290000Y-460000D02*
X6430000D01*
G01X6693100Y-2250000D02*
X6760000D01*
G01X6620000D02*
X6693100D01*
G01X6650000Y-590000D02*
Y-720000D01*
G01D02*
Y-792700D01*
G01X6430000Y-360000D02*
Y-297300D01*
G01X6620000Y-460000D02*
X6760000D01*
G01X6730000Y-2620000D02*
Y-2540000D01*
G01Y-2490000D02*
Y-2540000D01*
G01X6930000Y-2620000D02*
Y-2682700D01*
G01X6940000Y-2240000D02*
X6870000D01*
G01X6930000Y-2430000D02*
X6931350Y-2428650D01*
Y-2378650D01*
X6900000Y-2347300D01*
G01X6750000Y-720000D02*
X6830000D01*
G01X6750000Y-590000D02*
X6836600D01*
X6840000Y-586600D01*
G01X6760000Y-360000D02*
Y-282230D01*
G01X7040000Y-2240000D02*
X7110000D01*
G01D02*
X7180000D01*
G01X6993400Y-317600D02*
Y-259400D01*
G01X7463400Y-509100D02*
X6993400D01*
G01X7280000Y-2240000D02*
X7360000D01*
G01X7428100Y-2003500D02*
Y-2090000D01*
G01X7420000Y-1100000D02*
X7527250D01*
X7583600Y-1156350D01*
Y-1216350D01*
G01X7463400Y-317600D02*
X7367200D01*
G01X7550000Y-660000D02*
Y-557700D01*
X7501400Y-509100D01*
X7463400D01*
G01X7264170Y-411500D02*
X7360370D01*
G01X7720000Y-2620000D02*
X7850940D01*
X7890940Y-2660000D01*
X7970000D01*
G01X7720000Y-2430000D02*
Y-2300000D01*
G01X7640000Y-2240000D02*
X7695660D01*
X7720000Y-2264340D01*
Y-2300000D01*
G01X7650000Y-660000D02*
X7732700D01*
G01X7734170Y-411500D02*
X7668500D01*
X7660000Y-420000D01*
X7637970D01*
G01X7990000Y-2140000D02*
Y-2003500D01*
X350000Y-2130000D03*
Y-2000300D03*
Y-1880000D03*
Y-860000D03*
Y-990000D03*
X290000Y-682700D03*
X620000Y-2752700D03*
X547300Y-2690000D03*
X467300Y-2460000D03*
X530000Y-2387300D03*
X520000Y-2000000D03*
Y-2130000D03*
X690000D03*
Y-2000300D03*
X520000Y-1880000D03*
X690000D03*
X520000Y-920000D03*
X700000Y-870000D03*
X520000Y-1050000D03*
X700000Y-996700D03*
X520000Y-800000D03*
X670000Y-382700D03*
X912700Y-2480000D03*
X727300Y-2670000D03*
X820000Y-2417300D03*
X917300Y-1990000D03*
X890000Y-1840000D03*
X970000Y-1730000D03*
X959500Y-1249500D03*
X732700Y-510000D03*
X1060000Y-2590000D03*
X1062700Y-2320000D03*
X1120000Y-2380000D03*
X1240000Y-1987300D03*
X1147300Y-2145000D03*
X1160000Y-1712700D03*
X1222700Y-1380000D03*
X1060000Y-1500000D03*
X1196900Y-950000D03*
X1239500Y-841600D03*
X1080000Y-310000D03*
X1332700Y-2240000D03*
Y-2050000D03*
X1433300Y-990100D03*
X1368400Y-843200D03*
X1305500Y-842200D03*
X1260000Y-657300D03*
X1447300Y-790000D03*
X1590000Y-2240000D03*
Y-2050000D03*
X1617300Y-1800000D03*
X1749060Y-1470000D03*
X1665600Y-837800D03*
X1667800Y-973900D03*
X1678300Y-649000D03*
X1667000Y-715100D03*
X1832700Y-2050000D03*
X1841340Y-1702670D03*
X1990000Y-1790000D03*
X1830000Y-1862700D03*
X2000000Y-1460000D03*
X1988200Y-1199500D03*
X1826200Y-647700D03*
X2096600Y-2570600D03*
Y-2639300D03*
X2099700Y-2711100D03*
X2240000Y-1560000D03*
X2420000Y-2485000D03*
X2454200Y-2579200D03*
X2455800Y-2635800D03*
X2455200Y-2694700D03*
X2511100Y-2500800D03*
X2360000Y-2435000D03*
X2591300Y-2089700D03*
X2542300Y-2018800D03*
X2360000Y-1950000D03*
X2541300Y-1880900D03*
X2600500Y-1677750D03*
X2561140Y-1642700D03*
X2502700Y-1410000D03*
X2570000D03*
X2418200Y-1110000D03*
X2440000Y-1187300D03*
X2610000Y-757300D03*
X2537300Y-820000D03*
X2812400Y-2568700D03*
X2813400Y-2640200D03*
X2812400Y-2710300D03*
X2840000Y-2205000D03*
X2703290Y-2049690D03*
X2770000Y-1722400D03*
X2660000Y-1680000D03*
X2870000Y-1880000D03*
X2854800Y-1418500D03*
X2637300Y-1410000D03*
X2803400Y-1169900D03*
X2807200Y-1362800D03*
X2682700Y-820000D03*
X3000000Y-1980000D03*
X2977900Y-1497400D03*
X2908500Y-1468600D03*
X3029200Y-1117500D03*
X3110000Y-1360000D03*
X2989400Y-978200D03*
X3164200Y-1880000D03*
X3348860Y-1450000D03*
X3347300Y-1507300D03*
X3410000Y-1440000D03*
X3213900Y-1422300D03*
X3297900Y-1124800D03*
X3419000Y-1166800D03*
X3210700Y-1360500D03*
X3530000Y-1940000D03*
X3497300Y-2010000D03*
X3610000Y-1940000D03*
X3510000Y-607300D03*
X3586200Y-703700D03*
X3510700Y-541700D03*
X3896300Y-2071400D03*
X3798700Y-1980100D03*
X3754300Y-730000D03*
X4240000Y-2670000D03*
Y-2737300D03*
X4127700Y-2105000D03*
X4207300Y-1199500D03*
X4212700Y-1050000D03*
X4220000Y-470000D03*
X4140000Y-330000D03*
X4310000Y-2670000D03*
Y-2737300D03*
X4330000Y-2432700D03*
X4392700Y-2360000D03*
X4399700Y-1947600D03*
X4412700Y-1728500D03*
X4492700Y-1590000D03*
X4280000Y-1136800D03*
Y-1362200D03*
X4330000Y-890000D03*
Y-749000D03*
X4740000Y-2537300D03*
X4690000Y-1767300D03*
X4752700Y-1840000D03*
X4672700Y-1440000D03*
X4750000D03*
X4560000Y-1607300D03*
X4539400Y-1250600D03*
X4540000Y-1330000D03*
X4730000Y-1122700D03*
X4640000Y-1137300D03*
X4730000Y-1300000D03*
X4560000Y-625100D03*
X4750000Y-770000D03*
X4720000Y-307300D03*
X4661760Y-309730D03*
X4680780Y-260580D03*
X4740000Y-260000D03*
X4807300Y-2500000D03*
X4950000Y-2670000D03*
X4807300Y-2432700D03*
X4947300Y-2260000D03*
Y-2340000D03*
X4950000Y-2050000D03*
Y-1690000D03*
X4940000Y-1400000D03*
X4950000Y-1620000D03*
X4830000Y-1122700D03*
X4980000Y-850000D03*
X4947300Y-970000D03*
Y-1040000D03*
X4980000Y-550000D03*
X4892700Y-412700D03*
X4970000Y-230000D03*
X5130000Y-2760000D03*
X5210000Y-2500000D03*
Y-2630000D03*
Y-2410000D03*
X5180000Y-2260000D03*
X5220000Y-2050000D03*
X5330000Y-2070000D03*
X5200000Y-1790000D03*
Y-1870000D03*
X5180000Y-1620000D03*
X5220000Y-1400000D03*
X5200000Y-1130000D03*
Y-1210000D03*
X5180000Y-970000D03*
X5217300Y-674700D03*
X5230000Y-230000D03*
X5380000Y-2020000D03*
X5450000Y-2050000D03*
Y-1950000D03*
X5350000D03*
X5607300Y-1317300D03*
X5520000Y-670000D03*
X5390000Y-720000D03*
X5627300Y-2662700D03*
Y-2717300D03*
X5690000Y-2650000D03*
Y-2710000D03*
X5747300Y-2352700D03*
Y-2420000D03*
X5672700Y-2417300D03*
Y-2352700D03*
X5770000Y-2010000D03*
X5850000Y-1870000D03*
X5650000D03*
X5877530Y-1447520D03*
X5650000Y-1542700D03*
Y-1620000D03*
X5720000Y-1540000D03*
X5874350Y-1640000D03*
X5630000Y-1380000D03*
Y-1437300D03*
X5690000Y-1122700D03*
X5767300D03*
Y-1197300D03*
X5770000Y-880000D03*
X5870000Y-1070000D03*
X5640000Y-720000D03*
X5762700Y-750000D03*
X5817300Y-777300D03*
X5837300Y-412700D03*
X5800000Y-460000D03*
X5837300Y-508120D03*
X5666500Y-242700D03*
X5739900D03*
X5811200D03*
X6150000Y-2720000D03*
X6080000Y-2312300D03*
X6007300Y-2210000D03*
X5936700Y-2200000D03*
X5952700Y-2405000D03*
X6031300Y-2010000D03*
X5936700Y-2105000D03*
X6088650Y-1198650D03*
X6050000Y-840000D03*
X5970000Y-980000D03*
X6100000Y-297300D03*
X6419000Y-2760000D03*
X6330000Y-2620000D03*
X6370000Y-2252700D03*
X6410000Y-2327300D03*
X6277100Y-1742750D03*
X6340000Y-1700000D03*
X6168020Y-1742280D03*
X6380000Y-1110000D03*
X6202530Y-1222520D03*
X6152700Y-730000D03*
X6180600Y-586600D03*
X6320000Y-802700D03*
X6590000Y-2760000D03*
X6520500Y-2327300D03*
X6630000Y-2430000D03*
X6693100Y-2250000D03*
X6570000Y-2030000D03*
X6432700D03*
X6515200Y-2095400D03*
X6579800Y-1880100D03*
X6436400Y-1425400D03*
X6450000Y-1110000D03*
X6560000Y-1120000D03*
X6487300Y-1375400D03*
X6436000Y-1325400D03*
X6482700Y-730000D03*
X6510600Y-586600D03*
X6650000Y-792700D03*
X6430000Y-297300D03*
X6530000Y-400000D03*
X6930000Y-2682700D03*
X6870000Y-2240000D03*
X6900000Y-2347300D03*
X6790000Y-2050000D03*
X6924900Y-2040600D03*
X6874900Y-1962800D03*
X6760000Y-1720000D03*
X6840000D03*
X6760000Y-1650000D03*
Y-1590000D03*
X6840000Y-1650000D03*
X6760000Y-1520000D03*
X6840000Y-1590000D03*
X6826100Y-1035100D03*
X6750000Y-820000D03*
X6960000Y-710000D03*
X6830000Y-720000D03*
X6840000Y-586600D03*
X6760000Y-282230D03*
X7110000Y-2240000D03*
X7170000Y-2330000D03*
X7074900Y-2030000D03*
X7110000Y-2150000D03*
X7124900Y-1962800D03*
X7200000Y-2040000D03*
X6974900Y-1962800D03*
X7224900D03*
X7170000Y-1550000D03*
Y-1620000D03*
X7080000Y-1490000D03*
X7026100Y-977300D03*
X6976100Y-1035100D03*
X7170000Y-670000D03*
X6993400Y-259400D03*
X7120000Y-260000D03*
X7262700Y-2525000D03*
X7387300D03*
X7367300Y-2620000D03*
X7262700D03*
X7367300Y-2720000D03*
X7460000Y-2240000D03*
X7480000Y-2330000D03*
X7360000Y-2240000D03*
X7428100Y-2090000D03*
X7338200Y-1934100D03*
X7297900Y-1850900D03*
X7497000Y-1748000D03*
X7415000Y-1674800D03*
X7454900Y-1867900D03*
X7415000Y-1574800D03*
X7410000Y-1195420D03*
X7415000Y-1324800D03*
X7420000Y-1100000D03*
X7430000Y-700000D03*
X7310000Y-620000D03*
X7367200Y-317600D03*
X7360370Y-411500D03*
X7660000Y-2720000D03*
X7720000Y-2300000D03*
X7707300Y-2120000D03*
X7514300Y-1824600D03*
X7748700Y-1574200D03*
X7710600Y-1339050D03*
X7732700Y-660000D03*
X7637970Y-420000D03*
X7620000Y-330000D03*
X7810000Y-2720000D03*
X7852700Y-2250000D03*
X7890000Y-2070000D03*
X8051200Y-1625100D03*
X7926700Y-1575100D03*
X7837600Y-1339050D03*
X7964300D03*
X8220000Y-2510000D03*
X8147300Y-2660000D03*
X8100000Y-2286350D03*
X8230000Y-2290000D03*
X8300000D03*
X8230000Y-2370000D03*
X8300000D03*
X8110000Y-2072000D03*
X8090000Y-1994660D03*
Y-1860000D03*
X8129300Y-1922600D03*
X8300500Y-1433700D03*
X8297600Y-1563400D03*
X8079500Y-1242500D03*
X8290000Y-1180000D03*
X8300000Y-1308200D03*
X8290000Y-1050000D03*
X8300000Y-927000D03*
X8432700Y-2560000D03*
X8377300Y-2290000D03*
Y-2370000D03*
X8442700Y-1943000D03*
X8726800Y-2331000D03*
X8727300Y-2409000D03*
X8648300D03*
Y-2332000D03*
X8682300Y-2268600D03*
X8713300Y-2134200D03*
X8650000Y-1940000D03*
Y-1816000D03*
Y-1689000D03*
X8650300Y-1435200D03*
X8730000Y-1560000D03*
X8650000Y-1180000D03*
X8640000Y-1310000D03*
X8650000Y-1060000D03*
Y-930000D03*
Y-800000D03*
G54D20*
X4845000Y-770000D03*
Y-675000D03*
Y-580000D03*
X5110000Y-770000D03*
Y-675000D03*
Y-580000D03*
X6930000Y-2620000D03*
Y-2430000D03*
X7170000Y-2525000D03*
Y-2620000D03*
Y-2430000D03*
X7480000Y-2620000D03*
Y-2525000D03*
Y-2430000D03*
X7720000Y-2620000D03*
Y-2430000D03*
G54D30*
X6949700Y-1500000D03*
G54D21*
X5120000Y-290000D03*
Y-430000D03*
G54D12*
X290000Y-610000D03*
X390000D03*
X570000Y-510000D03*
X670000D03*
Y-310000D03*
X930000Y-2680000D03*
X910000Y-310000D03*
X770000D03*
X1030000Y-2680000D03*
X1010000Y-310000D03*
X4250000Y-330000D03*
X4350000D03*
X5030000Y-2670000D03*
X5040000Y-2260000D03*
X5030000Y-2050000D03*
Y-1650000D03*
X5025000Y-1505000D03*
Y-1350000D03*
X5030000Y-970000D03*
X5130000Y-2670000D03*
X5140000Y-2260000D03*
X5130000Y-2050000D03*
Y-1650000D03*
X5125000Y-1505000D03*
Y-1350000D03*
X5130000Y-970000D03*
X5770000Y-980000D03*
X5870000D03*
X5990000Y-730000D03*
X6090000D03*
Y-590000D03*
X5990000D03*
X6270000Y-2180000D03*
X6370000D03*
X6270000Y-2030000D03*
X6370000D03*
X6320000Y-730000D03*
X6420000D03*
Y-590000D03*
X6320000D03*
X6650000Y-720000D03*
Y-590000D03*
X6940000Y-2240000D03*
X6750000Y-720000D03*
Y-590000D03*
X7040000Y-2240000D03*
X7180000D03*
X7280000D03*
X7428100Y-2003500D03*
X7540000Y-2240000D03*
X7640000D03*
X7528100Y-2003500D03*
X7661300Y-2003000D03*
X7761300D03*
X7650000Y-660000D03*
X7550000D03*
X7990000Y-2003500D03*
X7890000D03*
X7990000Y-2140000D03*
X7890000D03*
G54D40*
G01X4560000Y-625100D02*
X4350000Y-415100D01*
Y-330000D01*
G01X4845000Y-675000D02*
X4609900D01*
X4560000Y-625100D01*
G01X4970000Y-307500D02*
X5038440D01*
X5055940Y-290000D01*
X5120000D01*
G54D13*
X1390000Y-2525000D03*
Y-1750000D03*
Y-1250000D03*
Y-475000D03*
X3810000Y-2525000D03*
Y-1750000D03*
Y-1250000D03*
Y-475000D03*
G54D22*
X5450000Y-2680000D03*
Y-2240000D03*
Y-2050000D03*
Y-1610000D03*
Y-1400000D03*
Y-960000D03*
Y-770000D03*
Y-330000D03*
G54D31*
X6993400Y-509100D03*
Y-317600D03*
X7264170Y-411500D03*
X7463400Y-509100D03*
Y-317600D03*
X7734170Y-411500D03*
G54D41*
G01X6674900Y-1880100D02*
X6579800D01*
G01X6874900D02*
Y-1962800D01*
G01X6826100Y-1117800D02*
Y-1035100D01*
G01X6976100Y-1117800D02*
Y-1035100D01*
G01X7332300Y-1224800D02*
X7380620D01*
X7410000Y-1195420D01*
G01X7332300Y-1324800D02*
X7415000D01*
G54D14*
X1810000Y-310000D03*
X2190000D03*
X2900000D03*
X3320000D03*
G54D32*
X7583600Y-1776350D03*
X7710600D03*
X7583600Y-1216350D03*
X7710600D03*
X7837600Y-1776350D03*
X7964600D03*
X7837600Y-1216350D03*
X7964600D03*
G54D23*
X5890000Y-2645000D03*
Y-2405000D03*
X6080000Y-2645000D03*
X5985000D03*
X6080000Y-2405000D03*
G54D42*
G01X6486700Y-1930400D02*
X6027050D01*
X5829700Y-1733050D01*
Y-1695350D01*
G01X6029700D02*
Y-1779700D01*
X6089900Y-1839900D01*
X6363300D01*
X6477800Y-1725400D01*
X6570000D01*
G01Y-1675400D02*
X6451600D01*
X6329700Y-1797300D01*
X6131600D01*
X6076900Y-1742600D01*
Y-1642550D01*
X6029700Y-1595350D01*
G01X5929700Y-1695350D02*
Y-1749700D01*
X6070000Y-1890000D01*
X6385200D01*
X6499800Y-1775400D01*
X6570000D01*
G01X5929700Y-1595350D02*
X5985050Y-1540000D01*
X6319700D01*
X6334300Y-1525400D01*
X6570000D01*
G01Y-1625400D02*
X6412900D01*
X6393700Y-1644600D01*
X6178950D01*
X6129700Y-1595350D01*
G01X6029700Y-1495350D02*
X6074700Y-1450350D01*
Y-1365300D01*
X6096100Y-1343900D01*
X6305800D01*
X6374300Y-1275400D01*
X6570000D01*
G01Y-1475400D02*
X6343400D01*
X6311000Y-1443000D01*
X6182050D01*
X6129700Y-1495350D01*
G01Y-1295350D02*
X6202530Y-1222520D01*
G01X6570000Y-1575400D02*
X6380590D01*
X6360640Y-1595350D01*
X6229700D01*
G01X6202530Y-1222520D02*
X6496920D01*
X6499800Y-1225400D01*
X6570000D01*
G01X6724900Y-1880100D02*
Y-1949160D01*
X6702160Y-1971900D01*
X6528200D01*
X6486700Y-1930400D01*
G01X6570000Y-1425400D02*
X6436400D01*
G01X6570000Y-1375400D02*
X6487300D01*
G01X6570000Y-1325400D02*
X6436000D01*
G01X6790000Y-2050000D02*
X6824900Y-2015100D01*
Y-1880100D01*
G01X6924900D02*
Y-2040600D01*
G01X8500000Y-820000D02*
X6950000D01*
X6876100Y-893900D01*
Y-1117800D01*
G01X8540000Y-690000D02*
X8365000D01*
X8285000Y-770000D01*
X6890000D01*
X6776100Y-883900D01*
Y-1117800D01*
G01X7074900Y-2030000D02*
Y-1880100D01*
G01X7124900D02*
Y-1962800D01*
G01X7338200Y-1934100D02*
X7300000Y-1972300D01*
Y-2070000D01*
X7280000Y-2090000D01*
X7015000D01*
X7000000Y-2075000D01*
Y-2030000D01*
X7024900Y-2005100D01*
Y-1880100D01*
G01X7200000Y-2040000D02*
X7174900Y-2014900D01*
Y-1880100D01*
G01X6974900D02*
Y-1962800D01*
G01X7224900Y-1880100D02*
Y-1962800D01*
G01X7176100Y-1117800D02*
Y-1043900D01*
X7233400Y-986600D01*
X8035400D01*
X8228800Y-1180000D01*
X8290000D01*
G01X7076100Y-1117800D02*
Y-1003900D01*
X7182300Y-897700D01*
X8137700D01*
X8290000Y-1050000D01*
G01X7026100Y-1117800D02*
Y-977300D01*
G01X7338200Y-1934100D02*
X7352300Y-1920000D01*
X7503300D01*
X7528100Y-1944800D01*
Y-2003500D01*
G01X7332300Y-1724800D02*
X7419000D01*
X7442200Y-1748000D01*
X7497000D01*
G01X7332300Y-1674800D02*
X7415000D01*
G01X7710600Y-1776350D02*
Y-1716200D01*
X7678500Y-1684100D01*
Y-1669400D01*
X7650700Y-1641600D01*
X7532200D01*
X7499000Y-1674800D01*
X7415000D01*
G01X7332300Y-1774800D02*
X7401260D01*
X7454900Y-1828440D01*
Y-1867900D01*
G01X7332300Y-1574800D02*
X7415000D01*
G01X7332300Y-1624800D02*
X7479900D01*
X7513900Y-1590800D01*
X7671010D01*
X7718210Y-1638000D01*
X7786410D01*
X7849310Y-1575100D01*
X7926700D01*
G01X8650000Y-930000D02*
X8609800D01*
X8581570Y-901770D01*
Y-901570D01*
X8500000Y-820000D01*
G01X8650000Y-800000D02*
X8540000Y-690000D01*
G54D33*
X7970000Y-2660000D03*
Y-2406000D03*
X8088100Y-638400D03*
Y-318400D03*
X7928100Y-478400D03*
X8248100D03*
G54D15*
X2241700Y-2592300D03*
X2946700D03*
G54D24*
X5854000Y-2200000D03*
Y-2010000D03*
Y-2105000D03*
X6114000Y-2200000D03*
Y-2010000D03*
Y-2105000D03*
G54D43*
G01X2360000Y-1950000D02*
Y-1835000D01*
X2395000Y-1800000D01*
X2790000D01*
X2870000Y-1880000D01*
G01X5030000Y-2670000D02*
X4950000D01*
G01X5050000Y-2470000D02*
X5010000Y-2510000D01*
G01D02*
Y-2570000D01*
X5030000Y-2590000D01*
Y-2670000D01*
G01X5050000Y-2430000D02*
X5020000Y-2400000D01*
Y-2345200D01*
X5040000Y-2325200D01*
Y-2260000D01*
G01X5030000Y-2050000D02*
X4950000D01*
G01D02*
X4870000D01*
X4845000Y-2075000D01*
Y-2125000D01*
G01X5030000Y-2050000D02*
Y-1970000D01*
X5000000Y-1940000D01*
Y-1890000D01*
G01X5040000Y-1810000D02*
X5012630Y-1782630D01*
Y-1732570D01*
X5030000Y-1715200D01*
Y-1650000D01*
G01X5000000Y-1890000D02*
X5040000Y-1850000D01*
G01X5025000Y-1505000D02*
X4930000D01*
X4840000Y-1595000D01*
Y-1780000D01*
X4950000Y-1890000D01*
X5000000D01*
G01X5025000Y-1350000D02*
Y-1284800D01*
X5002780Y-1262580D01*
Y-1237220D01*
X5040000Y-1200000D01*
G01Y-1160000D02*
X5010000Y-1130000D01*
Y-1055200D01*
X5030000Y-1035200D01*
Y-970000D01*
G01X5450000Y-2680000D02*
Y-2602300D01*
X5407700Y-2560000D01*
X5115000D01*
X5090000Y-2535000D01*
Y-2470000D01*
G01X5450000Y-2240000D02*
Y-2320000D01*
X5420000Y-2350000D01*
X5130000D01*
X5090000Y-2390000D01*
Y-2430000D01*
G01X5350000Y-1950000D02*
X5120000D01*
X5080000Y-1910000D01*
Y-1850000D01*
G01X5450000Y-1610000D02*
Y-1707300D01*
X5427300Y-1730000D01*
X5110000D01*
X5080000Y-1760000D01*
Y-1810000D01*
G01X5450000Y-1400000D02*
Y-1322300D01*
X5392700Y-1265000D01*
X5106300D01*
X5080000Y-1238700D01*
Y-1200000D01*
G01Y-1160000D02*
Y-1100000D01*
X5116350Y-1063650D01*
X5424050D01*
X5450000Y-1037700D01*
Y-960000D01*
G01Y-2050000D02*
Y-1950000D01*
G01D02*
X5350000D01*
G01X7990000Y-2140000D02*
X8140000D01*
X8156600Y-2123400D01*
X8283300D01*
G01X7837600Y-1216350D02*
Y-1339050D01*
G01X8100000Y-2286350D02*
X8212950Y-2173400D01*
X8283300D01*
G01X8540600Y-2120000D02*
X8537200Y-2123400D01*
X8283300D01*
G01Y-1823400D02*
X8126600D01*
X8090000Y-1860000D01*
G01X8283300Y-1923400D02*
X8174130D01*
X8173330Y-1922600D01*
X8129300D01*
G54D25*
G01X7761300Y-2003000D02*
X7840440D01*
X7840940Y-2003500D01*
X7890000D01*
G01D02*
Y-1940000D01*
X7964600Y-1865400D01*
Y-1776350D01*
G01X7890000Y-2070000D02*
Y-2003500D01*
G01Y-2140000D02*
Y-2070000D01*
X5829700Y-1695350D03*
Y-1595350D03*
Y-1495350D03*
Y-1395350D03*
X6129700Y-1695350D03*
X6029700D03*
X5929700D03*
X6129700Y-1595350D03*
X6029700D03*
X5929700D03*
X6129700Y-1495350D03*
X6029700D03*
X5929700D03*
X6129700Y-1395350D03*
X6029700D03*
X5929700D03*
X6129700Y-1295350D03*
X6029700D03*
X5929700D03*
X6229700Y-1695350D03*
Y-1595350D03*
Y-1495350D03*
Y-1395350D03*
Y-1295350D03*
G54D16*
X2420000Y-2335000D03*
X2470000D03*
X2520000D03*
X2570000D03*
X2620000D03*
X2670000D03*
X2720000D03*
X2770000D03*
G54D34*
X8283300Y-2173400D03*
Y-2123400D03*
Y-2073400D03*
Y-2023400D03*
Y-1973400D03*
Y-1923400D03*
Y-1873400D03*
Y-1823400D03*
G54D44*
G01X1147300Y-2145000D02*
X1685000D01*
X1720000Y-2180000D01*
X2485000D01*
X2505000Y-2200000D01*
X2595000D01*
X2620000Y-2225000D01*
Y-2335000D01*
G01X1590000Y-2050000D02*
X1700000D01*
X1780000Y-2130000D01*
X2515000D01*
X2540000Y-2155000D01*
X2625000D01*
X2670000Y-2200000D01*
Y-2335000D01*
G01X6150000Y-900000D02*
X6080000D01*
X6050000Y-930000D01*
Y-1080000D01*
X5979700Y-1150300D01*
Y-1345350D01*
X5929700Y-1395350D01*
G01X6029700Y-1295350D02*
Y-1257600D01*
X6088650Y-1198650D01*
G01D02*
X6120000Y-1167300D01*
Y-1090000D01*
X6200000Y-1010000D01*
X6290000D01*
G01D02*
X6638500D01*
X6676100Y-1047600D01*
Y-1117800D01*
G01X6150000Y-900000D02*
X6340000D01*
X6370000Y-930000D01*
X6670000D01*
X6726100Y-986100D01*
Y-1117800D01*
G01X8251300Y-1647300D02*
X8182700D01*
X8110500Y-1575100D01*
X7926700D01*
G01X8251300Y-1647300D02*
X8312000D01*
X8413900Y-1749200D01*
Y-1842300D01*
X8382800Y-1873400D01*
X8283300D01*
G54D35*
G01X2703290Y-2049690D02*
X2598600Y-1945000D01*
X2470000D01*
X2365000Y-2050000D01*
X1832700D01*
G01X2470000Y-2335000D02*
Y-2420000D01*
X2440000Y-2450000D01*
Y-2465000D01*
X2420000Y-2485000D01*
G01Y-2335000D02*
Y-2395000D01*
X2380000Y-2435000D01*
X2360000D01*
G01X5010000Y-2510000D02*
X4960000D01*
X4920000Y-2470000D01*
Y-2415000D01*
X4845000Y-2340000D01*
Y-2225000D01*
G01X4940000Y-1400000D02*
Y-1360940D01*
X4950940Y-1350000D01*
X5025000D01*
G01D02*
Y-1410000D01*
X5040000Y-1425000D01*
X5105000D01*
X5125000Y-1445000D01*
Y-1505000D01*
G01X5770000Y-880000D02*
Y-980000D01*
G01X5870000D02*
X5970000D01*
G01X6290000Y-240000D02*
X5980000D01*
X5960000Y-260000D01*
Y-360000D01*
G01X6290000Y-240000D02*
Y-360000D01*
G01X6620000D02*
Y-270000D01*
X6590000Y-240000D01*
X6290000D01*
G01X6620000Y-2150000D02*
Y-2120000D01*
X6774900Y-1965100D01*
Y-1880100D01*
G01X6530000Y-400000D02*
Y-380000D01*
X6550000Y-360000D01*
X6620000D01*
G01X6730000Y-2720000D02*
X6820000D01*
X6850000Y-2750000D01*
X7010000D01*
X7050000Y-2710000D01*
X7275000D01*
X7315000Y-2670000D01*
Y-2575000D01*
X7325000Y-2565000D01*
Y-2465000D01*
X7360000Y-2430000D01*
X7480000D01*
G01X6730000Y-2390000D02*
X6800000D01*
X6820000Y-2410000D01*
Y-2500000D01*
X6850000Y-2530000D01*
X6997300D01*
X7087300Y-2620000D01*
X7170000D01*
G01X6760000Y-2150000D02*
X7110000D01*
G01X7964600Y-1216350D02*
Y-1338750D01*
X7964300Y-1339050D01*
G01X8110000Y-2072000D02*
X8124500D01*
X8125900Y-2073400D01*
X8283300D01*
G01X8090000Y-1994660D02*
X8161160D01*
X8189900Y-2023400D01*
X8283300D01*
G01X8090000Y-1860000D02*
Y-1800000D01*
X8103100Y-1786900D01*
Y-1740400D01*
G54D17*
X2610000Y-1160000D03*
Y-920000D03*
Y-1060000D03*
Y-820000D03*
X4845000Y-2225000D03*
Y-2125000D03*
X4970000Y-407500D03*
Y-307500D03*
X4820000Y-408000D03*
Y-308000D03*
X5790000Y-570000D03*
Y-670000D03*
X5960000Y-360000D03*
Y-460000D03*
X6100000D03*
Y-360000D03*
X6250000Y-2520000D03*
Y-2620000D03*
X6290000Y-360000D03*
Y-460000D03*
X6430000D03*
Y-360000D03*
X6620000Y-2250000D03*
Y-2150000D03*
Y-360000D03*
Y-460000D03*
X6730000Y-2490000D03*
Y-2620000D03*
Y-2720000D03*
Y-2390000D03*
X6760000Y-2250000D03*
Y-2150000D03*
Y-460000D03*
Y-360000D03*
G54D26*
X6150000Y-900000D03*
X6290000Y-1010000D03*
X6486700Y-1930400D03*
X8220000Y-2510000D03*
X8251300Y-1647300D03*
X8103100Y-1740400D03*
X8559500Y-1402100D03*
X8526600Y-1285400D03*
X8525700Y-1156700D03*
X8514400Y-1027900D03*
X8500000Y-820000D03*
X8540000Y-690000D03*
G54D45*
G01X7661300Y-2003000D02*
X7612600D01*
X7612100Y-2003500D01*
X7528100D01*
G54D36*
G01X1433300Y-990100D02*
X1492400Y-1049200D01*
X1950800D01*
X1988200Y-1086600D01*
Y-1199500D01*
G01X1826200Y-647700D02*
Y-749000D01*
X1799600Y-775600D01*
X1523800D01*
X1509400Y-790000D01*
X1447300D01*
G01X2770000Y-2526300D02*
X2812400Y-2568700D01*
G01X2840000Y-2205000D02*
X3000000Y-2045000D01*
Y-1980000D01*
G01X4399700Y-1947600D02*
X3922400D01*
X3889900Y-1980100D01*
X3798700D01*
G01X4212700Y-1050000D02*
X4252700Y-1010000D01*
X4512700D01*
X4640000Y-1137300D01*
G01X5854000Y-2010000D02*
X5770000D01*
G01X5854000Y-2200000D02*
X5936700D01*
G01X5854000Y-2105000D02*
X5936700D01*
G01X5829700Y-1495350D02*
X5877530Y-1447520D01*
G01X5829700Y-1595350D02*
X5874350Y-1640000D01*
G01X6080000Y-2645000D02*
Y-2699060D01*
X6100940Y-2720000D01*
X6150000D01*
G01X5985000Y-2645000D02*
Y-2565940D01*
X6030940Y-2520000D01*
X6250000D01*
G01X6080000Y-2405000D02*
Y-2312300D01*
G01X5952700Y-2405000D02*
X5890000D01*
G01X6114000Y-2010000D02*
X6031300D01*
G01X6129700Y-1695350D02*
X6168020Y-1733670D01*
Y-1742280D01*
G01X6419000Y-2760000D02*
X6475000Y-2704000D01*
Y-2615000D01*
G01X6250000Y-2620000D02*
X6330000D01*
G01D02*
Y-2660000D01*
X6340000Y-2670000D01*
X6400000D01*
X6410000Y-2660000D01*
Y-2615000D01*
G01Y-2327300D02*
Y-2430000D01*
G01X6229700Y-1695350D02*
X6277100Y-1742750D01*
G01X6730000Y-2540000D02*
X6710000Y-2560000D01*
X6570000D01*
X6540000Y-2590000D01*
Y-2615000D01*
G01X6630000Y-2430000D02*
Y-2440000D01*
X6600000Y-2470000D01*
X6550000D01*
X6540000Y-2460000D01*
Y-2430000D01*
G01X7262700Y-2525000D02*
X7170000D01*
G01Y-2620000D02*
X7262700D01*
G01X7170000Y-2330000D02*
Y-2430000D01*
G01X7480000Y-2525000D02*
X7387300D01*
G01X7480000Y-2620000D02*
X7367300D01*
G01X7540000Y-2240000D02*
X7460000D01*
G01X7480000Y-2430000D02*
Y-2330000D01*
G01X7583600Y-1776350D02*
Y-1811900D01*
X7570900Y-1824600D01*
X7514300D01*
G01X8540600Y-1646700D02*
Y-2120000D01*
G01D02*
X8554800Y-2134200D01*
X8713300D01*
G54D27*
X6410000Y-2615000D03*
Y-2430000D03*
X6540000Y-2615000D03*
X6475000D03*
X6540000Y-2430000D03*
G54D18*
X4430000Y-2660000D03*
X4760000D03*
X8540600Y-2351700D03*
Y-1646700D03*
G54D46*
G01X5120000Y-2050000D02*
X5130000D01*
G01X5450000D02*
Y-2060000D01*
G01X7332300Y-1424800D02*
X7468500D01*
X7503100Y-1459400D01*
X8154000D01*
X8179700Y-1433700D01*
X8300500D01*
G01X7332300Y-1474800D02*
X7454000D01*
X7472500Y-1493300D01*
X7473300D01*
X7485000Y-1505000D01*
X7653300D01*
X7665000Y-1493300D01*
X8663300D01*
X8730000Y-1560000D01*
G01X7332300Y-1524800D02*
X7448000D01*
X7471000Y-1547800D01*
X7675600D01*
X7694600Y-1528800D01*
X8171310D01*
X8205910Y-1563400D01*
X8297600D01*
G01X7332300Y-1274800D02*
X7466500D01*
X7578900Y-1387200D01*
X8042200D01*
X8121200Y-1308200D01*
X8300000D01*
G54D37*
G01X7710600Y-1216350D02*
Y-1339050D01*
G54D19*
X5050000Y-2470000D03*
Y-2430000D03*
X5040000Y-1850000D03*
Y-1810000D03*
Y-1200000D03*
Y-1160000D03*
X5130000Y-2470000D03*
X5090000D03*
X5130000Y-2430000D03*
X5090000D03*
X5120000Y-1850000D03*
X5080000D03*
X5120000Y-1810000D03*
X5080000D03*
X5120000Y-1200000D03*
X5080000D03*
X5120000Y-1160000D03*
X5080000D03*
G54D28*
X6674900Y-1880100D03*
X6676100Y-1117800D03*
X6924900Y-1880100D03*
X6874900D03*
X6824900D03*
X6774900D03*
X6724900D03*
X6926100Y-1117800D03*
X6876100D03*
X6826100D03*
X6776100D03*
X6726100D03*
X7224900Y-1880100D03*
X7174900D03*
X7124900D03*
X7074900D03*
X7024900D03*
X6974900D03*
X7226100Y-1117800D03*
X7176100D03*
X7126100D03*
X7076100D03*
X7026100D03*
X6976100D03*
G54D47*
G01X2511100Y-2500800D02*
Y-2437960D01*
X2520000Y-2429060D01*
Y-2335000D01*
G01X2570000D02*
Y-2436700D01*
X2659600Y-2526300D01*
X2770000D01*
G01Y-2335000D02*
Y-2526300D01*
G01X2660000Y-1680000D02*
X2740000Y-1600000D01*
X2860000D01*
X2970000Y-1710000D01*
Y-1895000D01*
X2720000Y-2145000D01*
Y-2335000D01*
G54D38*
G01X8514400Y-1027900D02*
X8344700Y-858200D01*
X6981800D01*
X6926100Y-913900D01*
Y-1117800D01*
G01X7126100D02*
Y-1023900D01*
X7206400Y-943600D01*
X8086700D01*
X8259000Y-1115900D01*
X8395900D01*
X8436700Y-1156700D01*
X8525700D01*
G01X8526600Y-1285400D02*
X8452200D01*
X8409900Y-1243100D01*
X8203100D01*
X7993100Y-1033100D01*
X7272800D01*
X7226100Y-1079800D01*
Y-1117800D01*
G01X8559500Y-1402100D02*
X8510700D01*
X8478600Y-1370000D01*
X8161500D01*
X8106800Y-1424700D01*
X7534690D01*
X7484790Y-1374800D01*
X7332300D01*
G01X7837600Y-1776350D02*
Y-1667650D01*
X7875650Y-1629600D01*
X8008000D01*
X8012500Y-1625100D01*
X8051200D01*
G01X8559500Y-1402100D02*
X8617200D01*
X8650300Y-1435200D01*
G01X8650000Y-1180000D02*
X8610940D01*
X8587640Y-1156700D01*
X8525700D01*
G01X8640000Y-1310000D02*
X8615400Y-1285400D01*
X8526600D01*
G01X8650000Y-1060000D02*
X8617900Y-1027900D01*
X8514400D01*
G54D29*
X6570000Y-1675400D03*
Y-1725400D03*
Y-1775400D03*
Y-1425400D03*
Y-1475400D03*
Y-1525400D03*
Y-1575400D03*
Y-1625400D03*
Y-1225400D03*
Y-1275400D03*
Y-1325400D03*
Y-1375400D03*
X7332300Y-1724800D03*
Y-1674800D03*
Y-1774800D03*
Y-1624800D03*
Y-1574800D03*
Y-1524800D03*
Y-1474800D03*
Y-1424800D03*
Y-1374800D03*
Y-1324800D03*
Y-1274800D03*
Y-1224800D03*
G54D48*
G01X1390000Y-1250000D02*
X1335000Y-1195000D01*
X1205000D01*
X1127280Y-1117280D01*
Y-1117270D01*
X1020000Y-1009990D01*
Y-610000D01*
X1155000Y-475000D01*
X1390000D01*
G01X3810000Y-1250000D02*
X4000000Y-1060000D01*
Y-665000D01*
X3810000Y-475000D01*
G54D39*
G01X5130000Y-2470000D02*
X5160000Y-2500000D01*
X5210000D01*
G01Y-2410000D02*
X5150000D01*
X5130000Y-2430000D01*
G01X5200000Y-1790000D02*
X5140000D01*
X5120000Y-1810000D01*
G01Y-1850000D02*
X5140000Y-1870000D01*
X5200000D01*
G01Y-1130000D02*
X5196270Y-1126270D01*
X5163730D01*
X5130000Y-1160000D01*
X5120000D01*
G01X5200000Y-1210000D02*
X5130000D01*
X5120000Y-1200000D01*
M02*
