G04 ================== begin FILE IDENTIFICATION RECORD ==================*
G04 Layout Name:  F:/3-MyLaptopDIR/POF-PSU-C2/PCB/PSU-C2-6Layers.brd*
G04 Film Name:    VCC*
G04 File Format:  Gerber RS274X*
G04 File Origin:  Cadence Allegro 22.1-P001*
G04 Origin Date:  Wed Jun  4 14:44:14 2025*
G04 *
G04 Layer:  ETCH/VCC*
G04 Layer:  PIN/VCC*
G04 Layer:  VIA CLASS/VCC*
G04 *
G04 Offset:    (0.0000 0.0000)*
G04 Mirror:    No*
G04 Mode:      Positive*
G04 Rotation:  0*
G04 FullContactRelief:  No*
G04 UndefLineWidth:     0.2540*
G04 ================== end FILE IDENTIFICATION RECORD ====================*
%FSLAX25Y25*MOMM*%
%IR0*IPPOS*OFA0.00000B0.00000*MIA0B0*SFA1.00000B1.00000*%
%ADD11C,.4*%
%ADD14C,1.2*%
%ADD10C,2.3*%
%ADD12C,2.5*%
%ADD13C,1.8*%
%ADD15C,.2*%
%ADD16C,.3*%
%ADD17C,.22*%
%ADD18C,.127*%
%ADD23C,2.0004*%
%ADD20C,1.2004*%
%ADD21C,1.4004*%
%ADD22C,3.3004*%
%ADD19C,3.5004*%
G75*
%LPD*%
G75*
G36*
G01X5047700Y-200040D02*
X5152300D01*
G02X5162150Y-212710I5J-10160D01*
G03X5159980Y-230000I67849J-17297D01*
G03X5230000Y-300020I70020J0D01*
G03X5282260Y-276600I0J70017D01*
G02X5300000Y-283370I7580J-6765D01*
G01Y-1916800D01*
G03Y-1983200I49992J-33200D01*
G01Y-2018020D01*
G03Y-2121980I29992J-51980D01*
G01Y-2210000D01*
X5229020D01*
G03X5180000Y-2189980I-49020J-50004D01*
G03X5132400Y-2208650I0J-70014D01*
G01X5130940Y-2210000D01*
X5110000D01*
G03X5081720Y-2221720I7J-39997D01*
G01X4882150Y-2421280D01*
G02X4865170Y-2416790I-7184J7185D01*
G03X4807300Y-2372680I-57870J-15906D01*
G03X4747330Y-2430250I0J-60020D01*
G02X4737180Y-2440000I-10151J410D01*
G01X4716570D01*
X4670000Y-2393430D01*
Y-1835820D01*
X4675590D01*
X4676090Y-1835920D01*
G03X4682750Y-1836940I13918J68620D01*
G03X4682680Y-1840000I69948J-3131D01*
G03X4822720I70020J0D01*
G03X4759950Y-1770360I-70016J0D01*
G03X4760020Y-1767300I-69948J3131D01*
G03X4690000Y-1697280I-70020J0D01*
G03X4680120Y-1697980I-4J-70020D01*
G02X4668820Y-1690370I-1439J10058D01*
G03X4658280Y-1671720I-38819J-9635D01*
G01X4628280Y-1641720D01*
G03X4620020Y-1635380I-28275J-28287D01*
G01Y-1607300D01*
G03X4602440Y-1564860I-60017J0D01*
G01X4585140Y-1547560D01*
G03X4542700Y-1529980I-42440J-42437D01*
G01X4492700D01*
G03X4432680Y-1590000I0J-60020D01*
G01Y-1630000D01*
X4370000D01*
G03X4341720Y-1641720I7J-39997D01*
G01X4301720Y-1681720D01*
G03X4290000Y-1710000I28277J-28287D01*
G01Y-2375230D01*
G03Y-2490170I40000J-57470D01*
G01Y-2602800D01*
X4286620Y-2604000D01*
G03X4275000Y-2609360I23395J-65993D01*
G03X4240000Y-2599980I-35008J-60638D01*
G03X4169980Y-2670000I0J-70020D01*
G03X4178600Y-2703650I70018J7D01*
G03X4169980Y-2737300I61398J-33657D01*
G03X4187080Y-2783150I70018J0D01*
G02X4179400Y-2799960I-7681J-6650D01*
G01X691080D01*
G02X682070Y-2785100I-2J10161D01*
G03X690020Y-2752700I-62069J32405D01*
G03X688030Y-2736130I-70019J-5D01*
G02X702160Y-2724500I9872J2405D01*
G03X727300Y-2730020I25140J54488D01*
G03X667280Y-2670000I0J60020D01*
G03X668190Y-2680430I60022J-18D01*
G02X653350Y-2691130I-10003J-1768D01*
G03X620000Y-2682680I-33346J-61571D01*
G03X616940Y-2682750I71J-70018D01*
G03X547300Y-2619980I-69640J-7246D01*
G03X510200Y-2630620I5J-70019D01*
G02X495290Y-2625530I-5383J8616D01*
G03X214600Y-2512190I-191952J-71137D01*
G02X200040Y-2503030I-4400J9157D01*
G01Y-496570D01*
G02X214420Y-487330I10160J-2D01*
G03X299980Y-505950I85574J187332D01*
G01X300000D01*
G03X505950Y-300000I0J205950D01*
G01Y-299980D01*
G03X487330Y-214420I-205952J-14D01*
G02X496570Y-200040I9242J4220D01*
G01X1697780D01*
G02X1705370Y-216950I-3J-10160D01*
G03X1669980Y-310000I104632J-93050D01*
G03X1950020I140020J0D01*
G03X1914630Y-216950I-140022J0D01*
G02X1922220Y-200040I7593J6750D01*
G01X2091560D01*
G02X2098700Y-217430I2J-10160D01*
G03X2059980Y-310000I91296J-92570D01*
G03X2320020I130020J0D01*
G03X2281300Y-217430I-130016J0D01*
G02X2288440Y-200040I7138J7230D01*
G01X2801560D01*
G02X2808700Y-217430I2J-10160D01*
G03X2769980Y-310000I91296J-92570D01*
G03X3030020I130020J0D01*
G03X2991300Y-217430I-130016J0D01*
G02X2998440Y-200040I7138J7230D01*
G01X3207780D01*
G02X3215370Y-216950I-3J-10160D01*
G03X3179980Y-310000I104632J-93050D01*
G03X3460020I140020J0D01*
G03X3424630Y-216950I-140022J0D01*
G02X3432220Y-200040I7593J6750D01*
G01X4892300D01*
G02X4902150Y-212710I5J-10160D01*
G03X4899980Y-230000I67849J-17297D01*
G03X5040020I70020J0D01*
G03X5037850Y-212710I-70019J-7D01*
G02X5047700Y-200040I9845J2510D01*
G37*
G36*
G01X4482380Y-1710000D02*
X4583430D01*
X4590000Y-1716570D01*
Y-2410000D01*
G03X4601720Y-2438280I39997J7D01*
G01X4671720Y-2508280D01*
G03X4683690Y-2516520I28287J28277D01*
G03X4679980Y-2537300I56311J-20775D01*
G03X4740000Y-2597320I60020J0D01*
G03X4795980Y-2558940I0J60015D01*
G03X4807300Y-2560020I11335J58939D01*
G03X4862690Y-2523120I0J60023D01*
G01X4863990Y-2520000D01*
X4880000D01*
G03X4908280Y-2508280I-7J39997D01*
G01X5111770Y-2304800D01*
G02X5126690Y-2305400I7183J-7183D01*
G03X5180000Y-2330020I53310J45406D01*
G03X5243270Y-2290000I0J70024D01*
G01X5413430D01*
X5571720Y-2448280D01*
G03X5600000Y-2460000I28287J28277D01*
G01X5630520D01*
G03X5672700Y-2477320I42180J42701D01*
G03X5708300Y-2465620I0J60011D01*
G03X5747300Y-2480020I39000J45613D01*
G03X5792050Y-2460000I0J60024D01*
G01X5928650D01*
X5929590Y-2460390D01*
G03X5952700Y-2465020I23116J55389D01*
G01X6115000D01*
G03X6138110Y-2460390I-6J60019D01*
G01X6139050Y-2460000D01*
X6253430D01*
X6336080Y-2542640D01*
G02X6329060Y-2559990I-7181J-7190D01*
G03X6269980Y-2620000I937J-60010D01*
G03X6390020I60020J0D01*
G03X6389920Y-2616600I-60018J-64D01*
G02X6404110Y-2606700I10146J577D01*
G03X6420000Y-2610000I15908J36695D01*
G01X6783430D01*
X6861720Y-2688280D01*
G03X6871330Y-2695370I28284J28279D01*
G03X6930000Y-2742720I58670J12673D01*
G03X6989740Y-2688460I0J60017D01*
G01X6989920Y-2686640D01*
X7028280Y-2648280D01*
G03X7040000Y-2620000I-28277J28287D01*
G01Y-2340000D01*
X7049920D01*
X7051240Y-2340920D01*
G03X7080000Y-2350020I28767J40918D01*
G01X7113320D01*
X7114620Y-2353140D01*
G03X7170000Y-2390020I55380J23140D01*
G03X7228390Y-2343900I0J60022D01*
G01X7229320Y-2340000D01*
X7420680D01*
X7421610Y-2343900D01*
G03X7480000Y-2390020I58390J13902D01*
G03X7533010Y-2358150I0J60021D01*
G02X7549160Y-2355730I8971J-4768D01*
G01X7611720Y-2418280D01*
G03X7640000Y-2430000I28287J28277D01*
G01X7750000D01*
G03X7778280Y-2418280I-7J39997D01*
G01X7816570Y-2380000D01*
X7850870D01*
G02X7860940Y-2391500I-1J-10160D01*
G03X7859980Y-2406000I109060J-14502D01*
G03X7970000Y-2516020I110020J0D01*
G03X8079680Y-2414680I0J110023D01*
G01X8080050Y-2410000D01*
X8140000D01*
G03X8168280Y-2398280I-7J39997D01*
G01X8198280Y-2368280D01*
G03X8210000Y-2340000I-28277J28287D01*
G01Y-2276570D01*
X8236570Y-2250000D01*
X8602570D01*
G02X8612670Y-2261230I-4J-10160D01*
G03X8612280Y-2268600I69629J-7380D01*
G03X8612360Y-2271910I70019J36D01*
G03X8578280Y-2332000I35935J-60090D01*
G03X8589810Y-2370500I70022J-6D01*
G03X8578280Y-2409000I58492J-38494D01*
G03X8648300Y-2479020I70020J0D01*
G03X8687800Y-2466810I-6J70018D01*
G03X8727300Y-2479020I39506J57808D01*
G03X8781880Y-2452860I0J70018D01*
G02X8799960Y-2459220I7920J-6364D01*
G01Y-2504090D01*
G02X8785910Y-2513480I-10160J-4D01*
G03X8706030Y-2497560I-79896J-192524D01*
G01X8706000D01*
G03X8497560Y-2706000I0J-208440D01*
G01Y-2706030D01*
G03X8513480Y-2785910I208444J16D01*
G02X8504090Y-2799960I-9386J-3890D01*
G01X7849460D01*
G02X7844460Y-2780960I-1J10158D01*
G03X7878860Y-2732690I-34463J60953D01*
G02X7896330Y-2727660I9990J-1842D01*
G03X7970000Y-2760020I73670J67678D01*
G03Y-2559980I0J100020D01*
G03X7870010Y-2657460I0J-100022D01*
G02X7853540Y-2665160I-10155J256D01*
G03X7810000Y-2649980I-43540J-54852D01*
G03X7744500Y-2695240I0J-70026D01*
G02X7725500I-9500J3591D01*
G03X7660000Y-2649980I-65500J-24766D01*
G03X7589980Y-2720000I0J-70020D01*
G03X7625540Y-2780960I70031J0D01*
G02X7620540Y-2799960I-4999J-8842D01*
G01X6664440D01*
G02X6655000Y-2786020I-7J10161D01*
G03X6660020Y-2760000I-64997J26034D01*
G03X6519980I-70020J0D01*
G03X6525000Y-2786020I70017J14D01*
G02X6515560Y-2799960I-9433J-3779D01*
G01X6493440D01*
G02X6484000Y-2786020I-7J10161D01*
G03X6489020Y-2760000I-64997J26034D01*
G03X6348980I-70020J0D01*
G03X6354000Y-2786020I70017J14D01*
G02X6344560Y-2799960I-9433J-3779D01*
G01X6189460D01*
G02X6184460Y-2780960I-1J10158D01*
G03X6220020Y-2720000I-34471J60960D01*
G03X6079980I-70020J0D01*
G03X6115540Y-2780960I70031J0D01*
G02X6110540Y-2799960I-4999J-8842D01*
G01X5204440D01*
G02X5195000Y-2786020I-7J10161D01*
G03X5200020Y-2760000I-64997J26034D01*
G03X5059980I-70020J0D01*
G03X5065000Y-2786020I70017J14D01*
G02X5055560Y-2799960I-9433J-3779D01*
G01X4370000D01*
Y-2773420D01*
X4370680Y-2772240D01*
G03X4380020Y-2737300I-60684J34940D01*
G03X4371400Y-2703650I-70018J-7D01*
G03X4380020Y-2670000I-61398J33657D01*
G03X4370000Y-2633910I-70019J-4D01*
G01Y-2490170D01*
G03X4400020Y-2432700I-40000J57470D01*
G03X4399950Y-2429640I-70018J-71D01*
G03X4462720Y-2360000I-7246J69640D01*
G03X4392700Y-2289980I-70020J0D01*
G03X4381750Y-2290840I-9J-70021D01*
G02X4370000Y-2280810I-1591J10034D01*
G01Y-2015000D01*
G02X4382990Y-2005250I10159J-6D01*
G03X4399700Y-2007620I16700J57651D01*
G03Y-1887580I0J60020D01*
G03X4382990Y-1889950I-10J-60021D01*
G02X4370000Y-1880200I-2831J9756D01*
G01Y-1790680D01*
G02X4384870Y-1781680I10159J-1D01*
G03X4412700Y-1788520I27826J53181D01*
G03X4472720Y-1728500I0J60020D01*
G03X4472290Y-1721370I-60017J-42D01*
G02X4482380Y-1710000I10089J1209D01*
G37*
G36*
G01X5380000Y-200040D02*
X5593200D01*
G02X5602490Y-214320I3J-10160D01*
G03X5596480Y-242700I64002J-28380D01*
G03X5666500Y-312720I70020J0D01*
G03X5703200Y-302330I0J70012D01*
G03X5739900Y-312720I36700J59622D01*
G03X5775550Y-302970I8J70022D01*
G03X5782360Y-306510I35653J60267D01*
G02X5784130Y-314440I-2089J-4629D01*
G03X5767280Y-360000I53169J-45560D01*
G01Y-393700D01*
X5750490Y-410490D01*
G03X5729980Y-460000I49502J-49510D01*
G01Y-470820D01*
G03X5750490Y-520330I70012J0D01*
G01X5787790Y-557630D01*
G03X5837300Y-578140I49510J49502D01*
G03X5858270Y-574930I12J70022D01*
G02X5871280Y-586570I3040J-9693D01*
G03X5869980Y-600000I68721J-13430D01*
G01Y-721470D01*
G02X5853660Y-729550I-10160J1D01*
G03X5817300Y-717280I-36360J-47738D01*
G03X5813110Y-717430I51J-60018D01*
G03X5762700Y-689980I-50410J-32562D01*
G03X5716450Y-711750I0J-60014D01*
G02X5698680Y-707410I-7834J6472D01*
G03X5640000Y-659980I-58680J-12584D01*
G03X5597390Y-677730I0J-60019D01*
G02X5580020Y-670490I-7211J7156D01*
G01Y-670000D01*
G03X5520000Y-730020I-60020J0D01*
G03X5562610Y-712270I0J60019D01*
G02X5579980Y-719510I7211J-7156D01*
G01Y-720000D01*
G03X5640000Y-780020I60020J0D01*
G03X5686250Y-758250I0J60014D01*
G02X5704020Y-762590I7834J-6472D01*
G03X5762700Y-810020I58680J12584D01*
G03X5766890Y-809870I-51J60018D01*
G03X5768470Y-812190I50382J32614D01*
G02X5764770Y-820210I-4134J-2956D01*
G03X5709980Y-880000I5228J-59790D01*
G03X5735260Y-928940I60012J0D01*
G02X5736560Y-944410I-5881J-8284D01*
G01X5720490Y-960490D01*
G03X5699980Y-1010000I49502J-49510D01*
G01Y-1052680D01*
X5690000D01*
G03Y-1192720I0J-70020D01*
G01X5697250D01*
X5697280Y-1197770D01*
G03X5767300Y-1267320I70020J472D01*
G03X5837320Y-1197300I0J70020D01*
G01Y-1136470D01*
G02X5850740Y-1126850I10158J-1D01*
G03X5870000Y-1130020I19248J56852D01*
G03X5930020Y-1070000I0J60020D01*
G03X5887540Y-1012600I-60020J0D01*
G02X5883320Y-995700I2967J9718D01*
G01X5893750Y-985270D01*
G02X5910930Y-990650I7182J-7186D01*
G03X5970000Y-1040020I59070J10653D01*
G03X6030020Y-980000I0J60020D01*
G03X5980650Y-920930I-60023J0D01*
G02X5975270Y-903750I1806J9998D01*
G01X5989510Y-889510D01*
G03X5994000Y-884570I-49510J49511D01*
G02X6008810Y-883650I7836J-6470D01*
G03X6050000Y-900020I41190J43636D01*
G03Y-779980I0J60020D01*
G03X6024500Y-785670I7J-60018D01*
G02X6010020Y-776470I-4319J9197D01*
G01Y-629000D01*
X6069000Y-570020D01*
X6110710D01*
G02X6120830Y-581110I4J-10159D01*
G03X6120580Y-586600I59771J-5472D01*
G03X6240620I60020J0D01*
G03X6240370Y-581110I-60021J18D01*
G02X6250490Y-570020I10116J931D01*
G01X6440710D01*
G02X6450830Y-581110I4J-10159D01*
G03X6450580Y-586600I59771J-5472D01*
G03X6570620I60020J0D01*
G03X6570370Y-581110I-60021J18D01*
G02X6580490Y-570020I10116J931D01*
G01X6770110D01*
G02X6780230Y-581110I4J-10159D01*
G03X6779980Y-586600I59771J-5472D01*
G03X6840000Y-646620I60020J0D01*
G03X6898580Y-599670I0J60020D01*
G02X6915680Y-594700I9916J-2215D01*
G01X6940490Y-619510D01*
G03X6946070Y-624520I49501J49520D01*
G02X6942270Y-642260I-6375J-7911D01*
G03X6889980Y-710000I17732J-67740D01*
G03X6892240Y-727640I70019J6D01*
G01X6892970Y-730460D01*
X6843430Y-780000D01*
X6807470D01*
G03X6750000Y-749980I-57470J-40000D01*
G03X6712690Y-760750I0J-70011D01*
G02X6698990Y-758020I-5408J8600D01*
G03X6650000Y-732680I-48990J-34686D01*
G03X6589980Y-792700I0J-60020D01*
G03X6646830Y-852640I60024J0D01*
G02X6653470Y-869970I-540J-10144D01*
G01X6581720Y-941720D01*
G03X6570000Y-970000I28277J-28287D01*
G01Y-1049980D01*
X6560000D01*
G03Y-1190020I0J-70020D01*
G01X6570000D01*
Y-1363430D01*
X6563510Y-1369920D01*
G02X6546330Y-1364570I-7186J7184D01*
G03X6495270Y-1315910I-59034J-10827D01*
G03X6436000Y-1265380I-59270J-9496D01*
G03X6375980Y-1325400I0J-60020D01*
G03X6394050Y-1368330I60031J0D01*
G02X6394110Y-1382810I-7096J-7270D01*
G03X6376380Y-1425400I42289J-42590D01*
G03X6436400Y-1485420I60020J0D01*
G03X6473550Y-1472540I0J60016D01*
G02X6490000Y-1480520I6290J-7979D01*
G01Y-1740000D01*
G03X6501720Y-1768280I39997J7D01*
G01X6540000Y-1806570D01*
Y-1835170D01*
G03X6520380Y-1871610I39799J-44930D01*
G01X6520140Y-1873290D01*
X6481720Y-1911720D01*
G03X6470000Y-1940000I28277J-28287D01*
G01Y-1965280D01*
G02X6455910Y-1974650I-10160J-1D01*
G03X6432700Y-1969980I-23210J-55342D01*
G03X6372860Y-2025300I0J-60025D01*
G01X6372500Y-2029980D01*
X6359000D01*
X6189510Y-1860490D01*
G03X6140000Y-1839980I-49510J-49502D01*
G01X5960010D01*
G03X5910500Y-1860490I0J-70012D01*
G01X5830490Y-1940500D01*
G03X5822990Y-1949350I49485J-49539D01*
G02X5809060Y-1951880I-8266J5901D01*
G03X5770000Y-1939980I-39050J-58123D01*
G03X5699980Y-2010000I0J-70020D01*
G03X5728270Y-2066230I70027J0D01*
G02X5729400Y-2081570I-6052J-8157D01*
G01X5697790Y-2113190D01*
G03X5677280Y-2162700I49502J-49510D01*
G01Y-2249100D01*
X5623190Y-2303190D01*
G03X5603280Y-2343590I49513J-49507D01*
G02X5586020Y-2349450I-10074J1324D01*
G01X5458280Y-2221720D01*
G03X5430000Y-2210000I-28287J-28277D01*
G01X5380000D01*
Y-2103200D01*
G03X5389300Y-2079300I-49994J33213D01*
G03X5396720Y-2077640I-9367J59285D01*
G03X5450000Y-2110020I53280J27645D01*
G03X5510020Y-2050000I0J60020D01*
G03X5492120Y-2007240I-60023J0D01*
G02Y-1992760I7126J7240D01*
G03X5510020Y-1950000I-42123J42760D01*
G03X5450000Y-1889980I-60020J0D01*
G03X5407240Y-1907880I0J-60023D01*
G02X5392760I-7240J7126D01*
G03X5380000Y-1898020I-42746J-42132D01*
G01Y-790180D01*
G02X5390140Y-780020I10160J0D01*
G03Y-659980I-140J60020D01*
G02X5380000Y-649820I20J10160D01*
G01Y-200040D01*
G37*
G36*
G01X6993100Y-2020000D02*
X7004720D01*
G02X7014880Y-2030140I0J-10160D01*
G03X7063730Y-2088970I60019J141D01*
G02X7068810Y-2106340I-1892J-9981D01*
G03X7049980Y-2150000I41201J-43660D01*
G03X7066630Y-2191490I60019J0D01*
G02Y-2198510I-3672J-3510D01*
G03X7049980Y-2240000I43369J-41490D01*
G03X7050570Y-2248420I60022J-25D01*
G02X7040510Y-2260000I-10059J-1421D01*
G01X7020000D01*
G03X6991720Y-2271720I7J-39997D01*
G01X6971720Y-2291720D01*
G03X6962770Y-2305380I28276J-28288D01*
G02X6945600Y-2308270I-9454J3718D01*
G03X6930140Y-2295400I-45587J-39041D01*
G02X6926970Y-2280700I5098J8791D01*
G03X6940020Y-2240000I-56967J40708D01*
G03X6799980I-70020J0D01*
G03X6842400Y-2304350I70019J0D01*
G02X6847310Y-2318550I-4008J-9335D01*
G03X6839980Y-2347300I52692J-28743D01*
G03X6900000Y-2407320I60020J0D01*
G03X6942630Y-2389560I8J60023D01*
G02X6960000Y-2396710I7213J-7152D01*
G01Y-2603430D01*
X6943430Y-2620000D01*
X6906570D01*
X6828280Y-2541720D01*
G03X6800000Y-2530000I-28287J-28277D01*
G01X6436570D01*
X6298280Y-2391720D01*
G03X6270000Y-2380000I-28287J-28277D01*
G01X6120180D01*
G02X6114360Y-2361510I-3J10160D01*
G03X6140020Y-2312300I-34357J49210D01*
G03X6080000Y-2252280I-60020J0D01*
G03X6070820Y-2252990I24J-60018D01*
G02X6060300Y-2238180I-1551J10040D01*
G03X6067320Y-2210000I-53003J28168D01*
G03X6007300Y-2149980I-60020J0D01*
G03X5978770Y-2157190I-8J-60022D01*
G03X5970000Y-2150060I-42080J-42801D01*
G01Y-2086570D01*
X5997090Y-2059480D01*
X6000490Y-2061510D01*
G03X6031300Y-2070020I30810J51518D01*
G03X6072770Y-2053390I0J60022D01*
G02X6086980Y-2053550I7023J-7341D01*
G01X6271720Y-2238280D01*
G03X6300000Y-2250000I28287J28277D01*
G01X6309840D01*
X6310020Y-2254890D01*
G03X6429980I59980J2190D01*
G01X6430160Y-2250000D01*
X6476670D01*
G02X6482220Y-2268670I1J-10160D01*
G03X6450480Y-2327300I38281J-58630D01*
G03X6590520I70020J0D01*
G03X6553610Y-2265600I-70025J0D01*
G02X6554690Y-2247200I4808J8949D01*
G03X6568280Y-2238280I-14694J37199D01*
G01X6638280Y-2168280D01*
G03X6650000Y-2140000I-28277J28287D01*
G01Y-2110000D01*
X6710000D01*
G03X6738280Y-2098280I-7J39997D01*
G01X6745730Y-2090830D01*
X6749320Y-2094130D01*
G03X6790000Y-2110020I40680J44127D01*
G03X6850020Y-2050000I0J60020D01*
G03X6845450Y-2027020I-60022J8D01*
G01X6845060Y-2026090D01*
Y-2020000D01*
X6856700D01*
X6857430Y-2020220D01*
G03X6862410Y-2021510I17527J57405D01*
G02X6866310Y-2027580I-1058J-4967D01*
G03X6864880Y-2040600I58590J-13023D01*
G03X6984920I60020J0D01*
G03X6983490Y-2027580I-60020J-3D01*
G02X6987390Y-2021510I4958J1103D01*
G03X6992370Y-2020220I-12547J58695D01*
G01X6993100Y-2020000D01*
G37*
G36*
G01X7086570Y-650000D02*
X7193430D01*
X7220000Y-676570D01*
Y-773430D01*
X7063370Y-930060D01*
X7059890Y-927700D01*
G03X7026100Y-917280I-33796J-49598D01*
G03X6966100Y-975920I0J-60016D01*
G03X6916080Y-1035100I9999J-59180D01*
G03X6923750Y-1064450I60018J7D01*
G01X6925630Y-1067810D01*
X6771720Y-1221720D01*
G03X6760000Y-1250000I28277J-28287D01*
G01Y-1449980D01*
G03X6689980Y-1520000I0J-70020D01*
G03X6699360Y-1555000I70018J8D01*
G03X6689980Y-1590000I60638J-35008D01*
G03X6696730Y-1620000I70021J-5D01*
G03X6689980Y-1650000I63271J-29995D01*
G03X6699360Y-1685000I70018J8D01*
G03X6689980Y-1720000I60638J-35008D01*
G03X6760000Y-1790020I70020J0D01*
G01Y-1963430D01*
X6693430Y-2030000D01*
X6626570D01*
X6551570Y-1955000D01*
X6567640Y-1938930D01*
X6570200Y-1939350D01*
G03X6579800Y-1940120I9583J59251D01*
G03X6639820Y-1880100I0J60020D01*
G03X6620000Y-1835530I-60023J0D01*
G01Y-1790000D01*
G03X6608280Y-1761720I-39997J-7D01*
G01X6570000Y-1723430D01*
Y-1476570D01*
X6638280Y-1408280D01*
G03X6650000Y-1380000I-28277J28287D01*
G01Y-986570D01*
X6746600Y-889970D01*
X6748760Y-890010D01*
G03X6750000Y-890020I1185J70010D01*
G03X6807470Y-860000I0J70020D01*
G01X6860000D01*
G03X6888280Y-848280I-7J39997D01*
G01X6956590Y-779970D01*
X6958750Y-780010D01*
G03X6960000Y-780020I1185J70011D01*
G03X7030020Y-710000I0J70020D01*
G03X7030010Y-708750I-70021J65D01*
G01X7029970Y-706600D01*
X7086570Y-650000D01*
G37*
G36*
G01X8081030Y-200040D02*
X8504310D01*
G02X8513740Y-213990I3J-10160D01*
G03X8498660Y-292000I194258J-78014D01*
G03X8708000Y-501340I209340J0D01*
G03X8786010Y-486260I-4J209338D01*
G02X8799960Y-495690I3790J-9427D01*
G01Y-1523270D01*
G02X8781140Y-1528590I-10161J-3D01*
G03X8730000Y-1499980I-51140J-31401D01*
G03Y-1620020I0J-60020D01*
G03X8781140Y-1591410I0J60011D01*
G02X8799960Y-1596730I8659J-5317D01*
G01Y-2170000D01*
X8789270D01*
G02X8779640Y-2156590I-3J10161D01*
G03X8783320Y-2134200I-66338J22401D01*
G03X8643280I-70020J0D01*
G03X8646960Y-2156590I70018J11D01*
G02X8637330Y-2170000I-9627J-3249D01*
G01X8220000D01*
G03X8191720Y-2181720I7J-39997D01*
G01X8141720Y-2231720D01*
G03X8130000Y-2260000I28277J-28287D01*
G01Y-2323430D01*
X8123430Y-2330000D01*
X8096570D01*
X8028280Y-2261720D01*
G03X8000000Y-2250000I-28287J-28277D01*
G01X7912900D01*
X7912540Y-2245320D01*
G03X7852700Y-2189980I-59840J-4683D01*
G03X7835910Y-2192380I13J-60018D01*
G03X7828280Y-2181720I-35900J-17635D01*
G01X7767350Y-2120790D01*
X7767310Y-2118750D01*
G03X7708550Y-2059990I-60010J-1250D01*
G01X7706510Y-2059950D01*
X7648280Y-2001720D01*
G03X7620000Y-1990000I-28287J-28277D01*
G01X7610820D01*
G02X7603640Y-1972660I5J10159D01*
G01X7675280Y-1901020D01*
X7749730D01*
X7963860Y-2115150D01*
G03X8007010Y-2133020I43150J43161D01*
G01X8110000D01*
G03X8171020Y-2072000I0J61020D01*
G03X8144660Y-2021780I-61019J0D01*
G03X8151020Y-1994660I-54659J27124D01*
G03X8149290Y-1980250I-61018J-17D01*
G03X8190320Y-1922600I-19986J57650D01*
G03X8150770Y-1865480I-61023J0D01*
G03X8151020Y-1860000I-60768J5518D01*
G03X8133150Y-1816850I-61031J0D01*
G01X7957560Y-1641260D01*
G02X7959230Y-1625540I7181J7186D01*
G03X7986720Y-1575100I-32530J50440D01*
G03X7926700Y-1515080I-60020J0D01*
G03X7876260Y-1542570I0J-60020D01*
G02X7860540Y-1544240I-8534J5511D01*
G01X7847350Y-1531050D01*
G03X7804200Y-1513180I-43150J-43161D01*
G01X7710000D01*
G03X7701800Y-1513730I-26J-61022D01*
G01X7701460Y-1513780D01*
X7415000D01*
G03X7353980Y-1574800I0J-61020D01*
G03X7371570Y-1617660I61012J0D01*
G02Y-1631940I-7231J-7140D01*
G03X7353980Y-1674800I43422J-42860D01*
G03X7415000Y-1735820I61020J0D01*
G01X7425850D01*
G02X7436000Y-1746270I-4J-10158D01*
G03X7435980Y-1748000I61002J-1570D01*
G03X7460900Y-1797200I61028J0D01*
G03X7456650Y-1807910I53404J-27390D01*
G03X7454900Y-1807880I-1904J-59987D01*
G03X7394880Y-1867900I0J-60020D01*
G01Y-1873080D01*
X7338200D01*
G03X7280760Y-1913490I0J-61028D01*
G02X7264500Y-1917700I-9563J3428D01*
G03X7224900Y-1902780I-39600J-45092D01*
G03X7182140Y-1920680I0J-60023D01*
G02X7167660I-7240J7126D01*
G03X7124900Y-1902780I-42760J-42123D01*
G03X7069380Y-1940000I0J-60019D01*
G01X7030420D01*
G03X6974900Y-1902780I-55520J-22799D01*
G03X6932140Y-1920680I0J-60023D01*
G02X6917660I-7240J7126D01*
G03X6874900Y-1902780I-42760J-42123D01*
G03X6853740Y-1906630I-9J-60022D01*
G02X6840000Y-1897130I-3581J9506D01*
G01Y-1790020D01*
G03X6910020Y-1720000I0J70020D01*
G03X6900640Y-1685000I-70018J-8D01*
G03X6910020Y-1650000I-60638J35008D01*
G03X6903270Y-1620000I-70021J5D01*
G03X6910020Y-1590000I-63271J29995D01*
G03X6840000Y-1519980I-70020J0D01*
G01Y-1266570D01*
X7288280Y-818280D01*
G03X7300000Y-790000I-28277J28287D01*
G01Y-700180D01*
G02X7310140Y-690020I10160J0D01*
G03X7380020Y-620000I-140J70020D01*
G03X7359510Y-570490I-70012J0D01*
G01X7309510Y-520490D01*
G03X7260000Y-499980I-49510J-49502D01*
G01X7019000D01*
X6986390Y-467360D01*
G02X6993570Y-450020I7184J7182D01*
G01X7052700D01*
G03X7102210Y-429510I0J70012D01*
G01X7169510Y-362210D01*
G03X7190020Y-312700I-49502J49510D01*
G01Y-290020D01*
X7299220D01*
G02X7309060Y-302700I-3J-10160D01*
G03X7307180Y-317600I58139J-14904D01*
G03X7319880Y-354520I60015J0D01*
G02X7318890Y-368120I-8008J-6253D01*
G03X7300350Y-411500I41480J-43380D01*
G03X7420390I60020J0D01*
G03X7407690Y-374580I-60015J0D01*
G02X7408680Y-360980I8008J6253D01*
G03X7427220Y-317600I-41480J43380D01*
G03X7425340Y-302700I-60019J-4D01*
G02X7435180Y-290020I9843J2520D01*
G01X7481000D01*
X7570490Y-379510D01*
G03X7585470Y-390910I49508J49513D01*
G03X7577950Y-420000I52505J-29090D01*
G03X7697990I60020J0D01*
G03X7682670Y-379940I-60022J5D01*
G02X7683050Y-365980I7563J6779D01*
G01X7726150Y-322870D01*
X7988070D01*
X7988490Y-327490D01*
G03X8088100Y-418420I99610J9094D01*
G03X8188120Y-318400I0J100020D01*
G03X8089160Y-218390I-100016J0D01*
G01X8087090Y-218360D01*
X8077440Y-208710D01*
G02X8081030Y-200040I3590J3592D01*
G37*
G36*
G01X7116090Y-2073660D02*
G03X7126250Y-2061070I-41203J43645D01*
G02X7144360Y-2062520I8692J-5258D01*
G03X7200000Y-2100020I55640J22527D01*
G03X7257870Y-2055910I0J60016D01*
G02X7274850Y-2051410I9799J-2689D01*
G01X7281720Y-2058280D01*
G03X7310000Y-2070000I28287J28277D01*
G01X7348530D01*
G02X7358610Y-2081410I-3J-10160D01*
G03X7358080Y-2090000I69489J-8599D01*
G03X7498120I70020J0D01*
G03X7497590Y-2081410I-70019J-9D01*
G02X7507670Y-2070000I10083J1250D01*
G01X7603430D01*
X7647530Y-2114100D01*
X7647390Y-2116380D01*
G03X7647280Y-2120000I59910J-3632D01*
G03X7707300Y-2180020I60020J0D01*
G03X7710920Y-2179910I-12J60020D01*
G01X7713200Y-2179770D01*
X7760000Y-2226570D01*
Y-2323430D01*
X7733430Y-2350000D01*
X7656570D01*
X7578280Y-2271720D01*
G03X7550000Y-2260000I-28287J-28277D01*
G01X7539570D01*
G02X7529490Y-2248590I3J10160D01*
G03X7530020Y-2240000I-69489J8599D01*
G03X7389980I-70020J0D01*
G03X7390510Y-2248590I70019J9D01*
G02X7380430Y-2260000I-10083J-1250D01*
G01X7179490D01*
G02X7169430Y-2248420I-1J10159D01*
G03X7170020Y-2240000I-59432J8395D01*
G03X7153370Y-2198510I-60019J0D01*
G02Y-2191490I3672J3510D01*
G03X7170020Y-2150000I-43369J41490D01*
G03X7121170Y-2091030I-60018J0D01*
G02X7116090Y-2073660I1892J9981D01*
G37*
%LPC*%
G75*
G36*
G01X2038110Y-2677790D02*
G02X2026580Y-2639300I58480J38490D01*
G02X2035580Y-2604950I70022J8D01*
G02X2026580Y-2570600I61022J34342D01*
G02X2166620I70020J0D01*
G02X2157620Y-2604950I-70022J-8D01*
G02X2166620Y-2639300I-61022J-34342D01*
G02X2158190Y-2672610I-70025J0D01*
G02X2169720Y-2711100I-58480J-38490D01*
G02X2029680I-70020J0D01*
G02X2038110Y-2677790I70025J0D01*
G37*
G36*
G01X2752290Y-2674390D02*
G02X2743380Y-2640200I61112J34182D01*
G02X2752700Y-2605290I70021J5D01*
G02X2742380Y-2568700I59706J36590D01*
G02X2882420I70020J0D01*
G02X2873100Y-2603610I-70021J-5D01*
G02X2883420Y-2640200I-59706J-36590D01*
G02X2873510Y-2676110I-70017J0D01*
G02X2882420Y-2710300I-61112J-34182D01*
G02X2742380I-70020J0D01*
G02X2752290Y-2674390I70017J0D01*
G37*
G36*
G01X2419180Y-2424990D02*
G02X2420000Y-2424980I1142J-60006D01*
G02Y-2545020I0J-60020D01*
G02X2360820Y-2495010I0J60021D01*
G02X2360000Y-2495020I-1142J60006D01*
G02Y-2374980I0J60020D01*
G02X2419180Y-2424990I0J-60021D01*
G37*
G36*
G01X537250Y-2456940D02*
G02X537320Y-2460000I-69948J-3131D01*
G02X397280I-70020J0D01*
G02X460050Y-2390360I70016J0D01*
G02X459980Y-2387300I69948J3131D01*
G02X600020I70020J0D01*
G02X537250Y-2456940I-70016J0D01*
G37*
G36*
G01X303700Y-1947770D02*
G03Y-1932530I-6717J7620D01*
G02X279980Y-1880000I46306J52530D01*
G02X420020I70020J0D01*
G02X396300Y-1932530I-70026J0D01*
G03Y-1947770I6717J-7620D01*
G02X420020Y-2000300I-46306J-52530D01*
G02X391180Y-2056930I-70019J0D01*
G03Y-2073370I5971J-8220D01*
G02X420020Y-2130000I-41179J-56630D01*
G02X279980I-70020J0D01*
G02X308820Y-2073370I70019J0D01*
G03Y-2056930I-5971J8220D01*
G02X279980Y-2000300I41179J56630D01*
G02X303700Y-1947770I70026J0D01*
G37*
G36*
G01X473550Y-1947600D02*
G03Y-1932400I-6736J7600D01*
G02X449980Y-1880000I46462J52400D01*
G02X590020I70020J0D01*
G02X566450Y-1932400I-70032J0D01*
G03Y-1947600I6736J-7600D01*
G02X590020Y-2000000I-46462J-52400D01*
G02X561000Y-2056760I-70018J0D01*
G03Y-2073240I5944J-8240D01*
G02X590020Y-2130000I-40998J-56760D01*
G02X449980I-70020J0D01*
G02X479000Y-2073240I70018J0D01*
G03Y-2056760I-5944J8240D01*
G02X449980Y-2000000I40998J56760D01*
G02X473550Y-1947600I70032J0D01*
G37*
G36*
G01X643700Y-1947770D02*
G03Y-1932530I-6717J7620D01*
G02X619980Y-1880000I46306J52530D01*
G02X760020I70020J0D01*
G02X736300Y-1932530I-70026J0D01*
G03Y-1947770I6717J-7620D01*
G02X760020Y-2000300I-46306J-52530D01*
G02X731180Y-2056930I-70019J0D01*
G03Y-2073370I5971J-8220D01*
G02X760020Y-2130000I-41179J-56630D01*
G02X619980I-70020J0D01*
G02X648820Y-2073370I70019J0D01*
G03Y-2056930I-5971J8220D01*
G02X619980Y-2000300I41179J56630D01*
G02X643700Y-1947770I70026J0D01*
G37*
G36*
G01X5250860Y-1838130D02*
G02X5260020Y-1870000I-50862J-31870D01*
G02X5139980I-60020J0D01*
G02X5149140Y-1838130I60022J0D01*
G02X5129980Y-1790000I50871J48130D01*
G02X5270020I70020J0D01*
G02X5250860Y-1838130I-70031J0D01*
G37*
G36*
G01Y-1178130D02*
G02X5260020Y-1210000I-50862J-31870D01*
G02X5139980I-60020J0D01*
G02X5149140Y-1178130I60022J0D01*
G02X5129980Y-1130000I50871J48130D01*
G02X5270020I70020J0D01*
G02X5250860Y-1178130I-70031J0D01*
G37*
G36*
G01X2619210Y-849530D02*
G03X2600790I-9210J-4286D01*
G02X2537300Y-890020I-63490J29532D01*
G02Y-749980I0J70020D01*
G02X2540360Y-750050I-71J-70018D01*
G02X2679640I69640J-7246D01*
G02X2682700Y-749980I3131J-69948D01*
G02Y-890020I0J-70020D01*
G02X2619210Y-849530I0J70022D01*
G37*
G36*
G01X1621310Y-768160D02*
G02X1596980Y-715100I45693J53060D01*
G02X1612060Y-671690I70021J0D01*
G02X1608280Y-649000I66239J22695D01*
G02X1748320I70020J0D01*
G02X1733240Y-692410I-70021J0D01*
G02X1737020Y-715100I-66239J-22695D01*
G02X1711460Y-769190I-70013J0D01*
G03X1711290Y-784740I6455J-7846D01*
G02X1735620Y-837800I-45693J-53060D01*
G02X1703570Y-896630I-70018J0D01*
G03X1703850Y-913870I5513J-8533D01*
G02X1737820Y-973900I-36056J-60030D01*
G02X1597780I-70020J0D01*
G02X1629830Y-915070I70018J0D01*
G03X1629550Y-897830I-5513J8533D01*
G02X1595580Y-837800I36056J60030D01*
G02X1621140Y-783710I70013J0D01*
G03X1621310Y-768160I-6455J7846D01*
G37*
G36*
G01X3756650Y-1916690D02*
G02X3634980Y-1750000I53349J166690D01*
G02X3985020I175020J0D01*
G02X3846760Y-1921120I-175025J0D01*
G03X3841630Y-1938150I2134J-9931D01*
G02X3858720Y-1980100I-42941J-41950D01*
G02X3856990Y-1994400I-60019J6D01*
G03X3870590Y-2006270I9867J-2421D01*
G02X3896300Y-2001380I25710J-65142D01*
G02X3826280Y-2071400I0J-70020D01*
G02X3829600Y-2050090I70021J5D01*
G03X3816850Y-2037310I-9676J3097D01*
G02X3798700Y-2040120I-18150J57211D01*
G02X3738680Y-1980100I0J60020D01*
G02X3760090Y-1934150I60014J0D01*
G03X3756650Y-1916690I-6533J7782D01*
G37*
G36*
G01X4140000Y-390020D02*
G02Y-269980I0J60020D01*
G01X4290000D01*
G02X4332440Y-287560I0J-60017D01*
G01X4422440Y-377560D01*
G02X4440020Y-420000I-42437J-42440D01*
G01Y-505380D01*
G02X4448280Y-511720I-20015J-34627D01*
G01X4511220Y-574660D01*
X4514780Y-571640D01*
G02X4560000Y-555080I45220J-53461D01*
G02X4630020Y-625100I0J-70020D01*
G02X4607620Y-676430I-70012J0D01*
G02X4610000Y-690000I-37615J-13591D01*
G01Y-963430D01*
X4704120Y-1057560D01*
X4707130Y-1056520D01*
G02X4730000Y-1052680I22870J-66184D01*
G02X4783150Y-1077120I0J-70013D01*
G03X4790360Y-1077630I3857J3306D01*
G02X4830000Y-1062680I39640J-45078D01*
G02X4890020Y-1122700I0J-60020D01*
G02X4847220Y-1180200I-60024J0D01*
G03X4842010Y-1196020I2920J-9730D01*
G02X4850000Y-1220000I-32007J-23986D01*
G01Y-1340000D01*
G02X4838280Y-1368280I-39997J7D01*
G01X4818280Y-1388280D01*
G02X4813700Y-1392220I-28301J28266D01*
G03X4810880Y-1405420I6017J-8187D01*
G02X4820020Y-1440000I-60878J-34589D01*
G02X4750000Y-1510020I-70020J0D01*
G02X4711350Y-1498390I-5J70021D01*
G02X4672700Y-1510020I-38645J58391D01*
G02X4602680Y-1440000I0J70020D01*
G02X4607720Y-1413920I70019J-4D01*
G03X4598640Y-1399980I-9427J3787D01*
G02X4574590Y-1390880I1378J39973D01*
G02X4540000Y-1400020I-34590J60882D01*
G02X4476730Y-1360000I0J70024D01*
G01X4426570D01*
X4328280Y-1458280D01*
G02X4300000Y-1470000I-28287J28277D01*
G01X4230000D01*
G02X4203540Y-1460000I0J40007D01*
G01X3646570D01*
X3318280Y-1788280D01*
G02X3290000Y-1800000I-28287J28277D01*
G01X3203580D01*
G03X3198590Y-1819010I2J-10161D01*
G02X3234220Y-1880000I-34385J-60990D01*
G02X3094180I-70020J0D01*
G02X3129810Y-1819010I70015J0D01*
G03X3124820Y-1800000I-4992J8849D01*
G01X2868540D01*
G03X2870950Y-1819990I2566J-9831D01*
G02X2930020Y-1880000I-947J-60010D01*
G02X2809980I-60020J0D01*
G02X2820590Y-1845930I60006J0D01*
G03X2812230Y-1830000I-8364J5770D01*
G01X2610360D01*
G03X2601610Y-1845320I0J-10159D01*
G02X2611320Y-1880900I-60312J-35574D01*
G02X2577470Y-1940850I-70012J0D01*
G03X2577600Y-1958330I5247J-8701D01*
G02X2612320Y-2018800I-35299J-60470D01*
G02X2612200Y-2022870I-70019J28D01*
G02X2631930Y-2032670I-20896J-66831D01*
G03X2647300Y-2028060I5895J8272D01*
G02X2703290Y-1989670I55990J-21634D01*
G02Y-2109710I0J-60020D01*
G02X2673680Y-2101900I-4J60021D01*
G03X2658870Y-2108070I-5008J-8838D01*
G02X2591300Y-2159720I-67570J18373D01*
G02X2521280Y-2089700I0J70020D01*
G02X2521400Y-2085630I70019J-28D01*
G02X2472280Y-2018800I20903J66830D01*
G02X2506130Y-1958850I70012J0D01*
G03X2506000Y-1941370I-5247J8701D01*
G02X2471280Y-1880900I35299J60470D01*
G02X2491210Y-1831970I70029J0D01*
G03X2491130Y-1817690I-7266J7100D01*
G01X2431720Y-1758280D01*
G02X2420000Y-1730000I28277J28287D01*
G01Y-1566570D01*
X2393430Y-1540000D01*
X2309490D01*
G03X2299430Y-1551580I-1J-10159D01*
G02X2300020Y-1560000I-59432J-8395D01*
G02X2240140Y-1620020I-60020J0D01*
G03X2230000Y-1630180I20J-10160D01*
G01Y-1940000D01*
G02X2218280Y-1968280I-39997J7D01*
G01X2178280Y-2008280D01*
G02X2150000Y-2020000I-28287J28277D01*
G01X1900020D01*
G03X1890270Y-2033030I-4J-10160D01*
G02X1892720Y-2050000I-57570J-16973D01*
G02X1772680I-60020J0D01*
G02X1797840Y-2001140I60022J0D01*
G03X1799130Y-1985690I-5899J8271D01*
G01X1664840Y-1851400D01*
G02X1617300Y-1870020I-47547J51397D01*
G02X1558430Y-1837910I0J70021D01*
G03X1541120Y-1838290I-8538J-5505D01*
G02X1390000Y-1925020I-151120J88292D01*
G02X1215640Y-1765230I0J175024D01*
G03X1198930Y-1758380I-10121J-882D01*
G02X1173900Y-1771090I-38936J45677D01*
G01X1170000Y-1772020D01*
Y-1810000D01*
G02X1160000Y-1836460I-40007J0D01*
G01Y-1947920D01*
G03X1179010Y-1952910I10161J2D01*
G02X1240000Y-1917280I60990J-34385D01*
G02X1308570Y-1973140I0J-70016D01*
G03X1320320Y-1981080I9949J2059D01*
G02X1332700Y-1979980I12363J-68922D01*
G02X1402560Y-2045260I0J-70021D01*
G01X1402880Y-2050000D01*
X1529800D01*
X1530160Y-2045320D01*
G02X1590000Y-1989980I59840J-4683D01*
G02X1650020Y-2050000I0J-60020D01*
G02X1634130Y-2090680I-60017J0D01*
G01X1630830Y-2094270D01*
X1678280Y-2141720D01*
G02X1690000Y-2170000I-28277J-28287D01*
G01Y-2280000D01*
G02X1678280Y-2308280I-39997J7D01*
G01X1668280Y-2318280D01*
G02X1640000Y-2330000I-28287J28277D01*
G01X1177770D01*
G03X1169410Y-2345930I4J-10160D01*
G02X1180020Y-2380000I-49396J-34070D01*
G02X1162580Y-2422300I-60018J0D01*
G03X1161730Y-2435650I7206J-7161D01*
G02X1170000Y-2460000I-31727J-24355D01*
G01Y-2620000D01*
G02X1158280Y-2648280I-39997J7D01*
G01X1138280Y-2668280D01*
G02X1110000Y-2680000I-28287J28277D01*
G01X1020000D01*
G02X991720Y-2668280I7J39997D01*
G01X931720Y-2608280D01*
G02X920000Y-2580000I28277J28287D01*
G01Y-2556570D01*
X913480Y-2550050D01*
X911430Y-2550010D01*
G02X844130Y-2494160I1273J70008D01*
G03X832380Y-2486220I-9949J-2059D01*
G02X820000Y-2487320I-12363J68922D01*
G02Y-2347280I0J70020D01*
G02X828590Y-2347810I-9J-70019D01*
G03X840000Y-2337730I1250J10083D01*
G01Y-2210000D01*
G02X851720Y-2181720I39997J-7D01*
G01X940000Y-2093430D01*
Y-1909580D01*
G03X924790Y-1900760I-10161J2D01*
G02X890000Y-1910020I-34799J60758D01*
G02X819980Y-1840000I0J70020D01*
G02X844610Y-1786690I70008J0D01*
G03X845210Y-1771770I-6588J7737D01*
G01X811720Y-1738280D01*
G02X800000Y-1710000I28277J28287D01*
G01Y-1380000D01*
G02X811720Y-1351720I39997J-7D01*
G01X900000Y-1263430D01*
Y-1257390D01*
X899960Y-1257070D01*
G02X899480Y-1249500I59540J7576D01*
G02X899960Y-1241930I60020J-6D01*
G01X900000Y-1241610D01*
Y-840000D01*
G02X911720Y-811720I39997J-7D01*
G01X981720Y-741720D01*
G02X1010000Y-730000I28287J-28277D01*
G01X1209830D01*
G03X1216180Y-711920I-8J10158D01*
G02X1189980Y-657300I43834J54620D01*
G02X1249770Y-588030I70022J0D01*
G03X1256500Y-572010I-1487J10048D01*
G02X1224980Y-475000I133502J97003D01*
G02X1390000Y-640020I165020J0D01*
G02X1341780Y-632820I-7J165021D01*
G03X1328820Y-644400I-2973J-9715D01*
G02X1330020Y-657300I-68819J-12908D01*
G02X1303820Y-711920I-70034J0D01*
G03X1310170Y-730000I6358J-7922D01*
G01X1445810D01*
G02X1447300Y-729980I1550J-59999D01*
G02X1507320Y-790000I0J-60020D01*
G02X1500000Y-818720I-60019J4D01*
G01Y-890000D01*
G02X1488280Y-918280I-39997J7D01*
G01X1474490Y-932070D01*
G03X1474670Y-946620I7182J-7187D01*
G02X1493320Y-990100I-41359J-43480D01*
G02X1433300Y-1050120I-60020J0D01*
G02X1373280Y-990150I0J60020D01*
G03X1363120Y-980000I-10160J-10D01*
G01X1260170D01*
G02X1196900Y-1020020I-63270J30004D01*
G02X1191010Y-1019770I22J70019D01*
G03X1180000Y-1029900I-850J-10125D01*
G01Y-1306720D01*
G03X1194280Y-1316010I10161J-2D01*
G02X1222140Y-1309980I28432J-63987D01*
G03X1231790Y-1296930I-87J10157D01*
G02X1224980Y-1250000I158212J46917D01*
G02X1390000Y-1415020I165020J0D01*
G02X1305440Y-1391710I0J165031D01*
G03X1290410Y-1397840I-5208J-8723D01*
G02X1222700Y-1450020I-67710J17841D01*
G02X1178610Y-1434390I6J70018D01*
G01X1175050Y-1431510D01*
X1118810Y-1487750D01*
X1119230Y-1490320D01*
G02X1120020Y-1500000I-59228J-9706D01*
G02X1060000Y-1560020I-60020J0D01*
G01Y-1593430D01*
X1128210Y-1661650D01*
X1131540Y-1659860D01*
G02X1160000Y-1652680I28466J-52838D01*
G02X1211370Y-1681670I0J-60009D01*
G03X1229390Y-1680450I8695J5257D01*
G02X1390000Y-1574980I160610J-69554D01*
G02X1564220Y-1733280I0J-175021D01*
G03X1579780Y-1740880I10112J975D01*
G02X1617300Y-1729980I37520J-59126D01*
G02X1636980Y-1732800I9J-70021D01*
G03X1650000Y-1723050I2861J9748D01*
G01Y-1390000D01*
G02X1690000Y-1350000I40000J0D01*
G01X2063430D01*
X2281720Y-1131720D01*
G02X2310000Y-1120000I28287J-28277D01*
G01X2338020D01*
G03X2348180Y-1109860I0J10160D01*
G02X2488220I70020J-140D01*
G03X2498380Y-1120000I10160J20D01*
G01X2754280D01*
G02X2852520I49120J-49900D01*
G01X2959050D01*
X2959220Y-1115090D01*
G02X3029200Y-1047480I69980J-2412D01*
G02X3033410Y-1047610I-55J-70018D01*
G01X3035690Y-1047740D01*
X3351720Y-731720D01*
G02X3380000Y-720000I28287J-28277D01*
G01X3506260D01*
G03X3516390Y-709060I-1J10161D01*
G02X3516180Y-703700I69808J5419D01*
G02X3517630Y-689510I70021J14D01*
G03X3507980Y-677290I-9947J2065D01*
G02X3439980Y-607300I2019J69990D01*
G02X3448490Y-573840I70021J4D01*
G02X3440680Y-541700I62211J32136D01*
G02X3580720I70020J0D01*
G02X3572210Y-575160I-70021J-4D01*
G02X3580020Y-607300I-62211J-32136D01*
G02X3578570Y-621490I-70021J-14D01*
G03X3588220Y-633710I9947J-2065D01*
G02X3656220Y-703700I-2019J-69990D01*
G02X3656010Y-709060I-70018J59D01*
G03X3666140Y-720000I10131J-779D01*
G01X3684870D01*
X3685710Y-715940D01*
G02X3822890I68590J-14055D01*
G01X3823730Y-720000D01*
X3833430D01*
X4041720Y-511720D01*
G02X4070000Y-500000I28287J-28277D01*
G01X4152680D01*
G03X4162430Y-486970I4J10160D01*
G02X4159980Y-470000I57570J16973D01*
G02X4280020I60020J0D01*
G02X4277570Y-486970I-60020J3D01*
G03X4287320Y-500000I9746J-2870D01*
G01X4319980D01*
Y-444860D01*
X4265140Y-390020D01*
X4140000D01*
G37*
G36*
G01X5664550Y-2764360D02*
G02X5627300Y-2777320I-37250J47053D01*
G02X5567280Y-2717300I0J60020D01*
G02X5573850Y-2690000I60019J-4D01*
G02X5567280Y-2662700I53449J27304D01*
G02X5627300Y-2602680I60020J0D01*
G02X5648570Y-2606570I13J-60022D01*
G02X5690000Y-2589980I41430J-43436D01*
G02X5750020Y-2650000I0J-60020D01*
G02X5741980Y-2680000I-60018J7D01*
G02X5750020Y-2710000I-51978J-30007D01*
G02X5690000Y-2770020I-60020J0D01*
G02X5664550Y-2764360I-6J60021D01*
G37*
G36*
G01X7215430Y-2583010D02*
G03X7214900Y-2576170I-3998J3131D01*
G02X7192680Y-2525000I47809J51170D01*
G02X7262700Y-2454980I70020J0D01*
G02X7317110Y-2480920I0J-70033D01*
G03X7332890I7890J6393D01*
G02X7387300Y-2454980I54410J-44093D01*
G02X7457320Y-2525000I0J-70020D01*
G02X7422490Y-2585540I-70029J0D01*
G03X7420530Y-2592280I2547J-4396D01*
G02X7427320Y-2620000I-53228J-27730D01*
G02X7409420Y-2662760I-60023J0D01*
G03Y-2677240I7126J-7240D01*
G02X7427320Y-2720000I-42123J-42760D01*
G02X7307280I-60020J0D01*
G02X7325180Y-2677240I60023J0D01*
G03Y-2662760I-7126J7240D01*
G02X7322570Y-2660020I42133J42747D01*
G03X7307430I-7570J-6776D01*
G02X7262700Y-2680020I-44730J40019D01*
G02X7202680Y-2620000I0J60020D01*
G02X7215430Y-2583010I60032J0D01*
G37*
G36*
G01X5163360Y-2462220D02*
G02X5139980Y-2410000I46628J52220D01*
G02X5280020I70020J0D01*
G02X5256640Y-2462220I-70008J0D01*
G02X5270020Y-2500000I-46648J-37780D01*
G02X5232630Y-2555590I-60020J0D01*
G03Y-2574410I3831J-9410D01*
G02X5270020Y-2630000I-22630J-55590D01*
G02X5149980I-60020J0D01*
G02X5187370Y-2574410I60020J0D01*
G03Y-2555590I-3831J9410D01*
G02X5149980Y-2500000I22630J55590D01*
G02X5163360Y-2462220I60028J0D01*
G37*
G36*
G01X6208960Y-1698390D02*
G03X6223650Y-1697520I6931J7429D01*
G02X6275500Y-1672750I53449J-45231D01*
G02X6340000Y-1629980I64500J-27250D01*
G02X6410020Y-1700000I0J-70020D01*
G02X6341600Y-1770000I-70018J0D01*
G02X6277100Y-1812770I-64500J27250D01*
G02X6223260Y-1787510I0J70008D01*
G03X6208580Y-1786520I-7812J-6499D01*
G02X6168020Y-1802300I-40560J44237D01*
G02Y-1682260I0J60020D01*
G02X6208960Y-1698390I0J-60020D01*
G37*
G36*
G01X5577260Y-1408650D02*
G02X5569980Y-1380000I52735J28650D01*
G02X5571720Y-1365640I60022J13D01*
G02X5547280Y-1317300I35586J48340D01*
G02X5667320I60020J0D01*
G02X5665580Y-1331660I-60022J-13D01*
G02X5690020Y-1380000I-35586J-48340D01*
G02X5682740Y-1408650I-60015J0D01*
G02X5690020Y-1437300I-52735J-28650D01*
G02X5569980I-60020J0D01*
G02X5577260Y-1408650I60015J0D01*
G37*
G36*
G01X6146950Y-1245170D02*
G03X6130460Y-1241710I-9412J-3830D01*
G02X6088650Y-1258670I-41810J43055D01*
G02Y-1138630I0J60020D01*
G02X6144230Y-1176000I0J-60017D01*
G03X6160720Y-1179460I9412J3830D01*
G02X6202530Y-1162500I41810J-43055D01*
G02Y-1282540I0J-60020D01*
G02X6146950Y-1245170I0J60017D01*
G37*
G36*
G01X7102030Y-1566810D02*
G03X7090620Y-1559210I-9863J-2442D01*
G02X7080000Y-1560020I-10620J69215D01*
G02Y-1419980I0J70020D01*
G02X7147970Y-1473190I0J-70017D01*
G03X7159380Y-1480790I9863J2442D01*
G02X7170000Y-1479980I10620J-69215D01*
G02X7240020Y-1550000I0J-70020D01*
G02X7230640Y-1585000I-70018J8D01*
G02X7240020Y-1620000I-60638J-35008D01*
G02X7099980I-70020J0D01*
G02X7109360Y-1585000I70018J-8D01*
G02X7102030Y-1566810I60638J35007D01*
G37*
G36*
G01X8624440Y-1743310D02*
G02X8589980Y-1689000I25567J54310D01*
G02X8710020I60020J0D01*
G02X8675560Y-1743310I-60027J0D01*
G03Y-1761690I4322J-9190D01*
G02X8710020Y-1816000I-25567J-54310D01*
G02X8678120Y-1869020I-60011J0D01*
G03Y-1886980I4761J-8980D01*
G02X8710020Y-1940000I-28111J-53020D01*
G02X8589980I-60020J0D01*
G02X8621880Y-1886980I60011J0D01*
G03Y-1869020I-4761J8980D01*
G02X8589980Y-1816000I28111J53020D01*
G02X8624440Y-1761690I60027J0D01*
G03Y-1743310I-4322J9190D01*
G37*
G36*
G01X7783290Y-1313490D02*
G02X7837600Y-1279030I54310J-25567D01*
G02X7891780Y-1313220I0J-60024D01*
G03X7910120I9170J4369D01*
G02X7964300Y-1279030I54180J-25834D01*
G02Y-1399070I0J-60020D01*
G02X7910120Y-1364880I0J60024D01*
G03X7891780I-9170J-4369D01*
G02X7837600Y-1399070I-54180J25834D01*
G02X7783290Y-1364610I0J60027D01*
G03X7764910I-9190J-4322D01*
G02X7710600Y-1399070I-54310J25567D01*
G02Y-1279030I0J60020D01*
G02X7764910Y-1313490I0J-60027D01*
G03X7783290I9190J4322D01*
G37*
G36*
G01X8617720Y-1365730D02*
G02X8579980Y-1310000I22278J55730D01*
G02X8700020I60020J0D01*
G02X8671090Y-1361340I-60020J0D01*
G03X8672580Y-1379470I5258J-8694D01*
G02X8710320Y-1435200I-22278J-55730D01*
G02X8590280I-60020J0D01*
G02X8619210Y-1383860I60020J0D01*
G03X8617720Y-1365730I-5258J8694D01*
G37*
G36*
G01X7367490Y-1146320D02*
G02X7349980Y-1100000I52511J46320D01*
G02X7490020I70020J0D01*
G02X7461770Y-1156200I-70027J0D01*
G03X7460520Y-1163020I3027J-4079D01*
G02X7470020Y-1195420I-50518J-32405D01*
G02X7435290Y-1249850I-60017J0D01*
G03X7436020Y-1268580I4285J-9212D01*
G02X7475020Y-1324800I-21022J-56220D01*
G02X7354980I-60020J0D01*
G02X7389710Y-1270370I60017J0D01*
G03X7388980Y-1251640I-4285J9212D01*
G02X7349980Y-1195420I21022J56220D01*
G02X7367290Y-1153250I60022J0D01*
G03X7367490Y-1146320I-3611J3572D01*
G37*
G36*
G01X8267220Y-977280D02*
G02X8239980Y-927000I32784J50280D01*
G02X8360020I60020J0D01*
G02X8324230Y-981910I-60017J0D01*
G03X8322780Y-999720I4096J-9297D01*
G02X8350020Y-1050000I-32784J-50280D01*
G02X8312630Y-1105590I-60020J0D01*
G03Y-1124410I3831J-9410D01*
G02X8350020Y-1180000I-22630J-55590D01*
G02X8318260Y-1232950I-60019J0D01*
G03X8319710Y-1251510I4785J-8963D01*
G02X8360020Y-1308200I-19708J-56690D01*
G02X8327090Y-1361760I-60022J0D01*
G03X8327160Y-1379930I4584J-9067D01*
G02X8360520Y-1433700I-26654J-53770D01*
G02X8322160Y-1489670I-60012J0D01*
G03X8321740Y-1508450I3668J-9477D01*
G02X8357620Y-1563400I-24138J-54950D01*
G02X8237580I-60020J0D01*
G02X8275940Y-1507430I60012J0D01*
G03X8276360Y-1488650I-3668J9477D01*
G02X8240480Y-1433700I24138J54950D01*
G02X8273410Y-1380140I60022J0D01*
G03X8273340Y-1361970I-4584J9067D01*
G02X8239980Y-1308200I26654J53770D01*
G02X8271740Y-1255250I60019J0D01*
G03X8270290Y-1236690I-4785J8963D01*
G02X8229980Y-1180000I19708J56690D01*
G02X8267370Y-1124410I60020J0D01*
G03Y-1105590I-3831J9410D01*
G02X8229980Y-1050000I22630J55590D01*
G02X8265770Y-995090I60017J0D01*
G03X8267220Y-977280I-4096J9297D01*
G37*
G36*
G01X8627370Y-855590D02*
G02X8589980Y-800000I22630J55590D01*
G02X8710020I60020J0D01*
G02X8672630Y-855590I-60020J0D01*
G03Y-874410I3831J-9410D01*
G02Y-985590I-22630J-55590D01*
G03Y-1004410I3831J-9410D01*
G02X8710020Y-1060000I-22630J-55590D01*
G02X8681130Y-1111310I-60009J0D01*
G03Y-1128690I5273J-8690D01*
G02X8710020Y-1180000I-31119J-51310D01*
G02X8589980I-60020J0D01*
G02X8618870Y-1128690I60009J0D01*
G03Y-1111310I-5273J8690D01*
G02X8589980Y-1060000I31119J51310D01*
G02X8627370Y-1004410I60020J0D01*
G03Y-985590I-3831J9410D01*
G02Y-874410I22630J55590D01*
G03Y-855590I-3831J9410D01*
G37*
G54D23*
X8088100Y-638400D03*
X7928100Y-478400D03*
X8248100D03*
G54D20*
X2840000Y-2205000D03*
X2360000Y-1950000D03*
X3000000Y-1980000D03*
X4950000Y-2050000D03*
X4940000Y-1400000D03*
X1988200Y-1199500D03*
X2989400Y-978200D03*
X4980000Y-850000D03*
X1826200Y-647700D03*
X4750000Y-770000D03*
X5217300Y-674700D03*
X1080000Y-310000D03*
X4892700Y-412700D03*
X4950000Y-2670000D03*
X8220000Y-2510000D03*
X8147300Y-2660000D03*
X8432700Y-2560000D03*
X5650000Y-1870000D03*
X5874350Y-1640000D03*
X6320000Y-802700D03*
X6630000Y-2430000D03*
X6693100Y-2250000D03*
X6826100Y-1035100D03*
X8442700Y-1943000D03*
X8051200Y-1625100D03*
X7430000Y-700000D03*
G54D21*
X4127700Y-2105000D03*
X5180000Y-1620000D03*
Y-970000D03*
X732700Y-510000D03*
X4980000Y-550000D03*
X5877530Y-1447520D03*
X7732700Y-660000D03*
G54D22*
X3810000Y-475000D03*
G54D19*
X1390000Y-2525000D03*
X3810000D03*
%LPD*%
G75*
G36*
G01X1026570Y-810000D02*
X1390610D01*
X1391910Y-813120D01*
G03X1420000Y-843450I55387J23124D01*
G01Y-873430D01*
X1393430Y-900000D01*
X1245920D01*
G03X1196900Y-879980I-49020J-50004D01*
G03X1149300Y-898650I0J-70014D01*
G01X1147840Y-900000D01*
X1140000D01*
G03X1100000Y-940000I0J-40000D01*
G01Y-1393430D01*
X1053080Y-1440360D01*
X1051410Y-1440600D01*
G03X1000600Y-1491410I8590J-59400D01*
G01X1000360Y-1493080D01*
X991720Y-1501720D01*
G03X980000Y-1530000I28277J-28287D01*
G01Y-1610000D01*
G03X991720Y-1638280I39997J7D01*
G01X1090000Y-1736570D01*
Y-1793540D01*
G03X1080000Y-1820000I30007J-26460D01*
G01Y-2090000D01*
G03X1092970Y-2119490I40011J0D01*
G03X1087280Y-2145000I54340J-25510D01*
G03X1207320I60020J0D01*
G03X1207180Y-2140860I-60021J43D01*
G02X1217310Y-2130000I10134J701D01*
G01X1553430D01*
X1610000Y-2186570D01*
Y-2250000D01*
X1402880D01*
G02X1392720Y-2239860I0J10160D01*
G03X1272680I-60020J-140D01*
G02X1262520Y-2250000I-10160J20D01*
G01X1064320D01*
G03X1062700Y-2249980I-1674J-69999D01*
G03X992680Y-2320000I0J-70020D01*
G03X1018150Y-2374020I70021J0D01*
G01X1020000Y-2375550D01*
Y-2390000D01*
G03X1031720Y-2418280I39997J7D01*
G01X1090000Y-2476570D01*
Y-2600000D01*
X1036570D01*
X1000000Y-2563430D01*
Y-2540000D01*
G03X988280Y-2511720I-39997J-7D01*
G01X979070Y-2502510D01*
X979910Y-2499620D01*
G03X982720Y-2480000I-67208J19637D01*
G03X924240Y-2410940I-70017J0D01*
G01X920000Y-2410230D01*
Y-2226570D01*
X1008280Y-2138280D01*
G03X1020000Y-2110000I-28277J28287D01*
G01Y-1850000D01*
G03X1008280Y-1821720I-39997J-7D01*
G01X880000Y-1693430D01*
Y-1396570D01*
X967560Y-1309000D01*
X969180Y-1308730D01*
G03X1019520Y-1249500I-9675J59230D01*
G03X980000Y-1193090I-60019J0D01*
G01Y-856570D01*
X1026570Y-810000D01*
G37*
G36*
G01X4086570Y-580000D02*
X4403430D01*
X4530000Y-706570D01*
Y-980000D01*
G03X4541720Y-1008280I39997J7D01*
G01X4606420Y-1072990D01*
G02X4605140Y-1088440I-7182J-7183D01*
G03X4579980Y-1137300I34862J-48860D01*
G03X4640000Y-1197320I60020J0D01*
G03X4685340Y-1176630I0J60024D01*
G03X4724210Y-1192480I44658J53931D01*
G01X4726070Y-1192630D01*
X4770000Y-1236570D01*
Y-1320000D01*
X4616570D01*
X4607340Y-1310770D01*
X4606970Y-1309560D01*
G03X4597380Y-1289860I-66979J-20421D01*
G03X4609420Y-1250600I-57989J39260D01*
G03X4469380I-70020J0D01*
G03X4471430Y-1267400I70018J19D01*
G02X4461560Y-1280000I-9864J-2439D01*
G01X4410000D01*
G03X4381720Y-1291720I7J-39997D01*
G01X4283430Y-1390000D01*
X4260000D01*
Y-1256570D01*
X4428280Y-1088280D01*
G03X4440000Y-1060000I-28277J28287D01*
G01Y-780000D01*
G03X4428280Y-751720I-39997J-7D01*
G01X4390770Y-714210D01*
X4390440Y-713640D01*
G03X4330000Y-678980I-60440J-35368D01*
G03X4292290Y-690000I0J-70031D01*
G01X4120000D01*
G03X4091720Y-701720I7J-39997D01*
G01X3903430Y-890000D01*
X3570000D01*
G03X3541720Y-901720I7J-39997D01*
G01X3364880Y-1078560D01*
G02X3350120Y-1078150I-7186J7181D01*
G03X3297900Y-1054780I-52220J-46657D01*
G03X3227880Y-1124800I0J-70020D01*
G03X3251250Y-1177020I70027J0D01*
G02X3251660Y-1191780I-6771J-7574D01*
G01X3241720Y-1201720D01*
G03X3230000Y-1230000I28277J-28287D01*
G01Y-1460000D01*
X3170000D01*
Y-1361490D01*
G03X3170020Y-1360000I-59999J1550D01*
G03X3170000Y-1358510I-60019J-60D01*
G01Y-1350000D01*
G03X3158280Y-1321720I-39997J-7D01*
G01X3128280Y-1291720D01*
G03X3100000Y-1280000I-28287J-28277D01*
G01X2710000D01*
G03X2681720Y-1291720I7J-39997D01*
G01X2673430Y-1300000D01*
X2350000D01*
G03X2321720Y-1311720I7J-39997D01*
G01X2161720Y-1471720D01*
G03X2150000Y-1500000I28277J-28287D01*
G01Y-1923430D01*
X2133430Y-1940000D01*
X1866570D01*
X1730000Y-1803430D01*
Y-1430000D01*
X1922310D01*
G02X1932160Y-1442670I5J-10160D01*
G03X1929980Y-1460000I67839J-17336D01*
G03X2070020I70020J0D01*
G03X2067830Y-1442630I-70019J-5D01*
G02X2078140Y-1429960I9841J2522D01*
G03X2108280Y-1418280I1850J39955D01*
G01X2326570Y-1200000D01*
X2371030D01*
X2371970Y-1203880D01*
G03X2508030I68030J16582D01*
G01X2508970Y-1200000D01*
X2740180D01*
G03X2866620I63220J30100D01*
G01X2980000D01*
G03X3008280Y-1188280I-7J39997D01*
G01X3011310Y-1185250D01*
X3014030Y-1185860D01*
G03X3029200Y-1187520I15156J68361D01*
G03X3099220Y-1117500I0J70020D01*
G03X3097560Y-1102330I-70021J14D01*
G01X3096950Y-1099610D01*
X3396570Y-800000D01*
X3752680D01*
G03X3754300Y-800020I1674J69999D01*
G03X3755920Y-800000I-54J70019D01*
G01X3850000D01*
G03X3878280Y-788280I-7J39997D01*
G01X4086570Y-580000D01*
G37*
G36*
G01X4136570Y-770000D02*
X4263110D01*
X4264340Y-773320D01*
G03X4330000Y-819020I65660J24319D01*
G03X4347330Y-816840I-6J70019D01*
G02X4360000Y-826690I2510J-9845D01*
G01Y-1043430D01*
X4322460Y-1080970D01*
X4318990Y-1078640D01*
G03X4282240Y-1066820I-38983J-58163D01*
G02X4272450Y-1055700I325J10155D01*
G03X4272720Y-1050000I-59751J5687D01*
G03X4152680I-60020J0D01*
G03X4203330Y-1109280I60015J0D01*
G02X4211660Y-1121530I-1585J-10035D01*
G03X4210360Y-1129550I68352J-15195D01*
G03X4207300Y-1129480I-3131J-69948D01*
G03X4137280Y-1199500I0J-70020D01*
G03X4180000Y-1263980I70022J0D01*
G01Y-1380000D01*
X3937770D01*
G02X3930360Y-1362890I2J10161D01*
G03X3975020Y-1250000I-120350J112890D01*
G03X3644980I-165020J0D01*
G03X3689640Y-1362890I165010J0D01*
G02X3682230Y-1380000I-7412J-6949D01*
G01X3630000D01*
G03X3601720Y-1391720I7J-39997D01*
G01X3273430Y-1720000D01*
X2840130D01*
X2839670Y-1715430D01*
G03X2770000Y-1652380I-69670J-6968D01*
G03X2699980Y-1722400I0J-70020D01*
G03X2701660Y-1737630I70018J16D01*
G02X2691740Y-1750000I-9918J-2209D01*
G01X2536570D01*
X2500000Y-1713430D01*
Y-1550000D01*
G03X2488280Y-1521720I-39997J-7D01*
G01X2438280Y-1471720D01*
G03X2410000Y-1460000I-28287J-28277D01*
G01X2311100D01*
G02X2303910Y-1442660I-2J10160D01*
G01X2366570Y-1380000D01*
X2690000D01*
G03X2718280Y-1368280I-7J39997D01*
G01X2726570Y-1360000D01*
X2737060D01*
X2737210Y-1364930D01*
G03X2785640Y-1429420I69989J2130D01*
G03X2840980Y-1487140I69161J10920D01*
G03X2908500Y-1538620I67520J18539D01*
G03X2920550Y-1537570I-30J70017D01*
G03X2977900Y-1567420I57350J40168D01*
G03Y-1427380I0J70020D01*
G03X2965850Y-1428430I30J-70017D01*
G03X2922320Y-1399960I-57349J-40172D01*
G03X2910660Y-1376280I-67522J-18537D01*
G02X2918770Y-1360000I8109J6120D01*
G01X3049800D01*
X3050160Y-1364680D01*
G03X3086880Y-1415390I59839J4680D01*
G01X3090000Y-1416690D01*
Y-1480000D01*
G03X3101720Y-1508280I39997J7D01*
G01X3121720Y-1528280D01*
G03X3150000Y-1540000I28287J28277D01*
G01X3250000D01*
G03X3278280Y-1528280I-7J39997D01*
G01X3298280Y-1508280D01*
G03X3310000Y-1480000I-28277J28287D01*
G01Y-1246570D01*
X3348180Y-1208390D01*
G02X3363430Y-1209400I7183J-7185D01*
G03X3419000Y-1236820I55570J42600D01*
G03X3489020Y-1166800I0J70020D01*
G03X3461600Y-1111230I-70020J0D01*
G02X3460590Y-1095980I6175J8067D01*
G01X3586570Y-970000D01*
X3920000D01*
G03X3948280Y-958280I-7J39997D01*
G01X4136570Y-770000D01*
G37*
%LPC*%
G75*
G54D20*
X1990000Y-1790000D03*
G54D21*
X1841340Y-1702670D03*
%LPD*%
G75*
G54D10*
X300000Y-2700000D03*
Y-300000D03*
X8700000Y-2700000D03*
Y-300000D03*
G54D11*
G01X350000Y-860000D02*
Y-742700D01*
X290000Y-682700D01*
G01X350000Y-860000D02*
X460000D01*
X520000Y-800000D01*
G01X350000Y-990000D02*
X460000D01*
X520000Y-1050000D01*
G01X350000Y-860000D02*
Y-990000D01*
G01X690000Y-2300000D02*
Y-2480000D01*
X960000Y-2750000D01*
X1710000D01*
X1810000Y-2650000D01*
Y-2560000D01*
X1890000Y-2480000D01*
X2270000D01*
X2369200Y-2579200D01*
X2454200D01*
G01X520000Y-1050000D02*
Y-1580000D01*
X610000Y-1670000D01*
Y-2220000D01*
X690000Y-2300000D01*
G01X670000Y-382700D02*
X620000Y-432700D01*
Y-680000D01*
X700000Y-760000D01*
Y-870000D01*
G01X520000Y-920000D02*
X650000D01*
X700000Y-870000D01*
G01X520000Y-800000D02*
Y-920000D01*
G01Y-1050000D02*
X646700D01*
X700000Y-996700D01*
G01X520000Y-920000D02*
Y-1050000D01*
G01X700000Y-870000D02*
Y-996700D01*
G01X1038080Y-2161920D02*
X980000Y-2220000D01*
Y-2400000D01*
X1060000Y-2480000D01*
Y-2590000D01*
G01X1239500Y-841600D02*
X1060000D01*
X1020000Y-881600D01*
Y-1040000D01*
X1050000Y-1070000D01*
Y-1330000D01*
X936270Y-1443730D01*
Y-1696270D01*
X970000Y-1730000D01*
G01X1038080Y-2161920D02*
Y-1798080D01*
X970000Y-1730000D01*
G01X1590000Y-2240000D02*
X1520010D01*
X1420010Y-2140000D01*
X1300000D01*
X1200000Y-2240000D01*
X1119990D01*
X1041910Y-2161920D01*
X1038080D01*
G01X1305500Y-842200D02*
X1240100D01*
X1239500Y-841600D01*
G01X1368400Y-843200D02*
X1306500D01*
X1305500Y-842200D01*
G01X2120000Y-1610000D02*
X1990000D01*
X1910000Y-1530000D01*
X1809060D01*
X1749060Y-1470000D01*
G01X1830000Y-1862700D02*
X1887300Y-1920000D01*
X2080000D01*
X2120000Y-1880000D01*
Y-1610000D01*
G01D02*
Y-1470000D01*
X2310000Y-1280000D01*
X2640000D01*
X2660000Y-1260000D01*
X3100000D01*
X3150000Y-1210000D01*
G01X2455200Y-2694700D02*
Y-2636400D01*
X2455800Y-2635800D01*
G01D02*
Y-2580800D01*
X2454200Y-2579200D01*
G01D02*
X2481820Y-2551580D01*
Y-2530080D01*
X2511100Y-2500800D01*
G01X3497300Y-2010000D02*
Y-2132700D01*
X3200000Y-2430000D01*
X2660000D01*
X2589200Y-2500800D01*
X2511100D01*
G01X2561140Y-1642700D02*
X2565450D01*
X2600500Y-1677750D01*
G01D02*
X2657750D01*
X2660000Y-1680000D01*
G01X2502700Y-1410000D02*
X2570000D01*
G01D02*
X2637300D01*
G01X2561140Y-1642700D02*
Y-1520000D01*
G01D02*
Y-1457920D01*
X2570000Y-1449060D01*
Y-1410000D01*
G01X2561140Y-1520000D02*
X2720000D01*
X2830000Y-1630000D01*
X3280000D01*
X3347300Y-1562700D01*
Y-1507300D01*
G01X3210700Y-1360500D02*
Y-1270700D01*
X3150000Y-1210000D01*
G01D02*
Y-1070000D01*
X3380000Y-840000D01*
X3870000D01*
X4110000Y-600000D01*
X4380000D01*
G01X3347300Y-1507300D02*
Y-1451560D01*
X3348860Y-1450000D01*
G01D02*
X3400000D01*
X3410000Y-1440000D01*
G01X4330000Y-890000D02*
X4080000D01*
X3960000Y-1010000D01*
X3650000D01*
X3560000Y-1100000D01*
Y-1200000D01*
X3480000Y-1280000D01*
Y-1370000D01*
X3410000Y-1440000D01*
G01X3210700Y-1360500D02*
Y-1419100D01*
X3213900Y-1422300D01*
G01X3497300Y-2010000D02*
Y-1972700D01*
X3530000Y-1940000D01*
G01X3610000D02*
X3530000D01*
G01X3610000D02*
Y-1980000D01*
X3580000Y-2010000D01*
X3497300D01*
G01X4886660Y-1560000D02*
X4650000D01*
X4550000Y-1460000D01*
X4350000D01*
X4300000Y-1510000D01*
X3640000D01*
X3480000Y-1670000D01*
Y-1890000D01*
X3530000Y-1940000D01*
G01X4140000Y-330000D02*
X4290000D01*
X4380000Y-420000D01*
Y-600000D01*
G01X4560000Y-1700000D02*
X4550000D01*
X4492700Y-1642700D01*
Y-1590000D01*
G01D02*
X4542700D01*
X4560000Y-1607300D01*
G01X4480000Y-1100000D02*
X4280000Y-1300000D01*
Y-1362200D01*
G01X4380000Y-600000D02*
Y-640000D01*
X4480000Y-740000D01*
Y-1100000D01*
G01X8230000Y-2370000D02*
X8070000Y-2530000D01*
X7640000D01*
X7540000Y-2430000D01*
X7175000D01*
X7120000Y-2485000D01*
Y-2679990D01*
X7039990Y-2760000D01*
X6800000D01*
X6720000Y-2680000D01*
X6230000D01*
X6110000Y-2560000D01*
X5570000D01*
X5340000Y-2330000D01*
X5120000D01*
X4795010Y-2654990D01*
X4634990D01*
X4560000Y-2580000D01*
G01D02*
Y-1700000D01*
G01Y-1607300D02*
Y-1700000D01*
G01X6515200Y-2095400D02*
X6462500D01*
X6457900Y-2100000D01*
X6330000D01*
X6140000Y-1910000D01*
X5960010D01*
X5880000Y-1990010D01*
Y-2030000D01*
X5747300Y-2162700D01*
Y-2290000D01*
G01D02*
Y-2352700D01*
G01Y-2290000D02*
X5735400D01*
X5672700Y-2352700D01*
G01Y-2417300D02*
Y-2352700D01*
G01X5747300Y-2420000D02*
Y-2352700D01*
G01X5850000Y-1870000D02*
Y-1790000D01*
X5717270Y-1657270D01*
X5687270D01*
X5650000Y-1620000D01*
G01Y-1542700D02*
Y-1620000D01*
G01X6380000Y-1110000D02*
Y-1200000D01*
X6270000Y-1310000D01*
Y-1450000D01*
X6180000Y-1540000D01*
X5720000D01*
G01X5650000Y-1542700D02*
X5717300D01*
G01D02*
X5702700Y-1557300D01*
Y-1564540D01*
X5692380Y-1574860D01*
Y-1577620D01*
X5650000Y-1620000D01*
G01X5767300Y-1122700D02*
Y-1197300D01*
G01X5690000Y-1122700D02*
X5767300D01*
G01X6530000Y-500000D02*
X6040000D01*
X5940000Y-600000D01*
Y-840000D01*
X5770000Y-1010000D01*
Y-1080940D01*
X5767300Y-1083640D01*
Y-1122700D01*
G01X5837300Y-412700D02*
Y-422700D01*
X5800000Y-460000D01*
G01D02*
Y-470820D01*
X5837300Y-508120D01*
G01Y-412700D02*
X5864920Y-440320D01*
Y-480500D01*
X5837300Y-508120D01*
G01X7120000Y-260000D02*
Y-312700D01*
X7052700Y-380000D01*
X6670010D01*
X6510010Y-220000D01*
X5977300D01*
X5837300Y-360000D01*
Y-412700D01*
G01X6180000Y-2340000D02*
X6115000Y-2405000D01*
X5952700D01*
G01X5936700Y-2105000D02*
X6055000D01*
G01X6152700Y-730000D02*
X6202700Y-680000D01*
X6370000D01*
X6420000Y-730000D01*
X6482700D01*
G01X6450000Y-1110000D02*
X6380000D01*
G01X6669080Y-1120000D02*
Y-1430920D01*
X6600000Y-1500000D01*
Y-1710920D01*
X6669080Y-1780000D01*
Y-1930920D01*
G01D02*
X6570000Y-2030000D01*
G01X6482700Y-730000D02*
X6450000Y-762700D01*
Y-1110000D01*
G01X6560000Y-1120000D02*
X6669080D01*
G01D02*
Y-1010920D01*
X6770000Y-910000D01*
X6930000D01*
X7170000Y-670000D01*
G01X6482700Y-730000D02*
X6535400D01*
X6595400Y-670000D01*
X6780000D01*
X6830000Y-720000D01*
G01X7310000Y-620000D02*
X7260000Y-570000D01*
X6990000D01*
X6920000Y-500000D01*
X6530000D01*
G01D02*
Y-400000D01*
G01X6930000Y-2682700D02*
Y-2600000D01*
G01X7620000Y-330000D02*
X7510000Y-220000D01*
X7160000D01*
X7120000Y-260000D01*
G01X7380000Y-2170000D02*
X7360000Y-2190000D01*
Y-2240000D01*
G01X7380000Y-2170000D02*
X7590000D01*
X7720000Y-2300000D01*
G01X7250000Y-2090000D02*
X7330000Y-2170000D01*
X7380000D01*
G01X7297900Y-1850900D02*
Y-1062100D01*
X7380000Y-980000D01*
X7970000D01*
X8079500Y-1089500D01*
Y-1242500D01*
G01X7620000Y-330000D02*
X7697150Y-252850D01*
X8022550D01*
X8088100Y-318400D01*
G01X8100000Y-2210000D02*
X7980000D01*
X7890000Y-2120000D01*
Y-2070000D01*
G01X8100000Y-2286350D02*
Y-2210000D01*
G01D02*
X8160000Y-2150000D01*
X8230000D01*
X8280000Y-2100000D01*
Y-1880000D01*
X8190000Y-1790000D01*
Y-1290000D01*
X8142500Y-1242500D01*
X8079500D01*
G01X8300000Y-2290000D02*
X8230000D01*
G01X8300000D02*
X8377300D01*
G01X8300000Y-2370000D02*
Y-2290000D01*
G01Y-2370000D02*
X8230000D01*
G01X8377300D02*
X8300000D01*
G01X8230000Y-2290000D02*
Y-2370000D01*
G01X8377300D02*
Y-2290000D01*
X350000Y-2130000D03*
Y-2000300D03*
Y-1880000D03*
Y-860000D03*
Y-990000D03*
X290000Y-682700D03*
X620000Y-2752700D03*
X547300Y-2690000D03*
X467300Y-2460000D03*
X530000Y-2387300D03*
X520000Y-2000000D03*
Y-2130000D03*
X690000D03*
Y-2000300D03*
X520000Y-1880000D03*
X690000D03*
X520000Y-920000D03*
X700000Y-870000D03*
X520000Y-1050000D03*
X700000Y-996700D03*
X520000Y-800000D03*
X670000Y-382700D03*
X912700Y-2480000D03*
X727300Y-2670000D03*
X820000Y-2417300D03*
X917300Y-1990000D03*
X890000Y-1840000D03*
X970000Y-1730000D03*
X959500Y-1249500D03*
X732700Y-510000D03*
X1060000Y-2590000D03*
X1062700Y-2320000D03*
X1120000Y-2380000D03*
X1240000Y-1987300D03*
X1147300Y-2145000D03*
X1160000Y-1712700D03*
X1222700Y-1380000D03*
X1060000Y-1500000D03*
X1196900Y-950000D03*
X1239500Y-841600D03*
X1080000Y-310000D03*
X1332700Y-2240000D03*
Y-2050000D03*
X1433300Y-990100D03*
X1368400Y-843200D03*
X1305500Y-842200D03*
X1260000Y-657300D03*
X1447300Y-790000D03*
X1590000Y-2240000D03*
Y-2050000D03*
X1617300Y-1800000D03*
X1749060Y-1470000D03*
X1665600Y-837800D03*
X1667800Y-973900D03*
X1678300Y-649000D03*
X1667000Y-715100D03*
X1832700Y-2050000D03*
X1841340Y-1702670D03*
X1990000Y-1790000D03*
X1830000Y-1862700D03*
X2000000Y-1460000D03*
X1988200Y-1199500D03*
X1826200Y-647700D03*
X2096600Y-2570600D03*
Y-2639300D03*
X2099700Y-2711100D03*
X2240000Y-1560000D03*
X2420000Y-2485000D03*
X2454200Y-2579200D03*
X2455800Y-2635800D03*
X2455200Y-2694700D03*
X2511100Y-2500800D03*
X2360000Y-2435000D03*
X2591300Y-2089700D03*
X2542300Y-2018800D03*
X2360000Y-1950000D03*
X2541300Y-1880900D03*
X2600500Y-1677750D03*
X2561140Y-1642700D03*
X2502700Y-1410000D03*
X2570000D03*
X2418200Y-1110000D03*
X2440000Y-1187300D03*
X2610000Y-757300D03*
X2537300Y-820000D03*
X2812400Y-2568700D03*
X2813400Y-2640200D03*
X2812400Y-2710300D03*
X2840000Y-2205000D03*
X2703290Y-2049690D03*
X2770000Y-1722400D03*
X2660000Y-1680000D03*
X2870000Y-1880000D03*
X2854800Y-1418500D03*
X2637300Y-1410000D03*
X2803400Y-1169900D03*
X2807200Y-1362800D03*
X2682700Y-820000D03*
X3000000Y-1980000D03*
X2977900Y-1497400D03*
X2908500Y-1468600D03*
X3029200Y-1117500D03*
X3110000Y-1360000D03*
X2989400Y-978200D03*
X3164200Y-1880000D03*
X3348860Y-1450000D03*
X3347300Y-1507300D03*
X3410000Y-1440000D03*
X3213900Y-1422300D03*
X3297900Y-1124800D03*
X3419000Y-1166800D03*
X3210700Y-1360500D03*
X3530000Y-1940000D03*
X3497300Y-2010000D03*
X3610000Y-1940000D03*
X3510000Y-607300D03*
X3586200Y-703700D03*
X3510700Y-541700D03*
X3896300Y-2071400D03*
X3798700Y-1980100D03*
X3754300Y-730000D03*
X4240000Y-2670000D03*
Y-2737300D03*
X4127700Y-2105000D03*
X4207300Y-1199500D03*
X4212700Y-1050000D03*
X4220000Y-470000D03*
X4140000Y-330000D03*
X4310000Y-2670000D03*
Y-2737300D03*
X4330000Y-2432700D03*
X4392700Y-2360000D03*
X4399700Y-1947600D03*
X4412700Y-1728500D03*
X4492700Y-1590000D03*
X4280000Y-1136800D03*
Y-1362200D03*
X4330000Y-890000D03*
Y-749000D03*
X4740000Y-2537300D03*
X4690000Y-1767300D03*
X4752700Y-1840000D03*
X4672700Y-1440000D03*
X4750000D03*
X4560000Y-1607300D03*
X4539400Y-1250600D03*
X4540000Y-1330000D03*
X4730000Y-1122700D03*
X4640000Y-1137300D03*
X4730000Y-1300000D03*
X4560000Y-625100D03*
X4750000Y-770000D03*
X4720000Y-307300D03*
X4661760Y-309730D03*
X4680780Y-260580D03*
X4740000Y-260000D03*
X4807300Y-2500000D03*
X4950000Y-2670000D03*
X4807300Y-2432700D03*
X4947300Y-2260000D03*
Y-2340000D03*
X4950000Y-2050000D03*
Y-1690000D03*
X4940000Y-1400000D03*
X4950000Y-1620000D03*
X4830000Y-1122700D03*
X4980000Y-850000D03*
X4947300Y-970000D03*
Y-1040000D03*
X4980000Y-550000D03*
X4892700Y-412700D03*
X4970000Y-230000D03*
X5130000Y-2760000D03*
X5210000Y-2500000D03*
Y-2630000D03*
Y-2410000D03*
X5180000Y-2260000D03*
X5220000Y-2050000D03*
X5330000Y-2070000D03*
X5200000Y-1790000D03*
Y-1870000D03*
X5180000Y-1620000D03*
X5220000Y-1400000D03*
X5200000Y-1130000D03*
Y-1210000D03*
X5180000Y-970000D03*
X5217300Y-674700D03*
X5230000Y-230000D03*
X5380000Y-2020000D03*
X5450000Y-2050000D03*
Y-1950000D03*
X5350000D03*
X5607300Y-1317300D03*
X5520000Y-670000D03*
X5390000Y-720000D03*
X5627300Y-2662700D03*
Y-2717300D03*
X5690000Y-2650000D03*
Y-2710000D03*
X5747300Y-2352700D03*
Y-2420000D03*
X5672700Y-2417300D03*
Y-2352700D03*
X5770000Y-2010000D03*
X5850000Y-1870000D03*
X5650000D03*
X5877530Y-1447520D03*
X5650000Y-1542700D03*
Y-1620000D03*
X5720000Y-1540000D03*
X5874350Y-1640000D03*
X5630000Y-1380000D03*
Y-1437300D03*
X5690000Y-1122700D03*
X5767300D03*
Y-1197300D03*
X5770000Y-880000D03*
X5870000Y-1070000D03*
X5640000Y-720000D03*
X5762700Y-750000D03*
X5817300Y-777300D03*
X5837300Y-412700D03*
X5800000Y-460000D03*
X5837300Y-508120D03*
X5666500Y-242700D03*
X5739900D03*
X5811200D03*
X6150000Y-2720000D03*
X6080000Y-2312300D03*
X6007300Y-2210000D03*
X5936700Y-2200000D03*
X5952700Y-2405000D03*
X6031300Y-2010000D03*
X5936700Y-2105000D03*
X6088650Y-1198650D03*
X6050000Y-840000D03*
X5970000Y-980000D03*
X6100000Y-297300D03*
X6419000Y-2760000D03*
X6330000Y-2620000D03*
X6370000Y-2252700D03*
X6410000Y-2327300D03*
X6277100Y-1742750D03*
X6340000Y-1700000D03*
X6168020Y-1742280D03*
X6380000Y-1110000D03*
X6202530Y-1222520D03*
X6152700Y-730000D03*
X6180600Y-586600D03*
X6320000Y-802700D03*
X6590000Y-2760000D03*
X6520500Y-2327300D03*
X6630000Y-2430000D03*
X6693100Y-2250000D03*
X6570000Y-2030000D03*
X6432700D03*
X6515200Y-2095400D03*
X6579800Y-1880100D03*
X6436400Y-1425400D03*
X6450000Y-1110000D03*
X6560000Y-1120000D03*
X6487300Y-1375400D03*
X6436000Y-1325400D03*
X6482700Y-730000D03*
X6510600Y-586600D03*
X6650000Y-792700D03*
X6430000Y-297300D03*
X6530000Y-400000D03*
X6930000Y-2682700D03*
X6870000Y-2240000D03*
X6900000Y-2347300D03*
X6790000Y-2050000D03*
X6924900Y-2040600D03*
X6874900Y-1962800D03*
X6760000Y-1720000D03*
X6840000D03*
X6760000Y-1650000D03*
Y-1590000D03*
X6840000Y-1650000D03*
X6760000Y-1520000D03*
X6840000Y-1590000D03*
X6826100Y-1035100D03*
X6750000Y-820000D03*
X6960000Y-710000D03*
X6830000Y-720000D03*
X6840000Y-586600D03*
X6760000Y-282230D03*
X7110000Y-2240000D03*
X7170000Y-2330000D03*
X7074900Y-2030000D03*
X7110000Y-2150000D03*
X7124900Y-1962800D03*
X7200000Y-2040000D03*
X6974900Y-1962800D03*
X7224900D03*
X7170000Y-1550000D03*
Y-1620000D03*
X7080000Y-1490000D03*
X7026100Y-977300D03*
X6976100Y-1035100D03*
X7170000Y-670000D03*
X6993400Y-259400D03*
X7120000Y-260000D03*
X7262700Y-2525000D03*
X7387300D03*
X7367300Y-2620000D03*
X7262700D03*
X7367300Y-2720000D03*
X7460000Y-2240000D03*
X7480000Y-2330000D03*
X7360000Y-2240000D03*
X7428100Y-2090000D03*
X7338200Y-1934100D03*
X7297900Y-1850900D03*
X7497000Y-1748000D03*
X7415000Y-1674800D03*
X7454900Y-1867900D03*
X7415000Y-1574800D03*
X7410000Y-1195420D03*
X7415000Y-1324800D03*
X7420000Y-1100000D03*
X7430000Y-700000D03*
X7310000Y-620000D03*
X7367200Y-317600D03*
X7360370Y-411500D03*
X7660000Y-2720000D03*
X7720000Y-2300000D03*
X7707300Y-2120000D03*
X7514300Y-1824600D03*
X7748700Y-1574200D03*
X7710600Y-1339050D03*
X7732700Y-660000D03*
X7637970Y-420000D03*
X7620000Y-330000D03*
X7810000Y-2720000D03*
X7852700Y-2250000D03*
X7890000Y-2070000D03*
X8051200Y-1625100D03*
X7926700Y-1575100D03*
X7837600Y-1339050D03*
X7964300D03*
X8220000Y-2510000D03*
X8147300Y-2660000D03*
X8100000Y-2286350D03*
X8230000Y-2290000D03*
X8300000D03*
X8230000Y-2370000D03*
X8300000D03*
X8110000Y-2072000D03*
X8090000Y-1994660D03*
Y-1860000D03*
X8129300Y-1922600D03*
X8300500Y-1433700D03*
X8297600Y-1563400D03*
X8079500Y-1242500D03*
X8290000Y-1180000D03*
X8300000Y-1308200D03*
X8290000Y-1050000D03*
X8300000Y-927000D03*
X8432700Y-2560000D03*
X8377300Y-2290000D03*
Y-2370000D03*
X8442700Y-1943000D03*
X8726800Y-2331000D03*
X8727300Y-2409000D03*
X8648300D03*
Y-2332000D03*
X8682300Y-2268600D03*
X8713300Y-2134200D03*
X8650000Y-1940000D03*
Y-1816000D03*
Y-1689000D03*
X8650300Y-1435200D03*
X8730000Y-1560000D03*
X8650000Y-1180000D03*
X8640000Y-1310000D03*
X8650000Y-1060000D03*
Y-930000D03*
Y-800000D03*
G54D12*
X1390000Y-2525000D03*
Y-1750000D03*
Y-1250000D03*
Y-475000D03*
X3810000Y-2525000D03*
Y-1750000D03*
Y-1250000D03*
Y-475000D03*
G54D13*
X1810000Y-310000D03*
X2190000D03*
X2900000D03*
X3320000D03*
G54D14*
X7970000Y-2660000D03*
Y-2406000D03*
X8088100Y-638400D03*
Y-318400D03*
X7928100Y-478400D03*
X8248100D03*
G54D15*
G01X4480000Y-1100000D02*
X4500000D01*
X4620000Y-1220000D01*
X4650000D01*
X4730000Y-1300000D01*
G01X7030000Y-2250000D02*
X7080000Y-2300000D01*
X7120000D01*
X7180000Y-2240000D01*
G54D16*
G01X690000Y-2300000D02*
X880000Y-2110000D01*
Y-2027300D01*
X917300Y-1990000D01*
G01X4661760Y-309730D02*
Y-357430D01*
X4650000Y-369190D01*
Y-830000D01*
X4790000Y-970000D01*
X4947300D01*
G01X4680780Y-260580D02*
Y-290710D01*
X4661760Y-309730D01*
G01D02*
X4717570D01*
X4720000Y-307300D01*
G01X4739420Y-260580D02*
X4720000Y-280000D01*
Y-307300D01*
G01X4739420Y-260580D02*
X4680780D01*
G01X4947300Y-2260000D02*
Y-2340000D01*
G01X4880000Y-1860000D02*
X4860000Y-1880000D01*
Y-2172700D01*
X4947300Y-2260000D01*
G01X4880000Y-1860000D02*
X4890000Y-1870000D01*
X4970000D01*
X5040000Y-1940000D01*
X5170000D01*
X5220000Y-1990000D01*
Y-2050000D01*
G01X4880000Y-1730000D02*
Y-1860000D01*
G01X4950000Y-1690000D02*
X4910000Y-1730000D01*
X4880000D01*
G01D02*
Y-1650000D01*
G01X4950000Y-1620000D02*
X4920000Y-1650000D01*
X4880000D01*
G01D02*
X4886660Y-1643340D01*
Y-1560000D01*
G01D02*
Y-1286660D01*
G01X4947300Y-1040000D02*
Y-1079060D01*
X4940000Y-1086360D01*
Y-1150000D01*
X4880000Y-1210000D01*
Y-1280000D01*
X4886660Y-1286660D01*
G01D02*
X4890000Y-1290000D01*
X4990000D01*
X5100000Y-1400000D01*
X5220000D01*
G01X4947300Y-1040000D02*
Y-970000D01*
G01X7120000Y-2090000D02*
X7135000Y-2075000D01*
X7170000Y-2110000D01*
X7220000D01*
X7234390Y-2095610D01*
G01X7000000Y-2090000D02*
X7120000D01*
G54D17*
G01X8110000Y-2072000D02*
X8007010D01*
X7775010Y-1840000D01*
X7650000D01*
X7555900Y-1934100D01*
X7338200D01*
G01X8090000Y-1994660D02*
X8019660D01*
X7773000Y-1748000D01*
X7497000D01*
G01X8129300Y-1922600D02*
X8052600D01*
X7804800Y-1674800D01*
X7415000D01*
G01Y-1574800D02*
X7709400D01*
X7710000Y-1574200D01*
X7748700D01*
G01X8090000Y-1860000D02*
X7804200Y-1574200D01*
X7748700D01*
G54D18*
G01X4740000Y-260000D02*
X4739420Y-260580D01*
G01X5717300Y-1542700D02*
X5720000Y-1540000D01*
M02*
