M48
METRIC,TZ
T01C.15
T02C.2
T03C.8
T04C.9
T05C1.2
T06C1.8
T07C2.2
;LEADER: 12 
;HEADER: 
;CODE  : ASCII 
;FILE  : PSU-Hirose-6Layers-Sep1-1-6.drl for board F:/3-MyLaptopDIR/PSU_PoE_Version/PCB/#Taaaaci13324.tmp ... layers TOP and BOTTOM
;T01 Holesize 1. = 0.150000 Tolerance = +0.000000/-0.000000 PLATED MM Quantity = 59
;T02 Holesize 2. = 0.200000 Tolerance = +0.000000/-0.000000 PLATED MM Quantity = 326
;T03 Holesize 3. = 0.800000 Tolerance = +0.000000/-0.000000 PLATED MM Quantity = 2
;T04 Holesize 4. = 0.900000 Tolerance = +0.000000/-0.000000 PLATED MM Quantity = 6
;T05 Holesize 5. = 1.200000 Tolerance = +0.000000/-0.000000 PLATED MM Quantity = 4
;T06 Holesize 6. = 1.800000 Tolerance = +0.000000/-0.000000 PLATED MM Quantity = 8
;T07 Holesize 7. = 2.200000 Tolerance = +0.000000/-0.000000 NON_PLATED MM Quantity = 4
%
G90
T01
X5765000Y-1440000
X6235000Y-2305000
X6232500Y-2382500
X6625000Y-2780000
X6480000Y-2540000
X6537940
X6621030Y-2538970
X6697940Y-2540000
X6936030Y-2533970
X6800000Y-2530000
X6860000
X7000000
X6460000Y-2290000
X6520000
X6640000
X6785000
X6855000
X6950000
X7015000
X6692500Y-2287500
X6740000Y-2245000
X7024900Y-1985000
X6974900Y-1945000
X7455000Y-1574800
X7404800Y-1524800
X7424800Y-1424800
X7235600Y-1384400
X7450200Y-1274800
X7217900Y-1220000
X6980000Y-1205000
X7040000
X7176100Y-1050000
X7076100Y-1035000
X7126100Y-985000
X7226100
X6926100Y-980000
X6835000Y-955000
X6712400Y-897910
X7538310Y-542060
X6959090Y-452140
X6460100Y-449990
X6540000Y-450000
X6620000
X6700000
X6800000
X6860000
X7020000
X7740000Y-540000
X7870000Y-725000
X8160000Y-1685000
Y-1740000
X8175000Y-1823400
X8555000Y-1870000
X8413400Y-1873400
X8386000Y-1923400
X8555000Y-1930000
X8390000Y-2073400
X8555000Y-2075000
X8390000Y-2173400
T02
X290000Y-682700
X250000Y-910000
X467300Y-2460000
X620000Y-2752700
X547300Y-2690000
X727300Y-2670000
X912700Y-2480000
X820000Y-2417300
X530000Y-2387300
X545000Y-2160000
X515700Y-2100000
X545000Y-2040000
X917300Y-1990000
X890000Y-1840000
X970000Y-1730000
X545000Y-1440000
X515700Y-1380000
X542300Y-1322700
X959500Y-1249500
X770000Y-820000
X732700Y-510000
X670000Y-382700
X1080000Y-310000
X1260000Y-657300
X1447300Y-790000
X1239500Y-841600
X1368400Y-843200
X1305500Y-842200
X1196900Y-950000
X1433300Y-990100
X1222700Y-1380000
X1060000Y-1500000
X1160000Y-1712700
X1240000Y-1987300
X1332700Y-2050000
X1147300Y-2145000
X1332700Y-2240000
X1062700Y-2320000
X1120000Y-2380000
X1060000Y-2590000
X1590000Y-2240000
Y-2050000
X1832700
X1830000Y-1862700
X1617300Y-1800000
X1990000Y-1790000
X1841340Y-1702670
X1749060Y-1470000
X2000000Y-1460000
X1988200Y-1199500
X1667800Y-973900
X1665600Y-837800
X1667000Y-715100
X1678300Y-649000
X1826200Y-647700
X2418200Y-1110000
X2440000Y-1187300
X2502700Y-1410000
X2240000Y-1560000
X2360000Y-1950000
X2320000Y-2410000
X2380000Y-2465000
X2511100Y-2500800
X2096600Y-2570600
X2454200Y-2579200
X2455800Y-2635800
X2096600Y-2639300
X2455200Y-2694700
X2099700Y-2711100
X2812400Y-2710300
X2813400Y-2640200
X2812400Y-2568700
X2840000Y-2205000
X2591300Y-2089700
X2703290Y-2049690
X2542300Y-2018800
X3000000Y-1980000
X2541300Y-1880900
X2870000Y-1880000
X2770000Y-1722400
X2600500Y-1677750
X2660000Y-1680000
X2561140Y-1642700
X2977900Y-1497400
X2908500Y-1468600
X2854800Y-1418500
X2570000Y-1410000
X2637300
X2807200Y-1362800
X2803400Y-1169900
X3029200Y-1117500
X2989400Y-978200
X3510700Y-541700
X3510000Y-607300
X3297900Y-1124800
X3419000Y-1166800
X3110000Y-1360000
X3210700Y-1360500
X3213900Y-1422300
X3410000Y-1440000
X3348860Y-1450000
X3347300Y-1507300
X3164200Y-1880000
X3530000Y-1940000
X3497300Y-2010000
X3896300Y-2071400
X3798700Y-1980100
X3610000Y-1940000
X3754300Y-730000
X3586200Y-703700
X4140000Y-330000
X4220000Y-470000
X4560000Y-625100
X4330000Y-749000
Y-890000
X4212700Y-1050000
X4280000Y-1136800
X4207300Y-1199500
X4539400Y-1250600
X4540000Y-1330000
X4280000Y-1362200
X4492700Y-1590000
X4560000Y-1607300
X4412700Y-1728500
X4399700Y-1947600
X4127700Y-2105000
X4392700Y-2360000
X4330000Y-2432700
X4310000Y-2670000
X4240000
X4310000Y-2737300
X4240000
X4950000Y-2670000
X4740000Y-2537300
X4807300Y-2500000
Y-2432700
X4947300Y-2340000
Y-2260000
X4950000Y-2050000
X4752700Y-1840000
X4690000Y-1767300
X4950000Y-1690000
Y-1620000
X4672700Y-1440000
X4750000
X4940000Y-1400000
X4730000Y-1300000
X4640000Y-1137300
X4730000Y-1122700
X4830000
X4947300Y-1040000
Y-970000
X4980000Y-850000
X4750000Y-770000
X4980000Y-550000
X4892700Y-412700
X4661760Y-309730
X4720000Y-307300
X4680780Y-260580
X4740000Y-260000
X4970000Y-230000
X5230000
X5520000Y-670000
X5217300Y-674700
X5390000Y-720000
X5180000Y-970000
X5200000Y-1130000
Y-1210000
X5220000Y-1400000
X5180000Y-1620000
X5200000Y-1790000
Y-1870000
X5450000Y-1950000
X5350000
X5380000Y-2020000
X5450000Y-2050000
X5220000
X5330000Y-2070000
X5180000Y-2260000
X5210000Y-2410000
Y-2500000
Y-2630000
X5130000Y-2760000
X6090000Y-2765000
X5627300Y-2717300
X5690000Y-2710000
X5965000Y-2709500
X5627300Y-2662700
X5690000Y-2650000
X5840000Y-2525000
X5920000
X5975000Y-2455000
X5747300Y-2420000
X5672700Y-2417300
Y-2352700
X5747300
X5965000Y-2350000
X5936700Y-2200000
X6015000Y-2155000
X5936700Y-2105000
X5770000Y-2010000
X6031300
X5650000Y-1870000
X5850000
X5874350Y-1640000
X5650000Y-1620000
Y-1542700
X5720000Y-1540000
X5877530Y-1447520
X5630000Y-1437300
Y-1380000
X5607300Y-1317300
X6088650Y-1198650
X5767300Y-1197300
X5690000Y-1122700
X5767300
X5817300Y-777300
X5762700Y-750000
X6090000Y-740000
X5640000Y-720000
X5990000Y-690000
X5837300Y-508120
X5800000Y-460000
X5837300Y-412700
X5960000Y-250000
X5666500Y-242700
X5739900
X5811200
X6100000Y-297300
X6385250Y-454750
X6180600Y-586600
X6185000Y-740000
X6135000Y-790000
X6290000Y-825000
X6430000Y-855000
X6545000Y-885000
X6515000Y-1120000
X6202530Y-1222520
X6436000Y-1325400
X6487300Y-1375400
X6436400Y-1425400
X6340000Y-1700000
X6277100Y-1742750
X6168020Y-1742280
X6579800Y-1880100
X6570000Y-2030000
X6432700
X6475000Y-2110000
X6370000Y-2270000
X6213710Y-2461280
X6250000Y-2710000
X6874900Y-1962800
X6760000Y-1720000
X6840000
X6760000Y-1650000
X6840000
X6760000Y-1590000
X6840000
X7080000Y-1490000
X6826100Y-1035100
X6976100
X7026100Y-977300
X7260000Y-280000
X7565000Y-415000
X7362300Y-647300
X7265000
X7480000Y-710000
X7330000Y-755000
X7614000Y-765000
X7340000Y-835000
X7520000Y-870000
X7410000Y-1195420
X7415000Y-1324800
X7170000Y-1550000
Y-1620000
X7520000Y-1748000
X7300000Y-1845000
X7455000Y-1930000
X7510000Y-2240000
X7260000
X7480000Y-2330000
X7240000Y-2425000
X7387300Y-2525000
X7305000
X7367300Y-2620000
X7240000Y-2650000
X7367300Y-2720000
X7660000
X7810000
X7720000Y-2300000
X7852700Y-2250000
X7700000Y-2140000
X7619000Y-1737300
X8000000
X7875000Y-1645000
X8022300Y-1595000
X8000000Y-1522120
X7624800Y-1474800
X7745000Y-1422700
X7875000Y-1422300
X7942300Y-1097300
X7905000Y-1042700
X7660000Y-440000
X8460000Y-510000
X8385000Y-595000
X8460000Y-680000
X8530000Y-820000
X8520400Y-922400
X8345000Y-990000
X8270000
X8442030Y-1153500
X8520400Y-1247400
X8282300Y-1380000
Y-1525000
X8150000Y-2173400
X8147300Y-2660000
X8745000Y-2400000
X8710000Y-2315000
X8700000Y-2210000
R02Y100000
Y-1915000
Y-1815000
Y-1685000
X8740000Y-1605000
X8730000Y-1380000
T03
X7440000Y-250000
X7850000
T04
X7970000Y-2660000
Y-2406000
X8085000Y-630000
X7925000Y-470000
X8085000Y-310000
X8245000Y-470000
T05
X1810000Y-310000
X2190000
X2900000
X3320000
T06
X1390000Y-475000
Y-1250000
Y-1750000
Y-2525000
X3810000
Y-1750000
Y-1250000
Y-475000
T07
X300000Y-300000
Y-2700000
X8700000
Y-300000
M30
