G04 ================== begin FILE IDENTIFICATION RECORD ==================*
G04 Layout Name:  F:/3-MyLaptopDIR/PSU_PoE_Version/PCB/PSU-C2-6Layers-Aug25.brd*
G04 Film Name:    SIG*
G04 File Format:  Gerber RS274X*
G04 File Origin:  Cadence Allegro 22.1-P001*
G04 Origin Date:  Sun Sep 28 08:46:48 2025*
G04 *
G04 Layer:  VIA CLASS/SIG1*
G04 Layer:  PIN/SIG1*
G04 Layer:  ETCH/SIG1*
G04 *
G04 Offset:    (0.0000 0.0000)*
G04 Mirror:    No*
G04 Mode:      Positive*
G04 Rotation:  0*
G04 FullContactRelief:  No*
G04 UndefLineWidth:     0.0254*
G04 ================== end FILE IDENTIFICATION RECORD ====================*
%FSLAX25Y25*MOMM*%
%IR0*IPPOS*OFA0.00000B0.00000*MIA0B0*SFA1.00000B1.00000*%
%ADD14C,.3*%
%ADD11C,.4*%
%ADD15C,1.2*%
%ADD10C,2.3*%
%ADD12C,2.5*%
%ADD13C,1.8*%
%ADD16C,.2*%
%ADD17C,.22*%
%ADD18C,.16*%
%ADD19C,.127*%
G75*
%LPD*%
G75*
G54D10*
X300000Y-2700000D03*
Y-300000D03*
X8700000Y-2700000D03*
Y-300000D03*
G54D11*
G01X825000Y-1730000D02*
X781370Y-1773630D01*
G03X755000Y-1837280I63647J-63656D01*
G01Y-2130220D01*
G03X781370Y-2193870I90017J6D01*
G01X1060000Y-2472500D01*
G01X970000Y-1730000D02*
X825000D01*
G01D02*
Y-972280D01*
G02X851370Y-908630I90017J-6D01*
G01X892030Y-867970D01*
G02X955680Y-841600I63656J-63647D01*
G01X1239500D01*
G01X1060000Y-2472500D02*
Y-2590000D01*
G01X1239500Y-841600D02*
X1304900D01*
X1305500Y-842200D01*
G01X1368400Y-843200D02*
X1306500D01*
X1305500Y-842200D01*
G01X4492700Y-1590000D02*
X4542700D01*
X4560000Y-1607300D01*
G01X6135000Y-790000D02*
Y-850000D01*
G02X6060000Y-925000I-75000J0D01*
G01X5457280D01*
G02X5393630Y-898630I6J90017D01*
G01X5366370Y-871370D01*
G03X5302720Y-845000I-63656J-63647D01*
G01X5217280D01*
G02X5153630Y-818630I6J90017D01*
G01X5045000Y-710000D01*
G03X4950000I-47500J-47500D01*
G01X4877630Y-782370D01*
G03X4855000Y-837000I54625J-54630D01*
G01Y-843000D01*
G02X4832370Y-897630I-77255J0D01*
G01X4786370Y-943630D01*
G02X4722720Y-970000I-63656J63647D01*
G01X4572280D01*
G03X4508630Y-996370I6J-90017D01*
G01X4431370Y-1073630D01*
G03X4405000Y-1137280I63647J-63656D01*
G01Y-1372720D01*
G03X4431370Y-1436370I90017J6D01*
G01X4466330Y-1471330D01*
G02X4492700Y-1534980I-63647J-63656D01*
G01Y-1590000D01*
G01X5210000Y-2630000D02*
X5165150Y-2585150D01*
G03X5080290Y-2550000I-84860J-84861D01*
G01X5000000D01*
G02X4947300Y-2497300I0J52700D01*
G01Y-2340000D01*
G01D02*
Y-2260000D01*
G01X7300000Y-1845000D02*
X6767360D01*
G02X6712120Y-1822120I0J78124D01*
G01X6707880Y-1817880D01*
G03X6652640Y-1795000I-55240J-55244D01*
G01X6452280D01*
G03X6388630Y-1821370I6J-90017D01*
G01X6366370Y-1843630D01*
G02X6302720Y-1870000I-63656J63647D01*
G01X5850000D01*
G01X5800000Y-460000D02*
Y-450000D01*
X5837300Y-412700D01*
G01X5800000Y-460000D02*
Y-470820D01*
X5837300Y-508120D01*
G01X6090000Y-740000D02*
Y-745000D01*
X6135000Y-790000D01*
G01X6185000Y-740000D02*
X6135000Y-790000D01*
G01X6185000Y-740000D02*
X6090000D01*
X250000Y-910000D03*
X290000Y-682700D03*
X620000Y-2752700D03*
X547300Y-2690000D03*
X467300Y-2460000D03*
X530000Y-2387300D03*
X545000Y-2040000D03*
X515700Y-2100000D03*
X545000Y-2160000D03*
X515700Y-1380000D03*
X545000Y-1440000D03*
X542300Y-1322700D03*
X670000Y-382700D03*
X912700Y-2480000D03*
X727300Y-2670000D03*
X820000Y-2417300D03*
X917300Y-1990000D03*
X890000Y-1840000D03*
X970000Y-1730000D03*
X959500Y-1249500D03*
X770000Y-820000D03*
X732700Y-510000D03*
X1060000Y-2590000D03*
X1062700Y-2320000D03*
X1120000Y-2380000D03*
X1240000Y-1987300D03*
X1147300Y-2145000D03*
X1160000Y-1712700D03*
X1222700Y-1380000D03*
X1060000Y-1500000D03*
X1196900Y-950000D03*
X1239500Y-841600D03*
X1080000Y-310000D03*
X1332700Y-2240000D03*
Y-2050000D03*
X1433300Y-990100D03*
X1305500Y-842200D03*
X1368400Y-843200D03*
X1260000Y-657300D03*
X1447300Y-790000D03*
X1590000Y-2240000D03*
Y-2050000D03*
X1617300Y-1800000D03*
X1749060Y-1470000D03*
X1665600Y-837800D03*
X1667800Y-973900D03*
X1678300Y-649000D03*
X1667000Y-715100D03*
X1832700Y-2050000D03*
X1841340Y-1702670D03*
X1990000Y-1790000D03*
X1830000Y-1862700D03*
X2000000Y-1460000D03*
X1988200Y-1199500D03*
X1826200Y-647700D03*
X2096600Y-2570600D03*
Y-2639300D03*
X2099700Y-2711100D03*
X2320000Y-2410000D03*
X2240000Y-1560000D03*
X2511100Y-2500800D03*
X2455200Y-2694700D03*
X2455800Y-2635800D03*
X2454200Y-2579200D03*
X2380000Y-2465000D03*
X2591300Y-2089700D03*
X2542300Y-2018800D03*
X2360000Y-1950000D03*
X2541300Y-1880900D03*
X2600500Y-1677750D03*
X2570000Y-1410000D03*
X2502700D03*
X2561140Y-1642700D03*
X2418200Y-1110000D03*
X2440000Y-1187300D03*
X2812400Y-2568700D03*
X2813400Y-2640200D03*
X2812400Y-2710300D03*
X2840000Y-2205000D03*
X2703290Y-2049690D03*
X2770000Y-1722400D03*
X2660000Y-1680000D03*
X2870000Y-1880000D03*
X2854800Y-1418500D03*
X2637300Y-1410000D03*
X2803400Y-1169900D03*
X2807200Y-1362800D03*
X3000000Y-1980000D03*
X2977900Y-1497400D03*
X2908500Y-1468600D03*
X3029200Y-1117500D03*
X3110000Y-1360000D03*
X2989400Y-978200D03*
X3164200Y-1880000D03*
X3410000Y-1440000D03*
X3347300Y-1507300D03*
X3348860Y-1450000D03*
X3213900Y-1422300D03*
X3297900Y-1124800D03*
X3419000Y-1166800D03*
X3210700Y-1360500D03*
X3610000Y-1940000D03*
X3497300Y-2010000D03*
X3530000Y-1940000D03*
X3510000Y-607300D03*
X3586200Y-703700D03*
X3510700Y-541700D03*
X3896300Y-2071400D03*
X3798700Y-1980100D03*
X3754300Y-730000D03*
X4240000Y-2670000D03*
Y-2737300D03*
X4127700Y-2105000D03*
X4207300Y-1199500D03*
X4212700Y-1050000D03*
X4220000Y-470000D03*
X4140000Y-330000D03*
X4310000Y-2670000D03*
Y-2737300D03*
X4330000Y-2432700D03*
X4392700Y-2360000D03*
X4399700Y-1947600D03*
X4412700Y-1728500D03*
X4492700Y-1590000D03*
X4280000Y-1136800D03*
Y-1362200D03*
X4330000Y-890000D03*
Y-749000D03*
X4740000Y-2537300D03*
X4690000Y-1767300D03*
X4752700Y-1840000D03*
X4672700Y-1440000D03*
X4750000D03*
X4560000Y-1607300D03*
X4539400Y-1250600D03*
X4540000Y-1330000D03*
X4730000Y-1122700D03*
X4640000Y-1137300D03*
X4730000Y-1300000D03*
X4560000Y-625100D03*
X4750000Y-770000D03*
X4661760Y-309730D03*
X4720000Y-307300D03*
X4740000Y-260000D03*
X4680780Y-260580D03*
X4807300Y-2500000D03*
X4950000Y-2670000D03*
X4807300Y-2432700D03*
X4947300Y-2260000D03*
Y-2340000D03*
X4950000Y-2050000D03*
Y-1690000D03*
X4940000Y-1400000D03*
X4950000Y-1620000D03*
X4830000Y-1122700D03*
X4980000Y-850000D03*
X4947300Y-1040000D03*
Y-970000D03*
X4980000Y-550000D03*
X4892700Y-412700D03*
X4970000Y-230000D03*
X5130000Y-2760000D03*
X5210000Y-2500000D03*
Y-2630000D03*
Y-2410000D03*
X5180000Y-2260000D03*
X5220000Y-2050000D03*
X5330000Y-2070000D03*
X5200000Y-1790000D03*
Y-1870000D03*
X5180000Y-1620000D03*
X5220000Y-1400000D03*
X5200000Y-1130000D03*
Y-1210000D03*
X5180000Y-970000D03*
X5217300Y-674700D03*
X5230000Y-230000D03*
X5380000Y-2020000D03*
X5450000Y-2050000D03*
Y-1950000D03*
X5350000D03*
X5607300Y-1317300D03*
X5520000Y-670000D03*
X5390000Y-720000D03*
X5627300Y-2662700D03*
Y-2717300D03*
X5690000Y-2650000D03*
Y-2710000D03*
X5840000Y-2525000D03*
X5747300Y-2352700D03*
Y-2420000D03*
X5672700Y-2417300D03*
Y-2352700D03*
X5770000Y-2010000D03*
X5850000Y-1870000D03*
X5650000D03*
X5877530Y-1447520D03*
X5720000Y-1540000D03*
X5650000Y-1620000D03*
Y-1542700D03*
X5874350Y-1640000D03*
X5630000Y-1380000D03*
Y-1437300D03*
X5690000Y-1122700D03*
X5767300D03*
Y-1197300D03*
X5640000Y-720000D03*
X5762700Y-750000D03*
X5817300Y-777300D03*
X5837300Y-412700D03*
X5800000Y-460000D03*
X5837300Y-508120D03*
X5666500Y-242700D03*
X5739900D03*
X5811200D03*
X6090000Y-2765000D03*
X5920000Y-2525000D03*
X5965000Y-2709500D03*
Y-2350000D03*
X5936700Y-2200000D03*
X5975000Y-2455000D03*
X6015000Y-2155000D03*
X6031300Y-2010000D03*
X5936700Y-2105000D03*
X6088650Y-1198650D03*
X5990000Y-690000D03*
X6090000Y-740000D03*
X6135000Y-790000D03*
X6100000Y-297300D03*
X5960000Y-250000D03*
X6250000Y-2710000D03*
X6370000Y-2270000D03*
X6213710Y-2461280D03*
X6277100Y-1742750D03*
X6340000Y-1700000D03*
X6168020Y-1742280D03*
X6202530Y-1222520D03*
X6180600Y-586600D03*
X6290000Y-825000D03*
X6185000Y-740000D03*
X6385250Y-454750D03*
X6570000Y-2030000D03*
X6432700D03*
X6475000Y-2110000D03*
X6579800Y-1880100D03*
X6436400Y-1425400D03*
X6515000Y-1120000D03*
X6487300Y-1375400D03*
X6436000Y-1325400D03*
X6545000Y-885000D03*
X6430000Y-855000D03*
X6874900Y-1962800D03*
X6760000Y-1720000D03*
X6840000D03*
X6760000Y-1650000D03*
Y-1590000D03*
X6840000Y-1650000D03*
Y-1590000D03*
X6826100Y-1035100D03*
X7240000Y-2650000D03*
Y-2425000D03*
X7170000Y-1550000D03*
Y-1620000D03*
X7080000Y-1490000D03*
X7026100Y-977300D03*
X6976100Y-1035100D03*
X7387300Y-2525000D03*
X7305000D03*
X7367300Y-2620000D03*
Y-2720000D03*
X7260000Y-2240000D03*
X7480000Y-2330000D03*
X7510000Y-2240000D03*
X7455000Y-1930000D03*
X7300000Y-1845000D03*
X7410000Y-1195420D03*
X7415000Y-1324800D03*
X7265000Y-647300D03*
X7362300D03*
X7480000Y-710000D03*
X7330000Y-755000D03*
X7340000Y-835000D03*
X7260000Y-280000D03*
X7660000Y-2720000D03*
X7720000Y-2300000D03*
X7700000Y-2140000D03*
X7520000Y-1748000D03*
X7619000Y-1737300D03*
X7745000Y-1422700D03*
X7624800Y-1474800D03*
X7520000Y-870000D03*
X7614000Y-765000D03*
X7660000Y-440000D03*
X7565000Y-415000D03*
X7810000Y-2720000D03*
X7852700Y-2250000D03*
X8000000Y-1737300D03*
X7875000Y-1422300D03*
Y-1645000D03*
X8022300Y-1595000D03*
X8000000Y-1522120D03*
X7905000Y-1042700D03*
X7942300Y-1097300D03*
X8147300Y-2660000D03*
X8150000Y-2173400D03*
X8282300Y-1525000D03*
Y-1380000D03*
X8270000Y-990000D03*
X8442030Y-1153500D03*
X8520400Y-1247400D03*
Y-922400D03*
X8345000Y-990000D03*
X8530000Y-820000D03*
X8385000Y-595000D03*
X8460000Y-680000D03*
Y-510000D03*
X8710000Y-2315000D03*
X8745000Y-2400000D03*
X8700000Y-2210000D03*
Y-2010000D03*
Y-2110000D03*
Y-1685000D03*
Y-1815000D03*
Y-1915000D03*
X8730000Y-1380000D03*
X8740000Y-1605000D03*
G54D12*
X1390000Y-2525000D03*
Y-1750000D03*
Y-1250000D03*
Y-475000D03*
X3810000Y-2525000D03*
Y-1750000D03*
Y-1250000D03*
Y-475000D03*
G54D13*
X1810000Y-310000D03*
X2190000D03*
X2900000D03*
X3320000D03*
G54D14*
G01X1060000Y-2472500D02*
X1101750D01*
G03X1162780Y-2447220I0J86308D01*
G01X1263630Y-2346370D01*
G02X1327280Y-2320000I63656J-63647D01*
G01X1472720D01*
G03X1536370Y-2293630I-6J90017D01*
G01X1590000Y-2240000D01*
G01X8085000Y-310000D02*
X8029660D01*
G03X7974420Y-332880I0J-78124D01*
G01X7970180Y-337120D01*
G02X7914940Y-360000I-55240J55244D01*
G01X7782280D01*
G02X7718630Y-333630I6J90017D01*
G01X7685000Y-300000D01*
G03X7565000I-60000J-60000D01*
G01X7516370Y-348630D01*
G02X7452720Y-375000I-63656J63647D01*
G01X7242280D01*
G02X7178630Y-348630I6J90017D01*
G01X7161370Y-331370D01*
G03X7097720Y-305000I-63656J-63647D01*
G01X6367280D01*
G03X6303630Y-331370I6J-90017D01*
G01X6248670Y-386330D01*
G02X6185020Y-412700I-63656J63647D01*
G01X5837300D01*
G01X8270000Y-990000D02*
X8345000D01*
G01D02*
Y-762280D01*
G03X8318630Y-698630I-90017J-6D01*
G01X8111370Y-491370D01*
G02X8085000Y-427720I63647J63656D01*
G01Y-310000D01*
X5765000Y-1440000D03*
X6235000Y-2305000D03*
X6232500Y-2382500D03*
X6625000Y-2780000D03*
X6621030Y-2538970D03*
X6480000Y-2540000D03*
X6537940D03*
X6640000Y-2290000D03*
X6460000D03*
X6520000D03*
X6540000Y-450000D03*
X6460100Y-449990D03*
X6620000Y-450000D03*
X6860000Y-2530000D03*
X6800000D03*
X6936030Y-2533970D03*
X6697940Y-2540000D03*
X6740000Y-2245000D03*
X6855000Y-2290000D03*
X6785000D03*
X6950000D03*
X6692500Y-2287500D03*
X6835000Y-955000D03*
X6712400Y-897910D03*
X6926100Y-980000D03*
X6700000Y-450000D03*
X6860000D03*
X6959090Y-452140D03*
X6800000Y-450000D03*
X7000000Y-2530000D03*
X7015000Y-2290000D03*
X7024900Y-1985000D03*
X6974900Y-1945000D03*
X7217900Y-1220000D03*
X6980000Y-1205000D03*
X7040000D03*
X7076100Y-1035000D03*
X7176100Y-1050000D03*
X7226100Y-985000D03*
X7126100D03*
X7020000Y-450000D03*
X7404800Y-1524800D03*
X7455000Y-1574800D03*
X7424800Y-1424800D03*
X7235600Y-1384400D03*
X7450200Y-1274800D03*
X7740000Y-540000D03*
X7538310Y-542060D03*
X7870000Y-725000D03*
X8160000Y-1740000D03*
Y-1685000D03*
X8175000Y-1823400D03*
X8555000Y-2075000D03*
Y-1930000D03*
X8390000Y-2173400D03*
Y-2073400D03*
X8555000Y-1870000D03*
X8413400Y-1873400D03*
X8386000Y-1923400D03*
G54D15*
X7440000Y-250000D03*
X7970000Y-2660000D03*
Y-2406000D03*
X8085000Y-630000D03*
Y-310000D03*
X7925000Y-470000D03*
X7850000Y-250000D03*
X8245000Y-470000D03*
G54D16*
G01X1147300Y-2145000D02*
Y-1764460D01*
X1160000Y-1751760D01*
Y-1712700D01*
G01X4212700Y-1050000D02*
G03X4130000Y-1132700I0J-82700D01*
G01Y-1368570D01*
G02X4100710Y-1439290I-100021J0D01*
G01X4049290Y-1490710D01*
G02X3978570Y-1520000I-70720J70731D01*
G01X3761430D01*
G03X3690710Y-1549290I0J-100021D01*
G01X3584290Y-1655710D01*
G02X3513570Y-1685000I-70720J70731D01*
G01X2921440D01*
G02X2850720Y-1655710I0J100021D01*
G01X2784300Y-1589290D01*
G03X2713580Y-1560000I-70720J-70731D01*
G01X2471430D01*
G03X2400710Y-1589290I0J-100021D01*
G01X2164290Y-1825710D01*
G03X2135000Y-1896430I70731J-70720D01*
G01Y-1973570D01*
G02X2105710Y-2044290I-100021J0D01*
G01X2029290Y-2120710D01*
G02X1958570Y-2150000I-70720J70731D01*
G01X1551430D01*
G03X1480710Y-2179290I0J-100021D01*
G01X1449290Y-2210710D01*
G02X1378570Y-2240000I-70720J70731D01*
G01X1332700D01*
G01X2240000Y-1560000D02*
X2275140D01*
G03X2317580Y-1542420I0J60017D01*
G01X2352420Y-1507580D01*
G02X2394860Y-1490000I42440J-42437D01*
G01X2770140D01*
G02X2812580Y-1507580I0J-60017D01*
G01X2907420Y-1602420D01*
G03X2949860Y-1620000I42440J42437D01*
G01X3485140D01*
G03X3527580Y-1602420I0J60017D01*
G01X3662420Y-1467580D01*
G02X3704860Y-1450000I42440J-42437D01*
G01X3955140D01*
G03X3997580Y-1432420I0J60017D01*
G01X4042420Y-1387580D01*
G03X4060000Y-1345140I-42437J42440D01*
G01Y-1059860D01*
G02X4077580Y-1017420I60017J0D01*
G01X4202420Y-892580D01*
G03X4220000Y-850140I-42437J42440D01*
G01Y-470000D01*
G01X5965000Y-2350000D02*
X5929860D01*
G02X5887420Y-2332420I0J60017D01*
G01X5739880Y-2184880D01*
G03X5697440Y-2167300I-42440J-42437D01*
G01X5220960D01*
G02X5178520Y-2149720I0J60017D01*
G01X5020880Y-1992080D01*
G03X4978440Y-1974500I-42440J-42437D01*
G01X4788260D01*
G03X4745820Y-1992080I0J-60017D01*
G01X4545480Y-2192420D01*
G02X4503040Y-2210000I-42440J42437D01*
G01X4092150D01*
G03X4071410Y-2218590I0J-29333D01*
G01X4068590Y-2221410D01*
G02X4047850Y-2230000I-20740J20743D01*
G01X3549860D01*
G03X3507420Y-2247580I0J-60017D01*
G01X3502580Y-2252420D01*
G02X3460140Y-2270000I-42440J42437D01*
G01X2763290D01*
G02X2703290Y-2210000I0J60000D01*
G01Y-2049690D01*
G01X4830000Y-1122700D02*
Y-1175140D01*
G03X4847580Y-1217580I60017J0D01*
G01X4907420Y-1277420D01*
G03X4949860Y-1295000I42440J42437D01*
G01X5375140D01*
G03X5417580Y-1277420I0J60017D01*
G01X5462420Y-1232580D01*
G02X5504860Y-1215000I42440J-42437D01*
G01X5625140D01*
G02X5667580Y-1232580I0J-60017D01*
G01X5747420Y-1312420D01*
G02X5765000Y-1354860I-42437J-42440D01*
G01Y-1440000D01*
G54D17*
G01X959500Y-1249500D02*
Y-1512160D01*
G03X989440Y-1584440I102218J0D01*
G01X1050660Y-1645660D01*
G02X1070000Y-1692340I-46678J-46685D01*
G01Y-1772450D01*
G02X1054050Y-1810950I-54441J0D01*
G01X1050950Y-1814050D01*
G03X1035000Y-1852550I38491J-38500D01*
G01Y-2122660D01*
G03X1054330Y-2169330I66005J0D01*
G01X1128530Y-2243530D01*
G02Y-2371470I-63970J-63970D01*
G01X1120000Y-2380000D01*
G01X1060000Y-1500000D02*
X1537660D01*
G02X1584340Y-1519340I-5J-66018D01*
G01X1636560Y-1571560D01*
G03X1683240Y-1590900I46685J46678D01*
G01X1893660D01*
G02X1940340Y-1610240I-5J-66018D01*
G01X1970660Y-1640560D01*
G02X1990000Y-1687240I-46678J-46685D01*
G01Y-1790000D01*
G01X6250000Y-2710000D02*
X6694210D01*
G03X6721160Y-2698840I0J38120D01*
G01X6758840Y-2661160D01*
G02X6785790Y-2650000I26950J-26960D01*
G01X7240000D01*
G54D18*
G01X7455000Y-1574800D02*
X7476140Y-1595940D01*
G03X7510090Y-1610000I33950J33959D01*
G01X7820110D01*
G02X7854060Y-1624060I0J-48019D01*
G01X7875000Y-1645000D01*
G01X8282300Y-1525000D02*
X8196360Y-1439060D01*
G03X8162410Y-1425000I-33950J-33959D01*
G01X7999890D01*
G03X7965940Y-1439060I0J-48019D01*
G01X7915480Y-1489520D01*
G02X7881530Y-1503580I-33950J33959D01*
G01X7672340D01*
G02X7640320Y-1490320I0J45291D01*
G01X7624800Y-1474800D01*
G01X7875000Y-1645000D02*
Y-1775110D01*
G03X7889060Y-1809060I48019J0D01*
G01X7910940Y-1830940D01*
G03X7944890Y-1845000I33950J33959D01*
G01X7994320D01*
X7995670Y-1846350D01*
X8058930D01*
X8060070Y-1847490D01*
X8135470D01*
G03X8161830Y-1836570I0J37275D01*
G01X8175000Y-1823400D01*
G01X8000000Y-1522120D02*
X8102230D01*
G02X8136180Y-1536180I0J-48019D01*
G01X8220940Y-1620940D01*
G02X8235000Y-1654890I-33959J-33950D01*
G01Y-1688210D01*
G03X8311790Y-1765000I76790J0D01*
G01X8356480D01*
G02X8413400Y-1821920I0J-56920D01*
G01Y-1873400D01*
G54D19*
G01X250000Y-910000D02*
X497630D01*
G03X535820Y-894180I0J54006D01*
G01X744180Y-685820D01*
G02X782370Y-670000I38190J-38186D01*
G01X1007630D01*
G02X1045820Y-685820I0J-54006D01*
G01X1084180Y-724180D01*
G03X1122370Y-740000I38190J38186D01*
G01X1322630D01*
G03X1360820Y-724180I0J54006D01*
G01X1384180Y-700820D01*
G02X1422370Y-685000I38190J-38186D01*
G01X1497630D01*
G02X1535820Y-700820I0J-54006D01*
G01X1594180Y-759180D01*
G03X1632370Y-775000I38190J38186D01*
G01X3182630D01*
G02X3220820Y-790820I0J-54006D01*
G01X3304180Y-874180D01*
G03X3342370Y-890000I38190J38186D01*
G01X3937630D01*
G03X3975820Y-874180I0J54006D01*
G01X4049180Y-800820D01*
G03X4065000Y-762630I-38186J38190D01*
G01Y-537370D01*
G02X4080820Y-499180I54006J0D01*
G01X4189180Y-390820D01*
G02X4227370Y-375000I38190J-38186D01*
G01X4422630D01*
G02X4460820Y-390820I0J-54006D01*
G01X4569180Y-499180D01*
G03X4607370Y-515000I38190J38186D01*
G01X4887630D01*
G03X4925820Y-499180I0J54006D01*
G01X4969180Y-455820D01*
G02X5007370Y-440000I38190J-38186D01*
G01X5572630D01*
G02X5610820Y-455820I0J-54006D01*
G01X5754180Y-599180D01*
G03X5792370Y-615000I38190J38186D01*
G01X6037630D01*
G02X6075820Y-630820I0J-54006D01*
G01X6084180Y-639180D01*
G03X6122370Y-655000I38190J38186D01*
G01X6232630D01*
G03X6270820Y-639180I0J54006D01*
G01X6304180Y-605820D01*
G02X6342370Y-590000I38190J-38186D01*
G01X6461050D01*
G02X6476330Y-596330I0J-21607D01*
G01X6505000Y-625000D01*
G01X6740000Y-2245000D02*
X6726160Y-2231160D01*
G03X6699210Y-2220000I-26950J-26960D01*
G01X6155790D01*
G03X6128840Y-2231160I0J-38120D01*
G01X6101160Y-2258840D01*
G03X6090000Y-2285790I26960J-26950D01*
G01Y-2380000D01*
G02X6070000Y-2400000I-20000J0D01*
G01X5875790D01*
G03X5848840Y-2411160I0J-38120D01*
G01X5761160Y-2498840D01*
G02X5734210Y-2510000I-26950J26960D01*
G01X5639730D01*
G02X5612780Y-2498840I0J38120D01*
G01X5573720Y-2459780D01*
G02X5570000Y-2450790I9003J8990D01*
G03X5558840Y-2423840I-38120J0D01*
G01X5486160Y-2351160D01*
G03X5459210Y-2340000I-26950J-26960D01*
G01X5115790D01*
G02X5088840Y-2328840I0J38120D01*
G01X5061160Y-2301160D01*
G02X5050000Y-2274210I26960J26950D01*
G01Y-2215790D01*
G03X5038840Y-2188840I-38120J0D01*
G01X5016160Y-2166160D01*
G03X4989210Y-2155000I-26950J-26960D01*
G01X4785790D01*
G03X4758840Y-2166160I0J-38120D01*
G01X4651160Y-2273840D01*
G02X4624210Y-2285000I-26950J26960D01*
G01X4320790D01*
G03X4293840Y-2296160I0J-38120D01*
G01X4288720Y-2301280D01*
G02X4279730Y-2305000I-8990J9003D01*
G01X3664070D01*
G03X3588840Y-2336160I0J-106394D01*
G01X3531160Y-2393840D01*
G02X3504210Y-2405000I-26950J26960D01*
G01X2535790D01*
G03X2508830Y-2416170I0J-38120D01*
G01X2376170Y-2548830D01*
G02X2349210Y-2560000I-26960J26950D01*
G01X2270790D01*
G02X2243840Y-2548840I0J38120D01*
G01X2116160Y-2421160D01*
G03X2089210Y-2410000I-26950J-26960D01*
G01X1940790D01*
G03X1913840Y-2421160I0J-38120D01*
G01X1876160Y-2458840D01*
G03X1865000Y-2485790I26960J-26950D01*
G01Y-2644210D01*
G02X1853840Y-2671160I-38120J0D01*
G01X1811160Y-2713840D01*
G02X1784210Y-2725000I-26950J26960D01*
G01X880790D01*
G02X853840Y-2713840I0J38120D01*
G01X821160Y-2681160D01*
G03X794210Y-2670000I-26950J-26960D01*
G01X727300D01*
G01X2320000Y-2410000D02*
Y-2340790D01*
G03X2308840Y-2313840I-38120J0D01*
G01X2291160Y-2296160D01*
G02X2280000Y-2269210I26960J26950D01*
G01Y-2075790D01*
G03X2268840Y-2048840I-38120J0D01*
G01X2246160Y-2026160D01*
G02X2235000Y-1999210I26960J26950D01*
G01Y-1905790D01*
G02X2246160Y-1878840I38120J0D01*
G01X2328840Y-1796160D01*
G02X2355790Y-1785000I26950J-26960D01*
G01X2654210D01*
G02X2681160Y-1796160I0J-38120D01*
G01X2963840Y-2078840D01*
G03X2990790Y-2090000I26950J26960D01*
G01X3764210D01*
G03X3791160Y-2078840I0J38120D01*
G01X3863840Y-2006160D01*
G02X3890790Y-1995000I26950J-26960D01*
G01X3984210D01*
G03X4011160Y-1983840I0J38120D01*
G01X4168840Y-1826160D01*
G02X4195790Y-1815000I26950J-26960D01*
G01X4439210D01*
G03X4466160Y-1803840I0J38120D01*
G01X4508840Y-1761160D01*
G03X4520000Y-1734210I-26960J26950D01*
G01Y-1720790D01*
G02X4531160Y-1693840I38120J0D01*
G01X4548840Y-1676160D01*
G02X4575790Y-1665000I26950J-26960D01*
G01X4769210D01*
G02X4796160Y-1676160I0J-38120D01*
G01X4908840Y-1788840D01*
G03X4935790Y-1800000I26950J26960D01*
G01X4984210D01*
G03X5011160Y-1788840I0J38120D01*
G01X5108840Y-1691160D01*
G02X5135790Y-1680000I26950J-26960D01*
G01X5239210D01*
G02X5266160Y-1691160I0J-38120D01*
G01X5283840Y-1708840D01*
G03X5310790Y-1720000I26950J26960D01*
G01X5649210D01*
G03X5676160Y-1708840I0J38120D01*
G01X5843840Y-1541160D01*
G02X5870790Y-1530000I26950J-26960D01*
G01X5914210D01*
G03X5941160Y-1518840I0J38120D01*
G01X5973840Y-1486160D01*
G03X5985000Y-1459210I-26960J26950D01*
G01Y-1400790D01*
G02X5996160Y-1373840I38120J0D01*
G01X6033440Y-1336560D01*
G02X6060390Y-1325400I26950J-26960D01*
G01X6436000D01*
G01X6487300Y-1375400D02*
X6113560D01*
G03X6055000Y-1433960I0J-58560D01*
G01Y-1494210D01*
G02X6043840Y-1521160I-38120J0D01*
G01X5976160Y-1588840D01*
G03X5965000Y-1615790I26960J-26950D01*
G01Y-1670000D01*
G02X5927500Y-1707500I-37500J0D01*
G01X5783290D01*
G03X5756340Y-1718660I0J-38120D01*
G01X5716160Y-1758840D01*
G02X5689210Y-1770000I-26950J26960D01*
G01X5280790D01*
G02X5253840Y-1758840I0J38120D01*
G01X5231160Y-1736160D01*
G03X5204210Y-1725000I-26950J-26960D01*
G01X5165790D01*
G03X5138840Y-1736160I0J-38120D01*
G01X5026160Y-1848840D01*
G02X4999210Y-1860000I-26950J26960D01*
G01X4930790D01*
G02X4903840Y-1848840I0J38120D01*
G01X4768720Y-1713720D01*
G03X4759730Y-1710000I-8990J-9003D01*
G01X4633560D01*
G03X4585000Y-1758560I0J-48560D01*
G01Y-1764210D01*
G02X4573840Y-1791160I-38120J0D01*
G01X4506160Y-1858840D01*
G02X4479210Y-1870000I-26950J26960D01*
G01X4260790D01*
G03X4233840Y-1881160I0J-38120D01*
G01X3968660Y-2146340D01*
G02X3941710Y-2157500I-26950J26960D01*
G01X2948290D01*
G02X2921340Y-2146340I0J38120D01*
G01X2726160Y-1951160D01*
G03X2699210Y-1940000I-26950J-26960D01*
G01X2500790D01*
G03X2473840Y-1951160I0J-38120D01*
G01X2431160Y-1993840D01*
G03X2420000Y-2020790I26960J-26950D01*
G01Y-2409210D01*
G02X2408840Y-2436160I-38120J0D01*
G01X2380000Y-2465000D01*
G01X5840000Y-2525000D02*
Y-2559210D01*
G03X5851160Y-2586160I38120J0D01*
G01X5861280Y-2596280D01*
G03X6015110Y-2660000I153834J153834D01*
G01X6304190D01*
G02X6314110Y-2664110I0J-14027D01*
G01X6315890Y-2665890D01*
G03X6325810Y-2670000I9920J9917D01*
G01X6624210D01*
G03X6651160Y-2658840I0J38120D01*
G01X6686780Y-2623220D01*
G03X6697940Y-2596270I-26960J26950D01*
G01Y-2540000D01*
G01X6015000Y-2155000D02*
Y-2100790D01*
G03X6003840Y-2073840I-38120J0D01*
G01X5921160Y-1991160D01*
G03X5894210Y-1980000I-26950J-26960D01*
G01X5865790D01*
G02X5838840Y-1968840I0J38120D01*
G01X5771160Y-1901160D01*
G02X5760000Y-1874210I26960J26950D01*
G01Y-1845790D01*
G02X5771160Y-1818840I38120J0D01*
G01X5798840Y-1791160D01*
G02X5825790Y-1780000I26950J-26960D01*
G01X5949210D01*
G03X5976160Y-1768840I0J38120D01*
G01X6108840Y-1636160D01*
G03X6120000Y-1609210I-26960J26950D01*
G01Y-1485790D01*
G02X6131160Y-1458840I38120J0D01*
G01X6153440Y-1436560D01*
G02X6180390Y-1425400I26950J-26960D01*
G01X6436400D01*
G01X5920000Y-2525000D02*
Y-2547300D01*
G03X5992700Y-2620000I72700J0D01*
G01X6324190D01*
G02X6334110Y-2624110I0J-14027D01*
G01X6335890Y-2625890D01*
G03X6345810Y-2630000I9920J9917D01*
G01X6540080D01*
G03X6591160Y-2608840I-5J72245D01*
G01X6609870Y-2590130D01*
G03X6621030Y-2563180I-26960J26950D01*
G01Y-2538970D01*
G01X6460000Y-2290000D02*
X6421160Y-2328840D01*
G02X6394210Y-2340000I-26950J26960D01*
G01X6335790D01*
G02X6308840Y-2328840I0J38120D01*
G01X6296160Y-2316160D01*
G03X6269210Y-2305000I-26950J-26960D01*
G01X6235000D01*
G01X6537940Y-2540000D02*
Y-2574060D01*
G02X6522000Y-2590000I-15940J0D01*
G01X6450000D01*
G02X6420000Y-2560000I0J30000D01*
G01Y-2430000D01*
G03X6400000Y-2410000I-20000J0D01*
G01X6275790D01*
G02X6248840Y-2398840I0J38120D01*
G01X6232500Y-2382500D01*
G01X6640000Y-2290000D02*
X6619110Y-2310890D01*
G03Y-2349110I19110J-19110D01*
G01X6638840Y-2368840D01*
G02X6650000Y-2395790I-26960J-26950D01*
G01Y-2494210D01*
G02X6638840Y-2521160I-38120J0D01*
G01X6621030Y-2538970D01*
G01X6480000Y-2540000D02*
Y-2511750D01*
G02X6484110Y-2501830I14027J0D01*
G01X6485890Y-2500050D01*
G03X6490000Y-2490130I-9917J9920D01*
G01Y-2335790D01*
G03X6478840Y-2308840I-38120J0D01*
G01X6460000Y-2290000D01*
G01X6520000D02*
X6550870Y-2320870D01*
G02X6562030Y-2347820I-26960J-26950D01*
G01Y-2500140D01*
G02X6550880Y-2527060I-38072J0D01*
G01X6537940Y-2540000D01*
G01X6505000Y-625000D02*
Y-674730D01*
G03X6516160Y-701670I38103J3D01*
G01X6712400Y-897910D01*
G01X6835000Y-955000D02*
Y-925790D01*
G03X6823840Y-898840I-38120J0D01*
G01X6586160Y-661160D01*
G02X6575000Y-634210I26960J26950D01*
G01Y-500790D01*
G03X6563840Y-473840I-38120J0D01*
G01X6540000Y-450000D01*
G01X6505000Y-625000D02*
Y-510680D01*
G03X6493840Y-483730I-38120J0D01*
G01X6460100Y-449990D01*
G01X6620000Y-450000D02*
X6648840Y-478840D01*
G02X6660000Y-505790I-26960J-26950D01*
G01Y-594210D01*
G03X6671160Y-621160I38120J0D01*
G01X6897260Y-847260D01*
G02X6926100Y-916890I-69636J-69630D01*
G01Y-980000D01*
G01X6860000Y-2530000D02*
Y-2329060D01*
X6855000Y-2324060D01*
Y-2290000D01*
G01X6800000Y-2530000D02*
Y-2349340D01*
G03X6793390Y-2333390I-22549J0D01*
G01X6791610Y-2331610D01*
G02X6785000Y-2315660I15939J15950D01*
G01Y-2290000D01*
G01X6950000D02*
Y-2477330D01*
G02X6943910Y-2492030I-20786J0D01*
G01X6942120Y-2493820D01*
G03X6936030Y-2508520I14696J-14700D01*
G01Y-2533970D01*
G01X6697940Y-2540000D02*
X6718840Y-2519100D01*
G03X6730000Y-2492150I-26960J26950D01*
G01Y-2374850D01*
G03X6718840Y-2347900I-38120J0D01*
G01X6703650Y-2332710D01*
G02X6692500Y-2305800I26898J26910D01*
G01Y-2287500D01*
G01X6700000Y-450000D02*
X6718840Y-468840D01*
G02X6730000Y-495790I-26960J-26950D01*
G01Y-569210D01*
G03X6741160Y-596160I38120J0D01*
G01X7064940Y-919940D01*
G02X7076100Y-946890I-26960J-26950D01*
G01Y-1035000D01*
G01X6860000Y-450000D02*
X6872940Y-462940D01*
G02X6884090Y-489860I-26922J-26920D01*
G01Y-553300D01*
G03X6895250Y-580250I38120J0D01*
G01X7164940Y-849940D01*
G02X7176100Y-876890I-26960J-26950D01*
G01Y-1050000D01*
G01X7126100Y-985000D02*
Y-916890D01*
G03X7114940Y-889940I-38120J0D01*
G01X6811160Y-586160D01*
G02X6800000Y-559210I26960J26950D01*
G01Y-450000D01*
G01X7015000Y-2290000D02*
Y-2471600D01*
G02X7008390Y-2487550I-22549J0D01*
G01X7006610Y-2489330D01*
G03X7000000Y-2505280I15939J-15950D01*
G01Y-2530000D01*
G01X7024900Y-1985000D02*
X7064210D01*
G02X7091160Y-1996160I0J-38120D01*
G01X7128840Y-2033840D01*
G03X7155790Y-2045000I26950J26960D01*
G01X7994210D01*
G02X8021160Y-2056160I0J-38120D01*
G01X8027240Y-2062240D01*
G03X8054190Y-2073400I26950J26960D01*
G01X8390000D01*
G01X8282300Y-1380000D02*
X8255790D01*
G02X8228840Y-1368840I0J38120D01*
G01X8201160Y-1341160D01*
G03X8174210Y-1330000I-26950J-26960D01*
G01X7855790D01*
G03X7828840Y-1341160I0J-38120D01*
G01X7821160Y-1348840D01*
G02X7794210Y-1360000I-26950J26960D01*
G01X7625790D01*
G03X7598840Y-1371160I0J-38120D01*
G01X7511160Y-1458840D01*
G02X7484210Y-1470000I-26950J26960D01*
G01X7360000D01*
G02X7330000Y-1440000I0J30000D01*
G01Y-1265790D01*
G03X7318840Y-1238840I-38120J0D01*
G01X7187260Y-1107260D01*
G02X7176100Y-1080310I26960J26950D01*
G01Y-1050000D01*
G01X6959090Y-452140D02*
Y-548300D01*
G03X6970250Y-575250I38120J0D01*
G01X7214940Y-819940D01*
G02X7226100Y-846890I-26960J-26950D01*
G01Y-985000D01*
G01X7020000Y-450000D02*
Y-524210D01*
G03X7031160Y-551160I38120J0D01*
G01X7268840Y-788840D01*
G02X7280000Y-815790I-26960J-26950D01*
G01Y-1074210D01*
G03X7291160Y-1101160I38120J0D01*
G01X7308840Y-1118840D01*
G03X7335790Y-1130000I26950J26960D01*
G01X7446900D01*
G02X7485000Y-1168100I0J-38100D01*
G01Y-1224210D01*
G02X7473840Y-1251160I-38120J0D01*
G01X7450200Y-1274800D01*
G01X6959090Y-452140D02*
Y-418080D01*
X6960000Y-417170D01*
Y-400000D01*
G02X6980000Y-380000I20000J0D01*
G01X7084210D01*
G02X7111160Y-391160I0J-38120D01*
G01X7148840Y-428840D01*
G03X7175790Y-440000I26950J26960D01*
G01X7434210D01*
G02X7461160Y-451160I0J-38120D01*
G01X7488840Y-478840D01*
G03X7515790Y-490000I26950J26960D01*
G01X7579210D01*
G02X7606160Y-501160I0J-38120D01*
G01X7633840Y-528840D01*
G03X7660790Y-540000I26950J26960D01*
G01X7740000D01*
G01X7020000Y-450000D02*
X7064210D01*
G02X7091160Y-461160I0J-38120D01*
G01X7108840Y-478840D01*
G03X7135790Y-490000I26950J26960D01*
G01X7404210D01*
G02X7431160Y-501160I0J-38120D01*
G01X7460900Y-530900D01*
G03X7487850Y-542060I26950J26960D01*
G01X7538310D01*
M02*
