G04 ================== begin FILE IDENTIFICATION RECORD ==================*
G04 Layout Name:  F:/3-MyLaptopDIR/PSU_PoE_Version/PCB/PSU-C2-6Layers-Aug25.brd*
G04 Film Name:    SILKSCREEN_TOP*
G04 File Format:  Gerber RS274X*
G04 File Origin:  Cadence Allegro 22.1-P001*
G04 Origin Date:  Sun Sep 28 08:46:48 2025*
G04 *
G04 Layer:  REF DES/SILKSCREEN_TOP*
G04 Layer:  PACKAGE GEOMETRY/SILKSCREEN_TOP*
G04 Layer:  BOARD GEOMETRY/SILKSCREEN_TOP*
G04 Layer:  BOARD GEOMETRY/ASSEMBLY_DETAIL*
G04 *
G04 Offset:    (0.0000 0.0000)*
G04 Mirror:    No*
G04 Mode:      Positive*
G04 Rotation:  0*
G04 FullContactRelief:  No*
G04 UndefLineWidth:     0.2540*
G04 ================== end FILE IDENTIFICATION RECORD ====================*
%FSLAX25Y25*MOMM*%
%IR0*IPPOS*OFA0.00000B0.00000*MIA0B0*SFA1.00000B1.00000*%
%ADD10C,.1*%
%ADD11C,.2*%
%ADD12C,.3*%
%ADD13C,.04*%
%ADD14C,.05*%
%ADD15C,.08*%
G75*
%LPD*%
G75*
G36*
G01X2947300Y-2435300D02*
X2947100D01*
X2893800Y-2382000D01*
Y-2381800D01*
X2948500D01*
X2948800Y-2382100D01*
Y-2433800D01*
X2947300Y-2435300D01*
G37*
G36*
G01X4760000Y-510000D02*
Y-560000D01*
X4810000Y-510000D01*
X4760000D01*
G37*
G36*
G01X5003000Y-2396000D02*
X5037000D01*
X5003000Y-2430000D01*
Y-2396000D01*
G37*
G36*
G01X4993000Y-1776000D02*
X5027000D01*
X4993000Y-1810000D01*
Y-1776000D01*
G37*
G36*
G01Y-1126000D02*
X5027000D01*
X4993000Y-1160000D01*
Y-1126000D01*
G37*
G36*
G01X5721700Y-1087350D02*
X5791700D01*
X5721700Y-1157350D01*
Y-1087350D01*
G37*
G36*
G01X5965000Y-2760000D02*
X6005000D01*
X5965000Y-2720000D01*
Y-2760000D01*
G37*
G36*
G01X6207470Y-2267000D02*
G03I-22470J0D01*
G37*
G36*
G01X6625830Y-1875000D02*
G03I-49630J0D01*
G37*
G36*
G01X7190000Y-2700000D02*
X7140000D01*
X7190000Y-2650000D01*
Y-2700000D01*
G37*
G36*
G01X7400000Y-2360000D02*
X7450000D01*
X7400000Y-2410000D01*
Y-2360000D01*
G37*
G36*
G01X7520000Y-650000D02*
Y-680000D01*
X7550000D01*
X7520000Y-650000D01*
G37*
G36*
G01X8070000Y-1180000D02*
X8030000D01*
X8010000D01*
X8070000Y-1240000D01*
Y-1220000D01*
Y-1180000D01*
G37*
G36*
G01X8383600Y-1646100D02*
Y-1646300D01*
X8330300Y-1699600D01*
X8330100D01*
Y-1644900D01*
X8330400Y-1644600D01*
X8382100D01*
X8383600Y-1646100D01*
G37*
G54D10*
G01X375000Y-869000D02*
X242000D01*
Y-752000D01*
X437000D01*
Y-869000D01*
X375000D01*
G01Y-669000D02*
X242000D01*
Y-552000D01*
X437000D01*
X436990Y-669000D01*
X375000D01*
G01X635000Y-640000D02*
Y-585000D01*
X675000Y-610000D01*
X635000Y-640000D01*
G01X675000Y-585000D02*
Y-640000D01*
G01X605000Y-610000D02*
X700000D01*
G01X655000Y-569000D02*
X522000D01*
Y-452000D01*
X717000D01*
Y-569000D01*
X655000D01*
G01X755000Y-369000D02*
X622000D01*
Y-252000D01*
X817000D01*
Y-369000D01*
X755000D01*
G01X1051000Y-2739000D02*
X878000D01*
Y-2620000D01*
X1081000D01*
Y-2739000D01*
X1051000D01*
G01X915000Y-440000D02*
Y-385000D01*
X955000Y-410000D01*
X915000Y-440000D01*
G01X885000Y-410000D02*
X980000D01*
G01X955000Y-385000D02*
Y-440000D01*
G01X995000Y-369000D02*
X862000D01*
Y-252000D01*
X1057000D01*
Y-369000D01*
X995000D01*
G01X2890700Y-2801500D02*
X2891400D01*
Y-2853000D01*
X2304500D01*
Y-2801100D01*
G01X2948700Y-2680200D02*
X2950200D01*
Y-2801300D01*
X2245600D01*
Y-2679000D01*
G01X2245400Y-2505700D02*
X2245100D01*
Y-2381700D01*
X2393100D01*
G01X2565000Y-1131000D02*
X2698000D01*
Y-1248000D01*
X2503000D01*
Y-1131000D01*
X2565000D01*
G01X2460000Y-950000D02*
X2420000Y-990000D01*
X2460000Y-1030000D01*
Y-950000D01*
G01X2420000Y-1030000D02*
Y-950000D01*
G01X2390000Y-990000D02*
X2490000D01*
G01X2565000Y-966000D02*
X2698000D01*
Y-1083000D01*
X2503000D01*
Y-966000D01*
X2565000D01*
G01X2796400Y-2380600D02*
X2949500D01*
Y-2504800D01*
G01X2785000Y-521000D02*
X2918000D01*
Y-638000D01*
X2723000D01*
Y-521000D01*
X2785000D01*
G01X3259000Y-2615000D02*
Y-2748000D01*
X3142000D01*
Y-2553000D01*
X3259000D01*
Y-2615000D01*
G01X3445000Y-2749000D02*
X3312000D01*
Y-2632000D01*
X3507000D01*
Y-2749000D01*
X3445000D01*
G01X3565000Y-2730000D02*
X3605000Y-2690000D01*
X3565000Y-2650000D01*
Y-2730000D01*
G01X3605000Y-2650000D02*
Y-2730000D01*
G01X3635000Y-2690000D02*
X3535000D01*
G01X4229000Y-271000D02*
X4402000D01*
Y-390000D01*
X4199000D01*
Y-271000D01*
X4229000D01*
G01X4840000Y-2770000D02*
X4330000D01*
Y-2550000D01*
X4860000D01*
Y-2770000D01*
X4840000D01*
G01X4670000Y-2660000D02*
X4630000D01*
G01X4560000D02*
X4520000D01*
G01X4630000Y-2700000D02*
Y-2620000D01*
G01X4560000Y-2700000D02*
Y-2620000D01*
G01X5190000Y-540000D02*
Y-840000D01*
X4760000D01*
Y-510000D01*
X5190000D01*
Y-540000D01*
G01X4879000Y-323000D02*
Y-456000D01*
X4762000D01*
Y-261000D01*
X4879000D01*
Y-323000D01*
G01X5045000Y-2611000D02*
X5178000D01*
Y-2728000D01*
X4983000D01*
Y-2611000D01*
X5045000D01*
G01X5017000Y-2395000D02*
X5179000D01*
Y-2503000D01*
X5002000D01*
Y-2395000D01*
X5017000D01*
G01X5161000Y-2319000D02*
X4988000D01*
Y-2200000D01*
X5191000D01*
Y-2319000D01*
X5161000D01*
G01X4786000Y-2210000D02*
Y-2077000D01*
X4903000D01*
Y-2272000D01*
X4786000D01*
Y-2210000D01*
G01X5045000Y-1991000D02*
X5178000D01*
Y-2108000D01*
X4983000D01*
Y-1991000D01*
X5045000D01*
G01X5151000Y-1709000D02*
X4978000D01*
Y-1590000D01*
X5181000D01*
Y-1709000D01*
X5151000D01*
G01X5007000Y-1775000D02*
X5169000D01*
Y-1883000D01*
X4992000D01*
Y-1775000D01*
X5007000D01*
G01X5040000Y-1291000D02*
X5173000D01*
Y-1408000D01*
X4978000D01*
Y-1291000D01*
X5040000D01*
G01Y-1446000D02*
X5173000D01*
Y-1563000D01*
X4978000D01*
Y-1446000D01*
X5040000D01*
G01X5007000Y-1125000D02*
X5169000D01*
Y-1233000D01*
X4992000D01*
Y-1125000D01*
X5007000D01*
G01X5151000Y-1029000D02*
X4978000D01*
Y-910000D01*
X5181000D01*
Y-1029000D01*
X5151000D01*
G01X5029000Y-286500D02*
Y-459500D01*
X4910000D01*
Y-256500D01*
X5029000D01*
Y-286500D01*
G01X5670000Y-2240000D02*
Y-2750000D01*
X5230000D01*
Y-2170000D01*
X5670000D01*
Y-2240000D01*
G01Y-1610000D02*
Y-2120000D01*
X5230000D01*
Y-1540000D01*
X5670000D01*
Y-1610000D01*
G01Y-960000D02*
Y-1470000D01*
X5230000D01*
Y-890000D01*
X5670000D01*
Y-960000D01*
G01Y-330000D02*
Y-840000D01*
X5230000D01*
Y-260000D01*
X5670000D01*
Y-330000D01*
G01X5059000Y-451000D02*
Y-230000D01*
X5181000D01*
Y-487000D01*
X5059000D01*
Y-451000D01*
G01X5420000Y-2320000D02*
Y-2600000D01*
G01X5480000Y-2500000D02*
G02Y-2570000I-1667J-35000D01*
G01Y-2430000D02*
G02Y-2500000I-1667J-35000D01*
G01X5450000Y-2320000D02*
Y-2600000D01*
G01X5480000Y-2360000D02*
G02Y-2430000I-1667J-35000D01*
G01X5420000Y-1690000D02*
Y-1970000D01*
G01X5480000Y-1870000D02*
G02Y-1940000I-1667J-35000D01*
G01X5450000Y-1690000D02*
Y-1970000D01*
G01X5480000Y-1800000D02*
G02Y-1870000I-1667J-35000D01*
G01Y-1730000D02*
G02Y-1800000I-1667J-35000D01*
G01X5420000Y-1040000D02*
Y-1320000D01*
G01X5480000Y-1220000D02*
G02Y-1290000I-1667J-35000D01*
G01Y-1150000D02*
G02Y-1220000I-1667J-35000D01*
G01Y-1080000D02*
G02Y-1150000I-1667J-35000D01*
G01X5450000Y-1040000D02*
Y-1320000D01*
G01X5420000Y-410000D02*
Y-690000D01*
G01X5480000Y-590000D02*
G02Y-660000I-1667J-35000D01*
G01Y-520000D02*
G02Y-590000I-1667J-35000D01*
G01X5450000Y-410000D02*
Y-690000D01*
G01X5480000Y-450000D02*
G02Y-520000I-1667J-35000D01*
G01X5821000Y-2694500D02*
Y-2561500D01*
X5938000D01*
Y-2756500D01*
X5821000Y-2756490D01*
Y-2694500D01*
G01X6166000Y-2270000D02*
X5783000D01*
Y-1945000D01*
X6186000D01*
Y-2270000D01*
X6148000D01*
G01X5741700Y-1086350D02*
X6339700D01*
Y-1906350D01*
X5719700D01*
Y-1086350D01*
X5741700D01*
G01X5731000Y-655000D02*
Y-522000D01*
X5848000D01*
Y-717000D01*
X5731000D01*
Y-655000D01*
G01X5775000Y-340000D02*
X5855000D01*
G01X5775000Y-300000D02*
X5815000Y-340000D01*
X5855000Y-300000D01*
X5775000D01*
G01X5815000Y-270000D02*
Y-370000D01*
G01X5995000Y-2450000D02*
X6215000D01*
Y-2760000D01*
X5965000D01*
Y-2450000D01*
X5995000D01*
G01X6125000Y-2409000D02*
X5992000D01*
Y-2292000D01*
X6187000D01*
Y-2409000D01*
X6125000D01*
G01X6005000Y-531000D02*
X6138000D01*
Y-648000D01*
X5943000D01*
Y-531000D01*
X6005000D01*
G01X5901000Y-445000D02*
Y-312000D01*
X6018000D01*
Y-507000D01*
X5901000D01*
Y-445000D01*
G01X6159000Y-375000D02*
Y-508000D01*
X6042000D01*
Y-313000D01*
X6159000D01*
Y-375000D01*
G01X6291000Y-2731000D02*
Y-2558000D01*
X6410000D01*
Y-2761000D01*
X6291000D01*
Y-2731000D01*
G01X6409000Y-2400000D02*
Y-2533000D01*
X6292000D01*
Y-2338000D01*
X6409000D01*
Y-2400000D01*
G01X6355000Y-2239000D02*
X6222000D01*
Y-2122000D01*
X6417000D01*
Y-2239000D01*
X6355000D01*
G01Y-2089000D02*
X6222000D01*
Y-1972000D01*
X6417000D01*
Y-2089000D01*
X6355000D01*
G01X6305000Y-677000D02*
X6438000D01*
Y-794000D01*
X6243000D01*
Y-677000D01*
X6305000D01*
G01X6585000Y-2571000D02*
X6718000D01*
Y-2688000D01*
X6523000D01*
Y-2571000D01*
X6585000D01*
G01Y-2381000D02*
X6718000D01*
Y-2498000D01*
X6523000D01*
Y-2381000D01*
X6585000D01*
G01X6650000Y-695000D02*
X6750000D01*
G01X6680000Y-735000D02*
X6720000Y-695000D01*
X6680000Y-655000D01*
Y-735000D01*
G01Y-624000D02*
X6547000D01*
Y-507000D01*
X6742000D01*
Y-624000D01*
X6680000D01*
G01X6610000Y-276000D02*
X6743000D01*
Y-393000D01*
X6548000D01*
Y-276000D01*
X6610000D01*
G01X7130000Y-2700000D02*
X6790000D01*
Y-2370000D01*
X7190000D01*
Y-2700000D01*
X7130000D01*
G01X6692200Y-1500000D02*
Y-1242500D01*
X7207200D01*
Y-1757500D01*
X6692200D01*
Y-1500000D01*
G01X6720000Y-735000D02*
Y-655000D01*
G01X6790000Y-726000D02*
X6923000D01*
Y-843000D01*
X6728000D01*
Y-726000D01*
X6790000D01*
G01X7241000Y-851000D02*
X7020000D01*
Y-729000D01*
X7277000D01*
Y-851000D01*
X7241000D01*
G01X7254000Y-385000D02*
Y-518000D01*
X7137000D01*
Y-323000D01*
X7254000D01*
Y-385000D01*
G01X7460000Y-2360000D02*
X7800000D01*
Y-2690000D01*
X7400000D01*
Y-2360000D01*
X7460000D01*
G01X7345000Y-2181000D02*
X7478000D01*
Y-2298000D01*
X7283000D01*
Y-2181000D01*
X7345000D01*
G01X7361000Y-2090000D02*
Y-1957000D01*
X7478000D01*
Y-2152000D01*
X7361000D01*
Y-2090000D01*
G01X7455000Y-370000D02*
Y-470000D01*
G01X7415000Y-400000D02*
X7455000Y-440000D01*
X7495000Y-400000D01*
X7415000D01*
G01Y-440000D02*
X7495000D01*
G01X7276000Y-455000D02*
Y-322000D01*
X7393000D01*
Y-517000D01*
X7276000Y-516990D01*
Y-455000D01*
G01X8070000Y-1280000D02*
Y-1980000D01*
X7550000D01*
Y-1180000D01*
X8070000D01*
Y-1290000D01*
G01X7619000Y-819000D02*
X7840000D01*
Y-941000D01*
X7583000D01*
Y-819000D01*
X7619000D01*
G01X7520000Y-640000D02*
Y-230000D01*
X7760000D01*
Y-680000D01*
X7520000D01*
Y-620000D01*
G01X7840000Y-2700000D02*
Y-2270000D01*
X8090000D01*
Y-2780000D01*
X7840000D01*
Y-2700000D01*
G01X7890000Y-2560000D02*
X8040000D01*
G01X7970000Y-2580000D02*
Y-2480000D01*
G01Y-2560000D02*
X7920000Y-2500000D01*
X8020000D01*
X7970000Y-2560000D01*
G01X8454000Y-2348000D02*
Y-2348300D01*
X8330000D01*
Y-2200300D01*
G01X8328900Y-1797000D02*
Y-1643900D01*
X8453100D01*
G01X8545000Y-654000D02*
X8412000D01*
Y-537000D01*
X8607000D01*
X8606990Y-654000D01*
X8545000D01*
G01X8749800Y-1702700D02*
Y-1702000D01*
X8801300D01*
Y-2288900D01*
X8749400D01*
G01X8628500Y-1644700D02*
Y-1643200D01*
X8749600D01*
Y-2347800D01*
X8627300D01*
G54D11*
G01X500000Y-2700000D02*
G03I-200000J0D01*
G01Y-300000D02*
G03I-200000J0D01*
G01X200000Y-2520000D02*
Y-480000D01*
G01X520700Y-2304700D02*
G03I-139100J0D01*
G01X378600Y-2384300D02*
Y-2245600D01*
X314000Y-2310200D01*
Y-2310800D01*
G01X378600Y-2245600D02*
X379800D01*
X442000Y-2307800D01*
G01X2490000Y-1500000D02*
G03I-1100000J0D01*
G01X8520000Y-2800000D02*
X480000D01*
G01Y-200000D02*
X8520000D01*
G01X4910000Y-1500000D02*
G03I-1100000J0D01*
G01X8335000Y-470000D02*
G03I-250000J0D01*
G01X8035000Y-510000D02*
X8135000D01*
G01Y-420000D02*
X8035000D01*
X8085000Y-510000D01*
X8135000Y-420000D01*
G01X8085000Y-540000D02*
Y-400000D01*
G01X8900000Y-2700000D02*
G03I-200000J0D01*
G01Y-300000D02*
G03I-200000J0D01*
G01X8800000Y-480000D02*
Y-2520000D01*
G54D12*
G01X1660000Y-2320000D02*
X1920000D01*
G01X1830000Y-880000D02*
X2090000D01*
G01X1960000Y-770000D02*
Y-990000D01*
G01X3410000Y-2265000D02*
X3670000D01*
G01X3370000Y-890000D02*
X3630000D01*
G01X3500000Y-780000D02*
Y-1000000D01*
G54D13*
G01X360000Y-1053330D02*
X280000D01*
Y-1036670D01*
X284000Y-1031330D01*
X289330Y-1028000D01*
X300000Y-1026670D01*
X310670Y-1028000D01*
X317330Y-1032000D01*
X321330Y-1036670D01*
Y-1053330D01*
G01Y-1036670D02*
X360000Y-1026670D01*
G01Y-998000D02*
X280000D01*
X296000Y-1006000D01*
G01X360000D02*
Y-990000D01*
G01X344000Y-970670D02*
X353330Y-966670D01*
X358670Y-961330D01*
X360000Y-955330D01*
X358670Y-950000D01*
X352000Y-944670D01*
X344000Y-941330D01*
X336000Y-940670D01*
X326670Y-942000D01*
X320000Y-946670D01*
X317330Y-951330D01*
Y-957330D01*
G01Y-951330D02*
X313330Y-947330D01*
X306670Y-944000D01*
X298670Y-942670D01*
X290670Y-944000D01*
X284000Y-947330D01*
X280000Y-953330D01*
X281330Y-959330D01*
X286670Y-965330D01*
G01X456670Y-750000D02*
Y-670000D01*
X473330D01*
X478670Y-674000D01*
X482000Y-679330D01*
X483330Y-690000D01*
X482000Y-700670D01*
X478000Y-707330D01*
X473330Y-711330D01*
X456670D01*
G01X473330D02*
X483330Y-750000D01*
G01X500670Y-740670D02*
X505330Y-747330D01*
X510670Y-750000D01*
X516000Y-747330D01*
X520670Y-739340D01*
X524000Y-727330D01*
X525330Y-715330D01*
Y-700670D01*
X524000Y-688670D01*
X520670Y-678000D01*
X516670Y-672670D01*
X512000Y-670000D01*
X506670Y-672670D01*
X502670Y-678000D01*
X500000Y-686000D01*
X498670Y-696670D01*
X500000Y-706000D01*
X503330Y-715330D01*
X507330Y-720670D01*
X512000Y-722000D01*
X517330Y-719340D01*
X521330Y-712670D01*
X525330Y-700670D01*
G01Y-430000D02*
Y-350000D01*
X538670D01*
X544000Y-354000D01*
X548000Y-359330D01*
X551330Y-367330D01*
X554000Y-376670D01*
X554670Y-390000D01*
X554000Y-403330D01*
X551330Y-412670D01*
X548000Y-420670D01*
X544000Y-426000D01*
X538670Y-430000D01*
X525330D01*
G01X590000D02*
Y-350000D01*
X565330Y-407330D01*
X598670D01*
G01X764670Y-2546670D02*
X760670Y-2542670D01*
X756000Y-2540000D01*
X750670D01*
X744670Y-2544000D01*
X740000Y-2550670D01*
X736670Y-2558670D01*
X734000Y-2572000D01*
X733330Y-2584000D01*
X734670Y-2596000D01*
X736670Y-2604000D01*
X740670Y-2612000D01*
X745330Y-2617330D01*
X750000Y-2620000D01*
X754670D01*
X759330Y-2617330D01*
X763330Y-2613330D01*
X766670Y-2608000D01*
G01X792000Y-2620000D02*
Y-2540000D01*
X784000Y-2556000D01*
G01Y-2620000D02*
X800000D01*
G01X819330Y-2608000D02*
X823330Y-2614670D01*
X828000Y-2618670D01*
X834000Y-2620000D01*
X840000Y-2617330D01*
X844670Y-2612000D01*
X848000Y-2602670D01*
X848670Y-2592000D01*
X847330Y-2581330D01*
X844000Y-2574670D01*
X839330Y-2569330D01*
X834670Y-2568000D01*
X830000Y-2569330D01*
X824000Y-2574670D01*
X826000Y-2540000D01*
X844000D01*
G01X766670Y-480000D02*
Y-400000D01*
X783330D01*
X788670Y-404000D01*
X792000Y-409330D01*
X793330Y-420000D01*
X792000Y-430670D01*
X788000Y-437330D01*
X783330Y-441330D01*
X766670D01*
G01X783330D02*
X793330Y-480000D01*
G01X822000D02*
Y-400000D01*
X814000Y-416000D01*
G01Y-480000D02*
X830000D01*
G01X1135330Y-340000D02*
Y-260000D01*
X1148670D01*
X1154000Y-264000D01*
X1158000Y-269330D01*
X1161330Y-277330D01*
X1164000Y-286670D01*
X1164670Y-300000D01*
X1164000Y-313330D01*
X1161330Y-322670D01*
X1158000Y-330670D01*
X1154000Y-336000D01*
X1148670Y-340000D01*
X1135330D01*
G01X1192000D02*
Y-260000D01*
X1184000Y-276000D01*
G01Y-340000D02*
X1200000D01*
G01X1544670Y-2646670D02*
X1540670Y-2642670D01*
X1536000Y-2640000D01*
X1530670D01*
X1524670Y-2644000D01*
X1520000Y-2650670D01*
X1516670Y-2658670D01*
X1514000Y-2672000D01*
X1513330Y-2684000D01*
X1514670Y-2696000D01*
X1516670Y-2704000D01*
X1520670Y-2712000D01*
X1525330Y-2717330D01*
X1530000Y-2720000D01*
X1534670D01*
X1539330Y-2717330D01*
X1543330Y-2713330D01*
X1546670Y-2708000D01*
G01X1570670Y-2720000D02*
X1572000Y-2702670D01*
X1574000Y-2688000D01*
X1576670Y-2674670D01*
X1580000Y-2660000D01*
X1585330Y-2640000D01*
X1558670D01*
G01X1594670Y-340000D02*
Y-260000D01*
X1625330Y-340000D01*
Y-260000D01*
G01X1652000Y-340000D02*
Y-260000D01*
X1644000Y-276000D01*
G01Y-340000D02*
X1660000D01*
G01X1976670D02*
Y-260000D01*
X1992670D01*
X1998000Y-264000D01*
X2002000Y-273330D01*
X2003330Y-284000D01*
X2002000Y-294670D01*
X1998670Y-302670D01*
X1992670Y-306670D01*
X1976670D01*
G01X2032000Y-340000D02*
Y-260000D01*
X2024000Y-276000D01*
G01Y-340000D02*
X2040000D01*
G01X2246670Y-2329000D02*
X2250000Y-2337000D01*
X2254000Y-2342330D01*
X2258670Y-2345000D01*
X2264000Y-2342330D01*
X2268000Y-2337000D01*
X2272000Y-2329000D01*
X2273330Y-2318330D01*
Y-2265000D01*
G01X2289330Y-2278330D02*
X2293330Y-2270330D01*
X2298000Y-2266330D01*
X2303330Y-2265000D01*
X2310000Y-2267670D01*
X2314670Y-2274330D01*
X2316000Y-2282330D01*
X2315330Y-2290340D01*
X2312670Y-2297000D01*
X2299330Y-2310330D01*
X2293330Y-2319670D01*
X2289330Y-2333000D01*
X2288000Y-2345000D01*
X2316000D01*
G01X2240000Y-620000D02*
X2234670Y-618670D01*
X2230000Y-613330D01*
X2226000Y-605330D01*
X2223330Y-596000D01*
X2222000Y-585330D01*
Y-574670D01*
X2223330Y-564000D01*
X2226000Y-554670D01*
X2230000Y-546670D01*
X2234670Y-541330D01*
X2240000Y-540000D01*
X2245330Y-541330D01*
X2250000Y-546670D01*
X2254000Y-554670D01*
X2256670Y-564000D01*
X2258000Y-574670D01*
Y-585330D01*
X2256670Y-596000D01*
X2254000Y-605330D01*
X2250000Y-613330D01*
X2245330Y-618670D01*
X2240000Y-620000D01*
G01X2245330Y-598670D02*
X2253330Y-620000D01*
G01X2267330Y-604000D02*
X2271330Y-613330D01*
X2276670Y-618670D01*
X2282670Y-620000D01*
X2288000Y-618670D01*
X2293330Y-612000D01*
X2296670Y-604000D01*
X2297330Y-596000D01*
X2296000Y-586670D01*
X2291330Y-580000D01*
X2286670Y-577330D01*
X2280670D01*
G01X2286670D02*
X2290670Y-573330D01*
X2294000Y-566670D01*
X2295330Y-558670D01*
X2294000Y-550670D01*
X2290670Y-544000D01*
X2284670Y-540000D01*
X2278670Y-541330D01*
X2272670Y-546670D01*
G01X2521670Y-1355000D02*
Y-1275000D01*
X2538330D01*
X2543670Y-1279000D01*
X2547000Y-1284330D01*
X2548330Y-1295000D01*
X2547000Y-1305670D01*
X2543000Y-1312330D01*
X2538330Y-1316330D01*
X2521670D01*
G01X2538330D02*
X2548330Y-1355000D01*
G01X2577000D02*
Y-1275000D01*
X2569000Y-1291000D01*
G01Y-1355000D02*
X2585000D01*
G01X2627000D02*
Y-1275000D01*
X2602330Y-1332330D01*
X2635670D01*
G01X2590330Y-920000D02*
Y-840000D01*
X2603670D01*
X2609000Y-844000D01*
X2613000Y-849330D01*
X2616330Y-857330D01*
X2619000Y-866670D01*
X2619670Y-880000D01*
X2619000Y-893330D01*
X2616330Y-902670D01*
X2613000Y-910670D01*
X2609000Y-916000D01*
X2603670Y-920000D01*
X2590330D01*
G01X2634330Y-886670D02*
X2639000Y-877330D01*
X2643000Y-872000D01*
X2648330Y-869330D01*
X2653000Y-872000D01*
X2656330Y-877330D01*
X2659000Y-885330D01*
X2659670Y-894670D01*
X2659000Y-902670D01*
X2656330Y-910670D01*
X2652330Y-917330D01*
X2647670Y-920000D01*
X2642330Y-917330D01*
X2637670Y-909340D01*
X2635000Y-897330D01*
X2634330Y-884000D01*
X2635670Y-866670D01*
X2637670Y-857330D01*
X2641000Y-848000D01*
X2645670Y-841330D01*
X2650330Y-840000D01*
X2655000Y-842670D01*
X2658330Y-849330D01*
G01X2470000Y-210000D02*
Y-290000D01*
G01X2454670Y-210000D02*
X2485330D01*
G01X2498670Y-290000D02*
Y-210000D01*
X2514670D01*
X2520000Y-214000D01*
X2524000Y-223330D01*
X2525330Y-234000D01*
X2524000Y-244670D01*
X2520670Y-252670D01*
X2514670Y-256670D01*
X2498670D01*
G01X2539330Y-274000D02*
X2543330Y-283330D01*
X2548670Y-288670D01*
X2554670Y-290000D01*
X2560000Y-288670D01*
X2565330Y-282000D01*
X2568670Y-274000D01*
X2569330Y-266000D01*
X2568000Y-256670D01*
X2563330Y-250000D01*
X2558670Y-247330D01*
X2552670D01*
G01X2558670D02*
X2562670Y-243330D01*
X2566000Y-236670D01*
X2567330Y-228670D01*
X2566000Y-220670D01*
X2562670Y-214000D01*
X2556670Y-210000D01*
X2550670Y-211330D01*
X2544670Y-216670D01*
G01X2830000Y-815000D02*
X2910000D01*
G01X2830000Y-830330D02*
Y-799670D01*
G01X2910000Y-786330D02*
X2830000D01*
Y-770330D01*
X2834000Y-765000D01*
X2843330Y-761000D01*
X2854000Y-759670D01*
X2864670Y-761000D01*
X2872670Y-764330D01*
X2876670Y-770330D01*
Y-786330D01*
G01X2910000Y-723000D02*
X2830000D01*
X2887330Y-747670D01*
Y-714330D01*
G01X2696670Y-500000D02*
Y-420000D01*
X2713330D01*
X2718670Y-424000D01*
X2722000Y-429330D01*
X2723330Y-440000D01*
X2722000Y-450670D01*
X2718000Y-457330D01*
X2713330Y-461330D01*
X2696670D01*
G01X2713330D02*
X2723330Y-500000D01*
G01X2739330Y-466670D02*
X2744000Y-457330D01*
X2748000Y-452000D01*
X2753330Y-449330D01*
X2758000Y-452000D01*
X2761330Y-457330D01*
X2764000Y-465330D01*
X2764670Y-474670D01*
X2764000Y-482670D01*
X2761330Y-490670D01*
X2757330Y-497330D01*
X2752670Y-500000D01*
X2747330Y-497330D01*
X2742670Y-489340D01*
X2740000Y-477330D01*
X2739330Y-464000D01*
X2740670Y-446670D01*
X2742670Y-437330D01*
X2746000Y-428000D01*
X2750670Y-421330D01*
X2755330Y-420000D01*
X2760000Y-422670D01*
X2763330Y-429330D01*
G01X3006670Y-2490000D02*
Y-2410000D01*
X3023330D01*
X3028670Y-2414000D01*
X3032000Y-2419330D01*
X3033330Y-2430000D01*
X3032000Y-2440670D01*
X3028000Y-2447330D01*
X3023330Y-2451330D01*
X3006670D01*
G01X3023330D02*
X3033330Y-2490000D01*
G01X3049330Y-2423330D02*
X3053330Y-2415330D01*
X3058000Y-2411330D01*
X3063330Y-2410000D01*
X3070000Y-2412670D01*
X3074670Y-2419330D01*
X3076000Y-2427330D01*
X3075330Y-2435340D01*
X3072670Y-2442000D01*
X3059330Y-2455330D01*
X3053330Y-2464670D01*
X3049330Y-2478000D01*
X3048000Y-2490000D01*
X3076000D01*
G01X3102670D02*
X3104000Y-2472670D01*
X3106000Y-2458000D01*
X3108670Y-2444670D01*
X3112000Y-2430000D01*
X3117330Y-2410000D01*
X3090670D01*
G01X3066670Y-340000D02*
Y-260000D01*
X3082670D01*
X3088000Y-264000D01*
X3092000Y-273330D01*
X3093330Y-284000D01*
X3092000Y-294670D01*
X3088670Y-302670D01*
X3082670Y-306670D01*
X3066670D01*
G01X3109330Y-273330D02*
X3113330Y-265330D01*
X3118000Y-261330D01*
X3123330Y-260000D01*
X3130000Y-262670D01*
X3134670Y-269330D01*
X3136000Y-277330D01*
X3135330Y-285340D01*
X3132670Y-292000D01*
X3119330Y-305330D01*
X3113330Y-314670D01*
X3109330Y-328000D01*
X3108000Y-340000D01*
X3136000D01*
G01X3310330Y-2615000D02*
Y-2535000D01*
X3323670D01*
X3329000Y-2539000D01*
X3333000Y-2544330D01*
X3336330Y-2552330D01*
X3339000Y-2561670D01*
X3339670Y-2575000D01*
X3339000Y-2588330D01*
X3336330Y-2597670D01*
X3333000Y-2605670D01*
X3329000Y-2611000D01*
X3323670Y-2615000D01*
X3310330D01*
G01X3365670D02*
X3367000Y-2597670D01*
X3369000Y-2583000D01*
X3371670Y-2569670D01*
X3375000Y-2555000D01*
X3380330Y-2535000D01*
X3353670D01*
G01X3474670Y-340000D02*
Y-260000D01*
X3505330Y-340000D01*
Y-260000D01*
G01X3519330Y-273330D02*
X3523330Y-265330D01*
X3528000Y-261330D01*
X3533330Y-260000D01*
X3540000Y-262670D01*
X3544670Y-269330D01*
X3546000Y-277330D01*
X3545330Y-285340D01*
X3542670Y-292000D01*
X3529330Y-305330D01*
X3523330Y-314670D01*
X3519330Y-328000D01*
X3518000Y-340000D01*
X3546000D01*
G01X3944670Y-2646670D02*
X3940670Y-2642670D01*
X3936000Y-2640000D01*
X3930670D01*
X3924670Y-2644000D01*
X3920000Y-2650670D01*
X3916670Y-2658670D01*
X3914000Y-2672000D01*
X3913330Y-2684000D01*
X3914670Y-2696000D01*
X3916670Y-2704000D01*
X3920670Y-2712000D01*
X3925330Y-2717330D01*
X3930000Y-2720000D01*
X3934670D01*
X3939330Y-2717330D01*
X3943330Y-2713330D01*
X3946670Y-2708000D01*
G01X3972000Y-2720000D02*
X3976670Y-2718670D01*
X3982000Y-2714670D01*
X3985330Y-2708000D01*
X3986670Y-2698670D01*
X3985330Y-2689340D01*
X3981330Y-2681330D01*
X3975330Y-2677330D01*
X3968670D01*
X3964670Y-2674670D01*
X3961330Y-2668000D01*
X3960000Y-2658670D01*
X3962000Y-2649330D01*
X3966670Y-2642670D01*
X3972000Y-2640000D01*
X3977330Y-2642670D01*
X3982000Y-2649330D01*
X3984000Y-2658670D01*
X3982670Y-2668000D01*
X3979330Y-2674670D01*
X3975330Y-2677330D01*
X3968670D01*
X3962670Y-2681330D01*
X3958670Y-2689340D01*
X3957330Y-2698670D01*
X3958670Y-2708000D01*
X3962000Y-2714670D01*
X3967330Y-2718670D01*
X3972000Y-2720000D01*
G01X4464670Y-266670D02*
X4460670Y-262670D01*
X4456000Y-260000D01*
X4450670D01*
X4444670Y-264000D01*
X4440000Y-270670D01*
X4436670Y-278670D01*
X4434000Y-292000D01*
X4433330Y-304000D01*
X4434670Y-316000D01*
X4436670Y-324000D01*
X4440670Y-332000D01*
X4445330Y-337330D01*
X4450000Y-340000D01*
X4454670D01*
X4459330Y-337330D01*
X4463330Y-333330D01*
X4466670Y-328000D01*
G01X4492000Y-340000D02*
Y-260000D01*
X4484000Y-276000D01*
G01Y-340000D02*
X4500000D01*
G01X4520000Y-453330D02*
X4440000D01*
Y-436670D01*
X4444000Y-431330D01*
X4449330Y-428000D01*
X4460000Y-426670D01*
X4470670Y-428000D01*
X4477330Y-432000D01*
X4481330Y-436670D01*
Y-453330D01*
G01Y-436670D02*
X4520000Y-426670D01*
G01X4504000Y-412670D02*
X4513330Y-408670D01*
X4518670Y-403330D01*
X4520000Y-397330D01*
X4518670Y-392000D01*
X4512000Y-386670D01*
X4504000Y-383330D01*
X4496000Y-382670D01*
X4486670Y-384000D01*
X4480000Y-388670D01*
X4477330Y-393330D01*
Y-399330D01*
G01Y-393330D02*
X4473330Y-389330D01*
X4466670Y-386000D01*
X4458670Y-384670D01*
X4450670Y-386000D01*
X4444000Y-389330D01*
X4440000Y-395330D01*
X4441330Y-401330D01*
X4446670Y-407330D01*
G01X4554670Y-2436670D02*
X4550670Y-2432670D01*
X4546000Y-2430000D01*
X4540670D01*
X4534670Y-2434000D01*
X4530000Y-2440670D01*
X4526670Y-2448670D01*
X4524000Y-2462000D01*
X4523330Y-2474000D01*
X4524670Y-2486000D01*
X4526670Y-2494000D01*
X4530670Y-2502000D01*
X4535330Y-2507330D01*
X4540000Y-2510000D01*
X4544670D01*
X4549330Y-2507330D01*
X4553330Y-2503330D01*
X4556670Y-2498000D01*
G01X4582000Y-2510000D02*
Y-2430000D01*
X4574000Y-2446000D01*
G01Y-2510000D02*
X4590000D01*
G01X4632000D02*
Y-2430000D01*
X4607330Y-2487330D01*
X4640670D01*
G01X4755000Y-2368330D02*
X4675000D01*
Y-2351670D01*
X4679000Y-2346330D01*
X4684330Y-2343000D01*
X4695000Y-2341670D01*
X4705670Y-2343000D01*
X4712330Y-2347000D01*
X4716330Y-2351670D01*
Y-2368330D01*
G01Y-2351670D02*
X4755000Y-2341670D01*
G01X4688330Y-2325670D02*
X4680330Y-2321670D01*
X4676330Y-2317000D01*
X4675000Y-2311670D01*
X4677670Y-2305000D01*
X4684330Y-2300330D01*
X4692330Y-2299000D01*
X4700340Y-2299670D01*
X4707000Y-2302330D01*
X4720330Y-2315670D01*
X4729670Y-2321670D01*
X4743000Y-2325670D01*
X4755000Y-2327000D01*
Y-2299000D01*
G01X4675000Y-2271000D02*
X4677670Y-2276330D01*
X4684330Y-2280330D01*
X4692330Y-2283000D01*
X4703000Y-2285000D01*
X4715000Y-2285670D01*
X4727000Y-2285000D01*
X4737670Y-2283000D01*
X4745670Y-2280330D01*
X4752330Y-2276330D01*
X4755000Y-2271000D01*
X4752330Y-2265670D01*
X4745670Y-2261670D01*
X4737670Y-2259000D01*
X4727000Y-2257000D01*
X4715000Y-2256330D01*
X4703000Y-2257000D01*
X4692330Y-2259000D01*
X4684330Y-2261670D01*
X4677670Y-2265670D01*
X4675000Y-2271000D01*
G01X4711670Y-1550000D02*
Y-1470000D01*
X4728330D01*
X4733670Y-1474000D01*
X4737000Y-1479330D01*
X4738330Y-1490000D01*
X4737000Y-1500670D01*
X4733000Y-1507330D01*
X4728330Y-1511330D01*
X4711670D01*
G01X4728330D02*
X4738330Y-1550000D01*
G01X4767000D02*
Y-1470000D01*
X4759000Y-1486000D01*
G01Y-1550000D02*
X4775000D01*
G01X4796330Y-1516670D02*
X4801000Y-1507330D01*
X4805000Y-1502000D01*
X4810330Y-1499330D01*
X4815000Y-1502000D01*
X4818330Y-1507330D01*
X4821000Y-1515330D01*
X4821670Y-1524670D01*
X4821000Y-1532670D01*
X4818330Y-1540670D01*
X4814330Y-1547330D01*
X4809670Y-1550000D01*
X4804330Y-1547330D01*
X4799670Y-1539340D01*
X4797000Y-1527330D01*
X4796330Y-1514000D01*
X4797670Y-1496670D01*
X4799670Y-1487330D01*
X4803000Y-1478000D01*
X4807670Y-1471330D01*
X4812330Y-1470000D01*
X4817000Y-1472670D01*
X4820330Y-1479330D01*
G01X4655330Y-520000D02*
Y-577330D01*
X4658000Y-589340D01*
X4663330Y-597330D01*
X4670000Y-600000D01*
X4676670Y-597330D01*
X4682000Y-589340D01*
X4684670Y-577330D01*
Y-520000D01*
G01X4699330Y-533330D02*
X4703330Y-525330D01*
X4708000Y-521330D01*
X4713330Y-520000D01*
X4720000Y-522670D01*
X4724670Y-529330D01*
X4726000Y-537330D01*
X4725330Y-545340D01*
X4722670Y-552000D01*
X4709330Y-565330D01*
X4703330Y-574670D01*
X4699330Y-588000D01*
X4698000Y-600000D01*
X4726000D01*
G01X4666670Y-425330D02*
X4662670Y-429330D01*
X4660000Y-434000D01*
Y-439330D01*
X4664000Y-445330D01*
X4670670Y-450000D01*
X4678670Y-453330D01*
X4692000Y-456000D01*
X4704000Y-456670D01*
X4716000Y-455330D01*
X4724000Y-453330D01*
X4732000Y-449330D01*
X4737330Y-444670D01*
X4740000Y-440000D01*
Y-435330D01*
X4737330Y-430670D01*
X4733330Y-426670D01*
X4728000Y-423330D01*
G01X4724000Y-412670D02*
X4733330Y-408670D01*
X4738670Y-403330D01*
X4740000Y-397330D01*
X4738670Y-392000D01*
X4732000Y-386670D01*
X4724000Y-383330D01*
X4716000Y-382670D01*
X4706670Y-384000D01*
X4700000Y-388670D01*
X4697330Y-393330D01*
Y-399330D01*
G01Y-393330D02*
X4693330Y-389330D01*
X4686670Y-386000D01*
X4678670Y-384670D01*
X4670670Y-386000D01*
X4664000Y-389330D01*
X4660000Y-395330D01*
X4661330Y-401330D01*
X4666670Y-407330D01*
G01X4556670Y-425330D02*
X4552670Y-429330D01*
X4550000Y-434000D01*
Y-439330D01*
X4554000Y-445330D01*
X4560670Y-450000D01*
X4568670Y-453330D01*
X4582000Y-456000D01*
X4594000Y-456670D01*
X4606000Y-455330D01*
X4614000Y-453330D01*
X4622000Y-449330D01*
X4627330Y-444670D01*
X4630000Y-440000D01*
Y-435330D01*
X4627330Y-430670D01*
X4623330Y-426670D01*
X4618000Y-423330D01*
G01X4563330Y-410670D02*
X4555330Y-406670D01*
X4551330Y-402000D01*
X4550000Y-396670D01*
X4552670Y-390000D01*
X4559330Y-385330D01*
X4567330Y-384000D01*
X4575340Y-384670D01*
X4582000Y-387330D01*
X4595330Y-400670D01*
X4604670Y-406670D01*
X4618000Y-410670D01*
X4630000Y-412000D01*
Y-384000D01*
G01X4886670Y-2600000D02*
Y-2520000D01*
X4903330D01*
X4908670Y-2524000D01*
X4912000Y-2529330D01*
X4913330Y-2540000D01*
X4912000Y-2550670D01*
X4908000Y-2557330D01*
X4903330Y-2561330D01*
X4886670D01*
G01X4903330D02*
X4913330Y-2600000D01*
G01X4929330Y-2533330D02*
X4933330Y-2525330D01*
X4938000Y-2521330D01*
X4943330Y-2520000D01*
X4950000Y-2522670D01*
X4954670Y-2529330D01*
X4956000Y-2537330D01*
X4955330Y-2545340D01*
X4952670Y-2552000D01*
X4939330Y-2565330D01*
X4933330Y-2574670D01*
X4929330Y-2588000D01*
X4928000Y-2600000D01*
X4956000D01*
G01X4972670Y-2590670D02*
X4977330Y-2597330D01*
X4982670Y-2600000D01*
X4988000Y-2597330D01*
X4992670Y-2589340D01*
X4996000Y-2577330D01*
X4997330Y-2565330D01*
Y-2550670D01*
X4996000Y-2538670D01*
X4992670Y-2528000D01*
X4988670Y-2522670D01*
X4984000Y-2520000D01*
X4978670Y-2522670D01*
X4974670Y-2528000D01*
X4972000Y-2536000D01*
X4970670Y-2546670D01*
X4972000Y-2556000D01*
X4975330Y-2565330D01*
X4979330Y-2570670D01*
X4984000Y-2572000D01*
X4989330Y-2569340D01*
X4993330Y-2562670D01*
X4997330Y-2550670D01*
G01X4895330Y-2410000D02*
Y-2467330D01*
X4898000Y-2479340D01*
X4903330Y-2487330D01*
X4910000Y-2490000D01*
X4916670Y-2487330D01*
X4922000Y-2479340D01*
X4924670Y-2467330D01*
Y-2410000D01*
G01X4940670Y-2480670D02*
X4945330Y-2487330D01*
X4950670Y-2490000D01*
X4956000Y-2487330D01*
X4960670Y-2479340D01*
X4964000Y-2467330D01*
X4965330Y-2455330D01*
Y-2440670D01*
X4964000Y-2428670D01*
X4960670Y-2418000D01*
X4956670Y-2412670D01*
X4952000Y-2410000D01*
X4946670Y-2412670D01*
X4942670Y-2418000D01*
X4940000Y-2426000D01*
X4938670Y-2436670D01*
X4940000Y-2446000D01*
X4943330Y-2455330D01*
X4947330Y-2460670D01*
X4952000Y-2462000D01*
X4957330Y-2459340D01*
X4961330Y-2452670D01*
X4965330Y-2440670D01*
G01X4824670Y-2296670D02*
X4820670Y-2292670D01*
X4816000Y-2290000D01*
X4810670D01*
X4804670Y-2294000D01*
X4800000Y-2300670D01*
X4796670Y-2308670D01*
X4794000Y-2322000D01*
X4793330Y-2334000D01*
X4794670Y-2346000D01*
X4796670Y-2354000D01*
X4800670Y-2362000D01*
X4805330Y-2367330D01*
X4810000Y-2370000D01*
X4814670D01*
X4819330Y-2367330D01*
X4823330Y-2363330D01*
X4826670Y-2358000D01*
G01X4852000Y-2370000D02*
Y-2290000D01*
X4844000Y-2306000D01*
G01Y-2370000D02*
X4860000D01*
G01X4894000Y-2290000D02*
X4888670Y-2292670D01*
X4884670Y-2299330D01*
X4882000Y-2307330D01*
X4880000Y-2318000D01*
X4879330Y-2330000D01*
X4880000Y-2342000D01*
X4882000Y-2352670D01*
X4884670Y-2360670D01*
X4888670Y-2367330D01*
X4894000Y-2370000D01*
X4899330Y-2367330D01*
X4903330Y-2360670D01*
X4906000Y-2352670D01*
X4908000Y-2342000D01*
X4908670Y-2330000D01*
X4908000Y-2318000D01*
X4906000Y-2307330D01*
X4903330Y-2299330D01*
X4899330Y-2292670D01*
X4894000Y-2290000D01*
G01X4841670Y-2010000D02*
Y-1930000D01*
X4858330D01*
X4863670Y-1934000D01*
X4867000Y-1939330D01*
X4868330Y-1950000D01*
X4867000Y-1960670D01*
X4863000Y-1967330D01*
X4858330Y-1971330D01*
X4841670D01*
G01X4858330D02*
X4868330Y-2010000D01*
G01X4897000D02*
Y-1930000D01*
X4889000Y-1946000D01*
G01Y-2010000D02*
X4905000D01*
G01X4939000D02*
X4943670Y-2008670D01*
X4949000Y-2004670D01*
X4952330Y-1998000D01*
X4953670Y-1988670D01*
X4952330Y-1979340D01*
X4948330Y-1971330D01*
X4942330Y-1967330D01*
X4935670D01*
X4931670Y-1964670D01*
X4928330Y-1958000D01*
X4927000Y-1948670D01*
X4929000Y-1939330D01*
X4933670Y-1932670D01*
X4939000Y-1930000D01*
X4944330Y-1932670D01*
X4949000Y-1939330D01*
X4951000Y-1948670D01*
X4949670Y-1958000D01*
X4946330Y-1964670D01*
X4942330Y-1967330D01*
X4935670D01*
X4929670Y-1971330D01*
X4925670Y-1979340D01*
X4924330Y-1988670D01*
X4925670Y-1998000D01*
X4929000Y-2004670D01*
X4934330Y-2008670D01*
X4939000Y-2010000D01*
G01X4934670Y-1741670D02*
X4930670Y-1737670D01*
X4926000Y-1735000D01*
X4920670D01*
X4914670Y-1739000D01*
X4910000Y-1745670D01*
X4906670Y-1753670D01*
X4904000Y-1767000D01*
X4903330Y-1779000D01*
X4904670Y-1791000D01*
X4906670Y-1799000D01*
X4910670Y-1807000D01*
X4915330Y-1812330D01*
X4920000Y-1815000D01*
X4924670D01*
X4929330Y-1812330D01*
X4933330Y-1808330D01*
X4936670Y-1803000D01*
G01X4950670Y-1805670D02*
X4955330Y-1812330D01*
X4960670Y-1815000D01*
X4966000Y-1812330D01*
X4970670Y-1804340D01*
X4974000Y-1792330D01*
X4975330Y-1780330D01*
Y-1765670D01*
X4974000Y-1753670D01*
X4970670Y-1743000D01*
X4966670Y-1737670D01*
X4962000Y-1735000D01*
X4956670Y-1737670D01*
X4952670Y-1743000D01*
X4950000Y-1751000D01*
X4948670Y-1761670D01*
X4950000Y-1771000D01*
X4953330Y-1780330D01*
X4957330Y-1785670D01*
X4962000Y-1787000D01*
X4967330Y-1784340D01*
X4971330Y-1777670D01*
X4975330Y-1765670D01*
G01X4895330Y-1830000D02*
Y-1887330D01*
X4898000Y-1899340D01*
X4903330Y-1907330D01*
X4910000Y-1910000D01*
X4916670Y-1907330D01*
X4922000Y-1899340D01*
X4924670Y-1887330D01*
Y-1830000D01*
G01X4950670Y-1910000D02*
X4952000Y-1892670D01*
X4954000Y-1878000D01*
X4956670Y-1864670D01*
X4960000Y-1850000D01*
X4965330Y-1830000D01*
X4938670D01*
G01X4980000Y-1288330D02*
X4900000D01*
Y-1271670D01*
X4904000Y-1266330D01*
X4909330Y-1263000D01*
X4920000Y-1261670D01*
X4930670Y-1263000D01*
X4937330Y-1267000D01*
X4941330Y-1271670D01*
Y-1288330D01*
G01Y-1271670D02*
X4980000Y-1261670D01*
G01Y-1233000D02*
X4900000D01*
X4916000Y-1241000D01*
G01X4980000D02*
Y-1225000D01*
G01X4968000Y-1205670D02*
X4974670Y-1201670D01*
X4978670Y-1197000D01*
X4980000Y-1191000D01*
X4977330Y-1185000D01*
X4972000Y-1180330D01*
X4962670Y-1177000D01*
X4952000Y-1176330D01*
X4941330Y-1177670D01*
X4934670Y-1181000D01*
X4929330Y-1185670D01*
X4928000Y-1190330D01*
X4929330Y-1195000D01*
X4934670Y-1201000D01*
X4900000Y-1199000D01*
Y-1181000D01*
G01X4890330Y-1075000D02*
Y-1132330D01*
X4893000Y-1144340D01*
X4898330Y-1152330D01*
X4905000Y-1155000D01*
X4911670Y-1152330D01*
X4917000Y-1144340D01*
X4919670Y-1132330D01*
Y-1075000D01*
G01X4932330Y-1139000D02*
X4936330Y-1148330D01*
X4941670Y-1153670D01*
X4947670Y-1155000D01*
X4953000Y-1153670D01*
X4958330Y-1147000D01*
X4961670Y-1139000D01*
X4962330Y-1131000D01*
X4961000Y-1121670D01*
X4956330Y-1115000D01*
X4951670Y-1112330D01*
X4945670D01*
G01X4951670D02*
X4955670Y-1108330D01*
X4959000Y-1101670D01*
X4960330Y-1093670D01*
X4959000Y-1085670D01*
X4955670Y-1079000D01*
X4949670Y-1075000D01*
X4943670Y-1076330D01*
X4937670Y-1081670D01*
G01X4864670Y-906670D02*
X4860670Y-902670D01*
X4856000Y-900000D01*
X4850670D01*
X4844670Y-904000D01*
X4840000Y-910670D01*
X4836670Y-918670D01*
X4834000Y-932000D01*
X4833330Y-944000D01*
X4834670Y-956000D01*
X4836670Y-964000D01*
X4840670Y-972000D01*
X4845330Y-977330D01*
X4850000Y-980000D01*
X4854670D01*
X4859330Y-977330D01*
X4863330Y-973330D01*
X4866670Y-968000D01*
G01X4879330Y-946670D02*
X4884000Y-937330D01*
X4888000Y-932000D01*
X4893330Y-929330D01*
X4898000Y-932000D01*
X4901330Y-937330D01*
X4904000Y-945330D01*
X4904670Y-954670D01*
X4904000Y-962670D01*
X4901330Y-970670D01*
X4897330Y-977330D01*
X4892670Y-980000D01*
X4887330Y-977330D01*
X4882670Y-969340D01*
X4880000Y-957330D01*
X4879330Y-944000D01*
X4880670Y-926670D01*
X4882670Y-917330D01*
X4886000Y-908000D01*
X4890670Y-901330D01*
X4895330Y-900000D01*
X4900000Y-902670D01*
X4903330Y-909330D01*
G01X5246670Y-2195000D02*
Y-2275000D01*
X5273330D01*
G01X5310000D02*
Y-2195000D01*
X5285330Y-2252330D01*
X5318670D01*
G01X5251670Y-1565000D02*
Y-1645000D01*
X5278330D01*
G01X5292330Y-1629000D02*
X5296330Y-1638330D01*
X5301670Y-1643670D01*
X5307670Y-1645000D01*
X5313000Y-1643670D01*
X5318330Y-1637000D01*
X5321670Y-1629000D01*
X5322330Y-1621000D01*
X5321000Y-1611670D01*
X5316330Y-1605000D01*
X5311670Y-1602330D01*
X5305670D01*
G01X5311670D02*
X5315670Y-1598330D01*
X5319000Y-1591670D01*
X5320330Y-1583670D01*
X5319000Y-1575670D01*
X5315670Y-1569000D01*
X5309670Y-1565000D01*
X5303670Y-1566330D01*
X5297670Y-1571670D01*
G01X5251670Y-920000D02*
Y-1000000D01*
X5278330D01*
G01X5294330Y-933330D02*
X5298330Y-925330D01*
X5303000Y-921330D01*
X5308330Y-920000D01*
X5315000Y-922670D01*
X5319670Y-929330D01*
X5321000Y-937330D01*
X5320330Y-945340D01*
X5317670Y-952000D01*
X5304330Y-965330D01*
X5298330Y-974670D01*
X5294330Y-988000D01*
X5293000Y-1000000D01*
X5321000D01*
G01X5256670Y-285000D02*
Y-365000D01*
X5283330D01*
G01X5312000D02*
Y-285000D01*
X5304000Y-301000D01*
G01Y-365000D02*
X5320000D01*
G01X5790000Y-2613330D02*
X5710000D01*
Y-2596670D01*
X5714000Y-2591330D01*
X5719330Y-2588000D01*
X5730000Y-2586670D01*
X5740670Y-2588000D01*
X5747330Y-2592000D01*
X5751330Y-2596670D01*
Y-2613330D01*
G01Y-2596670D02*
X5790000Y-2586670D01*
G01X5723330Y-2570670D02*
X5715330Y-2566670D01*
X5711330Y-2562000D01*
X5710000Y-2556670D01*
X5712670Y-2550000D01*
X5719330Y-2545330D01*
X5727330Y-2544000D01*
X5735340Y-2544670D01*
X5742000Y-2547330D01*
X5755330Y-2560670D01*
X5764670Y-2566670D01*
X5778000Y-2570670D01*
X5790000Y-2572000D01*
Y-2544000D01*
G01Y-2516000D02*
X5788670Y-2511330D01*
X5784670Y-2506000D01*
X5778000Y-2502670D01*
X5768670Y-2501330D01*
X5759340Y-2502670D01*
X5751330Y-2506670D01*
X5747330Y-2512670D01*
Y-2519330D01*
X5744670Y-2523330D01*
X5738000Y-2526670D01*
X5728670Y-2528000D01*
X5719330Y-2526000D01*
X5712670Y-2521330D01*
X5710000Y-2516000D01*
X5712670Y-2510670D01*
X5719330Y-2506000D01*
X5728670Y-2504000D01*
X5738000Y-2505330D01*
X5744670Y-2508670D01*
X5747330Y-2512670D01*
Y-2519330D01*
X5751330Y-2525330D01*
X5759340Y-2529330D01*
X5768670Y-2530670D01*
X5778000Y-2529330D01*
X5784670Y-2526000D01*
X5788670Y-2520670D01*
X5790000Y-2516000D01*
G01X5815330Y-2400000D02*
Y-2457330D01*
X5818000Y-2469340D01*
X5823330Y-2477330D01*
X5830000Y-2480000D01*
X5836670Y-2477330D01*
X5842000Y-2469340D01*
X5844670Y-2457330D01*
Y-2400000D01*
G01X5872000Y-2480000D02*
Y-2400000D01*
X5864000Y-2416000D01*
G01Y-2480000D02*
X5880000D01*
G01X5901330Y-2413330D02*
X5905330Y-2405330D01*
X5910000Y-2401330D01*
X5915330Y-2400000D01*
X5922000Y-2402670D01*
X5926670Y-2409330D01*
X5928000Y-2417330D01*
X5927330Y-2425340D01*
X5924670Y-2432000D01*
X5911330Y-2445330D01*
X5905330Y-2454670D01*
X5901330Y-2468000D01*
X5900000Y-2480000D01*
X5928000D01*
G01X5776670Y-2380000D02*
Y-2300000D01*
X5793330D01*
X5798670Y-2304000D01*
X5802000Y-2309330D01*
X5803330Y-2320000D01*
X5802000Y-2330670D01*
X5798000Y-2337330D01*
X5793330Y-2341330D01*
X5776670D01*
G01X5793330D02*
X5803330Y-2380000D01*
G01X5819330Y-2313330D02*
X5823330Y-2305330D01*
X5828000Y-2301330D01*
X5833330Y-2300000D01*
X5840000Y-2302670D01*
X5844670Y-2309330D01*
X5846000Y-2317330D01*
X5845330Y-2325340D01*
X5842670Y-2332000D01*
X5829330Y-2345330D01*
X5823330Y-2354670D01*
X5819330Y-2368000D01*
X5818000Y-2380000D01*
X5846000D01*
G01X5859330Y-2364000D02*
X5863330Y-2373330D01*
X5868670Y-2378670D01*
X5874670Y-2380000D01*
X5880000Y-2378670D01*
X5885330Y-2372000D01*
X5888670Y-2364000D01*
X5889330Y-2356000D01*
X5888000Y-2346670D01*
X5883330Y-2340000D01*
X5878670Y-2337330D01*
X5872670D01*
G01X5878670D02*
X5882670Y-2333330D01*
X5886000Y-2326670D01*
X5887330Y-2318670D01*
X5886000Y-2310670D01*
X5882670Y-2304000D01*
X5876670Y-2300000D01*
X5870670Y-2301330D01*
X5864670Y-2306670D01*
G01X5695330Y-2100000D02*
Y-2157330D01*
X5698000Y-2169340D01*
X5703330Y-2177330D01*
X5710000Y-2180000D01*
X5716670Y-2177330D01*
X5722000Y-2169340D01*
X5724670Y-2157330D01*
Y-2100000D01*
G01X5752000Y-2180000D02*
X5756670Y-2178670D01*
X5762000Y-2174670D01*
X5765330Y-2168000D01*
X5766670Y-2158670D01*
X5765330Y-2149340D01*
X5761330Y-2141330D01*
X5755330Y-2137330D01*
X5748670D01*
X5744670Y-2134670D01*
X5741330Y-2128000D01*
X5740000Y-2118670D01*
X5742000Y-2109330D01*
X5746670Y-2102670D01*
X5752000Y-2100000D01*
X5757330Y-2102670D01*
X5762000Y-2109330D01*
X5764000Y-2118670D01*
X5762670Y-2128000D01*
X5759330Y-2134670D01*
X5755330Y-2137330D01*
X5748670D01*
X5742670Y-2141330D01*
X5738670Y-2149340D01*
X5737330Y-2158670D01*
X5738670Y-2168000D01*
X5742000Y-2174670D01*
X5747330Y-2178670D01*
X5752000Y-2180000D01*
G01X5850000Y-970000D02*
Y-1050000D01*
G01X5834670Y-970000D02*
X5865330D01*
G01X5878670Y-1050000D02*
Y-970000D01*
X5894670D01*
X5900000Y-974000D01*
X5904000Y-983330D01*
X5905330Y-994000D01*
X5904000Y-1004670D01*
X5900670Y-1012670D01*
X5894670Y-1016670D01*
X5878670D01*
G01X5921330D02*
X5926000Y-1007330D01*
X5930000Y-1002000D01*
X5935330Y-999330D01*
X5940000Y-1002000D01*
X5943330Y-1007330D01*
X5946000Y-1015330D01*
X5946670Y-1024670D01*
X5946000Y-1032670D01*
X5943330Y-1040670D01*
X5939330Y-1047330D01*
X5934670Y-1050000D01*
X5929330Y-1047330D01*
X5924670Y-1039340D01*
X5922000Y-1027330D01*
X5921330Y-1014000D01*
X5922670Y-996670D01*
X5924670Y-987330D01*
X5928000Y-978000D01*
X5932670Y-971330D01*
X5937330Y-970000D01*
X5942000Y-972670D01*
X5945330Y-979330D01*
G01X5760000Y-503330D02*
X5680000D01*
Y-486670D01*
X5684000Y-481330D01*
X5689330Y-478000D01*
X5700000Y-476670D01*
X5710670Y-478000D01*
X5717330Y-482000D01*
X5721330Y-486670D01*
Y-503330D01*
G01Y-486670D02*
X5760000Y-476670D01*
G01Y-448000D02*
X5680000D01*
X5696000Y-456000D01*
G01X5760000D02*
Y-440000D01*
G01X5680000Y-406000D02*
X5682670Y-411330D01*
X5689330Y-415330D01*
X5697330Y-418000D01*
X5708000Y-420000D01*
X5720000Y-420670D01*
X5732000Y-420000D01*
X5742670Y-418000D01*
X5750670Y-415330D01*
X5757330Y-411330D01*
X5760000Y-406000D01*
X5757330Y-400670D01*
X5750670Y-396670D01*
X5742670Y-394000D01*
X5732000Y-392000D01*
X5720000Y-391330D01*
X5708000Y-392000D01*
X5697330Y-394000D01*
X5689330Y-396670D01*
X5682670Y-400670D01*
X5680000Y-406000D01*
G01X5950000Y-840000D02*
Y-920000D01*
G01X5934670Y-840000D02*
X5965330D01*
G01X5978670Y-920000D02*
Y-840000D01*
X5994670D01*
X6000000Y-844000D01*
X6004000Y-853330D01*
X6005330Y-864000D01*
X6004000Y-874670D01*
X6000670Y-882670D01*
X5994670Y-886670D01*
X5978670D01*
G01X6019330Y-908000D02*
X6023330Y-914670D01*
X6028000Y-918670D01*
X6034000Y-920000D01*
X6040000Y-917330D01*
X6044670Y-912000D01*
X6048000Y-902670D01*
X6048670Y-892000D01*
X6047330Y-881330D01*
X6044000Y-874670D01*
X6039330Y-869330D01*
X6034670Y-868000D01*
X6030000Y-869330D01*
X6024000Y-874670D01*
X6026000Y-840000D01*
X6044000D01*
G01X5946670Y-800000D02*
Y-720000D01*
X5963330D01*
X5968670Y-724000D01*
X5972000Y-729330D01*
X5973330Y-740000D01*
X5972000Y-750670D01*
X5968000Y-757330D01*
X5963330Y-761330D01*
X5946670D01*
G01X5963330D02*
X5973330Y-800000D01*
G01X6000670D02*
X6002000Y-782670D01*
X6004000Y-768000D01*
X6006670Y-754670D01*
X6010000Y-740000D01*
X6015330Y-720000D01*
X5988670D01*
G01X5995330Y-300000D02*
Y-220000D01*
X6008670D01*
X6014000Y-224000D01*
X6018000Y-229330D01*
X6021330Y-237330D01*
X6024000Y-246670D01*
X6024670Y-260000D01*
X6024000Y-273330D01*
X6021330Y-282670D01*
X6018000Y-290670D01*
X6014000Y-296000D01*
X6008670Y-300000D01*
X5995330D01*
G01X6039330Y-233330D02*
X6043330Y-225330D01*
X6048000Y-221330D01*
X6053330Y-220000D01*
X6060000Y-222670D01*
X6064670Y-229330D01*
X6066000Y-237330D01*
X6065330Y-245340D01*
X6062670Y-252000D01*
X6049330Y-265330D01*
X6043330Y-274670D01*
X6039330Y-288000D01*
X6038000Y-300000D01*
X6066000D01*
G01X6390000Y-1790000D02*
Y-1870000D01*
G01X6374670Y-1790000D02*
X6405330D01*
G01X6418670Y-1870000D02*
Y-1790000D01*
X6434670D01*
X6440000Y-1794000D01*
X6444000Y-1803330D01*
X6445330Y-1814000D01*
X6444000Y-1824670D01*
X6440670Y-1832670D01*
X6434670Y-1836670D01*
X6418670D01*
G01X6472670Y-1870000D02*
X6474000Y-1852670D01*
X6476000Y-1838000D01*
X6478670Y-1824670D01*
X6482000Y-1810000D01*
X6487330Y-1790000D01*
X6460670D01*
G01X6375330Y-1080000D02*
Y-1137330D01*
X6378000Y-1149340D01*
X6383330Y-1157330D01*
X6390000Y-1160000D01*
X6396670Y-1157330D01*
X6402000Y-1149340D01*
X6404670Y-1137330D01*
Y-1080000D01*
G01X6440000Y-1160000D02*
Y-1080000D01*
X6415330Y-1137330D01*
X6448670D01*
G01X6170000Y-700000D02*
X6164670Y-698670D01*
X6160000Y-693330D01*
X6156000Y-685330D01*
X6153330Y-676000D01*
X6152000Y-665330D01*
Y-654670D01*
X6153330Y-644000D01*
X6156000Y-634670D01*
X6160000Y-626670D01*
X6164670Y-621330D01*
X6170000Y-620000D01*
X6175330Y-621330D01*
X6180000Y-626670D01*
X6184000Y-634670D01*
X6186670Y-644000D01*
X6188000Y-654670D01*
Y-665330D01*
X6186670Y-676000D01*
X6184000Y-685330D01*
X6180000Y-693330D01*
X6175330Y-698670D01*
X6170000Y-700000D01*
G01X6175330Y-678670D02*
X6183330Y-700000D01*
G01X6212000D02*
Y-620000D01*
X6204000Y-636000D01*
G01Y-700000D02*
X6220000D01*
G01X6146670Y-300000D02*
Y-220000D01*
X6163330D01*
X6168670Y-224000D01*
X6172000Y-229330D01*
X6173330Y-240000D01*
X6172000Y-250670D01*
X6168000Y-257330D01*
X6163330Y-261330D01*
X6146670D01*
G01X6163330D02*
X6173330Y-300000D01*
G01X6210000D02*
Y-220000D01*
X6185330Y-277330D01*
X6218670D01*
G01X6576670Y-2185330D02*
X6572670Y-2189330D01*
X6570000Y-2194000D01*
Y-2199330D01*
X6574000Y-2205330D01*
X6580670Y-2210000D01*
X6588670Y-2213330D01*
X6602000Y-2216000D01*
X6614000Y-2216670D01*
X6626000Y-2215330D01*
X6634000Y-2213330D01*
X6642000Y-2209330D01*
X6647330Y-2204670D01*
X6650000Y-2200000D01*
Y-2195330D01*
X6647330Y-2190670D01*
X6643330Y-2186670D01*
X6638000Y-2183330D01*
G01X6650000Y-2158000D02*
X6570000D01*
X6586000Y-2166000D01*
G01X6650000D02*
Y-2150000D01*
G01X6634000Y-2130670D02*
X6643330Y-2126670D01*
X6648670Y-2121330D01*
X6650000Y-2115330D01*
X6648670Y-2110000D01*
X6642000Y-2104670D01*
X6634000Y-2101330D01*
X6626000Y-2100670D01*
X6616670Y-2102000D01*
X6610000Y-2106670D01*
X6607330Y-2111330D01*
Y-2117330D01*
G01Y-2111330D02*
X6603330Y-2107330D01*
X6596670Y-2104000D01*
X6588670Y-2102670D01*
X6580670Y-2104000D01*
X6574000Y-2107330D01*
X6570000Y-2113330D01*
X6571330Y-2119330D01*
X6576670Y-2125330D01*
G01X6456670Y-2230000D02*
Y-2150000D01*
X6473330D01*
X6478670Y-2154000D01*
X6482000Y-2159330D01*
X6483330Y-2170000D01*
X6482000Y-2180670D01*
X6478000Y-2187330D01*
X6473330Y-2191330D01*
X6456670D01*
G01X6473330D02*
X6483330Y-2230000D01*
G01X6499330Y-2163330D02*
X6503330Y-2155330D01*
X6508000Y-2151330D01*
X6513330Y-2150000D01*
X6520000Y-2152670D01*
X6524670Y-2159330D01*
X6526000Y-2167330D01*
X6525330Y-2175340D01*
X6522670Y-2182000D01*
X6509330Y-2195330D01*
X6503330Y-2204670D01*
X6499330Y-2218000D01*
X6498000Y-2230000D01*
X6526000D01*
G01X6554000D02*
Y-2150000D01*
X6546000Y-2166000D01*
G01Y-2230000D02*
X6562000D01*
G01X6650000Y-2063330D02*
X6570000D01*
Y-2046670D01*
X6574000Y-2041330D01*
X6579330Y-2038000D01*
X6590000Y-2036670D01*
X6600670Y-2038000D01*
X6607330Y-2042000D01*
X6611330Y-2046670D01*
Y-2063330D01*
G01Y-2046670D02*
X6650000Y-2036670D01*
G01X6583330Y-2020670D02*
X6575330Y-2016670D01*
X6571330Y-2012000D01*
X6570000Y-2006670D01*
X6572670Y-2000000D01*
X6579330Y-1995330D01*
X6587330Y-1994000D01*
X6595340Y-1994670D01*
X6602000Y-1997330D01*
X6615330Y-2010670D01*
X6624670Y-2016670D01*
X6638000Y-2020670D01*
X6650000Y-2022000D01*
Y-1994000D01*
G01X6638000Y-1980670D02*
X6644670Y-1976670D01*
X6648670Y-1972000D01*
X6650000Y-1966000D01*
X6647330Y-1960000D01*
X6642000Y-1955330D01*
X6632670Y-1952000D01*
X6622000Y-1951330D01*
X6611330Y-1952670D01*
X6604670Y-1956000D01*
X6599330Y-1960670D01*
X6598000Y-1965330D01*
X6599330Y-1970000D01*
X6604670Y-1976000D01*
X6570000Y-1974000D01*
Y-1956000D01*
G01X6456670Y-2070000D02*
Y-1990000D01*
X6473330D01*
X6478670Y-1994000D01*
X6482000Y-1999330D01*
X6483330Y-2010000D01*
X6482000Y-2020670D01*
X6478000Y-2027330D01*
X6473330Y-2031330D01*
X6456670D01*
G01X6473330D02*
X6483330Y-2070000D01*
G01X6512000D02*
Y-1990000D01*
X6504000Y-2006000D01*
G01Y-2070000D02*
X6520000D01*
G01X6552670D02*
X6554000Y-2052670D01*
X6556000Y-2038000D01*
X6558670Y-2024670D01*
X6562000Y-2010000D01*
X6567330Y-1990000D01*
X6540670D01*
G01X6565330Y-740000D02*
Y-660000D01*
X6578670D01*
X6584000Y-664000D01*
X6588000Y-669330D01*
X6591330Y-677330D01*
X6594000Y-686670D01*
X6594670Y-700000D01*
X6594000Y-713330D01*
X6591330Y-722670D01*
X6588000Y-730670D01*
X6584000Y-736000D01*
X6578670Y-740000D01*
X6565330D01*
G01X6607330Y-728000D02*
X6611330Y-734670D01*
X6616000Y-738670D01*
X6622000Y-740000D01*
X6628000Y-737330D01*
X6632670Y-732000D01*
X6636000Y-722670D01*
X6636670Y-712000D01*
X6635330Y-701330D01*
X6632000Y-694670D01*
X6627330Y-689330D01*
X6622670Y-688000D01*
X6618000Y-689330D01*
X6612000Y-694670D01*
X6614000Y-660000D01*
X6632000D01*
G01X6466670Y-790000D02*
Y-710000D01*
X6483330D01*
X6488670Y-714000D01*
X6492000Y-719330D01*
X6493330Y-730000D01*
X6492000Y-740670D01*
X6488000Y-747330D01*
X6483330Y-751330D01*
X6466670D01*
G01X6483330D02*
X6493330Y-790000D01*
G01X6522000D02*
Y-710000D01*
X6514000Y-726000D01*
G01Y-790000D02*
X6530000D01*
G01X6564000D02*
Y-710000D01*
X6556000Y-726000D01*
G01Y-790000D02*
X6572000D01*
G01X6834670Y-2716670D02*
X6830670Y-2712670D01*
X6826000Y-2710000D01*
X6820670D01*
X6814670Y-2714000D01*
X6810000Y-2720670D01*
X6806670Y-2728670D01*
X6804000Y-2742000D01*
X6803330Y-2754000D01*
X6804670Y-2766000D01*
X6806670Y-2774000D01*
X6810670Y-2782000D01*
X6815330Y-2787330D01*
X6820000Y-2790000D01*
X6824670D01*
X6829330Y-2787330D01*
X6833330Y-2783330D01*
X6836670Y-2778000D01*
G01X6862000Y-2790000D02*
Y-2710000D01*
X6854000Y-2726000D01*
G01Y-2790000D02*
X6870000D01*
G01X6891330Y-2756670D02*
X6896000Y-2747330D01*
X6900000Y-2742000D01*
X6905330Y-2739330D01*
X6910000Y-2742000D01*
X6913330Y-2747330D01*
X6916000Y-2755330D01*
X6916670Y-2764670D01*
X6916000Y-2772670D01*
X6913330Y-2780670D01*
X6909330Y-2787330D01*
X6904670Y-2790000D01*
X6899330Y-2787330D01*
X6894670Y-2779340D01*
X6892000Y-2767330D01*
X6891330Y-2754000D01*
X6892670Y-2736670D01*
X6894670Y-2727330D01*
X6898000Y-2718000D01*
X6902670Y-2711330D01*
X6907330Y-2710000D01*
X6912000Y-2712670D01*
X6915330Y-2719330D01*
G01X6783170Y-2245000D02*
Y-2165000D01*
X6799830D01*
X6805170Y-2169000D01*
X6808500Y-2174330D01*
X6809830Y-2185000D01*
X6808500Y-2195670D01*
X6804500Y-2202330D01*
X6799830Y-2206330D01*
X6783170D01*
G01X6799830D02*
X6809830Y-2245000D01*
G01X6825830Y-2178330D02*
X6829830Y-2170330D01*
X6834500Y-2166330D01*
X6839830Y-2165000D01*
X6846500Y-2167670D01*
X6851170Y-2174330D01*
X6852500Y-2182330D01*
X6851830Y-2190340D01*
X6849170Y-2197000D01*
X6835830Y-2210330D01*
X6829830Y-2219670D01*
X6825830Y-2233000D01*
X6824500Y-2245000D01*
X6852500D01*
G01X6867830Y-2211670D02*
X6872500Y-2202330D01*
X6876500Y-2197000D01*
X6881830Y-2194330D01*
X6886500Y-2197000D01*
X6889830Y-2202330D01*
X6892500Y-2210330D01*
X6893170Y-2219670D01*
X6892500Y-2227670D01*
X6889830Y-2235670D01*
X6885830Y-2242330D01*
X6881170Y-2245000D01*
X6875830Y-2242330D01*
X6871170Y-2234340D01*
X6868500Y-2222330D01*
X6867830Y-2209000D01*
X6869170Y-2191670D01*
X6871170Y-2182330D01*
X6874500Y-2173000D01*
X6879170Y-2166330D01*
X6883830Y-2165000D01*
X6888500Y-2167670D01*
X6891830Y-2174330D01*
G01X6783170Y-2095000D02*
Y-2015000D01*
X6799830D01*
X6805170Y-2019000D01*
X6808500Y-2024330D01*
X6809830Y-2035000D01*
X6808500Y-2045670D01*
X6804500Y-2052330D01*
X6799830Y-2056330D01*
X6783170D01*
G01X6799830D02*
X6809830Y-2095000D01*
G01X6825830Y-2028330D02*
X6829830Y-2020330D01*
X6834500Y-2016330D01*
X6839830Y-2015000D01*
X6846500Y-2017670D01*
X6851170Y-2024330D01*
X6852500Y-2032330D01*
X6851830Y-2040340D01*
X6849170Y-2047000D01*
X6835830Y-2060330D01*
X6829830Y-2069670D01*
X6825830Y-2083000D01*
X6824500Y-2095000D01*
X6852500D01*
G01X6888500D02*
Y-2015000D01*
X6863830Y-2072330D01*
X6897170D01*
G01X6856670Y-940000D02*
Y-860000D01*
X6873330D01*
X6878670Y-864000D01*
X6882000Y-869330D01*
X6883330Y-880000D01*
X6882000Y-890670D01*
X6878000Y-897330D01*
X6873330Y-901330D01*
X6856670D01*
G01X6873330D02*
X6883330Y-940000D01*
G01X6912000D02*
Y-860000D01*
X6904000Y-876000D01*
G01Y-940000D02*
X6920000D01*
G01X6941330Y-873330D02*
X6945330Y-865330D01*
X6950000Y-861330D01*
X6955330Y-860000D01*
X6962000Y-862670D01*
X6966670Y-869330D01*
X6968000Y-877330D01*
X6967330Y-885340D01*
X6964670Y-892000D01*
X6951330Y-905330D01*
X6945330Y-914670D01*
X6941330Y-928000D01*
X6940000Y-940000D01*
X6968000D01*
G01X6950000Y-700000D02*
X6944670Y-698670D01*
X6940000Y-693330D01*
X6936000Y-685330D01*
X6933330Y-676000D01*
X6932000Y-665330D01*
Y-654670D01*
X6933330Y-644000D01*
X6936000Y-634670D01*
X6940000Y-626670D01*
X6944670Y-621330D01*
X6950000Y-620000D01*
X6955330Y-621330D01*
X6960000Y-626670D01*
X6964000Y-634670D01*
X6966670Y-644000D01*
X6968000Y-654670D01*
Y-665330D01*
X6966670Y-676000D01*
X6964000Y-685330D01*
X6960000Y-693330D01*
X6955330Y-698670D01*
X6950000Y-700000D01*
G01X6955330Y-678670D02*
X6963330Y-700000D01*
G01X6979330Y-633330D02*
X6983330Y-625330D01*
X6988000Y-621330D01*
X6993330Y-620000D01*
X7000000Y-622670D01*
X7004670Y-629330D01*
X7006000Y-637330D01*
X7005330Y-645340D01*
X7002670Y-652000D01*
X6989330Y-665330D01*
X6983330Y-674670D01*
X6979330Y-688000D01*
X6978000Y-700000D01*
X7006000D01*
G01X6786670Y-300000D02*
Y-220000D01*
X6803330D01*
X6808670Y-224000D01*
X6812000Y-229330D01*
X6813330Y-240000D01*
X6812000Y-250670D01*
X6808000Y-257330D01*
X6803330Y-261330D01*
X6786670D01*
G01X6803330D02*
X6813330Y-300000D01*
G01X6829330Y-233330D02*
X6833330Y-225330D01*
X6838000Y-221330D01*
X6843330Y-220000D01*
X6850000Y-222670D01*
X6854670Y-229330D01*
X6856000Y-237330D01*
X6855330Y-245340D01*
X6852670Y-252000D01*
X6839330Y-265330D01*
X6833330Y-274670D01*
X6829330Y-288000D01*
X6828000Y-300000D01*
X6856000D01*
G01X6994670Y-2716670D02*
X6990670Y-2712670D01*
X6986000Y-2710000D01*
X6980670D01*
X6974670Y-2714000D01*
X6970000Y-2720670D01*
X6966670Y-2728670D01*
X6964000Y-2742000D01*
X6963330Y-2754000D01*
X6964670Y-2766000D01*
X6966670Y-2774000D01*
X6970670Y-2782000D01*
X6975330Y-2787330D01*
X6980000Y-2790000D01*
X6984670D01*
X6989330Y-2787330D01*
X6993330Y-2783330D01*
X6996670Y-2778000D01*
G01X7022000Y-2790000D02*
Y-2710000D01*
X7014000Y-2726000D01*
G01Y-2790000D02*
X7030000D01*
G01X7051330Y-2723330D02*
X7055330Y-2715330D01*
X7060000Y-2711330D01*
X7065330Y-2710000D01*
X7072000Y-2712670D01*
X7076670Y-2719330D01*
X7078000Y-2727330D01*
X7077330Y-2735340D01*
X7074670Y-2742000D01*
X7061330Y-2755330D01*
X7055330Y-2764670D01*
X7051330Y-2778000D01*
X7050000Y-2790000D01*
X7078000D01*
G01X7146670Y-2190000D02*
Y-2110000D01*
X7163330D01*
X7168670Y-2114000D01*
X7172000Y-2119330D01*
X7173330Y-2130000D01*
X7172000Y-2140670D01*
X7168000Y-2147330D01*
X7163330Y-2151330D01*
X7146670D01*
G01X7163330D02*
X7173330Y-2190000D01*
G01X7189330Y-2123330D02*
X7193330Y-2115330D01*
X7198000Y-2111330D01*
X7203330Y-2110000D01*
X7210000Y-2112670D01*
X7214670Y-2119330D01*
X7216000Y-2127330D01*
X7215330Y-2135340D01*
X7212670Y-2142000D01*
X7199330Y-2155330D01*
X7193330Y-2164670D01*
X7189330Y-2178000D01*
X7188000Y-2190000D01*
X7216000D01*
G01X7231330Y-2123330D02*
X7235330Y-2115330D01*
X7240000Y-2111330D01*
X7245330Y-2110000D01*
X7252000Y-2112670D01*
X7256670Y-2119330D01*
X7258000Y-2127330D01*
X7257330Y-2135340D01*
X7254670Y-2142000D01*
X7241330Y-2155330D01*
X7235330Y-2164670D01*
X7231330Y-2178000D01*
X7230000Y-2190000D01*
X7258000D01*
G01X7075330Y-2240000D02*
Y-2297330D01*
X7078000Y-2309340D01*
X7083330Y-2317330D01*
X7090000Y-2320000D01*
X7096670Y-2317330D01*
X7102000Y-2309340D01*
X7104670Y-2297330D01*
Y-2240000D01*
G01X7132000Y-2320000D02*
Y-2240000D01*
X7124000Y-2256000D01*
G01Y-2320000D02*
X7140000D01*
G01X7174000D02*
Y-2240000D01*
X7166000Y-2256000D01*
G01Y-2320000D02*
X7182000D01*
G01X7194670Y-876670D02*
X7190670Y-872670D01*
X7186000Y-870000D01*
X7180670D01*
X7174670Y-874000D01*
X7170000Y-880670D01*
X7166670Y-888670D01*
X7164000Y-902000D01*
X7163330Y-914000D01*
X7164670Y-926000D01*
X7166670Y-934000D01*
X7170670Y-942000D01*
X7175330Y-947330D01*
X7180000Y-950000D01*
X7184670D01*
X7189330Y-947330D01*
X7193330Y-943330D01*
X7196670Y-938000D01*
G01X7230000Y-950000D02*
Y-870000D01*
X7205330Y-927330D01*
X7238670D01*
G01X7146670Y-300000D02*
Y-220000D01*
X7163330D01*
X7168670Y-224000D01*
X7172000Y-229330D01*
X7173330Y-240000D01*
X7172000Y-250670D01*
X7168000Y-257330D01*
X7163330Y-261330D01*
X7146670D01*
G01X7163330D02*
X7173330Y-300000D01*
G01X7187330Y-288000D02*
X7191330Y-294670D01*
X7196000Y-298670D01*
X7202000Y-300000D01*
X7208000Y-297330D01*
X7212670Y-292000D01*
X7216000Y-282670D01*
X7216670Y-272000D01*
X7215330Y-261330D01*
X7212000Y-254670D01*
X7207330Y-249330D01*
X7202670Y-248000D01*
X7198000Y-249330D01*
X7192000Y-254670D01*
X7194000Y-220000D01*
X7212000D01*
G01X7500000Y-1010000D02*
Y-1090000D01*
G01X7484670Y-1010000D02*
X7515330D01*
G01X7528670Y-1090000D02*
Y-1010000D01*
X7544670D01*
X7550000Y-1014000D01*
X7554000Y-1023330D01*
X7555330Y-1034000D01*
X7554000Y-1044670D01*
X7550670Y-1052670D01*
X7544670Y-1056670D01*
X7528670D01*
G01X7584000Y-1090000D02*
Y-1010000D01*
X7576000Y-1026000D01*
G01Y-1090000D02*
X7592000D01*
G01X7613330Y-1056670D02*
X7618000Y-1047330D01*
X7622000Y-1042000D01*
X7627330Y-1039330D01*
X7632000Y-1042000D01*
X7635330Y-1047330D01*
X7638000Y-1055330D01*
X7638670Y-1064670D01*
X7638000Y-1072670D01*
X7635330Y-1080670D01*
X7631330Y-1087330D01*
X7626670Y-1090000D01*
X7621330Y-1087330D01*
X7616670Y-1079340D01*
X7614000Y-1067330D01*
X7613330Y-1054000D01*
X7614670Y-1036670D01*
X7616670Y-1027330D01*
X7620000Y-1018000D01*
X7624670Y-1011330D01*
X7629330Y-1010000D01*
X7634000Y-1012670D01*
X7637330Y-1019330D01*
G01X7295330Y-980000D02*
Y-1037330D01*
X7298000Y-1049340D01*
X7303330Y-1057330D01*
X7310000Y-1060000D01*
X7316670Y-1057330D01*
X7322000Y-1049340D01*
X7324670Y-1037330D01*
Y-980000D01*
G01X7337330Y-1048000D02*
X7341330Y-1054670D01*
X7346000Y-1058670D01*
X7352000Y-1060000D01*
X7358000Y-1057330D01*
X7362670Y-1052000D01*
X7366000Y-1042670D01*
X7366670Y-1032000D01*
X7365330Y-1021330D01*
X7362000Y-1014670D01*
X7357330Y-1009330D01*
X7352670Y-1008000D01*
X7348000Y-1009330D01*
X7342000Y-1014670D01*
X7344000Y-980000D01*
X7362000D01*
G01X7390000Y-540000D02*
Y-620000D01*
G01X7374670Y-540000D02*
X7405330D01*
G01X7418670Y-620000D02*
Y-540000D01*
X7434670D01*
X7440000Y-544000D01*
X7444000Y-553330D01*
X7445330Y-564000D01*
X7444000Y-574670D01*
X7440670Y-582670D01*
X7434670Y-586670D01*
X7418670D01*
G01X7474000Y-620000D02*
Y-540000D01*
X7466000Y-556000D01*
G01Y-620000D02*
X7482000D01*
G01X7295330Y-300000D02*
Y-220000D01*
X7308670D01*
X7314000Y-224000D01*
X7318000Y-229330D01*
X7321330Y-237330D01*
X7324000Y-246670D01*
X7324670Y-260000D01*
X7324000Y-273330D01*
X7321330Y-282670D01*
X7318000Y-290670D01*
X7314000Y-296000D01*
X7308670Y-300000D01*
X7295330D01*
G01X7337330Y-284000D02*
X7341330Y-293330D01*
X7346670Y-298670D01*
X7352670Y-300000D01*
X7358000Y-298670D01*
X7363330Y-292000D01*
X7366670Y-284000D01*
X7367330Y-276000D01*
X7366000Y-266670D01*
X7361330Y-260000D01*
X7356670Y-257330D01*
X7350670D01*
G01X7356670D02*
X7360670Y-253330D01*
X7364000Y-246670D01*
X7365330Y-238670D01*
X7364000Y-230670D01*
X7360670Y-224000D01*
X7354670Y-220000D01*
X7348670Y-221330D01*
X7342670Y-226670D01*
G01X7555330Y-2250000D02*
Y-2307330D01*
X7558000Y-2319340D01*
X7563330Y-2327330D01*
X7570000Y-2330000D01*
X7576670Y-2327330D01*
X7582000Y-2319340D01*
X7584670Y-2307330D01*
Y-2250000D01*
G01X7612000Y-2330000D02*
Y-2250000D01*
X7604000Y-2266000D01*
G01Y-2330000D02*
X7620000D01*
G01X7654000Y-2250000D02*
X7648670Y-2252670D01*
X7644670Y-2259330D01*
X7642000Y-2267330D01*
X7640000Y-2278000D01*
X7639330Y-2290000D01*
X7640000Y-2302000D01*
X7642000Y-2312670D01*
X7644670Y-2320670D01*
X7648670Y-2327330D01*
X7654000Y-2330000D01*
X7659330Y-2327330D01*
X7663330Y-2320670D01*
X7666000Y-2312670D01*
X7668000Y-2302000D01*
X7668670Y-2290000D01*
X7668000Y-2278000D01*
X7666000Y-2267330D01*
X7663330Y-2259330D01*
X7659330Y-2252670D01*
X7654000Y-2250000D01*
G01X7580000Y-2163330D02*
X7500000D01*
Y-2146670D01*
X7504000Y-2141330D01*
X7509330Y-2138000D01*
X7520000Y-2136670D01*
X7530670Y-2138000D01*
X7537330Y-2142000D01*
X7541330Y-2146670D01*
Y-2163330D01*
G01Y-2146670D02*
X7580000Y-2136670D01*
G01Y-2108000D02*
X7500000D01*
X7516000Y-2116000D01*
G01X7580000D02*
Y-2100000D01*
G01X7570670Y-2077330D02*
X7577330Y-2072670D01*
X7580000Y-2067330D01*
X7577330Y-2062000D01*
X7569340Y-2057330D01*
X7557330Y-2054000D01*
X7545330Y-2052670D01*
X7530670D01*
X7518670Y-2054000D01*
X7508000Y-2057330D01*
X7502670Y-2061330D01*
X7500000Y-2066000D01*
X7502670Y-2071330D01*
X7508000Y-2075330D01*
X7516000Y-2078000D01*
X7526670Y-2079330D01*
X7536000Y-2078000D01*
X7545330Y-2074670D01*
X7550670Y-2070670D01*
X7552000Y-2066000D01*
X7549340Y-2060670D01*
X7542670Y-2056670D01*
X7530670Y-2052670D01*
G01X7675330Y-700000D02*
Y-757330D01*
X7678000Y-769340D01*
X7683330Y-777330D01*
X7690000Y-780000D01*
X7696670Y-777330D01*
X7702000Y-769340D01*
X7704670Y-757330D01*
Y-700000D01*
G01X7732000Y-780000D02*
Y-700000D01*
X7724000Y-716000D01*
G01Y-780000D02*
X7740000D01*
G01X7804670Y-2136670D02*
X7800670Y-2132670D01*
X7796000Y-2130000D01*
X7790670D01*
X7784670Y-2134000D01*
X7780000Y-2140670D01*
X7776670Y-2148670D01*
X7774000Y-2162000D01*
X7773330Y-2174000D01*
X7774670Y-2186000D01*
X7776670Y-2194000D01*
X7780670Y-2202000D01*
X7785330Y-2207330D01*
X7790000Y-2210000D01*
X7794670D01*
X7799330Y-2207330D01*
X7803330Y-2203330D01*
X7806670Y-2198000D01*
G01X7832000Y-2210000D02*
Y-2130000D01*
X7824000Y-2146000D01*
G01Y-2210000D02*
X7840000D01*
G01X7874000D02*
Y-2130000D01*
X7866000Y-2146000D01*
G01Y-2210000D02*
X7882000D01*
G01X8005330Y-1020000D02*
Y-1077330D01*
X8008000Y-1089340D01*
X8013330Y-1097330D01*
X8020000Y-1100000D01*
X8026670Y-1097330D01*
X8032000Y-1089340D01*
X8034670Y-1077330D01*
Y-1020000D01*
G01X8049330Y-1066670D02*
X8054000Y-1057330D01*
X8058000Y-1052000D01*
X8063330Y-1049330D01*
X8068000Y-1052000D01*
X8071330Y-1057330D01*
X8074000Y-1065330D01*
X8074670Y-1074670D01*
X8074000Y-1082670D01*
X8071330Y-1090670D01*
X8067330Y-1097330D01*
X8062670Y-1100000D01*
X8057330Y-1097330D01*
X8052670Y-1089340D01*
X8050000Y-1077330D01*
X8049330Y-1064000D01*
X8050670Y-1046670D01*
X8052670Y-1037330D01*
X8056000Y-1028000D01*
X8060670Y-1021330D01*
X8065330Y-1020000D01*
X8070000Y-1022670D01*
X8073330Y-1029330D01*
G01X7924670Y-846670D02*
X7920670Y-842670D01*
X7916000Y-840000D01*
X7910670D01*
X7904670Y-844000D01*
X7900000Y-850670D01*
X7896670Y-858670D01*
X7894000Y-872000D01*
X7893330Y-884000D01*
X7894670Y-896000D01*
X7896670Y-904000D01*
X7900670Y-912000D01*
X7905330Y-917330D01*
X7910000Y-920000D01*
X7914670D01*
X7919330Y-917330D01*
X7923330Y-913330D01*
X7926670Y-908000D01*
G01X7937330D02*
X7941330Y-914670D01*
X7946000Y-918670D01*
X7952000Y-920000D01*
X7958000Y-917330D01*
X7962670Y-912000D01*
X7966000Y-902670D01*
X7966670Y-892000D01*
X7965330Y-881330D01*
X7962000Y-874670D01*
X7957330Y-869330D01*
X7952670Y-868000D01*
X7948000Y-869330D01*
X7942000Y-874670D01*
X7944000Y-840000D01*
X7962000D01*
G01X7790000Y-610000D02*
Y-690000D01*
G01X7774670Y-610000D02*
X7805330D01*
G01X7818670Y-690000D02*
Y-610000D01*
X7834670D01*
X7840000Y-614000D01*
X7844000Y-623330D01*
X7845330Y-634000D01*
X7844000Y-644670D01*
X7840670Y-652670D01*
X7834670Y-656670D01*
X7818670D01*
G01X7861330Y-623330D02*
X7865330Y-615330D01*
X7870000Y-611330D01*
X7875330Y-610000D01*
X7882000Y-612670D01*
X7886670Y-619330D01*
X7888000Y-627330D01*
X7887330Y-635340D01*
X7884670Y-642000D01*
X7871330Y-655330D01*
X7865330Y-664670D01*
X7861330Y-678000D01*
X7860000Y-690000D01*
X7888000D01*
G01X8136670Y-2570000D02*
Y-2490000D01*
X8152670D01*
X8158000Y-2494000D01*
X8162000Y-2503330D01*
X8163330Y-2514000D01*
X8162000Y-2524670D01*
X8158670Y-2532670D01*
X8152670Y-2536670D01*
X8136670D01*
G01X8177330Y-2570000D02*
Y-2490000D01*
X8190670D01*
X8196000Y-2494000D01*
X8200000Y-2499330D01*
X8203330Y-2507330D01*
X8206000Y-2516670D01*
X8206670Y-2530000D01*
X8206000Y-2543330D01*
X8203330Y-2552670D01*
X8200000Y-2560670D01*
X8196000Y-2566000D01*
X8190670Y-2570000D01*
X8177330D01*
G01X8234000D02*
Y-2490000D01*
X8226000Y-2506000D01*
G01Y-2570000D02*
X8242000D01*
G01X8210000Y-1290000D02*
X8204670Y-1288670D01*
X8200000Y-1283330D01*
X8196000Y-1275330D01*
X8193330Y-1266000D01*
X8192000Y-1255330D01*
Y-1244670D01*
X8193330Y-1234000D01*
X8196000Y-1224670D01*
X8200000Y-1216670D01*
X8204670Y-1211330D01*
X8210000Y-1210000D01*
X8215330Y-1211330D01*
X8220000Y-1216670D01*
X8224000Y-1224670D01*
X8226670Y-1234000D01*
X8228000Y-1244670D01*
Y-1255330D01*
X8226670Y-1266000D01*
X8224000Y-1275330D01*
X8220000Y-1283330D01*
X8215330Y-1288670D01*
X8210000Y-1290000D01*
G01X8215330Y-1268670D02*
X8223330Y-1290000D01*
G01X8237330Y-1278000D02*
X8241330Y-1284670D01*
X8246000Y-1288670D01*
X8252000Y-1290000D01*
X8258000Y-1287330D01*
X8262670Y-1282000D01*
X8266000Y-1272670D01*
X8266670Y-1262000D01*
X8265330Y-1251330D01*
X8262000Y-1244670D01*
X8257330Y-1239330D01*
X8252670Y-1238000D01*
X8248000Y-1239330D01*
X8242000Y-1244670D01*
X8244000Y-1210000D01*
X8262000D01*
G01X8220000Y-950000D02*
X8214670Y-948670D01*
X8210000Y-943330D01*
X8206000Y-935330D01*
X8203330Y-926000D01*
X8202000Y-915330D01*
Y-904670D01*
X8203330Y-894000D01*
X8206000Y-884670D01*
X8210000Y-876670D01*
X8214670Y-871330D01*
X8220000Y-870000D01*
X8225330Y-871330D01*
X8230000Y-876670D01*
X8234000Y-884670D01*
X8236670Y-894000D01*
X8238000Y-904670D01*
Y-915330D01*
X8236670Y-926000D01*
X8234000Y-935330D01*
X8230000Y-943330D01*
X8225330Y-948670D01*
X8220000Y-950000D01*
G01X8225330Y-928670D02*
X8233330Y-950000D01*
G01X8270000D02*
Y-870000D01*
X8245330Y-927330D01*
X8278670D01*
G01X8496670Y-1474000D02*
X8500000Y-1482000D01*
X8504000Y-1487330D01*
X8508670Y-1490000D01*
X8514000Y-1487330D01*
X8518000Y-1482000D01*
X8522000Y-1474000D01*
X8523330Y-1463330D01*
Y-1410000D01*
G01X8552000Y-1490000D02*
Y-1410000D01*
X8544000Y-1426000D01*
G01Y-1490000D02*
X8560000D01*
G01X8346670Y-250000D02*
Y-330000D01*
X8373330D01*
G01X8387330D02*
Y-250000D01*
X8400670D01*
X8406000Y-254000D01*
X8410000Y-259330D01*
X8413330Y-267330D01*
X8416000Y-276670D01*
X8416670Y-290000D01*
X8416000Y-303330D01*
X8413330Y-312670D01*
X8410000Y-320670D01*
X8406000Y-326000D01*
X8400670Y-330000D01*
X8387330D01*
G01X8444000D02*
Y-250000D01*
X8436000Y-266000D01*
G01Y-330000D02*
X8452000D01*
G01X8656670Y-630000D02*
Y-550000D01*
X8673330D01*
X8678670Y-554000D01*
X8682000Y-559330D01*
X8683330Y-570000D01*
X8682000Y-580670D01*
X8678000Y-587330D01*
X8673330Y-591330D01*
X8656670D01*
G01X8673330D02*
X8683330Y-630000D01*
G01X8712000D02*
X8716670Y-628670D01*
X8722000Y-624670D01*
X8725330Y-618000D01*
X8726670Y-608670D01*
X8725330Y-599340D01*
X8721330Y-591330D01*
X8715330Y-587330D01*
X8708670D01*
X8704670Y-584670D01*
X8701330Y-578000D01*
X8700000Y-568670D01*
X8702000Y-559330D01*
X8706670Y-552670D01*
X8712000Y-550000D01*
X8717330Y-552670D01*
X8722000Y-559330D01*
X8724000Y-568670D01*
X8722670Y-578000D01*
X8719330Y-584670D01*
X8715330Y-587330D01*
X8708670D01*
X8702670Y-591330D01*
X8698670Y-599340D01*
X8697330Y-608670D01*
X8698670Y-618000D01*
X8702000Y-624670D01*
X8707330Y-628670D01*
X8712000Y-630000D01*
G54D14*
G01X2556360Y-804170D02*
X2660000D01*
Y-533400D01*
X2647840D01*
G01X2480700Y-804170D02*
X2377000D01*
Y-533400D01*
X2386680D01*
G01X2574690D02*
X2458680D01*
G01X6343640Y-315830D02*
X6240000D01*
Y-586600D01*
X6252160D01*
G01X6325310D02*
X6441320D01*
G01X6657000Y-2717000D02*
X6743000D01*
Y-2763000D01*
X6652000D01*
Y-2717000D01*
X6657000D01*
G01X6603000Y-2763000D02*
X6517000D01*
Y-2717000D01*
X6608000D01*
Y-2763000D01*
X6603000D01*
G01X6575300Y-1794800D02*
Y-1875000D01*
X6650320D01*
G01X6574900Y-1207300D02*
Y-1125700D01*
X6657500D01*
G01X6419300Y-315830D02*
X6523000D01*
Y-586600D01*
X6513320D01*
G01X6928640Y-315830D02*
X6825000D01*
Y-586600D01*
X6837160D01*
G01X6910310D02*
X7026320D01*
G01X7004300Y-315830D02*
X7108000D01*
Y-586600D01*
X7098320D01*
G01X7325300Y-1794900D02*
Y-1875500D01*
X7244600D01*
G01X7245300Y-1124800D02*
Y-1125300D01*
X7324400D01*
Y-1203500D01*
G01X7757000Y-2313000D02*
Y-2227000D01*
X7803000D01*
Y-2318000D01*
X7757000D01*
Y-2313000D01*
G01X8345830Y-1191360D02*
Y-1295000D01*
X8616600D01*
Y-1282840D01*
G01X8345830Y-1115700D02*
Y-1012000D01*
X8616600D01*
Y-1021680D01*
G01X8345830Y-866360D02*
Y-970000D01*
X8616600D01*
Y-957840D01*
G01X8345830Y-790700D02*
Y-687000D01*
X8616600D01*
Y-696680D01*
G01Y-1209690D02*
Y-1093680D01*
G01Y-884690D02*
Y-768680D01*
G54D15*
G01X55000Y-2345000D02*
X135000D01*
G01X55000Y-2364170D02*
Y-2325830D01*
G01X135000Y-2292500D02*
X55000D01*
G01Y-2257500D02*
X135000D01*
G01X95000D02*
Y-2292500D01*
G01X55000Y-2215000D02*
Y-2195000D01*
G01Y-2205000D02*
X135000D01*
G01Y-2215000D02*
Y-2195000D01*
G01X124340Y-2152500D02*
X131000Y-2145830D01*
X135000Y-2138330D01*
Y-2131670D01*
X131000Y-2125000D01*
X124340Y-2120000D01*
X115000Y-2117500D01*
X105670Y-2119170D01*
X97670Y-2123330D01*
X92330Y-2130830D01*
X89670Y-2140830D01*
X84330Y-2146670D01*
X75000Y-2149170D01*
X65670Y-2147500D01*
X59000Y-2143330D01*
X55000Y-2137500D01*
Y-2131670D01*
X57670Y-2125830D01*
X64330Y-2120830D01*
G01X124340Y-2012500D02*
X131000Y-2005830D01*
X135000Y-1998330D01*
Y-1991670D01*
X131000Y-1985000D01*
X124340Y-1980000D01*
X115000Y-1977500D01*
X105670Y-1979170D01*
X97670Y-1983330D01*
X92330Y-1990830D01*
X89670Y-2000830D01*
X84330Y-2006670D01*
X75000Y-2009170D01*
X65670Y-2007500D01*
X59000Y-2003330D01*
X55000Y-1997500D01*
Y-1991670D01*
X57670Y-1985830D01*
X64330Y-1980830D01*
G01X55000Y-1935000D02*
Y-1915000D01*
G01Y-1925000D02*
X135000D01*
G01Y-1935000D02*
Y-1915000D01*
G01Y-1873330D02*
X55000D01*
Y-1856670D01*
X59000Y-1850000D01*
X64330Y-1845000D01*
X72330Y-1840830D01*
X81670Y-1837500D01*
X95000Y-1836670D01*
X108330Y-1837500D01*
X117670Y-1840830D01*
X125670Y-1845000D01*
X131000Y-1850000D01*
X135000Y-1856670D01*
Y-1873330D01*
G01Y-1768330D02*
Y-1801670D01*
X55000D01*
Y-1768330D01*
G01X93670Y-1781670D02*
Y-1801670D01*
G01X55000Y-1663330D02*
X112330D01*
X124340Y-1660000D01*
X132330Y-1653330D01*
X135000Y-1645000D01*
X132330Y-1636670D01*
X124340Y-1630000D01*
X112330Y-1626670D01*
X55000D01*
G01X135000Y-1591670D02*
X55000D01*
Y-1571670D01*
X59000Y-1565000D01*
X68330Y-1560000D01*
X79000Y-1558330D01*
X89670Y-1560000D01*
X97670Y-1564170D01*
X101670Y-1571670D01*
Y-1591670D01*
G01X663330Y-2940000D02*
Y-2860000D01*
X685000Y-2926670D01*
X706670Y-2860000D01*
Y-2940000D01*
G01X738330D02*
Y-2860000D01*
X758330D01*
X765000Y-2864000D01*
X770000Y-2873330D01*
X771670Y-2884000D01*
X770000Y-2894670D01*
X765830Y-2902670D01*
X758330Y-2906670D01*
X738330D01*
G01X808330Y-2940000D02*
Y-2860000D01*
X828330D01*
X835000Y-2864000D01*
X840000Y-2873330D01*
X841670Y-2884000D01*
X840000Y-2894670D01*
X835830Y-2902670D01*
X828330Y-2906670D01*
X808330D01*
G01X913330Y-2866670D02*
X908330Y-2862670D01*
X902500Y-2860000D01*
X895830D01*
X888330Y-2864000D01*
X882500Y-2870670D01*
X878330Y-2878670D01*
X875000Y-2892000D01*
X874170Y-2904000D01*
X875830Y-2916000D01*
X878330Y-2924000D01*
X883330Y-2932000D01*
X889170Y-2937330D01*
X895000Y-2940000D01*
X900830D01*
X906670Y-2937330D01*
X911670Y-2933330D01*
X915830Y-2928000D01*
G01X965000Y-2942670D02*
X963330Y-2941330D01*
Y-2938670D01*
X965000Y-2937330D01*
X966670Y-2938670D01*
Y-2941330D01*
X965000Y-2942670D01*
G01Y-2906670D02*
X963330Y-2905330D01*
Y-2902670D01*
X965000Y-2901330D01*
X966670Y-2902670D01*
Y-2905330D01*
X965000Y-2906670D01*
G01X1019170Y-2873330D02*
X1024170Y-2865330D01*
X1030000Y-2861330D01*
X1036670Y-2860000D01*
X1045000Y-2862670D01*
X1050830Y-2869330D01*
X1052500Y-2877330D01*
X1051670Y-2885340D01*
X1048330Y-2892000D01*
X1031670Y-2905330D01*
X1024170Y-2914670D01*
X1019170Y-2928000D01*
X1017500Y-2940000D01*
X1052500D01*
G01X1105000Y-2942670D02*
X1103330Y-2941330D01*
Y-2938670D01*
X1105000Y-2937330D01*
X1106670Y-2938670D01*
Y-2941330D01*
X1105000Y-2942670D01*
G01X1159170Y-2873330D02*
X1164170Y-2865330D01*
X1170000Y-2861330D01*
X1176670Y-2860000D01*
X1185000Y-2862670D01*
X1190830Y-2869330D01*
X1192500Y-2877330D01*
X1191670Y-2885340D01*
X1188330Y-2892000D01*
X1171670Y-2905330D01*
X1164170Y-2914670D01*
X1159170Y-2928000D01*
X1157500Y-2940000D01*
X1192500D01*
G01X1224170Y-2860000D02*
X1245000Y-2940000D01*
X1265830Y-2860000D01*
G01X560000Y-55000D02*
X571670Y-135000D01*
X585000Y-55000D01*
X598330Y-135000D01*
X610000Y-55000D01*
G01X634170Y-135000D02*
X655000Y-55000D01*
X675830Y-135000D01*
G01X668330Y-107000D02*
X641670D01*
G01X708330Y-135000D02*
Y-55000D01*
X729170D01*
X735830Y-59000D01*
X740000Y-64330D01*
X741670Y-75000D01*
X740000Y-85670D01*
X735000Y-92330D01*
X729170Y-96330D01*
X708330D01*
G01X729170D02*
X741670Y-135000D01*
G01X775830D02*
Y-55000D01*
X814170Y-135000D01*
Y-55000D01*
G01X855000D02*
X875000D01*
G01X865000D02*
Y-135000D01*
G01X855000D02*
X875000D01*
G01X915830D02*
Y-55000D01*
X954170Y-135000D01*
Y-55000D01*
G01X1010000Y-95000D02*
X1026670D01*
Y-119000D01*
X1021670Y-127000D01*
X1015830Y-132330D01*
X1007500Y-135000D01*
X999170Y-132330D01*
X993330Y-127000D01*
X988330Y-119000D01*
X985000Y-109670D01*
X983330Y-99000D01*
Y-89670D01*
X985000Y-81670D01*
X988330Y-72330D01*
X993330Y-64330D01*
X998330Y-59000D01*
X1005000Y-55000D01*
X1010830D01*
X1017500Y-57670D01*
X1022500Y-63000D01*
G01X1125830Y-135000D02*
Y-55000D01*
X1164170Y-135000D01*
Y-55000D01*
G01X1215000Y-135000D02*
X1208330Y-133670D01*
X1202500Y-128330D01*
X1197500Y-120330D01*
X1194170Y-111000D01*
X1192500Y-100330D01*
Y-89670D01*
X1194170Y-79000D01*
X1197500Y-69670D01*
X1202500Y-61670D01*
X1208330Y-56330D01*
X1215000Y-55000D01*
X1221670Y-56330D01*
X1227500Y-61670D01*
X1232500Y-69670D01*
X1235830Y-79000D01*
X1237500Y-89670D01*
Y-100330D01*
X1235830Y-111000D01*
X1232500Y-120330D01*
X1227500Y-128330D01*
X1221670Y-133670D01*
X1215000Y-135000D01*
G01X1338330D02*
Y-55000D01*
X1358330D01*
X1365000Y-59000D01*
X1370000Y-68330D01*
X1371670Y-79000D01*
X1370000Y-89670D01*
X1365830Y-97670D01*
X1358330Y-101670D01*
X1338330D01*
G01X1425000Y-135000D02*
X1418330Y-133670D01*
X1412500Y-128330D01*
X1407500Y-120330D01*
X1404170Y-111000D01*
X1402500Y-100330D01*
Y-89670D01*
X1404170Y-79000D01*
X1407500Y-69670D01*
X1412500Y-61670D01*
X1418330Y-56330D01*
X1425000Y-55000D01*
X1431670Y-56330D01*
X1437500Y-61670D01*
X1442500Y-69670D01*
X1445830Y-79000D01*
X1447500Y-89670D01*
Y-100330D01*
X1445830Y-111000D01*
X1442500Y-120330D01*
X1437500Y-128330D01*
X1431670Y-133670D01*
X1425000Y-135000D01*
G01X1478330Y-55000D02*
Y-135000D01*
X1511670D01*
G01X1544170D02*
X1565000Y-55000D01*
X1585830Y-135000D01*
G01X1578330Y-107000D02*
X1551670D01*
G01X1618330Y-135000D02*
Y-55000D01*
X1639170D01*
X1645830Y-59000D01*
X1650000Y-64330D01*
X1651670Y-75000D01*
X1650000Y-85670D01*
X1645000Y-92330D01*
X1639170Y-96330D01*
X1618330D01*
G01X1639170D02*
X1651670Y-135000D01*
G01X1695000Y-55000D02*
X1715000D01*
G01X1705000D02*
Y-135000D01*
G01X1695000D02*
X1715000D01*
G01X1775000Y-55000D02*
Y-135000D01*
G01X1755830Y-55000D02*
X1794170D01*
G01X1845000Y-135000D02*
Y-99000D01*
X1828330Y-55000D01*
G01X1861670D02*
X1845000Y-99000D01*
G01X1968330Y-135000D02*
Y-55000D01*
X1988330D01*
X1995000Y-59000D01*
X2000000Y-68330D01*
X2001670Y-79000D01*
X2000000Y-89670D01*
X1995830Y-97670D01*
X1988330Y-101670D01*
X1968330D01*
G01X2038330Y-135000D02*
Y-55000D01*
X2059170D01*
X2065830Y-59000D01*
X2070000Y-64330D01*
X2071670Y-75000D01*
X2070000Y-85670D01*
X2065000Y-92330D01*
X2059170Y-96330D01*
X2038330D01*
G01X2059170D02*
X2071670Y-135000D01*
G01X2125000D02*
X2118330Y-133670D01*
X2112500Y-128330D01*
X2107500Y-120330D01*
X2104170Y-111000D01*
X2102500Y-100330D01*
Y-89670D01*
X2104170Y-79000D01*
X2107500Y-69670D01*
X2112500Y-61670D01*
X2118330Y-56330D01*
X2125000Y-55000D01*
X2131670Y-56330D01*
X2137500Y-61670D01*
X2142500Y-69670D01*
X2145830Y-79000D01*
X2147500Y-89670D01*
Y-100330D01*
X2145830Y-111000D01*
X2142500Y-120330D01*
X2137500Y-128330D01*
X2131670Y-133670D01*
X2125000Y-135000D01*
G01X2195000Y-55000D02*
Y-135000D01*
G01X2175830Y-55000D02*
X2214170D01*
G01X2281670Y-135000D02*
X2248330D01*
Y-55000D01*
X2281670D01*
G01X2268330Y-93670D02*
X2248330D01*
G01X2353330Y-61670D02*
X2348330Y-57670D01*
X2342500Y-55000D01*
X2335830D01*
X2328330Y-59000D01*
X2322500Y-65670D01*
X2318330Y-73670D01*
X2315000Y-87000D01*
X2314170Y-99000D01*
X2315830Y-111000D01*
X2318330Y-119000D01*
X2323330Y-127000D01*
X2329170Y-132330D01*
X2335000Y-135000D01*
X2340830D01*
X2346670Y-132330D01*
X2351670Y-128330D01*
X2355830Y-123000D01*
G01X2405000Y-55000D02*
Y-135000D01*
G01X2385830Y-55000D02*
X2424170D01*
G01X2465000D02*
X2485000D01*
G01X2475000D02*
Y-135000D01*
G01X2465000D02*
X2485000D01*
G01X2545000D02*
X2538330Y-133670D01*
X2532500Y-128330D01*
X2527500Y-120330D01*
X2524170Y-111000D01*
X2522500Y-100330D01*
Y-89670D01*
X2524170Y-79000D01*
X2527500Y-69670D01*
X2532500Y-61670D01*
X2538330Y-56330D01*
X2545000Y-55000D01*
X2551670Y-56330D01*
X2557500Y-61670D01*
X2562500Y-69670D01*
X2565830Y-79000D01*
X2567500Y-89670D01*
Y-100330D01*
X2565830Y-111000D01*
X2562500Y-120330D01*
X2557500Y-128330D01*
X2551670Y-133670D01*
X2545000Y-135000D01*
G01X2595830D02*
Y-55000D01*
X2634170Y-135000D01*
Y-55000D01*
G01X2169170Y-2965000D02*
Y-2885000D01*
X2200830D01*
G01X2189170Y-2923670D02*
X2169170D01*
G01X2238330Y-2965000D02*
Y-2885000D01*
X2259170D01*
X2265830Y-2889000D01*
X2270000Y-2894330D01*
X2271670Y-2905000D01*
X2270000Y-2915670D01*
X2265000Y-2922330D01*
X2259170Y-2926330D01*
X2238330D01*
G01X2259170D02*
X2271670Y-2965000D01*
G01X2325000D02*
X2318330Y-2963670D01*
X2312500Y-2958330D01*
X2307500Y-2950330D01*
X2304170Y-2941000D01*
X2302500Y-2930330D01*
Y-2919670D01*
X2304170Y-2909000D01*
X2307500Y-2899670D01*
X2312500Y-2891670D01*
X2318330Y-2886330D01*
X2325000Y-2885000D01*
X2331670Y-2886330D01*
X2337500Y-2891670D01*
X2342500Y-2899670D01*
X2345830Y-2909000D01*
X2347500Y-2919670D01*
Y-2930330D01*
X2345830Y-2941000D01*
X2342500Y-2950330D01*
X2337500Y-2958330D01*
X2331670Y-2963670D01*
X2325000Y-2965000D01*
G01X2375830D02*
Y-2885000D01*
X2414170Y-2965000D01*
Y-2885000D01*
G01X2465000D02*
Y-2965000D01*
G01X2445830Y-2885000D02*
X2484170D01*
G01X2588330Y-2965000D02*
Y-2885000D01*
X2608330D01*
X2615000Y-2889000D01*
X2620000Y-2898330D01*
X2621670Y-2909000D01*
X2620000Y-2919670D01*
X2615830Y-2927670D01*
X2608330Y-2931670D01*
X2588330D01*
G01X2654170Y-2965000D02*
X2675000Y-2885000D01*
X2695830Y-2965000D01*
G01X2688330Y-2937000D02*
X2661670D01*
G01X2725830Y-2965000D02*
Y-2885000D01*
X2764170Y-2965000D01*
Y-2885000D01*
G01X2831670Y-2965000D02*
X2798330D01*
Y-2885000D01*
X2831670D01*
G01X2818330Y-2923670D02*
X2798330D01*
G01X2868330Y-2885000D02*
Y-2965000D01*
X2901670D01*
G01X3008330Y-2885000D02*
Y-2965000D01*
X3041670D01*
G01X3111670D02*
X3078330D01*
Y-2885000D01*
X3111670D01*
G01X3098330Y-2923670D02*
X3078330D01*
G01X3146670Y-2965000D02*
Y-2885000D01*
X3163330D01*
X3170000Y-2889000D01*
X3175000Y-2894330D01*
X3179170Y-2902330D01*
X3182500Y-2911670D01*
X3183330Y-2925000D01*
X3182500Y-2938330D01*
X3179170Y-2947670D01*
X3175000Y-2955670D01*
X3170000Y-2961000D01*
X3163330Y-2965000D01*
X3146670D01*
G01X2838330Y-140000D02*
Y-60000D01*
X2860000Y-126670D01*
X2881670Y-60000D01*
Y-140000D01*
G01X2911670Y-60000D02*
Y-117330D01*
X2915000Y-129340D01*
X2921670Y-137330D01*
X2930000Y-140000D01*
X2938330Y-137330D01*
X2945000Y-129340D01*
X2948330Y-117330D01*
Y-60000D01*
G01X2982500Y-129340D02*
X2989170Y-136000D01*
X2996670Y-140000D01*
X3003330D01*
X3010000Y-136000D01*
X3015000Y-129340D01*
X3017500Y-120000D01*
X3015830Y-110670D01*
X3011670Y-102670D01*
X3004170Y-97330D01*
X2994170Y-94670D01*
X2988330Y-89330D01*
X2985830Y-80000D01*
X2987500Y-70670D01*
X2991670Y-64000D01*
X2997500Y-60000D01*
X3003330D01*
X3009170Y-62670D01*
X3014170Y-69330D01*
G01X3070000Y-60000D02*
Y-140000D01*
G01X3050830Y-60000D02*
X3089170D01*
G01X3228330Y-66670D02*
X3223330Y-62670D01*
X3217500Y-60000D01*
X3210830D01*
X3203330Y-64000D01*
X3197500Y-70670D01*
X3193330Y-78670D01*
X3190000Y-92000D01*
X3189170Y-104000D01*
X3190830Y-116000D01*
X3193330Y-124000D01*
X3198330Y-132000D01*
X3204170Y-137330D01*
X3210000Y-140000D01*
X3215830D01*
X3221670Y-137330D01*
X3226670Y-133330D01*
X3230830Y-128000D01*
G01X3280000Y-140000D02*
X3273330Y-138670D01*
X3267500Y-133330D01*
X3262500Y-125330D01*
X3259170Y-116000D01*
X3257500Y-105330D01*
Y-94670D01*
X3259170Y-84000D01*
X3262500Y-74670D01*
X3267500Y-66670D01*
X3273330Y-61330D01*
X3280000Y-60000D01*
X3286670Y-61330D01*
X3292500Y-66670D01*
X3297500Y-74670D01*
X3300830Y-84000D01*
X3302500Y-94670D01*
Y-105330D01*
X3300830Y-116000D01*
X3297500Y-125330D01*
X3292500Y-133330D01*
X3286670Y-138670D01*
X3280000Y-140000D01*
G01X3330830D02*
Y-60000D01*
X3369170Y-140000D01*
Y-60000D01*
G01X3400830Y-140000D02*
Y-60000D01*
X3439170Y-140000D01*
Y-60000D01*
G01X3506670Y-140000D02*
X3473330D01*
Y-60000D01*
X3506670D01*
G01X3493330Y-98670D02*
X3473330D01*
G01X3578330Y-66670D02*
X3573330Y-62670D01*
X3567500Y-60000D01*
X3560830D01*
X3553330Y-64000D01*
X3547500Y-70670D01*
X3543330Y-78670D01*
X3540000Y-92000D01*
X3539170Y-104000D01*
X3540830Y-116000D01*
X3543330Y-124000D01*
X3548330Y-132000D01*
X3554170Y-137330D01*
X3560000Y-140000D01*
X3565830D01*
X3571670Y-137330D01*
X3576670Y-133330D01*
X3580830Y-128000D01*
G01X3630000Y-60000D02*
Y-140000D01*
G01X3610830Y-60000D02*
X3649170D01*
G01X3754170Y-73330D02*
X3759170Y-65330D01*
X3765000Y-61330D01*
X3771670Y-60000D01*
X3780000Y-62670D01*
X3785830Y-69330D01*
X3787500Y-77330D01*
X3786670Y-85340D01*
X3783330Y-92000D01*
X3766670Y-105330D01*
X3759170Y-114670D01*
X3754170Y-128000D01*
X3752500Y-140000D01*
X3787500D01*
G01X3829170Y-113330D02*
X3850830D01*
G01X3928330Y-66670D02*
X3923330Y-62670D01*
X3917500Y-60000D01*
X3910830D01*
X3903330Y-64000D01*
X3897500Y-70670D01*
X3893330Y-78670D01*
X3890000Y-92000D01*
X3889170Y-104000D01*
X3890830Y-116000D01*
X3893330Y-124000D01*
X3898330Y-132000D01*
X3904170Y-137330D01*
X3910000Y-140000D01*
X3915830D01*
X3921670Y-137330D01*
X3926670Y-133330D01*
X3930830Y-128000D01*
G01X3962500Y-140000D02*
Y-60000D01*
G01X3997500D02*
Y-140000D01*
G01Y-100000D02*
X3962500D01*
G01X4029170Y-140000D02*
X4050000Y-60000D01*
X4070830Y-140000D01*
G01X4063330Y-112000D02*
X4036670D01*
G01X4100830Y-140000D02*
Y-60000D01*
X4139170Y-140000D01*
Y-60000D01*
G01X4170830Y-140000D02*
Y-60000D01*
X4209170Y-140000D01*
Y-60000D01*
G01X4276670Y-140000D02*
X4243330D01*
Y-60000D01*
X4276670D01*
G01X4263330Y-98670D02*
X4243330D01*
G01X4313330Y-60000D02*
Y-140000D01*
X4346670D01*
G01X4382500Y-129340D02*
X4389170Y-136000D01*
X4396670Y-140000D01*
X4403330D01*
X4410000Y-136000D01*
X4415000Y-129340D01*
X4417500Y-120000D01*
X4415830Y-110670D01*
X4411670Y-102670D01*
X4404170Y-97330D01*
X4394170Y-94670D01*
X4388330Y-89330D01*
X4385830Y-80000D01*
X4387500Y-70670D01*
X4391670Y-64000D01*
X4397500Y-60000D01*
X4403330D01*
X4409170Y-62670D01*
X4414170Y-69330D01*
G01X4540000Y-60000D02*
Y-140000D01*
G01X4520830Y-60000D02*
X4559170D01*
G01X4610000Y-140000D02*
X4603330Y-138670D01*
X4597500Y-133330D01*
X4592500Y-125330D01*
X4589170Y-116000D01*
X4587500Y-105330D01*
Y-94670D01*
X4589170Y-84000D01*
X4592500Y-74670D01*
X4597500Y-66670D01*
X4603330Y-61330D01*
X4610000Y-60000D01*
X4616670Y-61330D01*
X4622500Y-66670D01*
X4627500Y-74670D01*
X4630830Y-84000D01*
X4632500Y-94670D01*
Y-105330D01*
X4630830Y-116000D01*
X4627500Y-125330D01*
X4622500Y-133330D01*
X4616670Y-138670D01*
X4610000Y-140000D01*
G01X4766670D02*
X4733330D01*
Y-60000D01*
X4766670D01*
G01X4753330Y-98670D02*
X4733330D01*
G01X4800830Y-140000D02*
Y-60000D01*
X4839170Y-140000D01*
Y-60000D01*
G01X4869170Y-140000D02*
X4890000Y-60000D01*
X4910830Y-140000D01*
G01X4903330Y-112000D02*
X4876670D01*
G01X4966670Y-97330D02*
X4970000Y-93330D01*
X4972500Y-86670D01*
X4974170Y-77330D01*
X4972500Y-69330D01*
X4969170Y-64000D01*
X4963330Y-60000D01*
X4940830D01*
Y-140000D01*
X4968330D01*
X4974170Y-134670D01*
X4977500Y-126670D01*
X4979170Y-117330D01*
X4977500Y-108000D01*
X4972500Y-100000D01*
X4966670Y-97330D01*
X4940830D01*
G01X5013330Y-60000D02*
Y-140000D01*
X5046670D01*
G01X5116670D02*
X5083330D01*
Y-60000D01*
X5116670D01*
G01X5103330Y-98670D02*
X5083330D01*
G01X5223330Y-140000D02*
Y-60000D01*
X5243330D01*
X5250000Y-64000D01*
X5255000Y-73330D01*
X5256670Y-84000D01*
X5255000Y-94670D01*
X5250830Y-102670D01*
X5243330Y-106670D01*
X5223330D01*
G01X5310000Y-140000D02*
X5303330Y-138670D01*
X5297500Y-133330D01*
X5292500Y-125330D01*
X5289170Y-116000D01*
X5287500Y-105330D01*
Y-94670D01*
X5289170Y-84000D01*
X5292500Y-74670D01*
X5297500Y-66670D01*
X5303330Y-61330D01*
X5310000Y-60000D01*
X5316670Y-61330D01*
X5322500Y-66670D01*
X5327500Y-74670D01*
X5330830Y-84000D01*
X5332500Y-94670D01*
Y-105330D01*
X5330830Y-116000D01*
X5327500Y-125330D01*
X5322500Y-133330D01*
X5316670Y-138670D01*
X5310000Y-140000D01*
G01X5355000Y-60000D02*
X5366670Y-140000D01*
X5380000Y-60000D01*
X5393330Y-140000D01*
X5405000Y-60000D01*
G01X5466670Y-140000D02*
X5433330D01*
Y-60000D01*
X5466670D01*
G01X5453330Y-98670D02*
X5433330D01*
G01X5503330Y-140000D02*
Y-60000D01*
X5524170D01*
X5530830Y-64000D01*
X5535000Y-69330D01*
X5536670Y-80000D01*
X5535000Y-90670D01*
X5530000Y-97330D01*
X5524170Y-101330D01*
X5503330D01*
G01X5524170D02*
X5536670Y-140000D01*
G01X5638330D02*
Y-60000D01*
X5660000Y-126670D01*
X5681670Y-60000D01*
Y-140000D01*
G01X5709170D02*
X5730000Y-60000D01*
X5750830Y-140000D01*
G01X5743330Y-112000D02*
X5716670D01*
G01X5780830Y-140000D02*
Y-60000D01*
X5819170Y-140000D01*
Y-60000D01*
G01X5849170Y-140000D02*
X5870000Y-60000D01*
X5890830Y-140000D01*
G01X5883330Y-112000D02*
X5856670D01*
G01X5945000Y-100000D02*
X5961670D01*
Y-124000D01*
X5956670Y-132000D01*
X5950830Y-137330D01*
X5942500Y-140000D01*
X5934170Y-137330D01*
X5928330Y-132000D01*
X5923330Y-124000D01*
X5920000Y-114670D01*
X5918330Y-104000D01*
Y-94670D01*
X5920000Y-86670D01*
X5923330Y-77330D01*
X5928330Y-69330D01*
X5933330Y-64000D01*
X5940000Y-60000D01*
X5945830D01*
X5952500Y-62670D01*
X5957500Y-68000D01*
G01X6026670Y-140000D02*
X5993330D01*
Y-60000D01*
X6026670D01*
G01X6013330Y-98670D02*
X5993330D01*
G01X6058330Y-140000D02*
Y-60000D01*
X6080000Y-126670D01*
X6101670Y-60000D01*
Y-140000D01*
G01X6166670D02*
X6133330D01*
Y-60000D01*
X6166670D01*
G01X6153330Y-98670D02*
X6133330D01*
G01X6200830Y-140000D02*
Y-60000D01*
X6239170Y-140000D01*
Y-60000D01*
G01X6290000D02*
Y-140000D01*
G01X6270830Y-60000D02*
X6309170D01*
G01X6448330Y-66670D02*
X6443330Y-62670D01*
X6437500Y-60000D01*
X6430830D01*
X6423330Y-64000D01*
X6417500Y-70670D01*
X6413330Y-78670D01*
X6410000Y-92000D01*
X6409170Y-104000D01*
X6410830Y-116000D01*
X6413330Y-124000D01*
X6418330Y-132000D01*
X6424170Y-137330D01*
X6430000Y-140000D01*
X6435830D01*
X6441670Y-137330D01*
X6446670Y-133330D01*
X6450830Y-128000D01*
G01X6490000Y-60000D02*
X6510000D01*
G01X6500000D02*
Y-140000D01*
G01X6490000D02*
X6510000D01*
G01X6553330D02*
Y-60000D01*
X6574170D01*
X6580830Y-64000D01*
X6585000Y-69330D01*
X6586670Y-80000D01*
X6585000Y-90670D01*
X6580000Y-97330D01*
X6574170Y-101330D01*
X6553330D01*
G01X6574170D02*
X6586670Y-140000D01*
G01X6658330Y-66670D02*
X6653330Y-62670D01*
X6647500Y-60000D01*
X6640830D01*
X6633330Y-64000D01*
X6627500Y-70670D01*
X6623330Y-78670D01*
X6620000Y-92000D01*
X6619170Y-104000D01*
X6620830Y-116000D01*
X6623330Y-124000D01*
X6628330Y-132000D01*
X6634170Y-137330D01*
X6640000Y-140000D01*
X6645830D01*
X6651670Y-137330D01*
X6656670Y-133330D01*
X6660830Y-128000D01*
G01X6691670Y-60000D02*
Y-117330D01*
X6695000Y-129340D01*
X6701670Y-137330D01*
X6710000Y-140000D01*
X6718330Y-137330D01*
X6725000Y-129340D01*
X6728330Y-117330D01*
Y-60000D01*
G01X6770000D02*
X6790000D01*
G01X6780000D02*
Y-140000D01*
G01X6770000D02*
X6790000D01*
G01X6850000Y-60000D02*
Y-140000D01*
G01X6830830Y-60000D02*
X6869170D01*
G01X3488330Y-2950000D02*
Y-2870000D01*
X3508330D01*
X3515000Y-2874000D01*
X3520000Y-2883330D01*
X3521670Y-2894000D01*
X3520000Y-2904670D01*
X3515830Y-2912670D01*
X3508330Y-2916670D01*
X3488330D01*
G01X3557500Y-2950000D02*
Y-2870000D01*
G01X3592500D02*
Y-2950000D01*
G01Y-2910000D02*
X3557500D01*
G01X3645000Y-2950000D02*
X3638330Y-2948670D01*
X3632500Y-2943330D01*
X3627500Y-2935330D01*
X3624170Y-2926000D01*
X3622500Y-2915330D01*
Y-2904670D01*
X3624170Y-2894000D01*
X3627500Y-2884670D01*
X3632500Y-2876670D01*
X3638330Y-2871330D01*
X3645000Y-2870000D01*
X3651670Y-2871330D01*
X3657500Y-2876670D01*
X3662500Y-2884670D01*
X3665830Y-2894000D01*
X3667500Y-2904670D01*
Y-2915330D01*
X3665830Y-2926000D01*
X3662500Y-2935330D01*
X3657500Y-2943330D01*
X3651670Y-2948670D01*
X3645000Y-2950000D01*
G01X3715000Y-2870000D02*
Y-2950000D01*
G01X3695830Y-2870000D02*
X3734170D01*
G01X3785000Y-2950000D02*
X3778330Y-2948670D01*
X3772500Y-2943330D01*
X3767500Y-2935330D01*
X3764170Y-2926000D01*
X3762500Y-2915330D01*
Y-2904670D01*
X3764170Y-2894000D01*
X3767500Y-2884670D01*
X3772500Y-2876670D01*
X3778330Y-2871330D01*
X3785000Y-2870000D01*
X3791670Y-2871330D01*
X3797500Y-2876670D01*
X3802500Y-2884670D01*
X3805830Y-2894000D01*
X3807500Y-2904670D01*
Y-2915330D01*
X3805830Y-2926000D01*
X3802500Y-2935330D01*
X3797500Y-2943330D01*
X3791670Y-2948670D01*
X3785000Y-2950000D01*
G01X3834170Y-2870000D02*
X3855000Y-2950000D01*
X3875830Y-2870000D01*
G01X3925000Y-2950000D02*
X3918330Y-2948670D01*
X3912500Y-2943330D01*
X3907500Y-2935330D01*
X3904170Y-2926000D01*
X3902500Y-2915330D01*
Y-2904670D01*
X3904170Y-2894000D01*
X3907500Y-2884670D01*
X3912500Y-2876670D01*
X3918330Y-2871330D01*
X3925000Y-2870000D01*
X3931670Y-2871330D01*
X3937500Y-2876670D01*
X3942500Y-2884670D01*
X3945830Y-2894000D01*
X3947500Y-2904670D01*
Y-2915330D01*
X3945830Y-2926000D01*
X3942500Y-2935330D01*
X3937500Y-2943330D01*
X3931670Y-2948670D01*
X3925000Y-2950000D01*
G01X3978330Y-2870000D02*
Y-2950000D01*
X4011670D01*
G01X4065000Y-2870000D02*
Y-2950000D01*
G01X4045830Y-2870000D02*
X4084170D01*
G01X4114170Y-2950000D02*
X4135000Y-2870000D01*
X4155830Y-2950000D01*
G01X4148330Y-2922000D02*
X4121670D01*
G01X4195000Y-2870000D02*
X4215000D01*
G01X4205000D02*
Y-2950000D01*
G01X4195000D02*
X4215000D01*
G01X4293330Y-2876670D02*
X4288330Y-2872670D01*
X4282500Y-2870000D01*
X4275830D01*
X4268330Y-2874000D01*
X4262500Y-2880670D01*
X4258330Y-2888670D01*
X4255000Y-2902000D01*
X4254170Y-2914000D01*
X4255830Y-2926000D01*
X4258330Y-2934000D01*
X4263330Y-2942000D01*
X4269170Y-2947330D01*
X4275000Y-2950000D01*
X4280830D01*
X4286670Y-2947330D01*
X4291670Y-2943330D01*
X4295830Y-2938000D01*
G01X4433330Y-2876670D02*
X4428330Y-2872670D01*
X4422500Y-2870000D01*
X4415830D01*
X4408330Y-2874000D01*
X4402500Y-2880670D01*
X4398330Y-2888670D01*
X4395000Y-2902000D01*
X4394170Y-2914000D01*
X4395830Y-2926000D01*
X4398330Y-2934000D01*
X4403330Y-2942000D01*
X4409170Y-2947330D01*
X4415000Y-2950000D01*
X4420830D01*
X4426670Y-2947330D01*
X4431670Y-2943330D01*
X4435830Y-2938000D01*
G01X4501670Y-2950000D02*
X4468330D01*
Y-2870000D01*
X4501670D01*
G01X4488330Y-2908670D02*
X4468330D01*
G01X4538330Y-2870000D02*
Y-2950000D01*
X4571670D01*
G01X4608330Y-2870000D02*
Y-2950000D01*
X4641670D01*
G01X4821670D02*
X4788330D01*
Y-2870000D01*
X4821670D01*
G01X4808330Y-2908670D02*
X4788330D01*
G01X4855830Y-2950000D02*
Y-2870000D01*
X4894170Y-2950000D01*
Y-2870000D01*
G01X4961670Y-2950000D02*
X4928330D01*
Y-2870000D01*
X4961670D01*
G01X4948330Y-2908670D02*
X4928330D01*
G01X4998330Y-2950000D02*
Y-2870000D01*
X5019170D01*
X5025830Y-2874000D01*
X5030000Y-2879330D01*
X5031670Y-2890000D01*
X5030000Y-2900670D01*
X5025000Y-2907330D01*
X5019170Y-2911330D01*
X4998330D01*
G01X5019170D02*
X5031670Y-2950000D01*
G01X5090000Y-2910000D02*
X5106670D01*
Y-2934000D01*
X5101670Y-2942000D01*
X5095830Y-2947330D01*
X5087500Y-2950000D01*
X5079170Y-2947330D01*
X5073330Y-2942000D01*
X5068330Y-2934000D01*
X5065000Y-2924670D01*
X5063330Y-2914000D01*
Y-2904670D01*
X5065000Y-2896670D01*
X5068330Y-2887330D01*
X5073330Y-2879330D01*
X5078330Y-2874000D01*
X5085000Y-2870000D01*
X5090830D01*
X5097500Y-2872670D01*
X5102500Y-2878000D01*
G01X5155000Y-2950000D02*
Y-2914000D01*
X5138330Y-2870000D01*
G01X5171670D02*
X5155000Y-2914000D01*
G01X5277500Y-2950000D02*
Y-2870000D01*
G01X5312500D02*
Y-2950000D01*
G01Y-2910000D02*
X5277500D01*
G01X5344170Y-2950000D02*
X5365000Y-2870000D01*
X5385830Y-2950000D01*
G01X5378330Y-2922000D02*
X5351670D01*
G01X5418330Y-2950000D02*
Y-2870000D01*
X5439170D01*
X5445830Y-2874000D01*
X5450000Y-2879330D01*
X5451670Y-2890000D01*
X5450000Y-2900670D01*
X5445000Y-2907330D01*
X5439170Y-2911330D01*
X5418330D01*
G01X5439170D02*
X5451670Y-2950000D01*
G01X5484170Y-2870000D02*
X5505000Y-2950000D01*
X5525830Y-2870000D01*
G01X5591670Y-2950000D02*
X5558330D01*
Y-2870000D01*
X5591670D01*
G01X5578330Y-2908670D02*
X5558330D01*
G01X5627500Y-2939340D02*
X5634170Y-2946000D01*
X5641670Y-2950000D01*
X5648330D01*
X5655000Y-2946000D01*
X5660000Y-2939340D01*
X5662500Y-2930000D01*
X5660830Y-2920670D01*
X5656670Y-2912670D01*
X5649170Y-2907330D01*
X5639170Y-2904670D01*
X5633330Y-2899330D01*
X5630830Y-2890000D01*
X5632500Y-2880670D01*
X5636670Y-2874000D01*
X5642500Y-2870000D01*
X5648330D01*
X5654170Y-2872670D01*
X5659170Y-2879330D01*
G01X5715000Y-2870000D02*
Y-2950000D01*
G01X5695830Y-2870000D02*
X5734170D01*
G01X5801670Y-2950000D02*
X5768330D01*
Y-2870000D01*
X5801670D01*
G01X5788330Y-2908670D02*
X5768330D01*
G01X5838330Y-2950000D02*
Y-2870000D01*
X5859170D01*
X5865830Y-2874000D01*
X5870000Y-2879330D01*
X5871670Y-2890000D01*
X5870000Y-2900670D01*
X5865000Y-2907330D01*
X5859170Y-2911330D01*
X5838330D01*
G01X5859170D02*
X5871670Y-2950000D01*
G01X6160000Y-2910000D02*
X6176670D01*
Y-2934000D01*
X6171670Y-2942000D01*
X6165830Y-2947330D01*
X6157500Y-2950000D01*
X6149170Y-2947330D01*
X6143330Y-2942000D01*
X6138330Y-2934000D01*
X6135000Y-2924670D01*
X6133330Y-2914000D01*
Y-2904670D01*
X6135000Y-2896670D01*
X6138330Y-2887330D01*
X6143330Y-2879330D01*
X6148330Y-2874000D01*
X6155000Y-2870000D01*
X6160830D01*
X6167500Y-2872670D01*
X6172500Y-2878000D01*
G01X6208330Y-2870000D02*
Y-2950000D01*
X6241670D01*
G01X6278330D02*
Y-2870000D01*
X6298330D01*
X6305000Y-2874000D01*
X6310000Y-2883330D01*
X6311670Y-2894000D01*
X6310000Y-2904670D01*
X6305830Y-2912670D01*
X6298330Y-2916670D01*
X6278330D01*
G01X6348330Y-2950000D02*
Y-2870000D01*
X6368330D01*
X6375000Y-2874000D01*
X6380000Y-2883330D01*
X6381670Y-2894000D01*
X6380000Y-2904670D01*
X6375830Y-2912670D01*
X6368330Y-2916670D01*
X6348330D01*
G01X6419170Y-2883330D02*
X6424170Y-2875330D01*
X6430000Y-2871330D01*
X6436670Y-2870000D01*
X6445000Y-2872670D01*
X6450830Y-2879330D01*
X6452500Y-2887330D01*
X6451670Y-2895340D01*
X6448330Y-2902000D01*
X6431670Y-2915330D01*
X6424170Y-2924670D01*
X6419170Y-2938000D01*
X6417500Y-2950000D01*
X6452500D01*
G01X6505000Y-2870000D02*
X6498330Y-2872670D01*
X6493330Y-2879330D01*
X6490000Y-2887330D01*
X6487500Y-2898000D01*
X6486670Y-2910000D01*
X6487500Y-2922000D01*
X6490000Y-2932670D01*
X6493330Y-2940670D01*
X6498330Y-2947330D01*
X6505000Y-2950000D01*
X6511670Y-2947330D01*
X6516670Y-2940670D01*
X6520000Y-2932670D01*
X6522500Y-2922000D01*
X6523330Y-2910000D01*
X6522500Y-2898000D01*
X6520000Y-2887330D01*
X6516670Y-2879330D01*
X6511670Y-2872670D01*
X6505000Y-2870000D01*
G01X6559170Y-2883330D02*
X6564170Y-2875330D01*
X6570000Y-2871330D01*
X6576670Y-2870000D01*
X6585000Y-2872670D01*
X6590830Y-2879330D01*
X6592500Y-2887330D01*
X6591670Y-2895340D01*
X6588330Y-2902000D01*
X6571670Y-2915330D01*
X6564170Y-2924670D01*
X6559170Y-2938000D01*
X6557500Y-2950000D01*
X6592500D01*
G01X6655000D02*
Y-2870000D01*
X6624170Y-2927330D01*
X6665830D01*
G01X6878330Y-2950000D02*
Y-2870000D01*
X6898330D01*
X6905000Y-2874000D01*
X6910000Y-2883330D01*
X6911670Y-2894000D01*
X6910000Y-2904670D01*
X6905830Y-2912670D01*
X6898330Y-2916670D01*
X6878330D01*
G01X6965000Y-2950000D02*
X6958330Y-2948670D01*
X6952500Y-2943330D01*
X6947500Y-2935330D01*
X6944170Y-2926000D01*
X6942500Y-2915330D01*
Y-2904670D01*
X6944170Y-2894000D01*
X6947500Y-2884670D01*
X6952500Y-2876670D01*
X6958330Y-2871330D01*
X6965000Y-2870000D01*
X6971670Y-2871330D01*
X6977500Y-2876670D01*
X6982500Y-2884670D01*
X6985830Y-2894000D01*
X6987500Y-2904670D01*
Y-2915330D01*
X6985830Y-2926000D01*
X6982500Y-2935330D01*
X6977500Y-2943330D01*
X6971670Y-2948670D01*
X6965000Y-2950000D01*
G01X7019170D02*
Y-2870000D01*
X7050830D01*
G01X7039170Y-2908670D02*
X7019170D01*
G01X7094170Y-2923330D02*
X7115830D01*
G01X7158330Y-2950000D02*
Y-2870000D01*
X7178330D01*
X7185000Y-2874000D01*
X7190000Y-2883330D01*
X7191670Y-2894000D01*
X7190000Y-2904670D01*
X7185830Y-2912670D01*
X7178330Y-2916670D01*
X7158330D01*
G01X7227500Y-2939340D02*
X7234170Y-2946000D01*
X7241670Y-2950000D01*
X7248330D01*
X7255000Y-2946000D01*
X7260000Y-2939340D01*
X7262500Y-2930000D01*
X7260830Y-2920670D01*
X7256670Y-2912670D01*
X7249170Y-2907330D01*
X7239170Y-2904670D01*
X7233330Y-2899330D01*
X7230830Y-2890000D01*
X7232500Y-2880670D01*
X7236670Y-2874000D01*
X7242500Y-2870000D01*
X7248330D01*
X7254170Y-2872670D01*
X7259170Y-2879330D01*
G01X7296670Y-2870000D02*
Y-2927330D01*
X7300000Y-2939340D01*
X7306670Y-2947330D01*
X7315000Y-2950000D01*
X7323330Y-2947330D01*
X7330000Y-2939340D01*
X7333330Y-2927330D01*
Y-2870000D01*
G01X7374170Y-2923330D02*
X7395830D01*
G01X7437500Y-2950000D02*
Y-2870000D01*
G01X7472500D02*
Y-2950000D01*
G01Y-2910000D02*
X7437500D01*
G01X7515000Y-2870000D02*
X7535000D01*
G01X7525000D02*
Y-2950000D01*
G01X7515000D02*
X7535000D01*
G01X7578330D02*
Y-2870000D01*
X7599170D01*
X7605830Y-2874000D01*
X7610000Y-2879330D01*
X7611670Y-2890000D01*
X7610000Y-2900670D01*
X7605000Y-2907330D01*
X7599170Y-2911330D01*
X7578330D01*
G01X7599170D02*
X7611670Y-2950000D01*
G01X7665000D02*
X7658330Y-2948670D01*
X7652500Y-2943330D01*
X7647500Y-2935330D01*
X7644170Y-2926000D01*
X7642500Y-2915330D01*
Y-2904670D01*
X7644170Y-2894000D01*
X7647500Y-2884670D01*
X7652500Y-2876670D01*
X7658330Y-2871330D01*
X7665000Y-2870000D01*
X7671670Y-2871330D01*
X7677500Y-2876670D01*
X7682500Y-2884670D01*
X7685830Y-2894000D01*
X7687500Y-2904670D01*
Y-2915330D01*
X7685830Y-2926000D01*
X7682500Y-2935330D01*
X7677500Y-2943330D01*
X7671670Y-2948670D01*
X7665000Y-2950000D01*
G01X7717500Y-2939340D02*
X7724170Y-2946000D01*
X7731670Y-2950000D01*
X7738330D01*
X7745000Y-2946000D01*
X7750000Y-2939340D01*
X7752500Y-2930000D01*
X7750830Y-2920670D01*
X7746670Y-2912670D01*
X7739170Y-2907330D01*
X7729170Y-2904670D01*
X7723330Y-2899330D01*
X7720830Y-2890000D01*
X7722500Y-2880670D01*
X7726670Y-2874000D01*
X7732500Y-2870000D01*
X7738330D01*
X7744170Y-2872670D01*
X7749170Y-2879330D01*
G01X7821670Y-2950000D02*
X7788330D01*
Y-2870000D01*
X7821670D01*
G01X7808330Y-2908670D02*
X7788330D01*
G01X7328330Y-135000D02*
Y-55000D01*
X7348330D01*
X7355000Y-59000D01*
X7360000Y-68330D01*
X7361670Y-79000D01*
X7360000Y-89670D01*
X7355830Y-97670D01*
X7348330Y-101670D01*
X7328330D01*
G01X7433330Y-61670D02*
X7428330Y-57670D01*
X7422500Y-55000D01*
X7415830D01*
X7408330Y-59000D01*
X7402500Y-65670D01*
X7398330Y-73670D01*
X7395000Y-87000D01*
X7394170Y-99000D01*
X7395830Y-111000D01*
X7398330Y-119000D01*
X7403330Y-127000D01*
X7409170Y-132330D01*
X7415000Y-135000D01*
X7420830D01*
X7426670Y-132330D01*
X7431670Y-128330D01*
X7435830Y-123000D01*
G01X7491670Y-92330D02*
X7495000Y-88330D01*
X7497500Y-81670D01*
X7499170Y-72330D01*
X7497500Y-64330D01*
X7494170Y-59000D01*
X7488330Y-55000D01*
X7465830D01*
Y-135000D01*
X7493330D01*
X7499170Y-129670D01*
X7502500Y-121670D01*
X7504170Y-112330D01*
X7502500Y-103000D01*
X7497500Y-95000D01*
X7491670Y-92330D01*
X7465830D01*
G01X7607500Y-124340D02*
X7614170Y-131000D01*
X7621670Y-135000D01*
X7628330D01*
X7635000Y-131000D01*
X7640000Y-124340D01*
X7642500Y-115000D01*
X7640830Y-105670D01*
X7636670Y-97670D01*
X7629170Y-92330D01*
X7619170Y-89670D01*
X7613330Y-84330D01*
X7610830Y-75000D01*
X7612500Y-65670D01*
X7616670Y-59000D01*
X7622500Y-55000D01*
X7628330D01*
X7634170Y-57670D01*
X7639170Y-64330D01*
G01X7685000Y-55000D02*
X7705000D01*
G01X7695000D02*
Y-135000D01*
G01X7685000D02*
X7705000D01*
G01X7749170Y-55000D02*
X7780830D01*
X7749170Y-135000D01*
X7780830D01*
G01X7851670D02*
X7818330D01*
Y-55000D01*
X7851670D01*
G01X7838330Y-93670D02*
X7818330D01*
G01X7905000Y-137670D02*
X7903330Y-136330D01*
Y-133670D01*
X7905000Y-132330D01*
X7906670Y-133670D01*
Y-136330D01*
X7905000Y-137670D01*
G01Y-101670D02*
X7903330Y-100330D01*
Y-97670D01*
X7905000Y-96330D01*
X7906670Y-97670D01*
Y-100330D01*
X7905000Y-101670D01*
G01X7960830Y-125670D02*
X7966670Y-132330D01*
X7973330Y-135000D01*
X7980000Y-132330D01*
X7985830Y-124340D01*
X7990000Y-112330D01*
X7991670Y-100330D01*
Y-85670D01*
X7990000Y-73670D01*
X7985830Y-63000D01*
X7980830Y-57670D01*
X7975000Y-55000D01*
X7968330Y-57670D01*
X7963330Y-63000D01*
X7960000Y-71000D01*
X7958330Y-81670D01*
X7960000Y-91000D01*
X7964170Y-100330D01*
X7969170Y-105670D01*
X7975000Y-107000D01*
X7981670Y-104340D01*
X7986670Y-97670D01*
X7991670Y-85670D01*
G01X8045000Y-55000D02*
X8038330Y-57670D01*
X8033330Y-64330D01*
X8030000Y-72330D01*
X8027500Y-83000D01*
X8026670Y-95000D01*
X8027500Y-107000D01*
X8030000Y-117670D01*
X8033330Y-125670D01*
X8038330Y-132330D01*
X8045000Y-135000D01*
X8051670Y-132330D01*
X8056670Y-125670D01*
X8060000Y-117670D01*
X8062500Y-107000D01*
X8063330Y-95000D01*
X8062500Y-83000D01*
X8060000Y-72330D01*
X8056670Y-64330D01*
X8051670Y-57670D01*
X8045000Y-55000D01*
G01X8093330Y-135000D02*
Y-55000D01*
X8115000Y-121670D01*
X8136670Y-55000D01*
Y-135000D01*
G01X8163330D02*
Y-55000D01*
X8185000Y-121670D01*
X8206670Y-55000D01*
Y-135000D01*
G01X8237500D02*
X8272500Y-55000D01*
G01X8237500D02*
X8272500Y-135000D01*
G01X8306670Y-119000D02*
X8311670Y-128330D01*
X8318330Y-133670D01*
X8325830Y-135000D01*
X8332500Y-133670D01*
X8339170Y-127000D01*
X8343330Y-119000D01*
X8344170Y-111000D01*
X8342500Y-101670D01*
X8336670Y-95000D01*
X8330830Y-92330D01*
X8323330D01*
G01X8330830D02*
X8335830Y-88330D01*
X8340000Y-81670D01*
X8341670Y-73670D01*
X8340000Y-65670D01*
X8335830Y-59000D01*
X8328330Y-55000D01*
X8320830Y-56330D01*
X8313330Y-61670D01*
G01X8395000Y-55000D02*
X8388330Y-57670D01*
X8383330Y-64330D01*
X8380000Y-72330D01*
X8377500Y-83000D01*
X8376670Y-95000D01*
X8377500Y-107000D01*
X8380000Y-117670D01*
X8383330Y-125670D01*
X8388330Y-132330D01*
X8395000Y-135000D01*
X8401670Y-132330D01*
X8406670Y-125670D01*
X8410000Y-117670D01*
X8412500Y-107000D01*
X8413330Y-95000D01*
X8412500Y-83000D01*
X8410000Y-72330D01*
X8406670Y-64330D01*
X8401670Y-57670D01*
X8395000Y-55000D01*
G01X8443330Y-135000D02*
Y-55000D01*
X8465000Y-121670D01*
X8486670Y-55000D01*
Y-135000D01*
G01X8513330D02*
Y-55000D01*
X8535000Y-121670D01*
X8556670Y-55000D01*
Y-135000D01*
G01X8027500Y-2939340D02*
X8034170Y-2946000D01*
X8041670Y-2950000D01*
X8048330D01*
X8055000Y-2946000D01*
X8060000Y-2939340D01*
X8062500Y-2930000D01*
X8060830Y-2920670D01*
X8056670Y-2912670D01*
X8049170Y-2907330D01*
X8039170Y-2904670D01*
X8033330Y-2899330D01*
X8030830Y-2890000D01*
X8032500Y-2880670D01*
X8036670Y-2874000D01*
X8042500Y-2870000D01*
X8048330D01*
X8054170Y-2872670D01*
X8059170Y-2879330D01*
G01X8131670Y-2950000D02*
X8098330D01*
Y-2870000D01*
X8131670D01*
G01X8118330Y-2908670D02*
X8098330D01*
G01X8168330Y-2950000D02*
Y-2870000D01*
X8188330D01*
X8195000Y-2874000D01*
X8200000Y-2883330D01*
X8201670Y-2894000D01*
X8200000Y-2904670D01*
X8195830Y-2912670D01*
X8188330Y-2916670D01*
X8168330D01*
G01X8255000Y-2950000D02*
Y-2870000D01*
X8245000Y-2886000D01*
G01Y-2950000D02*
X8265000D01*
G01X8309170Y-2883330D02*
X8314170Y-2875330D01*
X8320000Y-2871330D01*
X8326670Y-2870000D01*
X8335000Y-2872670D01*
X8340830Y-2879330D01*
X8342500Y-2887330D01*
X8341670Y-2895340D01*
X8338330Y-2902000D01*
X8321670Y-2915330D01*
X8314170Y-2924670D01*
X8309170Y-2938000D01*
X8307500Y-2950000D01*
X8342500D01*
G01X8376670Y-2938000D02*
X8381670Y-2944670D01*
X8387500Y-2948670D01*
X8395000Y-2950000D01*
X8402500Y-2947330D01*
X8408330Y-2942000D01*
X8412500Y-2932670D01*
X8413330Y-2922000D01*
X8411670Y-2911330D01*
X8407500Y-2904670D01*
X8401670Y-2899330D01*
X8395830Y-2898000D01*
X8390000Y-2899330D01*
X8382500Y-2904670D01*
X8385000Y-2870000D01*
X8407500D01*
M02*
