G04 ================== begin FILE IDENTIFICATION RECORD ==================*
G04 Layout Name:  F:/3-MyLaptopDIR/PSU_PoE_Version/PCB/PSU-C2-6Layers-Aug25.brd*
G04 Film Name:    TOP*
G04 File Format:  Gerber RS274X*
G04 File Origin:  Cadence Allegro 22.1-P001*
G04 Origin Date:  Sun Sep 28 08:46:47 2025*
G04 *
G04 Layer:  ETCH/TOP*
G04 Layer:  PIN/TOP*
G04 Layer:  VIA CLASS/TOP*
G04 *
G04 Offset:    (0.0000 0.0000)*
G04 Mirror:    No*
G04 Mode:      Positive*
G04 Rotation:  0*
G04 FullContactRelief:  No*
G04 UndefLineWidth:     0.2540*
G04 ================== end FILE IDENTIFICATION RECORD ====================*
%FSLAX25Y25*MOMM*%
%IR0*IPPOS*OFA0.00000B0.00000*MIA0B0*SFA1.00000B1.00000*%
%ADD26R,1.X.5*%
%ADD40R,1.5X.3*%
%ADD23R,1.2X.6*%
%ADD16R,.3X1.5*%
%ADD41R,1.27X.51*%
%ADD38R,.6X1.8*%
%ADD28C,.3*%
%ADD17R,.51X1.27*%
%ADD11C,.4*%
%ADD30C,.8*%
%ADD27C,.35*%
%ADD22C,.27*%
%ADD18R,2.X1.*%
%ADD19R,1.X2.*%
%ADD37R,.3X.2*%
%ADD31R,.2X.3*%
%ADD25R,2.2X1.05*%
%ADD15R,1.8X1.5*%
%ADD21R,1.5X1.8*%
%ADD36C,1.2*%
%ADD29R,.3X.8*%
%ADD33R,.7X.24*%
%ADD32R,.24X.7*%
%ADD20R,.8X.6*%
%ADD10C,2.3*%
%ADD12R,.6X.8*%
%ADD39R,.25X.8*%
%ADD13C,2.5*%
%ADD24R,.9X.8*%
%ADD35R,.8X.9*%
%ADD14C,1.8*%
%ADD34R,5.X5.*%
%ADD42C,.2*%
%ADD43C,.22*%
%ADD44C,.23*%
%ADD45C,.5*%
%ADD46C,.24*%
%ADD47C,.15*%
%ADD48C,.6*%
%ADD49C,.16*%
%ADD50C,.25*%
%ADD51C,.136*%
%ADD52C,.127*%
%ADD53C,.28*%
%ADD54C,1.*%
G75*
%LPD*%
G75*
G36*
G01X4350000Y-2570000D02*
X4500000D01*
Y-2770000D01*
X4230000D01*
G02X4200000Y-2740000I0J30000D01*
G01Y-2660000D01*
G02X4230000Y-2630000I30000J0D01*
G01X4320000D01*
G03X4350000Y-2600000I0J30000D01*
G01Y-2570000D01*
G37*
G36*
G01X4680000Y-2760000D02*
Y-2430000D01*
G02X4710000Y-2400000I30000J0D01*
G01X4810000D01*
G02X4840000Y-2430000I0J-30000D01*
G01Y-2760000D01*
X4680000D01*
G37*
G36*
G01X4770000Y-380000D02*
X5020000D01*
X5030000Y-390000D01*
X5170000D01*
Y-480000D01*
X4930000D01*
X4910000Y-500000D01*
Y-610000D01*
X4790000D01*
G02X4770000Y-590000I0J20000D01*
G01Y-380000D01*
G37*
G36*
G01X4650000Y-230000D02*
X4840000D01*
G02X4860000Y-250000I0J-20000D01*
G01Y-340000D01*
X4650000D01*
G02X4630000Y-320000I0J20000D01*
G01Y-250000D01*
G02X4650000Y-230000I20000J0D01*
G37*
G36*
G01X5570000Y-2090000D02*
Y-1900000D01*
G03X5540000Y-1870000I-30000J0D01*
G01X5330000D01*
G03X5300000Y-1900000I0J-30000D01*
G01Y-2080000D01*
G03X5330000Y-2110000I30000J0D01*
G01X5550000D01*
G03X5570000Y-2090000I0J20000D01*
G37*
G36*
G01X5050000Y-610000D02*
X5190000D01*
G03X5224140Y-595860I0J48283D01*
G01X5415860Y-404140D01*
G02X5450000Y-390000I34139J-34142D01*
G01X5560000D01*
Y-280000D01*
X5340000D01*
Y-400000D01*
G02X5325860Y-434140I-48277J-3D01*
G01X5224140Y-535860D01*
G02X5190000Y-550000I-34140J34143D01*
G01X5050000D01*
Y-610000D01*
G37*
G36*
G01X5340000Y-2630000D02*
X5700000D01*
G02X5720000Y-2650000I0J-20000D01*
G01Y-2730000D01*
G02X5700000Y-2750000I-20000J0D01*
G01X5360000D01*
G02X5340000Y-2730000I0J20000D01*
G01Y-2630000D01*
G37*
G36*
G01X5590000Y-1290000D02*
X5640000D01*
G02X5670000Y-1320000I0J-30000D01*
G01Y-1440000D01*
G02X5640000Y-1470000I-30000J0D01*
G01X5340000D01*
Y-1350000D01*
X5530000D01*
G03X5560000Y-1320000I0J30000D01*
G02X5590000Y-1290000I30000J0D01*
G37*
G36*
G01X5340000Y-820000D02*
Y-660000D01*
G02X5360000Y-640000I20000J0D01*
G01X5830000D01*
G02X5850000Y-660000I0J-20000D01*
G01Y-800000D01*
G02X5830000Y-820000I-20000J0D01*
G01X5340000D01*
G37*
G36*
G01X5790000Y-380000D02*
X5850000D01*
G02X5870000Y-400000I0J-20000D01*
G01Y-580000D01*
G02X5850000Y-600000I-20000J0D01*
G01X5750000D01*
Y-540000D01*
G03X5770000Y-520000I0J20000D01*
G01Y-400000D01*
G02X5790000Y-380000I20000J0D01*
G37*
G36*
G01X8465000Y-1555000D02*
X8790000D01*
Y-2445000D01*
X8465000D01*
Y-2260000D01*
X8655000D01*
Y-1740000D01*
X8465000D01*
Y-1555000D01*
G37*
G54D10*
X300000Y-2700000D03*
Y-300000D03*
X8700000Y-2700000D03*
Y-300000D03*
G54D20*
X3200000Y-2700000D03*
Y-2600000D03*
X4845000Y-2225000D03*
Y-2125000D03*
X4970000Y-407500D03*
Y-307500D03*
X4820000Y-408000D03*
Y-308000D03*
X5880000Y-2609500D03*
Y-2709500D03*
X5790000Y-570000D03*
Y-670000D03*
X5960000Y-360000D03*
Y-460000D03*
X6100000D03*
Y-360000D03*
X6350000Y-2610000D03*
Y-2710000D03*
Y-2485000D03*
Y-2385000D03*
X7195000Y-470000D03*
Y-370000D03*
X7420000Y-2005000D03*
Y-2105000D03*
X7335000Y-370000D03*
Y-470000D03*
G54D11*
G01X570000Y-510000D02*
Y-590000D01*
X550000Y-610000D01*
X390000D01*
G01X290000D02*
Y-682700D01*
G01X670000Y-510000D02*
X732700D01*
G01X670000Y-310000D02*
Y-382700D01*
G01X912700Y-2480000D02*
Y-2582700D01*
X930000Y-2600000D01*
Y-2680000D01*
G01X770000Y-310000D02*
X910000D01*
G01X1060000Y-2590000D02*
X1042180Y-2607820D01*
G03X1030000Y-2637220I29393J-29400D01*
G01Y-2680000D01*
G01X1010000Y-310000D02*
X1080000D01*
G01X2241700Y-2592300D02*
X2220000Y-2570600D01*
X2096600D01*
G01X2241700Y-2592300D02*
X2244610Y-2595210D01*
Y-2639300D01*
G01D02*
X2096600D01*
G01X2099700Y-2711100D02*
X2187640D01*
G03X2223930Y-2696070I0J51326D01*
G01X2244610Y-2675390D01*
Y-2639300D01*
G01X2561140Y-1642700D02*
X2565450D01*
X2600500Y-1677750D01*
G01D02*
X2657750D01*
X2660000Y-1680000D01*
G01X2570000Y-1410000D02*
Y-1335000D01*
X2550000Y-1315000D01*
Y-1190000D01*
G01X2570000Y-1410000D02*
X2637300D01*
G01X2502700D02*
X2570000D01*
G01X2420900Y-533400D02*
Y-602840D01*
G02X2405510Y-639990I-52533J0D01*
G01X2399860Y-645640D01*
G03X2384470Y-682790I37143J-37150D01*
G01Y-1056410D01*
G03X2398510Y-1090310I47946J0D01*
G01X2418200Y-1110000D01*
G01X2550000Y-1025000D02*
Y-918230D01*
X2518500Y-886730D01*
Y-804170D01*
G01D02*
Y-415560D01*
X2520000Y-414060D01*
Y-345000D01*
G01X2612400Y-533400D02*
Y-592400D01*
X2640000Y-620000D01*
X2672300D01*
X2712300Y-580000D01*
X2770000D01*
G01X2812400Y-2568700D02*
X2923100D01*
X2946700Y-2592300D01*
G01X2945000Y-2640200D02*
Y-2675000D01*
X2924530Y-2695470D01*
G02X2888730Y-2710300I-35800J35796D01*
G01X2812400D01*
G01X2945000Y-2640200D02*
X2813400D01*
G01X2650000Y-1025000D02*
Y-1190000D01*
G01Y-1025000D02*
Y-960000D01*
X2750000Y-860000D01*
Y-810000D01*
G01X2870000Y-580000D02*
X2906500D01*
G02X2955160Y-600160I-5J-68818D01*
G01X3109850Y-754850D01*
G02X3145000Y-839710I-84861J-84860D01*
G01Y-1117540D01*
G03X3175030Y-1190030I102508J0D01*
G01X3180670Y-1195670D01*
G02X3210700Y-1268160I-72478J-72490D01*
G01Y-1360500D01*
G01X2946700Y-2592300D02*
X2945000Y-2594000D01*
Y-2640200D01*
G01X2989400Y-978200D02*
X2949380Y-1018220D01*
G03X2915000Y-1101210I82988J-82995D01*
G01Y-1182390D01*
G03X2950150Y-1267250I120011J0D01*
G01X3022000Y-1339100D01*
G03X3072450Y-1360000I50450J50440D01*
G01X3110000D01*
G01X3200000Y-2700000D02*
X3300940D01*
X3310940Y-2690000D01*
X3360000D01*
G01X3210700Y-1360500D02*
Y-1419100D01*
X3213900Y-1422300D01*
G01X4250000Y-330000D02*
X4140000D01*
G01X4740000Y-2411220D02*
G03X4686100Y-2281100I-184011J0D01*
G01X4645670Y-2240670D01*
G02X4587090Y-2099240I141438J141430D01*
G01Y-1985740D01*
G03X4528510Y-1844310I-200018J0D01*
G01X4412700Y-1728500D01*
G01X4740000Y-2464600D02*
Y-2537300D01*
G01Y-2420000D02*
Y-2464600D01*
G01Y-2420000D02*
Y-2411220D01*
G01X4845000Y-770000D02*
X4750000D01*
G01X5040000Y-2260000D02*
X4947300D01*
G01D02*
Y-2340000D01*
G01X4950000Y-1620000D02*
X4982780D01*
G02X5012180Y-1632180I0J-41573D01*
G01X5030000Y-1650000D01*
G01X4950000Y-1620000D02*
Y-1690000D01*
G01X4980000Y-850000D02*
X5061180D01*
G03X5091710Y-837350I0J43166D01*
G01X5097350Y-831710D01*
G03X5110000Y-801180I-30516J30530D01*
G01Y-770000D01*
G01X4947300Y-1040000D02*
Y-970000D01*
G01X5030000D02*
X4947300D01*
G01X4980000Y-550000D02*
Y-650000D01*
X4955000Y-675000D01*
X4845000D01*
G01X4970000Y-307500D02*
Y-230000D01*
G01X5130000Y-2670000D02*
X5170000Y-2630000D01*
X5210000D01*
G01X5140000Y-2260000D02*
X5180000D01*
G01X5130000Y-2050000D02*
X5220000D01*
G01X5180000Y-1620000D02*
X5150000Y-1650000D01*
X5130000D01*
G01X5220000Y-1400000D02*
Y-1395000D01*
G03X5175000Y-1350000I-45000J0D01*
G01X5125000D01*
G01X5130000Y-970000D02*
X5180000D01*
G01X5110000Y-675000D02*
X5217000D01*
X5217300Y-674700D01*
G01X5230000Y-230000D02*
X5184850Y-275150D01*
G02X5149000Y-290000I-35850J35848D01*
G01X5120000D01*
G01X5854000Y-2010000D02*
X5770000D01*
G01X5854000Y-2105000D02*
X5936700D01*
G01X6166710D02*
Y-2160000D01*
X6126710Y-2200000D01*
X6114000D01*
G01Y-2105000D02*
X6166710D01*
G01X6090000Y-590000D02*
X6177200D01*
X6180600Y-586600D01*
G01X6100000Y-360000D02*
Y-297300D01*
G01X5960000Y-460000D02*
X6100000D01*
G01X5960000Y-360000D02*
Y-250000D01*
G01X6370000Y-2270000D02*
Y-2180000D01*
G01Y-2030000D02*
X6432700D01*
G01X6270000Y-2180000D02*
Y-2105000D01*
G01D02*
Y-2030000D01*
G01X6166710Y-2105000D02*
X6270000D01*
G01X6390000Y-736000D02*
Y-644440D01*
X6332160Y-586600D01*
X6287600D01*
G01X6385250Y-454750D02*
X6479100Y-548600D01*
Y-586600D01*
G01X6381500Y-315830D02*
X6526770D01*
X6545940Y-335000D01*
X6595000D01*
G01X7367300Y-2720000D02*
X6990000D01*
X6900000Y-2630000D01*
X6870000D01*
G01X6875000Y-785000D02*
Y-671560D01*
X6872600Y-669160D01*
Y-586600D01*
G01X6966500Y-315830D02*
X7096520D01*
G02X7155090Y-340090I0J-82832D01*
G01X7185000Y-370000D01*
X7195000D01*
G01X7110000Y-2535000D02*
X7255940D01*
X7265940Y-2525000D01*
X7305000D01*
G01X7064100Y-586600D02*
Y-624600D01*
X7086800Y-647300D01*
G01D02*
X7265000D01*
G01X7080000Y-790000D02*
Y-712300D01*
X7086800Y-705500D01*
Y-647300D01*
G01X7330000Y-755000D02*
X7255000D01*
X7220000Y-790000D01*
G01X7195000Y-470000D02*
X7335000D01*
G01X7480000Y-2525000D02*
X7387300D01*
G01X7330000Y-2240000D02*
X7260000D01*
G01X7510000D02*
X7430000D01*
G01X7420000Y-2105000D02*
Y-2170940D01*
X7430000Y-2180940D01*
Y-2240000D01*
G01X7455000Y-1930000D02*
X7420000Y-1965000D01*
Y-2005000D01*
G01X7520000Y-870000D02*
X7530000Y-880000D01*
X7640000D01*
G01X7335000Y-370000D02*
Y-355000D01*
X7260000Y-280000D01*
G01X7720000Y-2620000D02*
X7850940D01*
X7890940Y-2660000D01*
X7970000D01*
G01X7720000Y-2430000D02*
Y-2300000D01*
G01X7905000Y-1042700D02*
X7677300D01*
G03X7619000Y-1101000I0J-58300D01*
G01Y-1300000D01*
G01X7870000Y-725000D02*
X7835750D01*
G03X7800320Y-739680I5J-50108D01*
G01X7794680Y-745320D01*
G03X7780000Y-780750I35428J-35435D01*
G01Y-880000D01*
G01X7640000D02*
Y-791000D01*
X7614000Y-765000D01*
G01X8000000Y-1860000D02*
Y-1737300D01*
G01X8085000Y-630000D02*
X8177700D01*
X8200000Y-652300D01*
Y-759580D01*
G03X8268920Y-828500I68920J0D01*
G01X8345830D01*
G01Y-1153500D02*
X8442030D01*
G01X8616600Y-1247400D02*
X8520400D01*
G01Y-922400D02*
X8616600D01*
G01X8460000Y-595000D02*
Y-680000D01*
G01Y-595000D02*
Y-510000D01*
G01Y-595000D02*
X8385000D01*
G01X8616600Y-730900D02*
Y-692250D01*
G03X8594920Y-639920I-74008J-5D01*
G01X8560000Y-605000D01*
Y-595000D01*
G01X8616600Y-730900D02*
X8715000D01*
G02X8755000Y-770900I0J-40000D01*
G01Y-1015000D01*
G02X8714100Y-1055900I-40900J0D01*
G01X8616600D01*
X250000Y-910000D03*
X290000Y-682700D03*
X620000Y-2752700D03*
X547300Y-2690000D03*
X467300Y-2460000D03*
X530000Y-2387300D03*
X545000Y-2040000D03*
X515700Y-2100000D03*
X545000Y-2160000D03*
X515700Y-1380000D03*
X545000Y-1440000D03*
X542300Y-1322700D03*
X670000Y-382700D03*
X912700Y-2480000D03*
X727300Y-2670000D03*
X820000Y-2417300D03*
X917300Y-1990000D03*
X890000Y-1840000D03*
X970000Y-1730000D03*
X959500Y-1249500D03*
X770000Y-820000D03*
X732700Y-510000D03*
X1060000Y-2590000D03*
X1062700Y-2320000D03*
X1120000Y-2380000D03*
X1240000Y-1987300D03*
X1147300Y-2145000D03*
X1160000Y-1712700D03*
X1222700Y-1380000D03*
X1060000Y-1500000D03*
X1196900Y-950000D03*
X1239500Y-841600D03*
X1080000Y-310000D03*
X1332700Y-2240000D03*
Y-2050000D03*
X1433300Y-990100D03*
X1305500Y-842200D03*
X1368400Y-843200D03*
X1260000Y-657300D03*
X1447300Y-790000D03*
X1590000Y-2240000D03*
Y-2050000D03*
X1617300Y-1800000D03*
X1749060Y-1470000D03*
X1665600Y-837800D03*
X1667800Y-973900D03*
X1678300Y-649000D03*
X1667000Y-715100D03*
X1832700Y-2050000D03*
X1841340Y-1702670D03*
X1990000Y-1790000D03*
X1830000Y-1862700D03*
X2000000Y-1460000D03*
X1988200Y-1199500D03*
X1826200Y-647700D03*
X2096600Y-2570600D03*
Y-2639300D03*
X2099700Y-2711100D03*
X2320000Y-2410000D03*
X2240000Y-1560000D03*
X2511100Y-2500800D03*
X2455200Y-2694700D03*
X2455800Y-2635800D03*
X2454200Y-2579200D03*
X2380000Y-2465000D03*
X2591300Y-2089700D03*
X2542300Y-2018800D03*
X2360000Y-1950000D03*
X2541300Y-1880900D03*
X2600500Y-1677750D03*
X2570000Y-1410000D03*
X2502700D03*
X2561140Y-1642700D03*
X2418200Y-1110000D03*
X2440000Y-1187300D03*
X2812400Y-2568700D03*
X2813400Y-2640200D03*
X2812400Y-2710300D03*
X2840000Y-2205000D03*
X2703290Y-2049690D03*
X2770000Y-1722400D03*
X2660000Y-1680000D03*
X2870000Y-1880000D03*
X2854800Y-1418500D03*
X2637300Y-1410000D03*
X2803400Y-1169900D03*
X2807200Y-1362800D03*
X3000000Y-1980000D03*
X2977900Y-1497400D03*
X2908500Y-1468600D03*
X3029200Y-1117500D03*
X3110000Y-1360000D03*
X2989400Y-978200D03*
X3164200Y-1880000D03*
X3410000Y-1440000D03*
X3347300Y-1507300D03*
X3348860Y-1450000D03*
X3213900Y-1422300D03*
X3297900Y-1124800D03*
X3419000Y-1166800D03*
X3210700Y-1360500D03*
X3610000Y-1940000D03*
X3497300Y-2010000D03*
X3530000Y-1940000D03*
X3510000Y-607300D03*
X3586200Y-703700D03*
X3510700Y-541700D03*
X3896300Y-2071400D03*
X3798700Y-1980100D03*
X3754300Y-730000D03*
X4240000Y-2670000D03*
Y-2737300D03*
X4127700Y-2105000D03*
X4207300Y-1199500D03*
X4212700Y-1050000D03*
X4220000Y-470000D03*
X4140000Y-330000D03*
X4310000Y-2670000D03*
Y-2737300D03*
X4330000Y-2432700D03*
X4392700Y-2360000D03*
X4399700Y-1947600D03*
X4412700Y-1728500D03*
X4492700Y-1590000D03*
X4280000Y-1136800D03*
Y-1362200D03*
X4330000Y-890000D03*
Y-749000D03*
X4740000Y-2537300D03*
X4690000Y-1767300D03*
X4752700Y-1840000D03*
X4672700Y-1440000D03*
X4750000D03*
X4560000Y-1607300D03*
X4539400Y-1250600D03*
X4540000Y-1330000D03*
X4730000Y-1122700D03*
X4640000Y-1137300D03*
X4730000Y-1300000D03*
X4560000Y-625100D03*
X4750000Y-770000D03*
X4661760Y-309730D03*
X4720000Y-307300D03*
X4740000Y-260000D03*
X4680780Y-260580D03*
X4807300Y-2500000D03*
X4950000Y-2670000D03*
X4807300Y-2432700D03*
X4947300Y-2260000D03*
Y-2340000D03*
X4950000Y-2050000D03*
Y-1690000D03*
X4940000Y-1400000D03*
X4950000Y-1620000D03*
X4830000Y-1122700D03*
X4980000Y-850000D03*
X4947300Y-1040000D03*
Y-970000D03*
X4980000Y-550000D03*
X4892700Y-412700D03*
X4970000Y-230000D03*
X5130000Y-2760000D03*
X5210000Y-2500000D03*
Y-2630000D03*
Y-2410000D03*
X5180000Y-2260000D03*
X5220000Y-2050000D03*
X5330000Y-2070000D03*
X5200000Y-1790000D03*
Y-1870000D03*
X5180000Y-1620000D03*
X5220000Y-1400000D03*
X5200000Y-1130000D03*
Y-1210000D03*
X5180000Y-970000D03*
X5217300Y-674700D03*
X5230000Y-230000D03*
X5380000Y-2020000D03*
X5450000Y-2050000D03*
Y-1950000D03*
X5350000D03*
X5607300Y-1317300D03*
X5520000Y-670000D03*
X5390000Y-720000D03*
X5627300Y-2662700D03*
Y-2717300D03*
X5690000Y-2650000D03*
Y-2710000D03*
X5840000Y-2525000D03*
X5747300Y-2352700D03*
Y-2420000D03*
X5672700Y-2417300D03*
Y-2352700D03*
X5770000Y-2010000D03*
X5850000Y-1870000D03*
X5650000D03*
X5877530Y-1447520D03*
X5720000Y-1540000D03*
X5650000Y-1620000D03*
Y-1542700D03*
X5874350Y-1640000D03*
X5630000Y-1380000D03*
Y-1437300D03*
X5690000Y-1122700D03*
X5767300D03*
Y-1197300D03*
X5640000Y-720000D03*
X5762700Y-750000D03*
X5817300Y-777300D03*
X5837300Y-412700D03*
X5800000Y-460000D03*
X5837300Y-508120D03*
X5666500Y-242700D03*
X5739900D03*
X5811200D03*
X6090000Y-2765000D03*
X5920000Y-2525000D03*
X5965000Y-2709500D03*
Y-2350000D03*
X5936700Y-2200000D03*
X5975000Y-2455000D03*
X6015000Y-2155000D03*
X6031300Y-2010000D03*
X5936700Y-2105000D03*
X6088650Y-1198650D03*
X5990000Y-690000D03*
X6090000Y-740000D03*
X6135000Y-790000D03*
X6100000Y-297300D03*
X5960000Y-250000D03*
X6250000Y-2710000D03*
X6370000Y-2270000D03*
X6213710Y-2461280D03*
X6277100Y-1742750D03*
X6340000Y-1700000D03*
X6168020Y-1742280D03*
X6202530Y-1222520D03*
X6180600Y-586600D03*
X6290000Y-825000D03*
X6185000Y-740000D03*
X6385250Y-454750D03*
X6570000Y-2030000D03*
X6432700D03*
X6475000Y-2110000D03*
X6579800Y-1880100D03*
X6436400Y-1425400D03*
X6515000Y-1120000D03*
X6487300Y-1375400D03*
X6436000Y-1325400D03*
X6545000Y-885000D03*
X6430000Y-855000D03*
X6874900Y-1962800D03*
X6760000Y-1720000D03*
X6840000D03*
X6760000Y-1650000D03*
Y-1590000D03*
X6840000Y-1650000D03*
Y-1590000D03*
X6826100Y-1035100D03*
X7240000Y-2650000D03*
Y-2425000D03*
X7170000Y-1550000D03*
Y-1620000D03*
X7080000Y-1490000D03*
X7026100Y-977300D03*
X6976100Y-1035100D03*
X7387300Y-2525000D03*
X7305000D03*
X7367300Y-2620000D03*
Y-2720000D03*
X7260000Y-2240000D03*
X7480000Y-2330000D03*
X7510000Y-2240000D03*
X7455000Y-1930000D03*
X7300000Y-1845000D03*
X7410000Y-1195420D03*
X7415000Y-1324800D03*
X7265000Y-647300D03*
X7362300D03*
X7480000Y-710000D03*
X7330000Y-755000D03*
X7340000Y-835000D03*
X7260000Y-280000D03*
X7660000Y-2720000D03*
X7720000Y-2300000D03*
X7700000Y-2140000D03*
X7520000Y-1748000D03*
X7619000Y-1737300D03*
X7745000Y-1422700D03*
X7624800Y-1474800D03*
X7520000Y-870000D03*
X7614000Y-765000D03*
X7660000Y-440000D03*
X7565000Y-415000D03*
X7810000Y-2720000D03*
X7852700Y-2250000D03*
X8000000Y-1737300D03*
X7875000Y-1422300D03*
Y-1645000D03*
X8022300Y-1595000D03*
X8000000Y-1522120D03*
X7905000Y-1042700D03*
X7942300Y-1097300D03*
X8147300Y-2660000D03*
X8150000Y-2173400D03*
X8282300Y-1525000D03*
Y-1380000D03*
X8270000Y-990000D03*
X8442030Y-1153500D03*
X8520400Y-1247400D03*
Y-922400D03*
X8345000Y-990000D03*
X8530000Y-820000D03*
X8385000Y-595000D03*
X8460000Y-680000D03*
Y-510000D03*
X8710000Y-2315000D03*
X8745000Y-2400000D03*
X8700000Y-2210000D03*
Y-2010000D03*
Y-2110000D03*
Y-1685000D03*
Y-1815000D03*
Y-1915000D03*
X8730000Y-1380000D03*
X8740000Y-1605000D03*
G54D12*
X290000Y-610000D03*
X390000D03*
X290000Y-810000D03*
X390000D03*
X570000Y-510000D03*
X670000D03*
Y-310000D03*
X930000Y-2680000D03*
X910000Y-310000D03*
X770000D03*
X1030000Y-2680000D03*
X1010000Y-310000D03*
X2550000Y-1190000D03*
Y-1025000D03*
X2650000Y-1190000D03*
Y-1025000D03*
X2870000Y-580000D03*
X2770000D03*
X3360000Y-2690000D03*
X3460000D03*
X4250000Y-330000D03*
X4350000D03*
X5030000Y-2670000D03*
X5040000Y-2260000D03*
X5030000Y-2050000D03*
Y-1650000D03*
X5025000Y-1505000D03*
Y-1350000D03*
X5030000Y-970000D03*
X5130000Y-2670000D03*
X5140000Y-2260000D03*
X5130000Y-2050000D03*
Y-1650000D03*
X5125000Y-1505000D03*
Y-1350000D03*
X5130000Y-970000D03*
X6040000Y-2350000D03*
X6140000D03*
X6090000Y-590000D03*
X5990000D03*
X6270000Y-2180000D03*
X6370000D03*
X6270000Y-2030000D03*
X6370000D03*
X6390000Y-736000D03*
X6290000D03*
X6670000Y-2630000D03*
X6570000D03*
X6670000Y-2440000D03*
X6570000D03*
X6595000Y-565000D03*
X6695000D03*
Y-335000D03*
X6595000D03*
X6875000Y-785000D03*
X6775000D03*
X7430000Y-2240000D03*
X7330000D03*
X8460000Y-595000D03*
X8560000D03*
G54D21*
X4430000Y-2660000D03*
X4760000D03*
X8540600Y-2351700D03*
Y-1646700D03*
G54D30*
X6150000Y-900000D03*
X6290000Y-1010000D03*
X6486700Y-1930400D03*
X7430000Y-1050000D03*
G54D13*
X1390000Y-2525000D03*
Y-1750000D03*
Y-1250000D03*
Y-475000D03*
X3810000Y-2525000D03*
Y-1750000D03*
Y-1250000D03*
Y-475000D03*
G54D31*
X6670000Y-2740000D03*
X6535600D03*
X6590000D03*
X6724400D03*
G54D22*
X5050000Y-2470000D03*
Y-2430000D03*
X5040000Y-1850000D03*
Y-1810000D03*
Y-1200000D03*
Y-1160000D03*
X5130000Y-2470000D03*
X5090000D03*
X5130000Y-2430000D03*
X5090000D03*
X5120000Y-1850000D03*
X5080000D03*
X5120000Y-1810000D03*
X5080000D03*
X5120000Y-1200000D03*
X5080000D03*
X5120000Y-1160000D03*
X5080000D03*
G54D40*
X8283300Y-2173400D03*
Y-2123400D03*
Y-2073400D03*
Y-2023400D03*
Y-1973400D03*
Y-1923400D03*
Y-1873400D03*
Y-1823400D03*
G54D50*
G01X290000Y-810000D02*
Y-870000D01*
X250000Y-910000D01*
G01X390000Y-810000D02*
X735000D01*
X745000Y-820000D01*
X770000D01*
G01X2360000Y-1950000D02*
Y-1835000D01*
G02X2395000Y-1800000I35000J0D01*
G01X2758930D01*
G02X2811970Y-1821970I0J-75010D01*
G01X2870000Y-1880000D01*
G01X5030000Y-2670000D02*
X4950000D01*
G01X5030000D02*
Y-2601650D01*
G03X5021760Y-2581760I-28126J0D01*
G01X5018240Y-2578240D01*
G02X5010000Y-2558350I19886J19890D01*
G01Y-2510000D01*
G01D02*
X5050000Y-2470000D01*
G01Y-2430000D02*
X5020000Y-2400000D01*
G02Y-2345200I27400J27400D01*
G01X5021760Y-2343440D01*
G03X5040000Y-2299410I-44023J44030D01*
G01Y-2260000D01*
G01X5030000Y-2050000D02*
X4950000D01*
G01X5030000D02*
Y-1988720D01*
G03X5016760Y-1956760I-45194J0D01*
G01X5013240Y-1953240D01*
G02X5000000Y-1921280I31954J31960D01*
G01Y-1890000D01*
G01X4950000Y-2050000D02*
X4870000D01*
G03X4845000Y-2075000I0J-25000D01*
G01Y-2125000D01*
G01X5040000Y-1810000D02*
X5012630Y-1782630D01*
G02Y-1732570I25030J25030D01*
G01X5014390Y-1730810D01*
G03X5030000Y-1693130I-37672J37680D01*
G01Y-1650000D01*
G01X5025000Y-1505000D02*
X4961070D01*
G03X4908030Y-1526970I0J-75010D01*
G01X4861970Y-1573030D01*
G03X4840000Y-1626070I53040J-53040D01*
G01Y-1748930D01*
G03X4861970Y-1801970I75010J0D01*
G01X4934090Y-1874090D01*
G03X4972500Y-1890000I38410J38410D01*
G01X5000000D01*
G01D02*
X5040000Y-1850000D01*
G01X5025000Y-1350000D02*
Y-1298020D01*
G03X5015650Y-1275450I-31916J0D01*
G01X5002780Y-1262580D01*
Y-1237220D01*
X5040000Y-1200000D01*
G01Y-1160000D02*
X5010000Y-1130000D01*
G02Y-1055200I37400J37400D01*
G01X5011760Y-1053440D01*
G03X5030000Y-1009410I-44023J44030D01*
G01Y-970000D01*
G01X5450000Y-2630000D02*
G03X5380000Y-2560000I-70000J0D01*
G01X5132500D01*
G02X5090000Y-2517500I0J42500D01*
G01Y-2470000D01*
G01X5450000Y-2240000D02*
Y-2320000D01*
G02X5420000Y-2350000I-30000J0D01*
G01X5155790D01*
G03X5111760Y-2368240I0J-62263D01*
G01X5090000Y-2390000D01*
Y-2430000D01*
G01X5350000Y-1950000D02*
X5120000D01*
G02X5080000Y-1910000I0J40000D01*
G01Y-1850000D01*
G01X5450000Y-1610000D02*
Y-1693740D01*
G02X5440410Y-1716890I-32737J0D01*
G01X5436890Y-1720410D01*
G02X5413740Y-1730000I-23150J23147D01*
G01X5128720D01*
G03X5096760Y-1743240I0J-45194D01*
G01X5080000Y-1760000D01*
Y-1810000D01*
G01X5450000Y-1400000D02*
Y-1322300D01*
G03X5392700Y-1265000I-57300J0D01*
G01X5106300D01*
G02X5080000Y-1238700I0J26300D01*
G01Y-1200000D01*
G01Y-1160000D02*
Y-1100000D01*
G02X5116350Y-1063650I36350J0D01*
G01X5424050D01*
G03X5450000Y-1037700I0J25950D01*
G01Y-960000D01*
G01Y-2680000D02*
Y-2630000D01*
G01Y-2050000D02*
Y-1950000D01*
G01D02*
X5350000D01*
G01X6290000Y-736000D02*
Y-825000D01*
G01X6579800Y-1880100D02*
X6634900Y-1825000D01*
X6655000D01*
X6666710Y-1836710D01*
G02X6674900Y-1856480I-19767J-19770D01*
G01Y-1880100D01*
G01X6775000Y-785000D02*
X6645000D01*
X6545000Y-885000D01*
G01X7610000Y-610000D02*
Y-661020D01*
X7561020Y-710000D01*
X7480000D01*
G01X7440000Y-250000D02*
X7545000D01*
X7560000Y-265000D01*
Y-300000D01*
G01X7660000Y-610000D02*
Y-440000D01*
G01Y-300000D02*
Y-440000D01*
G01X7610000Y-300000D02*
Y-340680D01*
G02X7589260Y-390740I-70798J5D01*
G01X7565000Y-415000D01*
G01X7850000Y-250000D02*
X7730000D01*
X7710000Y-270000D01*
Y-300000D01*
G01X8555000Y-2075000D02*
X8480000D01*
X8431600Y-2123400D01*
X8283300D01*
G01X8150000Y-2173400D02*
X8283300D01*
G01D02*
X8390000D01*
G01X8283300Y-2073400D02*
X8390000D01*
G54D14*
X1810000Y-310000D03*
X2190000D03*
X2900000D03*
X3320000D03*
G54D32*
X6674900Y-1880100D03*
X6676100Y-1117800D03*
X6924900Y-1880100D03*
X6874900D03*
X6824900D03*
X6774900D03*
X6724900D03*
X6926100Y-1117800D03*
X6876100D03*
X6826100D03*
X6776100D03*
X6726100D03*
X7224900Y-1880100D03*
X7174900D03*
X7124900D03*
X7074900D03*
X7024900D03*
X6974900D03*
X7226100Y-1117800D03*
X7176100D03*
X7126100D03*
X7076100D03*
X7026100D03*
X6976100D03*
G54D41*
X8345830Y-1153500D03*
Y-828500D03*
X8616600Y-1247400D03*
Y-1055900D03*
Y-922400D03*
Y-730900D03*
G54D23*
X4845000Y-770000D03*
Y-675000D03*
Y-580000D03*
X5110000Y-770000D03*
Y-675000D03*
Y-580000D03*
X6870000Y-2630000D03*
Y-2440000D03*
X7110000Y-2535000D03*
Y-2630000D03*
Y-2440000D03*
X7480000Y-2620000D03*
Y-2525000D03*
Y-2430000D03*
X7720000Y-2620000D03*
Y-2430000D03*
G54D51*
G01X7430000Y-1050000D02*
Y-1109060D01*
X7515000Y-1194060D01*
Y-1315000D01*
X7455200Y-1374800D01*
X7332300D01*
G54D42*
G01X2703290Y-2049690D02*
X2616180Y-1962580D01*
G03X2573740Y-1945000I-42440J-42437D01*
G01X2494860D01*
G03X2452420Y-1962580I0J-60017D01*
G01X2382580Y-2032420D01*
G02X2340140Y-2050000I-42440J42437D01*
G01X1832700D01*
G01X2420000Y-2335000D02*
Y-2385000D01*
X2395000Y-2410000D01*
X2320000D01*
G01X2470000Y-2335000D02*
Y-2400780D01*
G02X2449340Y-2450660I-70543J0D01*
G01X2435000Y-2465000D01*
X2380000D01*
G01X5010000Y-2510000D02*
X4960500D01*
G02X4920000Y-2469500I0J40500D01*
G01Y-2449860D01*
G03X4902420Y-2407420I-60017J0D01*
G01X4869650Y-2374650D01*
G02X4845000Y-2315140I59509J59510D01*
G01Y-2225000D01*
G01X5840000Y-2525000D02*
Y-2542000D01*
G03X5849200Y-2564200I31398J5D01*
G01X5880000Y-2595000D01*
Y-2609500D01*
G01X6040000Y-2350000D02*
X5965000D01*
G01X5990000Y-590000D02*
Y-690000D01*
G01X6350000Y-2385000D02*
X6434200D01*
G03X6476640Y-2367420I0J60017D01*
G01X6491480Y-2352580D01*
G02X6533920Y-2335000I42440J-42437D01*
G01X6719320D01*
G02X6746090Y-2346090I0J-37855D01*
G01X6748910Y-2348910D01*
G03X6775680Y-2360000I26770J26765D01*
G01X7260140D01*
G02X7302580Y-2377580I0J-60017D01*
G01X7337420Y-2412420D01*
G03X7379860Y-2430000I42440J42437D01*
G01X7480000D01*
G01X6625000Y-2775000D02*
X6660000Y-2740000D01*
X6670000D01*
G01X6590000D02*
X6625000Y-2775000D01*
G01X6535600Y-2740000D02*
Y-2714400D01*
X6570000Y-2680000D01*
Y-2630000D01*
G01X6750000Y-2440000D02*
Y-2599060D01*
X6719060Y-2630000D01*
X6670000D01*
G01X6870000D02*
X6830000D01*
X6790000Y-2670000D01*
Y-2720000D01*
X6770000Y-2740000D01*
X6724400D01*
G01X6695000Y-335000D02*
Y-345000D01*
X6732420Y-382420D01*
G02X6750000Y-424860I-42437J-42440D01*
G01Y-475140D01*
G02X6732420Y-517580I-60017J0D01*
G01X6695000Y-555000D01*
Y-565000D01*
G01X7110000Y-2630000D02*
X7207850D01*
G02X7228590Y-2638590I0J-29333D01*
G01X7240000Y-2650000D01*
G01X7110000Y-2440000D02*
X7225000D01*
X7240000Y-2425000D01*
G01X7332300Y-1524800D02*
X7404800D01*
G01X7332300Y-1574800D02*
X7455000D01*
G01X7332300Y-1424800D02*
X7424800D01*
G01X7780000Y-2300000D02*
X7720000D01*
G01X7746000Y-1300000D02*
Y-1404000D01*
X7745000Y-1405000D01*
Y-1422700D01*
G01X7780000Y-2245600D02*
X7848300D01*
X7852700Y-2250000D01*
G01X7873000Y-1300000D02*
Y-1413000D01*
X7875000Y-1415000D01*
Y-1422300D01*
G01X8000000Y-1300000D02*
Y-1522120D01*
G54D24*
X5120000Y-290000D03*
Y-430000D03*
G54D33*
X6570000Y-1675400D03*
Y-1725400D03*
Y-1775400D03*
Y-1425400D03*
Y-1475400D03*
Y-1525400D03*
Y-1575400D03*
Y-1625400D03*
Y-1225400D03*
Y-1275400D03*
Y-1325400D03*
Y-1375400D03*
X7332300Y-1724800D03*
Y-1674800D03*
Y-1774800D03*
Y-1624800D03*
Y-1574800D03*
Y-1524800D03*
Y-1474800D03*
Y-1424800D03*
Y-1374800D03*
Y-1324800D03*
Y-1274800D03*
Y-1224800D03*
G54D15*
X2241700Y-2592300D03*
X2946700D03*
G54D52*
G01X5120000Y-2050000D02*
X5130000D01*
G01X5450000D02*
Y-2060000D01*
G01X6625000Y-2775000D02*
Y-2780000D01*
G01X6640000Y-2290000D02*
Y-2235790D01*
G02X6651160Y-2208840I38120J0D01*
G01X6718840Y-2141160D01*
G02X6745790Y-2130000I26950J-26960D01*
G01X6769210D01*
G03X6796160Y-2118840I0J38120D01*
G01X6913840Y-2001160D01*
G03X6925000Y-1974210I-26960J26950D01*
G01Y-1934260D01*
X6924900Y-1934160D01*
Y-1880100D01*
G01X6460000Y-2290000D02*
Y-2255790D01*
G02X6471160Y-2228840I38120J0D01*
G01X6673840Y-2026160D01*
G02X6700790Y-2015000I26950J-26960D01*
G01X6719210D01*
G03X6746160Y-2003840I0J38120D01*
G01X6763740Y-1986260D01*
G03X6774900Y-1959310I-26960J26950D01*
G01Y-1880100D01*
G01X6520000Y-2290000D02*
Y-2271700D01*
G02X6531150Y-2244790I38048J0D01*
G01X6541620Y-2234320D01*
G02X6546160Y-2228840I31497J-21474D01*
G01X6698840Y-2076160D01*
G02X6725790Y-2065000I26950J-26960D01*
G01X6749210D01*
G03X6776160Y-2053840I0J38120D01*
G01X6813740Y-2016260D01*
G03X6824900Y-1989310I-26960J26950D01*
G01Y-1880100D01*
G01X6855000Y-2290000D02*
Y-2271700D01*
G02X6866150Y-2244790I38048J0D01*
G01X6959780Y-2151160D01*
G02X6986730Y-2140000I26950J-26960D01*
G01X7084210D01*
G03X7111160Y-2128840I0J38120D01*
G01X7163740Y-2076260D01*
G03X7174900Y-2049310I-26960J26950D01*
G01Y-1880100D01*
G01X6785000Y-2290000D02*
Y-2270790D01*
G02X6796160Y-2243840I38120J0D01*
G01X6938840Y-2101160D01*
G02X6965790Y-2090000I26950J-26960D01*
G01X7054210D01*
G03X7081160Y-2078840I0J38120D01*
G01X7113740Y-2046260D01*
G03X7124900Y-2019310I-26960J26950D01*
G01Y-1880100D01*
G01X6950000Y-2290000D02*
Y-2265790D01*
G02X6961160Y-2238840I38120J0D01*
G01X6993840Y-2206160D01*
G02X7020790Y-2195000I26950J-26960D01*
G01X7094210D01*
G03X7121160Y-2183840I0J38120D01*
G01X7213740Y-2091260D01*
G03X7224900Y-2064310I-26960J26950D01*
G01Y-1880100D01*
G01X6692500Y-2287500D02*
Y-2248290D01*
G02X6703660Y-2221340I38120J0D01*
G01X6728840Y-2196160D01*
G02X6755790Y-2185000I26950J-26960D01*
G01X6779210D01*
G03X6806160Y-2173840I0J38120D01*
G01X6928840Y-2051160D01*
G02X6955790Y-2040000I26950J-26960D01*
G01X7036800D01*
G03X7074900Y-2001900I0J38100D01*
G01Y-1880100D01*
G01X7332300Y-1774800D02*
X7379930D01*
G02X7392860Y-1780160I-5J-18288D01*
G01X7394640Y-1781940D01*
G02X7400000Y-1794870I-12928J-12935D01*
G01Y-1844210D01*
G02X7388840Y-1871160I-38120J0D01*
G01X7301160Y-1958840D01*
G03X7290000Y-1985790I26960J-26950D01*
G01Y-2074210D01*
G02X7278840Y-2101160I-38120J0D01*
G01X7151160Y-2228840D01*
G02X7124210Y-2240000I-26950J26960D01*
G01X7057630D01*
G03X7015000Y-2282630I0J-42630D01*
G01Y-2290000D01*
G01X7024900Y-1880100D02*
Y-1985000D01*
G01X6974900Y-1880100D02*
Y-1945000D01*
G01X7226100Y-985000D02*
Y-1097300D01*
G01X7332300Y-1274800D02*
X7450200D01*
G01X7710000Y-610000D02*
Y-585790D01*
G02X7721160Y-558840I38120J0D01*
G01X7740000Y-540000D01*
G01X7560000Y-610000D02*
Y-577820D01*
G03X7550050Y-553800I-33968J0D01*
G01X7538310Y-542060D01*
G54D43*
G01X4940000Y-1400000D02*
Y-1360940D01*
X4950940Y-1350000D01*
X5025000D01*
G01D02*
Y-1401390D01*
G03X5031090Y-1416090I20786J0D01*
G01X5033910Y-1418910D01*
G03X5048610Y-1425000I14700J14696D01*
G01X5087000D01*
G02X5125000Y-1463000I0J-38000D01*
G01Y-1505000D01*
G01X6235000Y-2305000D02*
X6185000D01*
X6140000Y-2350000D01*
G01X6350000Y-2710000D02*
X6250000D01*
G01X6570000Y-2440000D02*
X6470000D01*
G03X6430000Y-2480000I0J-40000D01*
G01Y-2680000D01*
G02X6400000Y-2710000I-30000J0D01*
G01X6350000D01*
G54D34*
X6949700Y-1500000D03*
G54D25*
X5450000Y-2680000D03*
Y-2240000D03*
Y-2050000D03*
Y-1610000D03*
Y-1400000D03*
Y-960000D03*
Y-770000D03*
Y-330000D03*
G54D16*
X2420000Y-2335000D03*
X2470000D03*
X2520000D03*
X2570000D03*
X2620000D03*
X2670000D03*
X2720000D03*
X2770000D03*
G54D53*
G01X2511100Y-2500800D02*
Y-2437960D01*
X2520000Y-2429060D01*
Y-2335000D01*
G01X2570000D02*
Y-2401900D01*
G03X2594610Y-2461310I84015J0D01*
G01X2634990Y-2501690D01*
G03X2694400Y-2526300I59410J59405D01*
G01X2770000D01*
G54D44*
G01X5130000Y-2470000D02*
X5146620Y-2486620D01*
G03X5178920Y-2500000I32300J32297D01*
G01X5210000D01*
G01Y-2410000D02*
X5150000D01*
X5130000Y-2430000D01*
G01X5200000Y-1790000D02*
X5140000D01*
X5120000Y-1810000D01*
G01Y-1850000D02*
X5131620Y-1861620D01*
G03X5151850Y-1870000I20230J20228D01*
G01X5200000D01*
G01Y-1130000D02*
X5196270Y-1126270D01*
X5163730D01*
X5130000Y-1160000D01*
X5120000D01*
G01X5200000Y-1210000D02*
X5130000D01*
X5120000Y-1200000D01*
G54D35*
X7080000Y-790000D03*
X7220000D03*
X7780000Y-880000D03*
X7640000D03*
G54D17*
X2518500Y-804170D03*
X2420900Y-533400D03*
X2612400D03*
X6287600Y-586600D03*
X6381500Y-315830D03*
X6479100Y-586600D03*
X6872600D03*
X6966500Y-315830D03*
X7064100Y-586600D03*
G54D26*
X5854000Y-2200000D03*
Y-2010000D03*
Y-2105000D03*
X6114000Y-2200000D03*
Y-2010000D03*
Y-2105000D03*
G54D54*
G01X1390000Y-1250000D02*
X1257270Y-1117270D01*
X1094270D01*
X1006000Y-1029000D01*
Y-671300D01*
X1202300Y-475000D01*
X1390000D01*
G01X3810000Y-1250000D02*
X3970000Y-1090000D01*
Y-635000D01*
X3810000Y-475000D01*
G54D45*
G01X4560000Y-625100D02*
X4376560Y-441660D01*
G02X4350000Y-377550I64108J64116D01*
G01Y-330000D01*
G01X4845000Y-675000D02*
X4640190D01*
G02X4588480Y-653580I0J73127D01*
G01X4560000Y-625100D01*
G01X4970000Y-307500D02*
X5038440D01*
X5055940Y-290000D01*
X5120000D01*
G54D36*
X7440000Y-250000D03*
X7970000Y-2660000D03*
Y-2406000D03*
X8085000Y-630000D03*
Y-310000D03*
X7925000Y-470000D03*
X7850000Y-250000D03*
X8245000Y-470000D03*
G54D18*
X2520000Y-345000D03*
G54D27*
G01X2970000Y-1895000D02*
Y-1744800D01*
G03X2945390Y-1685390I-84015J0D01*
G01X2884610Y-1624610D01*
G03X2825200Y-1600000I-59410J-59405D01*
G01X2774800D01*
G03X2715390Y-1624610I0J-84015D01*
G01X2660000Y-1680000D01*
G01X3200000Y-2600000D02*
Y-2097280D01*
G03X3173630Y-2033630I-90017J-6D01*
G01X3055860Y-1915860D01*
G03X3005500Y-1895000I-50360J-50359D01*
G01X2970000D01*
X5829700Y-1695350D03*
Y-1595350D03*
Y-1495350D03*
Y-1395350D03*
X6129700Y-1695350D03*
X6029700D03*
X5929700D03*
X6129700Y-1595350D03*
X6029700D03*
X5929700D03*
X6129700Y-1495350D03*
X6029700D03*
X5929700D03*
X6129700Y-1395350D03*
X6029700D03*
X5929700D03*
X6129700Y-1295350D03*
X6029700D03*
X5929700D03*
X6229700Y-1695350D03*
Y-1595350D03*
Y-1495350D03*
Y-1395350D03*
Y-1295350D03*
G54D46*
G01X6874900Y-1880100D02*
Y-1962800D01*
G01X6826100Y-1117800D02*
Y-1035100D01*
G01X6976100Y-1117800D02*
Y-1035100D01*
G01X7332300Y-1224800D02*
X7380620D01*
X7410000Y-1195420D01*
G01X7332300Y-1324800D02*
X7415000D01*
G54D37*
X7780000Y-2245600D03*
Y-2300000D03*
G54D19*
X2750000Y-810000D03*
G54D28*
G01X1433300Y-990100D02*
X1466030Y-1022830D01*
G03X1529680Y-1049200I63656J63647D01*
G01X1916050D01*
G02X1988200Y-1121350I0J-72150D01*
G01Y-1199500D01*
G01X1826200Y-647700D02*
Y-733190D01*
G02X1815020Y-760180I-38169J0D01*
G01X1810780Y-764420D01*
G02X1783790Y-775600I-26990J26989D01*
G01X1549400D01*
X1535000Y-790000D01*
X1447300D01*
G01X2770000Y-2335000D02*
Y-2526300D01*
G01D02*
X2812400Y-2568700D01*
G01X2970000Y-1895000D02*
X2720000Y-2145000D01*
Y-2335000D01*
G01X2840000Y-2205000D02*
X2979140Y-2065860D01*
G03X3000000Y-2015500I-50359J50360D01*
G01Y-1980000D01*
G01X4399700Y-1947600D02*
X3942390D01*
G03X3908270Y-1961730I0J-48260D01*
G01X3904030Y-1965970D01*
G02X3869910Y-1980100I-34120J34130D01*
G01X3798700D01*
G01X4212700Y-1050000D02*
X4234820Y-1027880D01*
G02X4277990Y-1010000I43170J-43175D01*
G01X4450560D01*
G02X4556640Y-1053940I0J-150019D01*
G01X4640000Y-1137300D01*
G01X5854000Y-2200000D02*
X5936700D01*
G01X5829700Y-1495350D02*
X5877530Y-1447520D01*
G01X5829700Y-1595350D02*
X5874350Y-1640000D01*
G01X6090000Y-2695000D02*
Y-2765000D01*
G01X5975000Y-2455000D02*
X6010000D01*
X6025000Y-2470000D01*
Y-2510000D01*
G01X5880000Y-2709500D02*
X5965000D01*
G01D02*
X5976440D01*
X5990940Y-2695000D01*
X6025000D01*
G01X6114000Y-2010000D02*
X6031300D01*
G01X6129700Y-1695350D02*
Y-1699710D01*
X6168020Y-1738030D01*
Y-1742280D01*
G01X6350000Y-2485000D02*
Y-2610000D01*
G01D02*
X6215000D01*
X6155000Y-2670000D01*
Y-2695000D01*
G01X6213710Y-2461280D02*
X6212430Y-2460000D01*
X6170000D01*
X6155000Y-2475000D01*
Y-2510000D01*
G01X6229700Y-1695350D02*
X6277100Y-1742750D01*
G01X6340000Y-1700000D02*
X6319850D01*
X6277100Y-1742750D01*
G01X6750000Y-2440000D02*
X6670000D01*
G01X6430000Y-855000D02*
X6568630Y-716370D01*
G03X6595000Y-652720I-63647J63656D01*
G01Y-565000D01*
G01X6870000Y-2440000D02*
X6750000D01*
G01X7480000Y-2620000D02*
X7367300D01*
G01X7480000Y-2430000D02*
Y-2330000D01*
X5765000Y-1440000D03*
X6235000Y-2305000D03*
X6232500Y-2382500D03*
X6625000Y-2780000D03*
X6621030Y-2538970D03*
X6480000Y-2540000D03*
X6537940D03*
X6640000Y-2290000D03*
X6460000D03*
X6520000D03*
X6540000Y-450000D03*
X6460100Y-449990D03*
X6620000Y-450000D03*
X6860000Y-2530000D03*
X6800000D03*
X6936030Y-2533970D03*
X6697940Y-2540000D03*
X6740000Y-2245000D03*
X6855000Y-2290000D03*
X6785000D03*
X6950000D03*
X6692500Y-2287500D03*
X6835000Y-955000D03*
X6712400Y-897910D03*
X6926100Y-980000D03*
X6700000Y-450000D03*
X6860000D03*
X6959090Y-452140D03*
X6800000Y-450000D03*
X7000000Y-2530000D03*
X7015000Y-2290000D03*
X7024900Y-1985000D03*
X6974900Y-1945000D03*
X7217900Y-1220000D03*
X6980000Y-1205000D03*
X7040000D03*
X7076100Y-1035000D03*
X7176100Y-1050000D03*
X7226100Y-985000D03*
X7126100D03*
X7020000Y-450000D03*
X7404800Y-1524800D03*
X7455000Y-1574800D03*
X7424800Y-1424800D03*
X7235600Y-1384400D03*
X7450200Y-1274800D03*
X7740000Y-540000D03*
X7538310Y-542060D03*
X7870000Y-725000D03*
X8160000Y-1740000D03*
Y-1685000D03*
X8175000Y-1823400D03*
X8555000Y-2075000D03*
Y-1930000D03*
X8390000Y-2173400D03*
Y-2073400D03*
X8555000Y-1870000D03*
X8413400Y-1873400D03*
X8386000Y-1923400D03*
G54D47*
G01X6486700Y-1930400D02*
X6058120D01*
G02X6005080Y-1908430I0J75010D01*
G01X5841970Y-1745320D01*
G02X5829700Y-1715700I29617J29620D01*
G01Y-1695350D01*
G01X6570000Y-1725400D02*
X6508870D01*
G03X6455830Y-1747370I0J-75010D01*
G01X6385270Y-1817930D01*
G02X6332230Y-1839900I-53040J53040D01*
G01X6114050D01*
G02X6029700Y-1755550I0J84350D01*
G01Y-1695350D01*
G01X6570000Y-1675400D02*
X6482670D01*
G03X6429630Y-1697370I0J-75010D01*
G01X6351670Y-1775330D01*
G02X6298630Y-1797300I-53040J53040D01*
G01X6131600D01*
G02X6076900Y-1742600I0J54700D01*
G01Y-1673620D01*
G03X6054930Y-1620580I-75010J0D01*
G01X6029700Y-1595350D01*
G01X6570000Y-1775400D02*
X6530870D01*
G03X6477830Y-1797370I0J-75010D01*
G01X6407170Y-1868030D01*
G02X6354130Y-1890000I-53040J53040D01*
G01X6101070D01*
G02X6048030Y-1868030I0J75010D01*
G01X5947860Y-1767860D01*
G02X5929700Y-1724020I43837J43840D01*
G01Y-1695350D01*
G01X6570000Y-1525400D02*
X6343130D01*
G03X6328060Y-1531640I0J-21318D01*
G01X6325940Y-1533760D01*
G02X6310870Y-1540000I-15070J15078D01*
G01X6016120D01*
G03X5963080Y-1561970I0J-75010D01*
G01X5929700Y-1595350D01*
G01X6570000Y-1625400D02*
X6424980D01*
G03X6404360Y-1633940I0J-29164D01*
G01X6402240Y-1636060D01*
G02X6381620Y-1644600I-20620J20624D01*
G01X6210020D01*
G02X6156980Y-1622630I0J75010D01*
G01X6129700Y-1595350D01*
G01X6570000Y-1275400D02*
X6405370D01*
G03X6352330Y-1297370I0J-75010D01*
G01X6327770Y-1321930D01*
G02X6274730Y-1343900I-53040J53040D01*
G01X6096100D01*
G03X6074700Y-1365300I0J-21400D01*
G01Y-1420030D01*
G02X6053260Y-1471790I-73199J0D01*
G01X6029700Y-1495350D01*
G01X6570000Y-1475400D02*
X6364820D01*
G02X6328260Y-1460260I0J51712D01*
G01X6326140Y-1458140D01*
G03X6289580Y-1443000I-36560J-36572D01*
G01X6213120D01*
G03X6160080Y-1464970I0J-75010D01*
G01X6129700Y-1495350D01*
G01Y-1295350D02*
X6202530Y-1222520D01*
G01X6570000Y-1575400D02*
X6393200D01*
G03X6371670Y-1584320I0J-30443D01*
G01X6369560Y-1586430D01*
G02X6348030Y-1595350I-21530J21523D01*
G01X6229700D01*
G01X6570000Y-1225400D02*
X6499800D01*
X6496920Y-1222520D01*
X6202530D01*
G01X6724900Y-1880100D02*
Y-1930070D01*
G02X6683070Y-1971900I-41830J0D01*
G01X6556050D01*
G02X6508510Y-1952210I0J67236D01*
G01X6486700Y-1930400D01*
G01X6570000Y-1425400D02*
X6436400D01*
G01X6570000Y-1375400D02*
X6487300D01*
G01X6570000Y-1325400D02*
X6436000D01*
G01X6876100Y-1117800D02*
Y-1014740D01*
G03X6862910Y-982910I-45017J-7D01*
G01X6835000Y-955000D01*
G01X6712400Y-897910D02*
X6762910Y-948420D01*
G02X6776100Y-980250I-31827J-31837D01*
G01Y-1117800D01*
G01X6926100Y-980000D02*
Y-1117800D01*
G01X7026100D02*
Y-977300D01*
G01X7076100Y-1035000D02*
Y-1117800D01*
G01X7176100D02*
Y-1050000D01*
G01X7226100Y-1097300D02*
Y-1117800D01*
G01X7126100Y-985000D02*
Y-1117800D01*
G54D29*
X6090000Y-2695000D03*
X6025000D03*
Y-2510000D03*
X6155000Y-2695000D03*
Y-2510000D03*
G54D38*
X7619000Y-1860000D03*
X7746000D03*
X7619000Y-1300000D03*
X7746000D03*
X7873000Y-1860000D03*
X8000000D03*
X7873000Y-1300000D03*
X8000000D03*
G54D48*
G01X3460000Y-2690000D02*
X3595290D01*
G03X3680150Y-2654850I0J120011D01*
G01X3810000Y-2525000D01*
G54D39*
X7710000Y-610000D03*
X7660000D03*
X7610000D03*
X7560000D03*
X7710000Y-300000D03*
X7660000D03*
X7610000D03*
X7560000D03*
G54D49*
G01X1147300Y-2145000D02*
X1665110D01*
G02X1699060Y-2159060I0J-48019D01*
G01X1705940Y-2165940D01*
G03X1739890Y-2180000I33950J33959D01*
G01X2472450D01*
G02X2493870Y-2188870I0J-30298D01*
G01X2496130Y-2191130D01*
G03X2517550Y-2200000I21420J21428D01*
G01X2595000D01*
G02X2620000Y-2225000I0J-25000D01*
G01Y-2335000D01*
G01X1590000Y-2050000D02*
X1680110D01*
G02X1714060Y-2064060I0J-48019D01*
G01X1765940Y-2115940D01*
G03X1799890Y-2130000I33950J33959D01*
G01X2498920D01*
G02X2526370Y-2141370I0J-38821D01*
G01X2528630Y-2143630D01*
G03X2556080Y-2155000I27450J27451D01*
G01X2625000D01*
X2670000Y-2200000D01*
Y-2335000D01*
G01X5929700Y-1395350D02*
X5956260Y-1368790D01*
G03X5979700Y-1312210I-56567J56580D01*
G01Y-1168440D01*
G02X6003140Y-1111860I80007J0D01*
G01X6028150Y-1086850D01*
G03X6050000Y-1034100I-52749J52750D01*
G01Y-1030900D01*
G02X6071850Y-978150I74599J0D01*
G01X6150000Y-900000D01*
G01X6088650Y-1198650D02*
X6105450Y-1181850D01*
G03X6120000Y-1146730I-35110J35120D01*
G01Y-1090000D01*
G02X6200000Y-1010000I80000J0D01*
G01X6290000D01*
G01X6029700Y-1295350D02*
Y-1274880D01*
G02X6041920Y-1245380I41718J0D01*
G01X6088650Y-1198650D01*
G01X6676100Y-1117800D02*
Y-1047600D01*
G03X6638500Y-1010000I-37600J0D01*
G01X6290000D01*
G01X6726100Y-1117800D02*
Y-1041800D01*
G03X6639300Y-955000I-86800J0D01*
G01X6423900D01*
G02X6374560Y-934560I0J69771D01*
G01X6353870Y-913870D01*
G03X6320380Y-900000I-33490J-33497D01*
G01X6150000D01*
G01X7520000Y-1748000D02*
X7452810D01*
G02X7427530Y-1737530I0J35755D01*
G01X7425270Y-1735270D01*
G03X7399990Y-1724800I-25280J-25285D01*
G01X7332300D01*
G01X7746000Y-1860000D02*
Y-1750940D01*
X7745000Y-1749940D01*
Y-1740000D01*
X7693860Y-1688860D01*
G03X7659910Y-1674800I-33950J-33959D01*
G01X7332300D01*
G01X8000000Y-1522120D02*
X7737770D01*
G03X7703820Y-1536180I0J-48019D01*
G01X7629260Y-1610740D01*
G02X7595310Y-1624800I-33950J33959D01*
G01X7332300D01*
G01Y-1474800D02*
X7624800D01*
G01X8283300Y-2023400D02*
X8191490D01*
G03X8157540Y-2037460I0J-48019D01*
G01X8134060Y-2060940D01*
G02X8100110Y-2075000I-33950J33959D01*
G01X7639890D01*
G02X7605940Y-2060940I0J48019D01*
G01X7534060Y-1989060D01*
G02X7520000Y-1955110I33959J33950D01*
G01Y-1748000D01*
G01X7746000Y-1860000D02*
Y-1970700D01*
G03X7785300Y-2010000I39300J0D01*
G01X8045110D01*
G03X8079060Y-1995940I0J48019D01*
G01X8137540Y-1937460D01*
G02X8171490Y-1923400I33950J-33959D01*
G01X8283300D01*
G01X7619000Y-1860000D02*
Y-1737300D01*
G01X8022300Y-1595000D02*
Y-1637700D01*
G02X8000700Y-1659300I-21600J0D01*
G01X7982890D01*
G03X7948940Y-1673360I0J-48019D01*
G01X7887060Y-1735240D01*
G03X7873000Y-1769190I33959J-33950D01*
G01Y-1860000D01*
G01X8283300Y-1823400D02*
X8175000D01*
G01X8283300Y-1873400D02*
X8413400D01*
G01X8283300Y-1923400D02*
X8386000D01*
M02*
